<?xml version="1.0" standalone="no"?>
 <!DOCTYPE svg PUBLIC "-//W3C//DTD SVG 1.1//EN" 
 "http://www.w3.org/Graphics/SVG/1.1/DTD/svg11.dtd"> 
<svg
  xmlns:svg="http://www.w3.org/2000/svg"
  xmlns="http://www.w3.org/2000/svg"
  xmlns:xlink="http://www.w3.org/1999/xlink"
  version="1.1"
  width="297.0022mm" height="210.0072mm" viewBox="0.0000 0.0000 297.0022 210.0072">
<title>SVG Image created as MainBoard-Mechanic.svg date 2025/12/31 18:09:15 </title>
  <desc>Image generated by Eeschema-SVG </desc>
<g style="fill:#000000; fill-opacity:1.0000;stroke:#000000; stroke-opacity:1.0000;
stroke-linecap:round; stroke-linejoin:round;"
 transform="translate(0 0) scale(1 1)">
</g>
<g style="fill:#F5F4EF; fill-opacity:1.0000; 
stroke:#F5F4EF; stroke-width:0.0001; stroke-opacity:1; 
stroke-linecap:round; stroke-linejoin:round;">
<rect x="0.000000" y="0.000000" width="297.002200" height="210.007200" rx="0.000000" />
</g>
<g style="fill:none; 
stroke:#840000; stroke-width:0.1524; stroke-opacity:1; 
stroke-linecap:round; stroke-linejoin:round;">
<path d="M177.0022 166.0072
L285.0022 166.0072
L285.0022 198.0072
L177.0022 198.0072
L177.0022 166.0072
" />
<path d="M10.0000 10.0000
L287.0022 10.0000
L287.0022 200.0072
L10.0000 200.0072
L10.0000 10.0000
" />
<path d="M12.0000 12.0000
L285.0022 12.0000
L285.0022 198.0072
L12.0000 198.0072
L12.0000 12.0000
" />
<path d="M60.0000 12.0000
L60.0000 10.0000
" />
<path d="M110.0000 12.0000
L110.0000 10.0000
" />
<path d="M160.0000 12.0000
L160.0000 10.0000
" />
<path d="M210.0000 12.0000
L210.0000 10.0000
" />
<path d="M260.0000 12.0000
L260.0000 10.0000
" />
<text x="35.0000" y="11.6500"
textLength="1.4353" font-size="1.7333" lengthAdjust="spacingAndGlyphs"
text-anchor="start" opacity="0" stroke-opacity="0">1</text>
<g class="stroked-text"><desc>1</desc>
<path d="M36.0906 11.5935
L35.3478 11.5935
" />
<path d="M35.7192 11.5935
L35.7192 10.2935
" />
<path d="M35.7192 10.2935
L35.5954 10.4792
" />
<path d="M35.5954 10.4792
L35.4716 10.6030
" />
<path d="M35.4716 10.6030
L35.3478 10.6649
" />
</g><text x="85.0000" y="11.6500"
textLength="1.4353" font-size="1.7333" lengthAdjust="spacingAndGlyphs"
text-anchor="start" opacity="0" stroke-opacity="0">2</text>
<g class="stroked-text"><desc>2</desc>
<path d="M85.3478 10.4173
L85.4097 10.3554
" />
<path d="M85.4097 10.3554
L85.5335 10.2935
" />
<path d="M85.5335 10.2935
L85.8430 10.2935
" />
<path d="M85.8430 10.2935
L85.9668 10.3554
" />
<path d="M85.9668 10.3554
L86.0287 10.4173
" />
<path d="M86.0287 10.4173
L86.0906 10.5411
" />
<path d="M86.0906 10.5411
L86.0906 10.6649
" />
<path d="M86.0906 10.6649
L86.0287 10.8506
" />
<path d="M86.0287 10.8506
L85.2859 11.5935
" />
<path d="M85.2859 11.5935
L86.0906 11.5935
" />
</g><text x="135.0000" y="11.6500"
textLength="1.4353" font-size="1.7333" lengthAdjust="spacingAndGlyphs"
text-anchor="start" opacity="0" stroke-opacity="0">3</text>
<g class="stroked-text"><desc>3</desc>
<path d="M135.2859 10.2935
L136.0906 10.2935
" />
<path d="M136.0906 10.2935
L135.6573 10.7887
" />
<path d="M135.6573 10.7887
L135.8430 10.7887
" />
<path d="M135.8430 10.7887
L135.9668 10.8506
" />
<path d="M135.9668 10.8506
L136.0287 10.9125
" />
<path d="M136.0287 10.9125
L136.0906 11.0363
" />
<path d="M136.0906 11.0363
L136.0906 11.3458
" />
<path d="M136.0906 11.3458
L136.0287 11.4696
" />
<path d="M136.0287 11.4696
L135.9668 11.5316
" />
<path d="M135.9668 11.5316
L135.8430 11.5935
" />
<path d="M135.8430 11.5935
L135.4716 11.5935
" />
<path d="M135.4716 11.5935
L135.3478 11.5316
" />
<path d="M135.3478 11.5316
L135.2859 11.4696
" />
</g><text x="185.0000" y="11.6500"
textLength="1.4353" font-size="1.7333" lengthAdjust="spacingAndGlyphs"
text-anchor="start" opacity="0" stroke-opacity="0">4</text>
<g class="stroked-text"><desc>4</desc>
<path d="M185.9668 10.7268
L185.9668 11.5935
" />
<path d="M185.6573 10.2316
L185.3478 11.1601
" />
<path d="M185.3478 11.1601
L186.1525 11.1601
" />
</g><text x="235.0000" y="11.6500"
textLength="1.4353" font-size="1.7333" lengthAdjust="spacingAndGlyphs"
text-anchor="start" opacity="0" stroke-opacity="0">5</text>
<g class="stroked-text"><desc>5</desc>
<path d="M236.0287 10.2935
L235.4097 10.2935
" />
<path d="M235.4097 10.2935
L235.3478 10.9125
" />
<path d="M235.3478 10.9125
L235.4097 10.8506
" />
<path d="M235.4097 10.8506
L235.5335 10.7887
" />
<path d="M235.5335 10.7887
L235.8430 10.7887
" />
<path d="M235.8430 10.7887
L235.9668 10.8506
" />
<path d="M235.9668 10.8506
L236.0287 10.9125
" />
<path d="M236.0287 10.9125
L236.0906 11.0363
" />
<path d="M236.0906 11.0363
L236.0906 11.3458
" />
<path d="M236.0906 11.3458
L236.0287 11.4696
" />
<path d="M236.0287 11.4696
L235.9668 11.5316
" />
<path d="M235.9668 11.5316
L235.8430 11.5935
" />
<path d="M235.8430 11.5935
L235.5335 11.5935
" />
<path d="M235.5335 11.5935
L235.4097 11.5316
" />
<path d="M235.4097 11.5316
L235.3478 11.4696
" />
</g><text x="285.0000" y="11.6500"
textLength="1.4353" font-size="1.7333" lengthAdjust="spacingAndGlyphs"
text-anchor="start" opacity="0" stroke-opacity="0">6</text>
<g class="stroked-text"><desc>6</desc>
<path d="M285.9668 10.2935
L285.7192 10.2935
" />
<path d="M285.7192 10.2935
L285.5954 10.3554
" />
<path d="M285.5954 10.3554
L285.5335 10.4173
" />
<path d="M285.5335 10.4173
L285.4097 10.6030
" />
<path d="M285.4097 10.6030
L285.3478 10.8506
" />
<path d="M285.3478 10.8506
L285.3478 11.3458
" />
<path d="M285.3478 11.3458
L285.4097 11.4696
" />
<path d="M285.4097 11.4696
L285.4716 11.5316
" />
<path d="M285.4716 11.5316
L285.5954 11.5935
" />
<path d="M285.5954 11.5935
L285.8430 11.5935
" />
<path d="M285.8430 11.5935
L285.9668 11.5316
" />
<path d="M285.9668 11.5316
L286.0287 11.4696
" />
<path d="M286.0287 11.4696
L286.0906 11.3458
" />
<path d="M286.0906 11.3458
L286.0906 11.0363
" />
<path d="M286.0906 11.0363
L286.0287 10.9125
" />
<path d="M286.0287 10.9125
L285.9668 10.8506
" />
<path d="M285.9668 10.8506
L285.8430 10.7887
" />
<path d="M285.8430 10.7887
L285.5954 10.7887
" />
<path d="M285.5954 10.7887
L285.4716 10.8506
" />
<path d="M285.4716 10.8506
L285.4097 10.9125
" />
<path d="M285.4097 10.9125
L285.3478 11.0363
" />
</g><path d="M60.0000 198.0072
L60.0000 200.0072
" />
<path d="M110.0000 198.0072
L110.0000 200.0072
" />
<path d="M160.0000 198.0072
L160.0000 200.0072
" />
<path d="M210.0000 198.0072
L210.0000 200.0072
" />
<path d="M260.0000 198.0072
L260.0000 200.0072
" />
<text x="35.0000" y="199.6572"
textLength="1.4353" font-size="1.7333" lengthAdjust="spacingAndGlyphs"
text-anchor="start" opacity="0" stroke-opacity="0">1</text>
<g class="stroked-text"><desc>1</desc>
<path d="M36.0906 199.6007
L35.3478 199.6007
" />
<path d="M35.7192 199.6007
L35.7192 198.3007
" />
<path d="M35.7192 198.3007
L35.5954 198.4864
" />
<path d="M35.5954 198.4864
L35.4716 198.6102
" />
<path d="M35.4716 198.6102
L35.3478 198.6721
" />
</g><text x="85.0000" y="199.6572"
textLength="1.4353" font-size="1.7333" lengthAdjust="spacingAndGlyphs"
text-anchor="start" opacity="0" stroke-opacity="0">2</text>
<g class="stroked-text"><desc>2</desc>
<path d="M85.3478 198.4245
L85.4097 198.3626
" />
<path d="M85.4097 198.3626
L85.5335 198.3007
" />
<path d="M85.5335 198.3007
L85.8430 198.3007
" />
<path d="M85.8430 198.3007
L85.9668 198.3626
" />
<path d="M85.9668 198.3626
L86.0287 198.4245
" />
<path d="M86.0287 198.4245
L86.0906 198.5483
" />
<path d="M86.0906 198.5483
L86.0906 198.6721
" />
<path d="M86.0906 198.6721
L86.0287 198.8578
" />
<path d="M86.0287 198.8578
L85.2859 199.6007
" />
<path d="M85.2859 199.6007
L86.0906 199.6007
" />
</g><text x="135.0000" y="199.6572"
textLength="1.4353" font-size="1.7333" lengthAdjust="spacingAndGlyphs"
text-anchor="start" opacity="0" stroke-opacity="0">3</text>
<g class="stroked-text"><desc>3</desc>
<path d="M135.2859 198.3007
L136.0906 198.3007
" />
<path d="M136.0906 198.3007
L135.6573 198.7959
" />
<path d="M135.6573 198.7959
L135.8430 198.7959
" />
<path d="M135.8430 198.7959
L135.9668 198.8578
" />
<path d="M135.9668 198.8578
L136.0287 198.9197
" />
<path d="M136.0287 198.9197
L136.0906 199.0435
" />
<path d="M136.0906 199.0435
L136.0906 199.3530
" />
<path d="M136.0906 199.3530
L136.0287 199.4768
" />
<path d="M136.0287 199.4768
L135.9668 199.5388
" />
<path d="M135.9668 199.5388
L135.8430 199.6007
" />
<path d="M135.8430 199.6007
L135.4716 199.6007
" />
<path d="M135.4716 199.6007
L135.3478 199.5388
" />
<path d="M135.3478 199.5388
L135.2859 199.4768
" />
</g><text x="185.0000" y="199.6572"
textLength="1.4353" font-size="1.7333" lengthAdjust="spacingAndGlyphs"
text-anchor="start" opacity="0" stroke-opacity="0">4</text>
<g class="stroked-text"><desc>4</desc>
<path d="M185.9668 198.7340
L185.9668 199.6007
" />
<path d="M185.6573 198.2388
L185.3478 199.1673
" />
<path d="M185.3478 199.1673
L186.1525 199.1673
" />
</g><text x="235.0000" y="199.6572"
textLength="1.4353" font-size="1.7333" lengthAdjust="spacingAndGlyphs"
text-anchor="start" opacity="0" stroke-opacity="0">5</text>
<g class="stroked-text"><desc>5</desc>
<path d="M236.0287 198.3007
L235.4097 198.3007
" />
<path d="M235.4097 198.3007
L235.3478 198.9197
" />
<path d="M235.3478 198.9197
L235.4097 198.8578
" />
<path d="M235.4097 198.8578
L235.5335 198.7959
" />
<path d="M235.5335 198.7959
L235.8430 198.7959
" />
<path d="M235.8430 198.7959
L235.9668 198.8578
" />
<path d="M235.9668 198.8578
L236.0287 198.9197
" />
<path d="M236.0287 198.9197
L236.0906 199.0435
" />
<path d="M236.0906 199.0435
L236.0906 199.3530
" />
<path d="M236.0906 199.3530
L236.0287 199.4768
" />
<path d="M236.0287 199.4768
L235.9668 199.5388
" />
<path d="M235.9668 199.5388
L235.8430 199.6007
" />
<path d="M235.8430 199.6007
L235.5335 199.6007
" />
<path d="M235.5335 199.6007
L235.4097 199.5388
" />
<path d="M235.4097 199.5388
L235.3478 199.4768
" />
</g><text x="285.0000" y="199.6572"
textLength="1.4353" font-size="1.7333" lengthAdjust="spacingAndGlyphs"
text-anchor="start" opacity="0" stroke-opacity="0">6</text>
<g class="stroked-text"><desc>6</desc>
<path d="M285.9668 198.3007
L285.7192 198.3007
" />
<path d="M285.7192 198.3007
L285.5954 198.3626
" />
<path d="M285.5954 198.3626
L285.5335 198.4245
" />
<path d="M285.5335 198.4245
L285.4097 198.6102
" />
<path d="M285.4097 198.6102
L285.3478 198.8578
" />
<path d="M285.3478 198.8578
L285.3478 199.3530
" />
<path d="M285.3478 199.3530
L285.4097 199.4768
" />
<path d="M285.4097 199.4768
L285.4716 199.5388
" />
<path d="M285.4716 199.5388
L285.5954 199.6007
" />
<path d="M285.5954 199.6007
L285.8430 199.6007
" />
<path d="M285.8430 199.6007
L285.9668 199.5388
" />
<path d="M285.9668 199.5388
L286.0287 199.4768
" />
<path d="M286.0287 199.4768
L286.0906 199.3530
" />
<path d="M286.0906 199.3530
L286.0906 199.0435
" />
<path d="M286.0906 199.0435
L286.0287 198.9197
" />
<path d="M286.0287 198.9197
L285.9668 198.8578
" />
<path d="M285.9668 198.8578
L285.8430 198.7959
" />
<path d="M285.8430 198.7959
L285.5954 198.7959
" />
<path d="M285.5954 198.7959
L285.4716 198.8578
" />
<path d="M285.4716 198.8578
L285.4097 198.9197
" />
<path d="M285.4097 198.9197
L285.3478 199.0435
" />
</g><path d="M10.0000 60.0000
L12.0000 60.0000
" />
<path d="M10.0000 110.0000
L12.0000 110.0000
" />
<path d="M10.0000 160.0000
L12.0000 160.0000
" />
<text x="11.0000" y="35.6500"
textLength="1.3115" font-size="1.7333" lengthAdjust="spacingAndGlyphs"
text-anchor="middle" opacity="0" stroke-opacity="0">A</text>
<g class="stroked-text"><desc>A</desc>
<path d="M10.6905 35.2220
L11.3095 35.2220
" />
<path d="M10.5667 35.5935
L11.0000 34.2935
" />
<path d="M11.0000 34.2935
L11.4333 35.5935
" />
</g><text x="11.0000" y="85.6500"
textLength="1.4972" font-size="1.7333" lengthAdjust="spacingAndGlyphs"
text-anchor="middle" opacity="0" stroke-opacity="0">B</text>
<g class="stroked-text"><desc>B</desc>
<path d="M11.0928 84.9125
L11.2785 84.9744
" />
<path d="M11.2785 84.9744
L11.3404 85.0363
" />
<path d="M11.3404 85.0363
L11.4023 85.1601
" />
<path d="M11.4023 85.1601
L11.4023 85.3458
" />
<path d="M11.4023 85.3458
L11.3404 85.4696
" />
<path d="M11.3404 85.4696
L11.2785 85.5316
" />
<path d="M11.2785 85.5316
L11.1547 85.5935
" />
<path d="M11.1547 85.5935
L10.6595 85.5935
" />
<path d="M10.6595 85.5935
L10.6595 84.2935
" />
<path d="M10.6595 84.2935
L11.0928 84.2935
" />
<path d="M11.0928 84.2935
L11.2166 84.3554
" />
<path d="M11.2166 84.3554
L11.2785 84.4173
" />
<path d="M11.2785 84.4173
L11.3404 84.5411
" />
<path d="M11.3404 84.5411
L11.3404 84.6649
" />
<path d="M11.3404 84.6649
L11.2785 84.7887
" />
<path d="M11.2785 84.7887
L11.2166 84.8506
" />
<path d="M11.2166 84.8506
L11.0928 84.9125
" />
<path d="M11.0928 84.9125
L10.6595 84.9125
" />
</g><text x="11.0000" y="135.6500"
textLength="1.4972" font-size="1.7333" lengthAdjust="spacingAndGlyphs"
text-anchor="middle" opacity="0" stroke-opacity="0">C</text>
<g class="stroked-text"><desc>C</desc>
<path d="M11.4023 135.4696
L11.3404 135.5316
" />
<path d="M11.3404 135.5316
L11.1547 135.5935
" />
<path d="M11.1547 135.5935
L11.0309 135.5935
" />
<path d="M11.0309 135.5935
L10.8452 135.5316
" />
<path d="M10.8452 135.5316
L10.7214 135.4077
" />
<path d="M10.7214 135.4077
L10.6595 135.2839
" />
<path d="M10.6595 135.2839
L10.5976 135.0363
" />
<path d="M10.5976 135.0363
L10.5976 134.8506
" />
<path d="M10.5976 134.8506
L10.6595 134.6030
" />
<path d="M10.6595 134.6030
L10.7214 134.4792
" />
<path d="M10.7214 134.4792
L10.8452 134.3554
" />
<path d="M10.8452 134.3554
L11.0309 134.2935
" />
<path d="M11.0309 134.2935
L11.1547 134.2935
" />
<path d="M11.1547 134.2935
L11.3404 134.3554
" />
<path d="M11.3404 134.3554
L11.4023 134.4173
" />
</g><text x="11.0000" y="185.6500"
textLength="1.4972" font-size="1.7333" lengthAdjust="spacingAndGlyphs"
text-anchor="middle" opacity="0" stroke-opacity="0">D</text>
<g class="stroked-text"><desc>D</desc>
<path d="M10.6595 185.5935
L10.6595 184.2935
" />
<path d="M10.6595 184.2935
L10.9690 184.2935
" />
<path d="M10.9690 184.2935
L11.1547 184.3554
" />
<path d="M11.1547 184.3554
L11.2785 184.4792
" />
<path d="M11.2785 184.4792
L11.3404 184.6030
" />
<path d="M11.3404 184.6030
L11.4023 184.8506
" />
<path d="M11.4023 184.8506
L11.4023 185.0363
" />
<path d="M11.4023 185.0363
L11.3404 185.2839
" />
<path d="M11.3404 185.2839
L11.2785 185.4077
" />
<path d="M11.2785 185.4077
L11.1547 185.5316
" />
<path d="M11.1547 185.5316
L10.9690 185.5935
" />
<path d="M10.9690 185.5935
L10.6595 185.5935
" />
</g><path d="M287.0022 60.0000
L285.0022 60.0000
" />
<path d="M287.0022 110.0000
L285.0022 110.0000
" />
<path d="M287.0022 160.0000
L285.0022 160.0000
" />
<text x="286.0022" y="35.6500"
textLength="1.3115" font-size="1.7333" lengthAdjust="spacingAndGlyphs"
text-anchor="middle" opacity="0" stroke-opacity="0">A</text>
<g class="stroked-text"><desc>A</desc>
<path d="M285.6927 35.2220
L286.3117 35.2220
" />
<path d="M285.5689 35.5935
L286.0022 34.2935
" />
<path d="M286.0022 34.2935
L286.4355 35.5935
" />
</g><text x="286.0022" y="85.6500"
textLength="1.4972" font-size="1.7333" lengthAdjust="spacingAndGlyphs"
text-anchor="middle" opacity="0" stroke-opacity="0">B</text>
<g class="stroked-text"><desc>B</desc>
<path d="M286.0950 84.9125
L286.2807 84.9744
" />
<path d="M286.2807 84.9744
L286.3426 85.0363
" />
<path d="M286.3426 85.0363
L286.4045 85.1601
" />
<path d="M286.4045 85.1601
L286.4045 85.3458
" />
<path d="M286.4045 85.3458
L286.3426 85.4696
" />
<path d="M286.3426 85.4696
L286.2807 85.5316
" />
<path d="M286.2807 85.5316
L286.1569 85.5935
" />
<path d="M286.1569 85.5935
L285.6617 85.5935
" />
<path d="M285.6617 85.5935
L285.6617 84.2935
" />
<path d="M285.6617 84.2935
L286.0950 84.2935
" />
<path d="M286.0950 84.2935
L286.2188 84.3554
" />
<path d="M286.2188 84.3554
L286.2807 84.4173
" />
<path d="M286.2807 84.4173
L286.3426 84.5411
" />
<path d="M286.3426 84.5411
L286.3426 84.6649
" />
<path d="M286.3426 84.6649
L286.2807 84.7887
" />
<path d="M286.2807 84.7887
L286.2188 84.8506
" />
<path d="M286.2188 84.8506
L286.0950 84.9125
" />
<path d="M286.0950 84.9125
L285.6617 84.9125
" />
</g><text x="286.0022" y="135.6500"
textLength="1.4972" font-size="1.7333" lengthAdjust="spacingAndGlyphs"
text-anchor="middle" opacity="0" stroke-opacity="0">C</text>
<g class="stroked-text"><desc>C</desc>
<path d="M286.4045 135.4696
L286.3426 135.5316
" />
<path d="M286.3426 135.5316
L286.1569 135.5935
" />
<path d="M286.1569 135.5935
L286.0331 135.5935
" />
<path d="M286.0331 135.5935
L285.8474 135.5316
" />
<path d="M285.8474 135.5316
L285.7236 135.4077
" />
<path d="M285.7236 135.4077
L285.6617 135.2839
" />
<path d="M285.6617 135.2839
L285.5998 135.0363
" />
<path d="M285.5998 135.0363
L285.5998 134.8506
" />
<path d="M285.5998 134.8506
L285.6617 134.6030
" />
<path d="M285.6617 134.6030
L285.7236 134.4792
" />
<path d="M285.7236 134.4792
L285.8474 134.3554
" />
<path d="M285.8474 134.3554
L286.0331 134.2935
" />
<path d="M286.0331 134.2935
L286.1569 134.2935
" />
<path d="M286.1569 134.2935
L286.3426 134.3554
" />
<path d="M286.3426 134.3554
L286.4045 134.4173
" />
</g><text x="286.0022" y="185.6500"
textLength="1.4972" font-size="1.7333" lengthAdjust="spacingAndGlyphs"
text-anchor="middle" opacity="0" stroke-opacity="0">D</text>
<g class="stroked-text"><desc>D</desc>
<path d="M285.6617 185.5935
L285.6617 184.2935
" />
<path d="M285.6617 184.2935
L285.9712 184.2935
" />
<path d="M285.9712 184.2935
L286.1569 184.3554
" />
<path d="M286.1569 184.3554
L286.2807 184.4792
" />
<path d="M286.2807 184.4792
L286.3426 184.6030
" />
<path d="M286.3426 184.6030
L286.4045 184.8506
" />
<path d="M286.4045 184.8506
L286.4045 185.0363
" />
<path d="M286.4045 185.0363
L286.3426 185.2839
" />
<path d="M286.3426 185.2839
L286.2807 185.4077
" />
<path d="M286.2807 185.4077
L286.1569 185.5316
" />
<path d="M286.1569 185.5316
L285.9712 185.5935
" />
<path d="M285.9712 185.5935
L285.6617 185.5935
" />
</g><text x="200.0022" y="193.8572"
textLength="7.0143" font-size="2.0000" lengthAdjust="spacingAndGlyphs"
text-anchor="start" opacity="0" stroke-opacity="0">Date: </text>
<g class="stroked-text"><desc>Date: </desc>
<path d="M200.4595 193.7931
L200.4595 192.2931
" />
<path d="M200.4595 192.2931
L200.8166 192.2931
" />
<path d="M200.8166 192.2931
L201.0309 192.3645
" />
<path d="M201.0309 192.3645
L201.1738 192.5074
" />
<path d="M201.1738 192.5074
L201.2452 192.6502
" />
<path d="M201.2452 192.6502
L201.3166 192.9359
" />
<path d="M201.3166 192.9359
L201.3166 193.1502
" />
<path d="M201.3166 193.1502
L201.2452 193.4359
" />
<path d="M201.2452 193.4359
L201.1738 193.5788
" />
<path d="M201.1738 193.5788
L201.0309 193.7217
" />
<path d="M201.0309 193.7217
L200.8166 193.7931
" />
<path d="M200.8166 193.7931
L200.4595 193.7931
" />
<path d="M202.6024 193.7931
L202.6024 193.0074
" />
<path d="M202.6024 193.0074
L202.5309 192.8645
" />
<path d="M202.5309 192.8645
L202.3881 192.7931
" />
<path d="M202.3881 192.7931
L202.1024 192.7931
" />
<path d="M202.1024 192.7931
L201.9595 192.8645
" />
<path d="M202.6024 193.7217
L202.4595 193.7931
" />
<path d="M202.4595 193.7931
L202.1024 193.7931
" />
<path d="M202.1024 193.7931
L201.9595 193.7217
" />
<path d="M201.9595 193.7217
L201.8881 193.5788
" />
<path d="M201.8881 193.5788
L201.8881 193.4359
" />
<path d="M201.8881 193.4359
L201.9595 193.2931
" />
<path d="M201.9595 193.2931
L202.1024 193.2217
" />
<path d="M202.1024 193.2217
L202.4595 193.2217
" />
<path d="M202.4595 193.2217
L202.6024 193.1502
" />
<path d="M203.1023 192.7931
L203.6737 192.7931
" />
<path d="M203.3166 192.2931
L203.3166 193.5788
" />
<path d="M203.3166 193.5788
L203.3880 193.7217
" />
<path d="M203.3880 193.7217
L203.5309 193.7931
" />
<path d="M203.5309 193.7931
L203.6737 193.7931
" />
<path d="M204.7451 193.7217
L204.6023 193.7931
" />
<path d="M204.6023 193.7931
L204.3166 193.7931
" />
<path d="M204.3166 193.7931
L204.1737 193.7217
" />
<path d="M204.1737 193.7217
L204.1023 193.5788
" />
<path d="M204.1023 193.5788
L204.1023 193.0074
" />
<path d="M204.1023 193.0074
L204.1737 192.8645
" />
<path d="M204.1737 192.8645
L204.3166 192.7931
" />
<path d="M204.3166 192.7931
L204.6023 192.7931
" />
<path d="M204.6023 192.7931
L204.7451 192.8645
" />
<path d="M204.7451 192.8645
L204.8166 193.0074
" />
<path d="M204.8166 193.0074
L204.8166 193.1502
" />
<path d="M204.8166 193.1502
L204.1023 193.2931
" />
<path d="M205.4594 193.6502
L205.5308 193.7217
" />
<path d="M205.5308 193.7217
L205.4594 193.7931
" />
<path d="M205.4594 193.7931
L205.3880 193.7217
" />
<path d="M205.3880 193.7217
L205.4594 193.6502
" />
<path d="M205.4594 193.6502
L205.4594 193.7931
" />
<path d="M205.4594 192.8645
L205.5308 192.9359
" />
<path d="M205.5308 192.9359
L205.4594 193.0074
" />
<path d="M205.4594 193.0074
L205.3880 192.9359
" />
<path d="M205.3880 192.9359
L205.4594 192.8645
" />
<path d="M205.4594 192.8645
L205.4594 193.0074
" />
</g><path d="M177.0022 194.5072
L285.0022 194.5072
" />
<text x="178.0022" y="196.6572"
textLength="20.8716" font-size="2.0000" lengthAdjust="spacingAndGlyphs"
text-anchor="start" opacity="0" stroke-opacity="0">KiCad E.D.A. 9.0.6</text>
<g class="stroked-text"><desc>KiCad E.D.A. 9.0.6</desc>
<path d="M178.4595 196.5931
L178.4595 195.0931
" />
<path d="M179.3166 196.5931
L178.6738 195.7359
" />
<path d="M179.3166 195.0931
L178.4595 195.9502
" />
<path d="M179.9595 196.5931
L179.9595 195.5931
" />
<path d="M179.9595 195.0931
L179.8881 195.1645
" />
<path d="M179.8881 195.1645
L179.9595 195.2359
" />
<path d="M179.9595 195.2359
L180.0309 195.1645
" />
<path d="M180.0309 195.1645
L179.9595 195.0931
" />
<path d="M179.9595 195.0931
L179.9595 195.2359
" />
<path d="M181.5309 196.4502
L181.4595 196.5217
" />
<path d="M181.4595 196.5217
L181.2452 196.5931
" />
<path d="M181.2452 196.5931
L181.1024 196.5931
" />
<path d="M181.1024 196.5931
L180.8881 196.5217
" />
<path d="M180.8881 196.5217
L180.7452 196.3788
" />
<path d="M180.7452 196.3788
L180.6738 196.2359
" />
<path d="M180.6738 196.2359
L180.6024 195.9502
" />
<path d="M180.6024 195.9502
L180.6024 195.7359
" />
<path d="M180.6024 195.7359
L180.6738 195.4502
" />
<path d="M180.6738 195.4502
L180.7452 195.3074
" />
<path d="M180.7452 195.3074
L180.8881 195.1645
" />
<path d="M180.8881 195.1645
L181.1024 195.0931
" />
<path d="M181.1024 195.0931
L181.2452 195.0931
" />
<path d="M181.2452 195.0931
L181.4595 195.1645
" />
<path d="M181.4595 195.1645
L181.5309 195.2359
" />
<path d="M182.8167 196.5931
L182.8167 195.8074
" />
<path d="M182.8167 195.8074
L182.7452 195.6645
" />
<path d="M182.7452 195.6645
L182.6024 195.5931
" />
<path d="M182.6024 195.5931
L182.3167 195.5931
" />
<path d="M182.3167 195.5931
L182.1738 195.6645
" />
<path d="M182.8167 196.5217
L182.6738 196.5931
" />
<path d="M182.6738 196.5931
L182.3167 196.5931
" />
<path d="M182.3167 196.5931
L182.1738 196.5217
" />
<path d="M182.1738 196.5217
L182.1024 196.3788
" />
<path d="M182.1024 196.3788
L182.1024 196.2359
" />
<path d="M182.1024 196.2359
L182.1738 196.0931
" />
<path d="M182.1738 196.0931
L182.3167 196.0217
" />
<path d="M182.3167 196.0217
L182.6738 196.0217
" />
<path d="M182.6738 196.0217
L182.8167 195.9502
" />
<path d="M184.1738 196.5931
L184.1738 195.0931
" />
<path d="M184.1738 196.5217
L184.0309 196.5931
" />
<path d="M184.0309 196.5931
L183.7452 196.5931
" />
<path d="M183.7452 196.5931
L183.6023 196.5217
" />
<path d="M183.6023 196.5217
L183.5309 196.4502
" />
<path d="M183.5309 196.4502
L183.4595 196.3074
" />
<path d="M183.4595 196.3074
L183.4595 195.8788
" />
<path d="M183.4595 195.8788
L183.5309 195.7359
" />
<path d="M183.5309 195.7359
L183.6023 195.6645
" />
<path d="M183.6023 195.6645
L183.7452 195.5931
" />
<path d="M183.7452 195.5931
L184.0309 195.5931
" />
<path d="M184.0309 195.5931
L184.1738 195.6645
" />
<path d="M186.0309 195.8074
L186.5309 195.8074
" />
<path d="M186.7452 196.5931
L186.0309 196.5931
" />
<path d="M186.0309 196.5931
L186.0309 195.0931
" />
<path d="M186.0309 195.0931
L186.7452 195.0931
" />
<path d="M187.3880 196.4502
L187.4594 196.5217
" />
<path d="M187.4594 196.5217
L187.3880 196.5931
" />
<path d="M187.3880 196.5931
L187.3166 196.5217
" />
<path d="M187.3166 196.5217
L187.3880 196.4502
" />
<path d="M187.3880 196.4502
L187.3880 196.5931
" />
<path d="M188.1023 196.5931
L188.1023 195.0931
" />
<path d="M188.1023 195.0931
L188.4594 195.0931
" />
<path d="M188.4594 195.0931
L188.6737 195.1645
" />
<path d="M188.6737 195.1645
L188.8166 195.3074
" />
<path d="M188.8166 195.3074
L188.8880 195.4502
" />
<path d="M188.8880 195.4502
L188.9594 195.7359
" />
<path d="M188.9594 195.7359
L188.9594 195.9502
" />
<path d="M188.9594 195.9502
L188.8880 196.2359
" />
<path d="M188.8880 196.2359
L188.8166 196.3788
" />
<path d="M188.8166 196.3788
L188.6737 196.5217
" />
<path d="M188.6737 196.5217
L188.4594 196.5931
" />
<path d="M188.4594 196.5931
L188.1023 196.5931
" />
<path d="M189.6023 196.4502
L189.6737 196.5217
" />
<path d="M189.6737 196.5217
L189.6023 196.5931
" />
<path d="M189.6023 196.5931
L189.5309 196.5217
" />
<path d="M189.5309 196.5217
L189.6023 196.4502
" />
<path d="M189.6023 196.4502
L189.6023 196.5931
" />
<path d="M190.2452 196.1645
L190.9595 196.1645
" />
<path d="M190.1023 196.5931
L190.6023 195.0931
" />
<path d="M190.6023 195.0931
L191.1023 196.5931
" />
<path d="M191.6023 196.4502
L191.6737 196.5217
" />
<path d="M191.6737 196.5217
L191.6023 196.5931
" />
<path d="M191.6023 196.5931
L191.5309 196.5217
" />
<path d="M191.5309 196.5217
L191.6023 196.4502
" />
<path d="M191.6023 196.4502
L191.6023 196.5931
" />
<path d="M193.5309 196.5931
L193.8166 196.5931
" />
<path d="M193.8166 196.5931
L193.9595 196.5217
" />
<path d="M193.9595 196.5217
L194.0309 196.4502
" />
<path d="M194.0309 196.4502
L194.1738 196.2359
" />
<path d="M194.1738 196.2359
L194.2452 195.9502
" />
<path d="M194.2452 195.9502
L194.2452 195.3788
" />
<path d="M194.2452 195.3788
L194.1738 195.2359
" />
<path d="M194.1738 195.2359
L194.1024 195.1645
" />
<path d="M194.1024 195.1645
L193.9595 195.0931
" />
<path d="M193.9595 195.0931
L193.6738 195.0931
" />
<path d="M193.6738 195.0931
L193.5309 195.1645
" />
<path d="M193.5309 195.1645
L193.4595 195.2359
" />
<path d="M193.4595 195.2359
L193.3881 195.3788
" />
<path d="M193.3881 195.3788
L193.3881 195.7359
" />
<path d="M193.3881 195.7359
L193.4595 195.8788
" />
<path d="M193.4595 195.8788
L193.5309 195.9502
" />
<path d="M193.5309 195.9502
L193.6738 196.0217
" />
<path d="M193.6738 196.0217
L193.9595 196.0217
" />
<path d="M193.9595 196.0217
L194.1024 195.9502
" />
<path d="M194.1024 195.9502
L194.1738 195.8788
" />
<path d="M194.1738 195.8788
L194.2452 195.7359
" />
<path d="M194.8881 196.4502
L194.9595 196.5217
" />
<path d="M194.9595 196.5217
L194.8881 196.5931
" />
<path d="M194.8881 196.5931
L194.8167 196.5217
" />
<path d="M194.8167 196.5217
L194.8881 196.4502
" />
<path d="M194.8881 196.4502
L194.8881 196.5931
" />
<path d="M195.8881 195.0931
L196.0310 195.0931
" />
<path d="M196.0310 195.0931
L196.1738 195.1645
" />
<path d="M196.1738 195.1645
L196.2453 195.2359
" />
<path d="M196.2453 195.2359
L196.3167 195.3788
" />
<path d="M196.3167 195.3788
L196.3881 195.6645
" />
<path d="M196.3881 195.6645
L196.3881 196.0217
" />
<path d="M196.3881 196.0217
L196.3167 196.3074
" />
<path d="M196.3167 196.3074
L196.2453 196.4502
" />
<path d="M196.2453 196.4502
L196.1738 196.5217
" />
<path d="M196.1738 196.5217
L196.0310 196.5931
" />
<path d="M196.0310 196.5931
L195.8881 196.5931
" />
<path d="M195.8881 196.5931
L195.7453 196.5217
" />
<path d="M195.7453 196.5217
L195.6738 196.4502
" />
<path d="M195.6738 196.4502
L195.6024 196.3074
" />
<path d="M195.6024 196.3074
L195.5310 196.0217
" />
<path d="M195.5310 196.0217
L195.5310 195.6645
" />
<path d="M195.5310 195.6645
L195.6024 195.3788
" />
<path d="M195.6024 195.3788
L195.6738 195.2359
" />
<path d="M195.6738 195.2359
L195.7453 195.1645
" />
<path d="M195.7453 195.1645
L195.8881 195.0931
" />
<path d="M197.0310 196.4502
L197.1024 196.5217
" />
<path d="M197.1024 196.5217
L197.0310 196.5931
" />
<path d="M197.0310 196.5931
L196.9596 196.5217
" />
<path d="M196.9596 196.5217
L197.0310 196.4502
" />
<path d="M197.0310 196.4502
L197.0310 196.5931
" />
<path d="M198.3882 195.0931
L198.1024 195.0931
" />
<path d="M198.1024 195.0931
L197.9596 195.1645
" />
<path d="M197.9596 195.1645
L197.8882 195.2359
" />
<path d="M197.8882 195.2359
L197.7453 195.4502
" />
<path d="M197.7453 195.4502
L197.6739 195.7359
" />
<path d="M197.6739 195.7359
L197.6739 196.3074
" />
<path d="M197.6739 196.3074
L197.7453 196.4502
" />
<path d="M197.7453 196.4502
L197.8167 196.5217
" />
<path d="M197.8167 196.5217
L197.9596 196.5931
" />
<path d="M197.9596 196.5931
L198.2453 196.5931
" />
<path d="M198.2453 196.5931
L198.3882 196.5217
" />
<path d="M198.3882 196.5217
L198.4596 196.4502
" />
<path d="M198.4596 196.4502
L198.5310 196.3074
" />
<path d="M198.5310 196.3074
L198.5310 195.9502
" />
<path d="M198.5310 195.9502
L198.4596 195.8074
" />
<path d="M198.4596 195.8074
L198.3882 195.7359
" />
<path d="M198.3882 195.7359
L198.2453 195.6645
" />
<path d="M198.2453 195.6645
L197.9596 195.6645
" />
<path d="M197.9596 195.6645
L197.8167 195.7359
" />
<path d="M197.8167 195.7359
L197.7453 195.8074
" />
<path d="M197.7453 195.8074
L197.6739 195.9502
" />
</g><path d="M177.0022 191.5072
L285.0022 191.5072
" />
</g>
<g style="fill:none; 
stroke:#840000; stroke-width:0.3000; stroke-opacity:1; 
stroke-linecap:round; stroke-linejoin:round;">
<text x="263.0022" y="193.8572"
textLength="6.3858" font-size="2.0000" lengthAdjust="spacingAndGlyphs"
text-anchor="start" opacity="0" stroke-opacity="0">Rev: </text>
<g class="stroked-text"><desc>Rev: </desc>
<path d="M264.4137 193.7855
L263.9137 193.0712
" />
<path d="M263.5566 193.7855
L263.5566 192.2855
" />
<path d="M263.5566 192.2855
L264.1280 192.2855
" />
<path d="M264.1280 192.2855
L264.2709 192.3569
" />
<path d="M264.2709 192.3569
L264.3423 192.4283
" />
<path d="M264.3423 192.4283
L264.4137 192.5712
" />
<path d="M264.4137 192.5712
L264.4137 192.7855
" />
<path d="M264.4137 192.7855
L264.3423 192.9283
" />
<path d="M264.3423 192.9283
L264.2709 192.9998
" />
<path d="M264.2709 192.9998
L264.1280 193.0712
" />
<path d="M264.1280 193.0712
L263.5566 193.0712
" />
<path d="M265.6280 193.7141
L265.4852 193.7855
" />
<path d="M265.4852 193.7855
L265.1995 193.7855
" />
<path d="M265.1995 193.7855
L265.0566 193.7141
" />
<path d="M265.0566 193.7141
L264.9852 193.5712
" />
<path d="M264.9852 193.5712
L264.9852 192.9998
" />
<path d="M264.9852 192.9998
L265.0566 192.8569
" />
<path d="M265.0566 192.8569
L265.1995 192.7855
" />
<path d="M265.1995 192.7855
L265.4852 192.7855
" />
<path d="M265.4852 192.7855
L265.6280 192.8569
" />
<path d="M265.6280 192.8569
L265.6995 192.9998
" />
<path d="M265.6995 192.9998
L265.6995 193.1426
" />
<path d="M265.6995 193.1426
L264.9852 193.2855
" />
<path d="M266.1994 192.7855
L266.5566 193.7855
" />
<path d="M266.5566 193.7855
L266.9137 192.7855
" />
<path d="M267.4852 193.6426
L267.5566 193.7141
" />
<path d="M267.5566 193.7141
L267.4852 193.7855
" />
<path d="M267.4852 193.7855
L267.4138 193.7141
" />
<path d="M267.4138 193.7141
L267.4852 193.6426
" />
<path d="M267.4852 193.6426
L267.4852 193.7855
" />
<path d="M267.4852 192.8569
L267.5566 192.9283
" />
<path d="M267.5566 192.9283
L267.4852 192.9998
" />
<path d="M267.4852 192.9998
L267.4138 192.9283
" />
<path d="M267.4138 192.9283
L267.4852 192.8569
" />
<path d="M267.4852 192.8569
L267.4852 192.9998
" />
</g></g>
<g style="fill:none; 
stroke:#840000; stroke-width:0.1524; stroke-opacity:1; 
stroke-linecap:round; stroke-linejoin:round;">
<text x="178.0022" y="193.8572"
textLength="9.3716" font-size="2.0000" lengthAdjust="spacingAndGlyphs"
text-anchor="start" opacity="0" stroke-opacity="0">Size: A4</text>
<g class="stroked-text"><desc>Size: A4</desc>
<path d="M178.3881 193.7217
L178.6024 193.7931
" />
<path d="M178.6024 193.7931
L178.9595 193.7931
" />
<path d="M178.9595 193.7931
L179.1024 193.7217
" />
<path d="M179.1024 193.7217
L179.1738 193.6502
" />
<path d="M179.1738 193.6502
L179.2452 193.5074
" />
<path d="M179.2452 193.5074
L179.2452 193.3645
" />
<path d="M179.2452 193.3645
L179.1738 193.2217
" />
<path d="M179.1738 193.2217
L179.1024 193.1502
" />
<path d="M179.1024 193.1502
L178.9595 193.0788
" />
<path d="M178.9595 193.0788
L178.6738 193.0074
" />
<path d="M178.6738 193.0074
L178.5309 192.9359
" />
<path d="M178.5309 192.9359
L178.4595 192.8645
" />
<path d="M178.4595 192.8645
L178.3881 192.7217
" />
<path d="M178.3881 192.7217
L178.3881 192.5788
" />
<path d="M178.3881 192.5788
L178.4595 192.4359
" />
<path d="M178.4595 192.4359
L178.5309 192.3645
" />
<path d="M178.5309 192.3645
L178.6738 192.2931
" />
<path d="M178.6738 192.2931
L179.0309 192.2931
" />
<path d="M179.0309 192.2931
L179.2452 192.3645
" />
<path d="M179.8881 193.7931
L179.8881 192.7931
" />
<path d="M179.8881 192.2931
L179.8167 192.3645
" />
<path d="M179.8167 192.3645
L179.8881 192.4359
" />
<path d="M179.8881 192.4359
L179.9595 192.3645
" />
<path d="M179.9595 192.3645
L179.8881 192.2931
" />
<path d="M179.8881 192.2931
L179.8881 192.4359
" />
<path d="M180.4595 192.7931
L181.2453 192.7931
" />
<path d="M181.2453 192.7931
L180.4595 193.7931
" />
<path d="M180.4595 193.7931
L181.2453 193.7931
" />
<path d="M182.3881 193.7217
L182.2453 193.7931
" />
<path d="M182.2453 193.7931
L181.9596 193.7931
" />
<path d="M181.9596 193.7931
L181.8167 193.7217
" />
<path d="M181.8167 193.7217
L181.7453 193.5788
" />
<path d="M181.7453 193.5788
L181.7453 193.0074
" />
<path d="M181.7453 193.0074
L181.8167 192.8645
" />
<path d="M181.8167 192.8645
L181.9596 192.7931
" />
<path d="M181.9596 192.7931
L182.2453 192.7931
" />
<path d="M182.2453 192.7931
L182.3881 192.8645
" />
<path d="M182.3881 192.8645
L182.4596 193.0074
" />
<path d="M182.4596 193.0074
L182.4596 193.1502
" />
<path d="M182.4596 193.1502
L181.7453 193.2931
" />
<path d="M183.1024 193.6502
L183.1738 193.7217
" />
<path d="M183.1738 193.7217
L183.1024 193.7931
" />
<path d="M183.1024 193.7931
L183.0310 193.7217
" />
<path d="M183.0310 193.7217
L183.1024 193.6502
" />
<path d="M183.1024 193.6502
L183.1024 193.7931
" />
<path d="M183.1024 192.8645
L183.1738 192.9359
" />
<path d="M183.1738 192.9359
L183.1024 193.0074
" />
<path d="M183.1024 193.0074
L183.0310 192.9359
" />
<path d="M183.0310 192.9359
L183.1024 192.8645
" />
<path d="M183.1024 192.8645
L183.1024 193.0074
" />
<path d="M184.8882 193.3645
L185.6025 193.3645
" />
<path d="M184.7453 193.7931
L185.2453 192.2931
" />
<path d="M185.2453 192.2931
L185.7453 193.7931
" />
<path d="M186.8882 192.7931
L186.8882 193.7931
" />
<path d="M186.5310 192.2217
L186.1739 193.2931
" />
<path d="M186.1739 193.2931
L187.1024 193.2931
" />
</g><text x="263.0022" y="196.6572"
textLength="8.5144" font-size="2.0000" lengthAdjust="spacingAndGlyphs"
text-anchor="start" opacity="0" stroke-opacity="0">Id: 4/5</text>
<g class="stroked-text"><desc>Id: 4/5</desc>
<path d="M263.4595 196.5931
L263.4595 195.0931
" />
<path d="M264.8167 196.5931
L264.8167 195.0931
" />
<path d="M264.8167 196.5217
L264.6738 196.5931
" />
<path d="M264.6738 196.5931
L264.3881 196.5931
" />
<path d="M264.3881 196.5931
L264.2452 196.5217
" />
<path d="M264.2452 196.5217
L264.1738 196.4502
" />
<path d="M264.1738 196.4502
L264.1024 196.3074
" />
<path d="M264.1024 196.3074
L264.1024 195.8788
" />
<path d="M264.1024 195.8788
L264.1738 195.7359
" />
<path d="M264.1738 195.7359
L264.2452 195.6645
" />
<path d="M264.2452 195.6645
L264.3881 195.5931
" />
<path d="M264.3881 195.5931
L264.6738 195.5931
" />
<path d="M264.6738 195.5931
L264.8167 195.6645
" />
<path d="M265.5309 196.4502
L265.6023 196.5217
" />
<path d="M265.6023 196.5217
L265.5309 196.5931
" />
<path d="M265.5309 196.5931
L265.4595 196.5217
" />
<path d="M265.4595 196.5217
L265.5309 196.4502
" />
<path d="M265.5309 196.4502
L265.5309 196.5931
" />
<path d="M265.5309 195.6645
L265.6023 195.7359
" />
<path d="M265.6023 195.7359
L265.5309 195.8074
" />
<path d="M265.5309 195.8074
L265.4595 195.7359
" />
<path d="M265.4595 195.7359
L265.5309 195.6645
" />
<path d="M265.5309 195.6645
L265.5309 195.8074
" />
<path d="M268.0310 195.5931
L268.0310 196.5931
" />
<path d="M267.6738 195.0217
L267.3167 196.0931
" />
<path d="M267.3167 196.0931
L268.2452 196.0931
" />
<path d="M269.8881 195.0217
L268.6024 196.9502
" />
<path d="M271.1024 195.0931
L270.3881 195.0931
" />
<path d="M270.3881 195.0931
L270.3167 195.8074
" />
<path d="M270.3167 195.8074
L270.3881 195.7359
" />
<path d="M270.3881 195.7359
L270.5310 195.6645
" />
<path d="M270.5310 195.6645
L270.8881 195.6645
" />
<path d="M270.8881 195.6645
L271.0310 195.7359
" />
<path d="M271.0310 195.7359
L271.1024 195.8074
" />
<path d="M271.1024 195.8074
L271.1738 195.9502
" />
<path d="M271.1738 195.9502
L271.1738 196.3074
" />
<path d="M271.1738 196.3074
L271.1024 196.4502
" />
<path d="M271.1024 196.4502
L271.0310 196.5217
" />
<path d="M271.0310 196.5217
L270.8881 196.5931
" />
<path d="M270.8881 196.5931
L270.5310 196.5931
" />
<path d="M270.5310 196.5931
L270.3881 196.5217
" />
<path d="M270.3881 196.5217
L270.3167 196.4502
" />
</g><path d="M177.0022 187.5072
L285.0022 187.5072
" />
</g>
<g style="fill:none; 
stroke:#840000; stroke-width:0.4000; stroke-opacity:1; 
stroke-linecap:round; stroke-linejoin:round;">
<text x="178.0022" y="190.3072"
textLength="9.6572" font-size="2.6666" lengthAdjust="spacingAndGlyphs"
text-anchor="start" opacity="0" stroke-opacity="0">Title: </text>
<g class="stroked-text"><desc>Title: </desc>
<path d="M178.6938 188.2116
L179.8367 188.2116
" />
<path d="M179.0153 190.2116
L179.2653 188.2116
" />
<path d="M180.2533 190.2116
L180.4200 188.8783
" />
<path d="M180.5033 188.2116
L180.3962 188.3068
" />
<path d="M180.3962 188.3068
L180.4795 188.4021
" />
<path d="M180.4795 188.4021
L180.5867 188.3068
" />
<path d="M180.5867 188.3068
L180.5033 188.2116
" />
<path d="M180.5033 188.2116
L180.4795 188.4021
" />
<path d="M181.0867 188.8783
L181.8486 188.8783
" />
<path d="M181.4557 188.2116
L181.2415 189.9259
" />
<path d="M181.2415 189.9259
L181.3129 190.1164
" />
<path d="M181.3129 190.1164
L181.4915 190.2116
" />
<path d="M181.4915 190.2116
L181.6819 190.2116
" />
<path d="M182.6344 190.2116
L182.4558 190.1164
" />
<path d="M182.4558 190.1164
L182.3844 189.9259
" />
<path d="M182.3844 189.9259
L182.5986 188.2116
" />
<path d="M184.1700 190.1164
L183.9677 190.2116
" />
<path d="M183.9677 190.2116
L183.5867 190.2116
" />
<path d="M183.5867 190.2116
L183.4081 190.1164
" />
<path d="M183.4081 190.1164
L183.3367 189.9259
" />
<path d="M183.3367 189.9259
L183.4320 189.1640
" />
<path d="M183.4320 189.1640
L183.5510 188.9735
" />
<path d="M183.5510 188.9735
L183.7534 188.8783
" />
<path d="M183.7534 188.8783
L184.1343 188.8783
" />
<path d="M184.1343 188.8783
L184.3129 188.9735
" />
<path d="M184.3129 188.9735
L184.3843 189.1640
" />
<path d="M184.3843 189.1640
L184.3605 189.3544
" />
<path d="M184.3605 189.3544
L183.3843 189.5449
" />
<path d="M185.1343 190.0211
L185.2177 190.1164
" />
<path d="M185.2177 190.1164
L185.1105 190.2116
" />
<path d="M185.1105 190.2116
L185.0272 190.1164
" />
<path d="M185.0272 190.1164
L185.1343 190.0211
" />
<path d="M185.1343 190.0211
L185.1105 190.2116
" />
<path d="M185.2653 188.9735
L185.3486 189.0687
" />
<path d="M185.3486 189.0687
L185.2415 189.1640
" />
<path d="M185.2415 189.1640
L185.1582 189.0687
" />
<path d="M185.1582 189.0687
L185.2653 188.9735
" />
<path d="M185.2653 188.9735
L185.2415 189.1640
" />
</g></g>
<g style="fill:none; 
stroke:#840000; stroke-width:0.1524; stroke-opacity:1; 
stroke-linecap:round; stroke-linejoin:round;">
<text x="178.0022" y="186.4572"
textLength="28.0856" font-size="2.0000" lengthAdjust="spacingAndGlyphs"
text-anchor="start" opacity="0" stroke-opacity="0">File: Mechanic.kicad_sch</text>
<g class="stroked-text"><desc>File: Mechanic.kicad_sch</desc>
<path d="M178.9595 185.6074
L178.4595 185.6074
" />
<path d="M178.4595 186.3931
L178.4595 184.8931
" />
<path d="M178.4595 184.8931
L179.1738 184.8931
" />
<path d="M179.7452 186.3931
L179.7452 185.3931
" />
<path d="M179.7452 184.8931
L179.6738 184.9645
" />
<path d="M179.6738 184.9645
L179.7452 185.0359
" />
<path d="M179.7452 185.0359
L179.8166 184.9645
" />
<path d="M179.8166 184.9645
L179.7452 184.8931
" />
<path d="M179.7452 184.8931
L179.7452 185.0359
" />
<path d="M180.6738 186.3931
L180.5309 186.3217
" />
<path d="M180.5309 186.3217
L180.4595 186.1788
" />
<path d="M180.4595 186.1788
L180.4595 184.8931
" />
<path d="M181.8166 186.3217
L181.6738 186.3931
" />
<path d="M181.6738 186.3931
L181.3881 186.3931
" />
<path d="M181.3881 186.3931
L181.2452 186.3217
" />
<path d="M181.2452 186.3217
L181.1738 186.1788
" />
<path d="M181.1738 186.1788
L181.1738 185.6074
" />
<path d="M181.1738 185.6074
L181.2452 185.4645
" />
<path d="M181.2452 185.4645
L181.3881 185.3931
" />
<path d="M181.3881 185.3931
L181.6738 185.3931
" />
<path d="M181.6738 185.3931
L181.8166 185.4645
" />
<path d="M181.8166 185.4645
L181.8881 185.6074
" />
<path d="M181.8881 185.6074
L181.8881 185.7502
" />
<path d="M181.8881 185.7502
L181.1738 185.8931
" />
<path d="M182.5309 186.2502
L182.6023 186.3217
" />
<path d="M182.6023 186.3217
L182.5309 186.3931
" />
<path d="M182.5309 186.3931
L182.4595 186.3217
" />
<path d="M182.4595 186.3217
L182.5309 186.2502
" />
<path d="M182.5309 186.2502
L182.5309 186.3931
" />
<path d="M182.5309 185.4645
L182.6023 185.5359
" />
<path d="M182.6023 185.5359
L182.5309 185.6074
" />
<path d="M182.5309 185.6074
L182.4595 185.5359
" />
<path d="M182.4595 185.5359
L182.5309 185.4645
" />
<path d="M182.5309 185.4645
L182.5309 185.6074
" />
<path d="M184.3881 186.3931
L184.3881 184.8931
" />
<path d="M184.3881 184.8931
L184.8881 185.9645
" />
<path d="M184.8881 185.9645
L185.3881 184.8931
" />
<path d="M185.3881 184.8931
L185.3881 186.3931
" />
<path d="M186.6738 186.3217
L186.5310 186.3931
" />
<path d="M186.5310 186.3931
L186.2453 186.3931
" />
<path d="M186.2453 186.3931
L186.1024 186.3217
" />
<path d="M186.1024 186.3217
L186.0310 186.1788
" />
<path d="M186.0310 186.1788
L186.0310 185.6074
" />
<path d="M186.0310 185.6074
L186.1024 185.4645
" />
<path d="M186.1024 185.4645
L186.2453 185.3931
" />
<path d="M186.2453 185.3931
L186.5310 185.3931
" />
<path d="M186.5310 185.3931
L186.6738 185.4645
" />
<path d="M186.6738 185.4645
L186.7453 185.6074
" />
<path d="M186.7453 185.6074
L186.7453 185.7502
" />
<path d="M186.7453 185.7502
L186.0310 185.8931
" />
<path d="M188.0310 186.3217
L187.8881 186.3931
" />
<path d="M187.8881 186.3931
L187.6024 186.3931
" />
<path d="M187.6024 186.3931
L187.4595 186.3217
" />
<path d="M187.4595 186.3217
L187.3881 186.2502
" />
<path d="M187.3881 186.2502
L187.3167 186.1074
" />
<path d="M187.3167 186.1074
L187.3167 185.6788
" />
<path d="M187.3167 185.6788
L187.3881 185.5359
" />
<path d="M187.3881 185.5359
L187.4595 185.4645
" />
<path d="M187.4595 185.4645
L187.6024 185.3931
" />
<path d="M187.6024 185.3931
L187.8881 185.3931
" />
<path d="M187.8881 185.3931
L188.0310 185.4645
" />
<path d="M188.6738 186.3931
L188.6738 184.8931
" />
<path d="M189.3167 186.3931
L189.3167 185.6074
" />
<path d="M189.3167 185.6074
L189.2452 185.4645
" />
<path d="M189.2452 185.4645
L189.1024 185.3931
" />
<path d="M189.1024 185.3931
L188.8881 185.3931
" />
<path d="M188.8881 185.3931
L188.7452 185.4645
" />
<path d="M188.7452 185.4645
L188.6738 185.5359
" />
<path d="M190.6738 186.3931
L190.6738 185.6074
" />
<path d="M190.6738 185.6074
L190.6023 185.4645
" />
<path d="M190.6023 185.4645
L190.4595 185.3931
" />
<path d="M190.4595 185.3931
L190.1738 185.3931
" />
<path d="M190.1738 185.3931
L190.0309 185.4645
" />
<path d="M190.6738 186.3217
L190.5309 186.3931
" />
<path d="M190.5309 186.3931
L190.1738 186.3931
" />
<path d="M190.1738 186.3931
L190.0309 186.3217
" />
<path d="M190.0309 186.3217
L189.9595 186.1788
" />
<path d="M189.9595 186.1788
L189.9595 186.0359
" />
<path d="M189.9595 186.0359
L190.0309 185.8931
" />
<path d="M190.0309 185.8931
L190.1738 185.8217
" />
<path d="M190.1738 185.8217
L190.5309 185.8217
" />
<path d="M190.5309 185.8217
L190.6738 185.7502
" />
<path d="M191.3880 185.3931
L191.3880 186.3931
" />
<path d="M191.3880 185.5359
L191.4594 185.4645
" />
<path d="M191.4594 185.4645
L191.6023 185.3931
" />
<path d="M191.6023 185.3931
L191.8166 185.3931
" />
<path d="M191.8166 185.3931
L191.9594 185.4645
" />
<path d="M191.9594 185.4645
L192.0309 185.6074
" />
<path d="M192.0309 185.6074
L192.0309 186.3931
" />
<path d="M192.7451 186.3931
L192.7451 185.3931
" />
<path d="M192.7451 184.8931
L192.6737 184.9645
" />
<path d="M192.6737 184.9645
L192.7451 185.0359
" />
<path d="M192.7451 185.0359
L192.8165 184.9645
" />
<path d="M192.8165 184.9645
L192.7451 184.8931
" />
<path d="M192.7451 184.8931
L192.7451 185.0359
" />
<path d="M194.1023 186.3217
L193.9594 186.3931
" />
<path d="M193.9594 186.3931
L193.6737 186.3931
" />
<path d="M193.6737 186.3931
L193.5308 186.3217
" />
<path d="M193.5308 186.3217
L193.4594 186.2502
" />
<path d="M193.4594 186.2502
L193.3880 186.1074
" />
<path d="M193.3880 186.1074
L193.3880 185.6788
" />
<path d="M193.3880 185.6788
L193.4594 185.5359
" />
<path d="M193.4594 185.5359
L193.5308 185.4645
" />
<path d="M193.5308 185.4645
L193.6737 185.3931
" />
<path d="M193.6737 185.3931
L193.9594 185.3931
" />
<path d="M193.9594 185.3931
L194.1023 185.4645
" />
<path d="M194.7451 186.2502
L194.8165 186.3217
" />
<path d="M194.8165 186.3217
L194.7451 186.3931
" />
<path d="M194.7451 186.3931
L194.6737 186.3217
" />
<path d="M194.6737 186.3217
L194.7451 186.2502
" />
<path d="M194.7451 186.2502
L194.7451 186.3931
" />
<path d="M195.4594 186.3931
L195.4594 184.8931
" />
<path d="M195.6023 185.8217
L196.0308 186.3931
" />
<path d="M196.0308 185.3931
L195.4594 185.9645
" />
<path d="M196.6737 186.3931
L196.6737 185.3931
" />
<path d="M196.6737 184.8931
L196.6023 184.9645
" />
<path d="M196.6023 184.9645
L196.6737 185.0359
" />
<path d="M196.6737 185.0359
L196.7451 184.9645
" />
<path d="M196.7451 184.9645
L196.6737 184.8931
" />
<path d="M196.6737 184.8931
L196.6737 185.0359
" />
<path d="M198.0309 186.3217
L197.8880 186.3931
" />
<path d="M197.8880 186.3931
L197.6023 186.3931
" />
<path d="M197.6023 186.3931
L197.4594 186.3217
" />
<path d="M197.4594 186.3217
L197.3880 186.2502
" />
<path d="M197.3880 186.2502
L197.3166 186.1074
" />
<path d="M197.3166 186.1074
L197.3166 185.6788
" />
<path d="M197.3166 185.6788
L197.3880 185.5359
" />
<path d="M197.3880 185.5359
L197.4594 185.4645
" />
<path d="M197.4594 185.4645
L197.6023 185.3931
" />
<path d="M197.6023 185.3931
L197.8880 185.3931
" />
<path d="M197.8880 185.3931
L198.0309 185.4645
" />
<path d="M199.3166 186.3931
L199.3166 185.6074
" />
<path d="M199.3166 185.6074
L199.2451 185.4645
" />
<path d="M199.2451 185.4645
L199.1023 185.3931
" />
<path d="M199.1023 185.3931
L198.8166 185.3931
" />
<path d="M198.8166 185.3931
L198.6737 185.4645
" />
<path d="M199.3166 186.3217
L199.1737 186.3931
" />
<path d="M199.1737 186.3931
L198.8166 186.3931
" />
<path d="M198.8166 186.3931
L198.6737 186.3217
" />
<path d="M198.6737 186.3217
L198.6023 186.1788
" />
<path d="M198.6023 186.1788
L198.6023 186.0359
" />
<path d="M198.6023 186.0359
L198.6737 185.8931
" />
<path d="M198.6737 185.8931
L198.8166 185.8217
" />
<path d="M198.8166 185.8217
L199.1737 185.8217
" />
<path d="M199.1737 185.8217
L199.3166 185.7502
" />
<path d="M200.6737 186.3931
L200.6737 184.8931
" />
<path d="M200.6737 186.3217
L200.5308 186.3931
" />
<path d="M200.5308 186.3931
L200.2451 186.3931
" />
<path d="M200.2451 186.3931
L200.1022 186.3217
" />
<path d="M200.1022 186.3217
L200.0308 186.2502
" />
<path d="M200.0308 186.2502
L199.9594 186.1074
" />
<path d="M199.9594 186.1074
L199.9594 185.6788
" />
<path d="M199.9594 185.6788
L200.0308 185.5359
" />
<path d="M200.0308 185.5359
L200.1022 185.4645
" />
<path d="M200.1022 185.4645
L200.2451 185.3931
" />
<path d="M200.2451 185.3931
L200.5308 185.3931
" />
<path d="M200.5308 185.3931
L200.6737 185.4645
" />
<path d="M201.0308 186.5359
L202.1736 186.5359
" />
<path d="M202.4594 186.3217
L202.6022 186.3931
" />
<path d="M202.6022 186.3931
L202.8879 186.3931
" />
<path d="M202.8879 186.3931
L203.0308 186.3217
" />
<path d="M203.0308 186.3217
L203.1022 186.1788
" />
<path d="M203.1022 186.1788
L203.1022 186.1074
" />
<path d="M203.1022 186.1074
L203.0308 185.9645
" />
<path d="M203.0308 185.9645
L202.8879 185.8931
" />
<path d="M202.8879 185.8931
L202.6737 185.8931
" />
<path d="M202.6737 185.8931
L202.5308 185.8217
" />
<path d="M202.5308 185.8217
L202.4594 185.6788
" />
<path d="M202.4594 185.6788
L202.4594 185.6074
" />
<path d="M202.4594 185.6074
L202.5308 185.4645
" />
<path d="M202.5308 185.4645
L202.6737 185.3931
" />
<path d="M202.6737 185.3931
L202.8879 185.3931
" />
<path d="M202.8879 185.3931
L203.0308 185.4645
" />
<path d="M204.3880 186.3217
L204.2451 186.3931
" />
<path d="M204.2451 186.3931
L203.9594 186.3931
" />
<path d="M203.9594 186.3931
L203.8165 186.3217
" />
<path d="M203.8165 186.3217
L203.7451 186.2502
" />
<path d="M203.7451 186.2502
L203.6737 186.1074
" />
<path d="M203.6737 186.1074
L203.6737 185.6788
" />
<path d="M203.6737 185.6788
L203.7451 185.5359
" />
<path d="M203.7451 185.5359
L203.8165 185.4645
" />
<path d="M203.8165 185.4645
L203.9594 185.3931
" />
<path d="M203.9594 185.3931
L204.2451 185.3931
" />
<path d="M204.2451 185.3931
L204.3880 185.4645
" />
<path d="M205.0308 186.3931
L205.0308 184.8931
" />
<path d="M205.6737 186.3931
L205.6737 185.6074
" />
<path d="M205.6737 185.6074
L205.6022 185.4645
" />
<path d="M205.6022 185.4645
L205.4594 185.3931
" />
<path d="M205.4594 185.3931
L205.2451 185.3931
" />
<path d="M205.2451 185.3931
L205.1022 185.4645
" />
<path d="M205.1022 185.4645
L205.0308 185.5359
" />
</g><path d="M177.0022 181.5072
L285.0022 181.5072
" />
<text x="178.0022" y="183.7572"
textLength="21.7284" font-size="2.0000" lengthAdjust="spacingAndGlyphs"
text-anchor="start" opacity="0" stroke-opacity="0">Sheet: /Mechanic/</text>
<g class="stroked-text"><desc>Sheet: /Mechanic/</desc>
<path d="M178.3881 183.6217
L178.6024 183.6931
" />
<path d="M178.6024 183.6931
L178.9595 183.6931
" />
<path d="M178.9595 183.6931
L179.1024 183.6217
" />
<path d="M179.1024 183.6217
L179.1738 183.5502
" />
<path d="M179.1738 183.5502
L179.2452 183.4074
" />
<path d="M179.2452 183.4074
L179.2452 183.2645
" />
<path d="M179.2452 183.2645
L179.1738 183.1217
" />
<path d="M179.1738 183.1217
L179.1024 183.0502
" />
<path d="M179.1024 183.0502
L178.9595 182.9788
" />
<path d="M178.9595 182.9788
L178.6738 182.9074
" />
<path d="M178.6738 182.9074
L178.5309 182.8359
" />
<path d="M178.5309 182.8359
L178.4595 182.7645
" />
<path d="M178.4595 182.7645
L178.3881 182.6217
" />
<path d="M178.3881 182.6217
L178.3881 182.4788
" />
<path d="M178.3881 182.4788
L178.4595 182.3359
" />
<path d="M178.4595 182.3359
L178.5309 182.2645
" />
<path d="M178.5309 182.2645
L178.6738 182.1931
" />
<path d="M178.6738 182.1931
L179.0309 182.1931
" />
<path d="M179.0309 182.1931
L179.2452 182.2645
" />
<path d="M179.8881 183.6931
L179.8881 182.1931
" />
<path d="M180.5310 183.6931
L180.5310 182.9074
" />
<path d="M180.5310 182.9074
L180.4595 182.7645
" />
<path d="M180.4595 182.7645
L180.3167 182.6931
" />
<path d="M180.3167 182.6931
L180.1024 182.6931
" />
<path d="M180.1024 182.6931
L179.9595 182.7645
" />
<path d="M179.9595 182.7645
L179.8881 182.8359
" />
<path d="M181.8166 183.6217
L181.6738 183.6931
" />
<path d="M181.6738 183.6931
L181.3881 183.6931
" />
<path d="M181.3881 183.6931
L181.2452 183.6217
" />
<path d="M181.2452 183.6217
L181.1738 183.4788
" />
<path d="M181.1738 183.4788
L181.1738 182.9074
" />
<path d="M181.1738 182.9074
L181.2452 182.7645
" />
<path d="M181.2452 182.7645
L181.3881 182.6931
" />
<path d="M181.3881 182.6931
L181.6738 182.6931
" />
<path d="M181.6738 182.6931
L181.8166 182.7645
" />
<path d="M181.8166 182.7645
L181.8881 182.9074
" />
<path d="M181.8881 182.9074
L181.8881 183.0502
" />
<path d="M181.8881 183.0502
L181.1738 183.1931
" />
<path d="M183.1023 183.6217
L182.9595 183.6931
" />
<path d="M182.9595 183.6931
L182.6738 183.6931
" />
<path d="M182.6738 183.6931
L182.5309 183.6217
" />
<path d="M182.5309 183.6217
L182.4595 183.4788
" />
<path d="M182.4595 183.4788
L182.4595 182.9074
" />
<path d="M182.4595 182.9074
L182.5309 182.7645
" />
<path d="M182.5309 182.7645
L182.6738 182.6931
" />
<path d="M182.6738 182.6931
L182.9595 182.6931
" />
<path d="M182.9595 182.6931
L183.1023 182.7645
" />
<path d="M183.1023 182.7645
L183.1738 182.9074
" />
<path d="M183.1738 182.9074
L183.1738 183.0502
" />
<path d="M183.1738 183.0502
L182.4595 183.1931
" />
<path d="M183.6023 182.6931
L184.1737 182.6931
" />
<path d="M183.8166 182.1931
L183.8166 183.4788
" />
<path d="M183.8166 183.4788
L183.8880 183.6217
" />
<path d="M183.8880 183.6217
L184.0309 183.6931
" />
<path d="M184.0309 183.6931
L184.1737 183.6931
" />
<path d="M184.6737 183.5502
L184.7451 183.6217
" />
<path d="M184.7451 183.6217
L184.6737 183.6931
" />
<path d="M184.6737 183.6931
L184.6023 183.6217
" />
<path d="M184.6023 183.6217
L184.6737 183.5502
" />
<path d="M184.6737 183.5502
L184.6737 183.6931
" />
<path d="M184.6737 182.7645
L184.7451 182.8359
" />
<path d="M184.7451 182.8359
L184.6737 182.9074
" />
<path d="M184.6737 182.9074
L184.6023 182.8359
" />
<path d="M184.6023 182.8359
L184.6737 182.7645
" />
<path d="M184.6737 182.7645
L184.6737 182.9074
" />
<path d="M187.6023 182.1217
L186.3166 184.0502
" />
<path d="M188.1023 183.6931
L188.1023 182.1931
" />
<path d="M188.1023 182.1931
L188.6023 183.2645
" />
<path d="M188.6023 183.2645
L189.1023 182.1931
" />
<path d="M189.1023 182.1931
L189.1023 183.6931
" />
<path d="M190.3880 183.6217
L190.2452 183.6931
" />
<path d="M190.2452 183.6931
L189.9595 183.6931
" />
<path d="M189.9595 183.6931
L189.8166 183.6217
" />
<path d="M189.8166 183.6217
L189.7452 183.4788
" />
<path d="M189.7452 183.4788
L189.7452 182.9074
" />
<path d="M189.7452 182.9074
L189.8166 182.7645
" />
<path d="M189.8166 182.7645
L189.9595 182.6931
" />
<path d="M189.9595 182.6931
L190.2452 182.6931
" />
<path d="M190.2452 182.6931
L190.3880 182.7645
" />
<path d="M190.3880 182.7645
L190.4595 182.9074
" />
<path d="M190.4595 182.9074
L190.4595 183.0502
" />
<path d="M190.4595 183.0502
L189.7452 183.1931
" />
<path d="M191.7452 183.6217
L191.6023 183.6931
" />
<path d="M191.6023 183.6931
L191.3166 183.6931
" />
<path d="M191.3166 183.6931
L191.1737 183.6217
" />
<path d="M191.1737 183.6217
L191.1023 183.5502
" />
<path d="M191.1023 183.5502
L191.0309 183.4074
" />
<path d="M191.0309 183.4074
L191.0309 182.9788
" />
<path d="M191.0309 182.9788
L191.1023 182.8359
" />
<path d="M191.1023 182.8359
L191.1737 182.7645
" />
<path d="M191.1737 182.7645
L191.3166 182.6931
" />
<path d="M191.3166 182.6931
L191.6023 182.6931
" />
<path d="M191.6023 182.6931
L191.7452 182.7645
" />
<path d="M192.3880 183.6931
L192.3880 182.1931
" />
<path d="M193.0309 183.6931
L193.0309 182.9074
" />
<path d="M193.0309 182.9074
L192.9594 182.7645
" />
<path d="M192.9594 182.7645
L192.8166 182.6931
" />
<path d="M192.8166 182.6931
L192.6023 182.6931
" />
<path d="M192.6023 182.6931
L192.4594 182.7645
" />
<path d="M192.4594 182.7645
L192.3880 182.8359
" />
<path d="M194.3880 183.6931
L194.3880 182.9074
" />
<path d="M194.3880 182.9074
L194.3165 182.7645
" />
<path d="M194.3165 182.7645
L194.1737 182.6931
" />
<path d="M194.1737 182.6931
L193.8880 182.6931
" />
<path d="M193.8880 182.6931
L193.7451 182.7645
" />
<path d="M194.3880 183.6217
L194.2451 183.6931
" />
<path d="M194.2451 183.6931
L193.8880 183.6931
" />
<path d="M193.8880 183.6931
L193.7451 183.6217
" />
<path d="M193.7451 183.6217
L193.6737 183.4788
" />
<path d="M193.6737 183.4788
L193.6737 183.3359
" />
<path d="M193.6737 183.3359
L193.7451 183.1931
" />
<path d="M193.7451 183.1931
L193.8880 183.1217
" />
<path d="M193.8880 183.1217
L194.2451 183.1217
" />
<path d="M194.2451 183.1217
L194.3880 183.0502
" />
<path d="M195.1022 182.6931
L195.1022 183.6931
" />
<path d="M195.1022 182.8359
L195.1736 182.7645
" />
<path d="M195.1736 182.7645
L195.3165 182.6931
" />
<path d="M195.3165 182.6931
L195.5308 182.6931
" />
<path d="M195.5308 182.6931
L195.6736 182.7645
" />
<path d="M195.6736 182.7645
L195.7451 182.9074
" />
<path d="M195.7451 182.9074
L195.7451 183.6931
" />
<path d="M196.4593 183.6931
L196.4593 182.6931
" />
<path d="M196.4593 182.1931
L196.3879 182.2645
" />
<path d="M196.3879 182.2645
L196.4593 182.3359
" />
<path d="M196.4593 182.3359
L196.5307 182.2645
" />
<path d="M196.5307 182.2645
L196.4593 182.1931
" />
<path d="M196.4593 182.1931
L196.4593 182.3359
" />
<path d="M197.8165 183.6217
L197.6736 183.6931
" />
<path d="M197.6736 183.6931
L197.3879 183.6931
" />
<path d="M197.3879 183.6931
L197.2450 183.6217
" />
<path d="M197.2450 183.6217
L197.1736 183.5502
" />
<path d="M197.1736 183.5502
L197.1022 183.4074
" />
<path d="M197.1022 183.4074
L197.1022 182.9788
" />
<path d="M197.1022 182.9788
L197.1736 182.8359
" />
<path d="M197.1736 182.8359
L197.2450 182.7645
" />
<path d="M197.2450 182.7645
L197.3879 182.6931
" />
<path d="M197.3879 182.6931
L197.6736 182.6931
" />
<path d="M197.6736 182.6931
L197.8165 182.7645
" />
<path d="M199.5307 182.1217
L198.2450 184.0502
" />
</g></g>
<g style="fill:none; 
stroke:#840000; stroke-width:0.3000; stroke-opacity:1; 
stroke-linecap:round; stroke-linejoin:round;">
<text x="178.0022" y="180.7572"
textLength="0.9000" font-size="2.0000" lengthAdjust="spacingAndGlyphs"
text-anchor="start" opacity="0" stroke-opacity="0"></text>
<g class="stroked-text"><desc></desc>
</g></g>
<g style="fill:none; 
stroke:#840000; stroke-width:0.1524; stroke-opacity:1; 
stroke-linecap:round; stroke-linejoin:round;">
<text x="178.0022" y="177.7572"
textLength="0.4572" font-size="2.0000" lengthAdjust="spacingAndGlyphs"
text-anchor="start" opacity="0" stroke-opacity="0"></text>
<g class="stroked-text"><desc></desc>
</g><text x="178.0022" y="174.7572"
textLength="0.4572" font-size="2.0000" lengthAdjust="spacingAndGlyphs"
text-anchor="start" opacity="0" stroke-opacity="0"></text>
<g class="stroked-text"><desc></desc>
</g><text x="178.0022" y="171.7572"
textLength="0.4572" font-size="2.0000" lengthAdjust="spacingAndGlyphs"
text-anchor="start" opacity="0" stroke-opacity="0"></text>
<g class="stroked-text"><desc></desc>
</g><text x="178.0022" y="168.7572"
textLength="0.4572" font-size="2.0000" lengthAdjust="spacingAndGlyphs"
text-anchor="start" opacity="0" stroke-opacity="0"></text>
<g class="stroked-text"><desc></desc>
</g><path d="M197.0022 191.5072
L197.0022 194.5072
" />
<path d="M261.0022 191.5072
L261.0022 198.0072
" />
</g>
<g style="fill:none; 
stroke:#840000; stroke-width:1.2700; stroke-opacity:1; 
stroke-linecap:round; stroke-linejoin:round;">
<circle cx="71.1200" cy="68.5800" r="1.2700" /> 
</g>
<g style="fill:none; 
stroke:#006464; stroke-width:0.1524; stroke-opacity:1; 
stroke-linecap:round; stroke-linejoin:round;">
<text x="75.0412" y="67.9449"
textLength="2.7432" font-size="1.6933" lengthAdjust="spacingAndGlyphs"
text-anchor="middle" opacity="0" stroke-opacity="0">H1</text>
<g class="stroked-text"><desc>H1</desc>
<path d="M74.0735 67.8894
L74.0735 66.6194
" />
<path d="M74.0735 67.2242
L74.7992 67.2242
" />
<path d="M74.7992 67.8894
L74.7992 66.6194
" />
<path d="M76.0693 67.8894
L75.3436 67.8894
" />
<path d="M75.7064 67.8894
L75.7064 66.6194
" />
<path d="M75.7064 66.6194
L75.5855 66.8009
" />
<path d="M75.5855 66.8009
L75.4645 66.9218
" />
<path d="M75.4645 66.9218
L75.3436 66.9823
" />
</g><text x="80.1513" y="70.4849"
textLength="12.9634" font-size="1.6933" lengthAdjust="spacingAndGlyphs"
text-anchor="middle" opacity="0" stroke-opacity="0">MountingHole</text>
<g class="stroked-text"><desc>MountingHole</desc>
<path d="M74.0735 70.4294
L74.0735 69.1594
" />
<path d="M74.0735 69.1594
L74.4969 70.0666
" />
<path d="M74.4969 70.0666
L74.9202 69.1594
" />
<path d="M74.9202 69.1594
L74.9202 70.4294
" />
<path d="M75.7064 70.4294
L75.5854 70.3690
" />
<path d="M75.5854 70.3690
L75.5249 70.3085
" />
<path d="M75.5249 70.3085
L75.4645 70.1875
" />
<path d="M75.4645 70.1875
L75.4645 69.8247
" />
<path d="M75.4645 69.8247
L75.5249 69.7037
" />
<path d="M75.5249 69.7037
L75.5854 69.6432
" />
<path d="M75.5854 69.6432
L75.7064 69.5828
" />
<path d="M75.7064 69.5828
L75.8878 69.5828
" />
<path d="M75.8878 69.5828
L76.0087 69.6432
" />
<path d="M76.0087 69.6432
L76.0692 69.7037
" />
<path d="M76.0692 69.7037
L76.1297 69.8247
" />
<path d="M76.1297 69.8247
L76.1297 70.1875
" />
<path d="M76.1297 70.1875
L76.0692 70.3085
" />
<path d="M76.0692 70.3085
L76.0087 70.3690
" />
<path d="M76.0087 70.3690
L75.8878 70.4294
" />
<path d="M75.8878 70.4294
L75.7064 70.4294
" />
<path d="M77.2182 69.5828
L77.2182 70.4294
" />
<path d="M76.6739 69.5828
L76.6739 70.2480
" />
<path d="M76.6739 70.2480
L76.7344 70.3690
" />
<path d="M76.7344 70.3690
L76.8554 70.4294
" />
<path d="M76.8554 70.4294
L77.0368 70.4294
" />
<path d="M77.0368 70.4294
L77.1577 70.3690
" />
<path d="M77.1577 70.3690
L77.2182 70.3085
" />
<path d="M77.8229 69.5828
L77.8229 70.4294
" />
<path d="M77.8229 69.7037
L77.8834 69.6432
" />
<path d="M77.8834 69.6432
L78.0044 69.5828
" />
<path d="M78.0044 69.5828
L78.1858 69.5828
" />
<path d="M78.1858 69.5828
L78.3067 69.6432
" />
<path d="M78.3067 69.6432
L78.3672 69.7642
" />
<path d="M78.3672 69.7642
L78.3672 70.4294
" />
<path d="M78.7905 69.5828
L79.2743 69.5828
" />
<path d="M78.9719 69.1594
L78.9719 70.2480
" />
<path d="M78.9719 70.2480
L79.0324 70.3690
" />
<path d="M79.0324 70.3690
L79.1534 70.4294
" />
<path d="M79.1534 70.4294
L79.2743 70.4294
" />
<path d="M79.6976 70.4294
L79.6976 69.5828
" />
<path d="M79.6976 69.1594
L79.6372 69.2199
" />
<path d="M79.6372 69.2199
L79.6976 69.2804
" />
<path d="M79.6976 69.2804
L79.7581 69.2199
" />
<path d="M79.7581 69.2199
L79.6976 69.1594
" />
<path d="M79.6976 69.1594
L79.6976 69.2804
" />
<path d="M80.3024 69.5828
L80.3024 70.4294
" />
<path d="M80.3024 69.7037
L80.3629 69.6432
" />
<path d="M80.3629 69.6432
L80.4839 69.5828
" />
<path d="M80.4839 69.5828
L80.6653 69.5828
" />
<path d="M80.6653 69.5828
L80.7862 69.6432
" />
<path d="M80.7862 69.6432
L80.8467 69.7642
" />
<path d="M80.8467 69.7642
L80.8467 70.4294
" />
<path d="M81.9957 69.5828
L81.9957 70.6109
" />
<path d="M81.9957 70.6109
L81.9352 70.7318
" />
<path d="M81.9352 70.7318
L81.8748 70.7923
" />
<path d="M81.8748 70.7923
L81.7538 70.8528
" />
<path d="M81.7538 70.8528
L81.5724 70.8528
" />
<path d="M81.5724 70.8528
L81.4514 70.7923
" />
<path d="M81.9957 70.3690
L81.8748 70.4294
" />
<path d="M81.8748 70.4294
L81.6329 70.4294
" />
<path d="M81.6329 70.4294
L81.5119 70.3690
" />
<path d="M81.5119 70.3690
L81.4514 70.3085
" />
<path d="M81.4514 70.3085
L81.3910 70.1875
" />
<path d="M81.3910 70.1875
L81.3910 69.8247
" />
<path d="M81.3910 69.8247
L81.4514 69.7037
" />
<path d="M81.4514 69.7037
L81.5119 69.6432
" />
<path d="M81.5119 69.6432
L81.6329 69.5828
" />
<path d="M81.6329 69.5828
L81.8748 69.5828
" />
<path d="M81.8748 69.5828
L81.9957 69.6432
" />
<path d="M82.6004 70.4294
L82.6004 69.1594
" />
<path d="M82.6004 69.7642
L83.3261 69.7642
" />
<path d="M83.3261 70.4294
L83.3261 69.1594
" />
<path d="M84.1124 70.4294
L83.9914 70.3690
" />
<path d="M83.9914 70.3690
L83.9309 70.3085
" />
<path d="M83.9309 70.3085
L83.8705 70.1875
" />
<path d="M83.8705 70.1875
L83.8705 69.8247
" />
<path d="M83.8705 69.8247
L83.9309 69.7037
" />
<path d="M83.9309 69.7037
L83.9914 69.6432
" />
<path d="M83.9914 69.6432
L84.1124 69.5828
" />
<path d="M84.1124 69.5828
L84.2938 69.5828
" />
<path d="M84.2938 69.5828
L84.4147 69.6432
" />
<path d="M84.4147 69.6432
L84.4752 69.7037
" />
<path d="M84.4752 69.7037
L84.5357 69.8247
" />
<path d="M84.5357 69.8247
L84.5357 70.1875
" />
<path d="M84.5357 70.1875
L84.4752 70.3085
" />
<path d="M84.4752 70.3085
L84.4147 70.3690
" />
<path d="M84.4147 70.3690
L84.2938 70.4294
" />
<path d="M84.2938 70.4294
L84.1124 70.4294
" />
<path d="M85.2614 70.4294
L85.1404 70.3690
" />
<path d="M85.1404 70.3690
L85.0799 70.2480
" />
<path d="M85.0799 70.2480
L85.0799 69.1594
" />
<path d="M86.2289 70.3690
L86.1080 70.4294
" />
<path d="M86.1080 70.4294
L85.8661 70.4294
" />
<path d="M85.8661 70.4294
L85.7451 70.3690
" />
<path d="M85.7451 70.3690
L85.6847 70.2480
" />
<path d="M85.6847 70.2480
L85.6847 69.7642
" />
<path d="M85.6847 69.7642
L85.7451 69.6432
" />
<path d="M85.7451 69.6432
L85.8661 69.5828
" />
<path d="M85.8661 69.5828
L86.1080 69.5828
" />
<path d="M86.1080 69.5828
L86.2289 69.6432
" />
<path d="M86.2289 69.6432
L86.2894 69.7642
" />
<path d="M86.2894 69.7642
L86.2894 69.8851
" />
<path d="M86.2894 69.8851
L85.6847 70.0061
" />
</g></g>
<g style="fill:none; 
stroke:#840000; stroke-width:1.2700; stroke-opacity:1; 
stroke-linecap:round; stroke-linejoin:round;">
<circle cx="99.0600" cy="68.5800" r="1.2700" /> 
</g>
<g style="fill:none; 
stroke:#006464; stroke-width:0.1524; stroke-opacity:1; 
stroke-linecap:round; stroke-linejoin:round;">
<text x="102.9812" y="67.9449"
textLength="2.7432" font-size="1.6933" lengthAdjust="spacingAndGlyphs"
text-anchor="middle" opacity="0" stroke-opacity="0">H2</text>
<g class="stroked-text"><desc>H2</desc>
<path d="M102.0135 67.8894
L102.0135 66.6194
" />
<path d="M102.0135 67.2242
L102.7392 67.2242
" />
<path d="M102.7392 67.8894
L102.7392 66.6194
" />
<path d="M103.2836 66.7404
L103.3440 66.6799
" />
<path d="M103.3440 66.6799
L103.4650 66.6194
" />
<path d="M103.4650 66.6194
L103.7674 66.6194
" />
<path d="M103.7674 66.6194
L103.8883 66.6799
" />
<path d="M103.8883 66.6799
L103.9488 66.7404
" />
<path d="M103.9488 66.7404
L104.0093 66.8613
" />
<path d="M104.0093 66.8613
L104.0093 66.9823
" />
<path d="M104.0093 66.9823
L103.9488 67.1637
" />
<path d="M103.9488 67.1637
L103.2231 67.8894
" />
<path d="M103.2231 67.8894
L104.0093 67.8894
" />
</g><text x="108.0913" y="70.4849"
textLength="12.9634" font-size="1.6933" lengthAdjust="spacingAndGlyphs"
text-anchor="middle" opacity="0" stroke-opacity="0">MountingHole</text>
<g class="stroked-text"><desc>MountingHole</desc>
<path d="M102.0135 70.4294
L102.0135 69.1594
" />
<path d="M102.0135 69.1594
L102.4369 70.0666
" />
<path d="M102.4369 70.0666
L102.8602 69.1594
" />
<path d="M102.8602 69.1594
L102.8602 70.4294
" />
<path d="M103.6464 70.4294
L103.5254 70.3690
" />
<path d="M103.5254 70.3690
L103.4649 70.3085
" />
<path d="M103.4649 70.3085
L103.4045 70.1875
" />
<path d="M103.4045 70.1875
L103.4045 69.8247
" />
<path d="M103.4045 69.8247
L103.4649 69.7037
" />
<path d="M103.4649 69.7037
L103.5254 69.6432
" />
<path d="M103.5254 69.6432
L103.6464 69.5828
" />
<path d="M103.6464 69.5828
L103.8278 69.5828
" />
<path d="M103.8278 69.5828
L103.9487 69.6432
" />
<path d="M103.9487 69.6432
L104.0092 69.7037
" />
<path d="M104.0092 69.7037
L104.0697 69.8247
" />
<path d="M104.0697 69.8247
L104.0697 70.1875
" />
<path d="M104.0697 70.1875
L104.0092 70.3085
" />
<path d="M104.0092 70.3085
L103.9487 70.3690
" />
<path d="M103.9487 70.3690
L103.8278 70.4294
" />
<path d="M103.8278 70.4294
L103.6464 70.4294
" />
<path d="M105.1582 69.5828
L105.1582 70.4294
" />
<path d="M104.6139 69.5828
L104.6139 70.2480
" />
<path d="M104.6139 70.2480
L104.6744 70.3690
" />
<path d="M104.6744 70.3690
L104.7954 70.4294
" />
<path d="M104.7954 70.4294
L104.9768 70.4294
" />
<path d="M104.9768 70.4294
L105.0977 70.3690
" />
<path d="M105.0977 70.3690
L105.1582 70.3085
" />
<path d="M105.7629 69.5828
L105.7629 70.4294
" />
<path d="M105.7629 69.7037
L105.8234 69.6432
" />
<path d="M105.8234 69.6432
L105.9444 69.5828
" />
<path d="M105.9444 69.5828
L106.1258 69.5828
" />
<path d="M106.1258 69.5828
L106.2467 69.6432
" />
<path d="M106.2467 69.6432
L106.3072 69.7642
" />
<path d="M106.3072 69.7642
L106.3072 70.4294
" />
<path d="M106.7305 69.5828
L107.2143 69.5828
" />
<path d="M106.9119 69.1594
L106.9119 70.2480
" />
<path d="M106.9119 70.2480
L106.9724 70.3690
" />
<path d="M106.9724 70.3690
L107.0934 70.4294
" />
<path d="M107.0934 70.4294
L107.2143 70.4294
" />
<path d="M107.6376 70.4294
L107.6376 69.5828
" />
<path d="M107.6376 69.1594
L107.5772 69.2199
" />
<path d="M107.5772 69.2199
L107.6376 69.2804
" />
<path d="M107.6376 69.2804
L107.6981 69.2199
" />
<path d="M107.6981 69.2199
L107.6376 69.1594
" />
<path d="M107.6376 69.1594
L107.6376 69.2804
" />
<path d="M108.2424 69.5828
L108.2424 70.4294
" />
<path d="M108.2424 69.7037
L108.3029 69.6432
" />
<path d="M108.3029 69.6432
L108.4239 69.5828
" />
<path d="M108.4239 69.5828
L108.6053 69.5828
" />
<path d="M108.6053 69.5828
L108.7262 69.6432
" />
<path d="M108.7262 69.6432
L108.7867 69.7642
" />
<path d="M108.7867 69.7642
L108.7867 70.4294
" />
<path d="M109.9357 69.5828
L109.9357 70.6109
" />
<path d="M109.9357 70.6109
L109.8752 70.7318
" />
<path d="M109.8752 70.7318
L109.8148 70.7923
" />
<path d="M109.8148 70.7923
L109.6938 70.8528
" />
<path d="M109.6938 70.8528
L109.5124 70.8528
" />
<path d="M109.5124 70.8528
L109.3914 70.7923
" />
<path d="M109.9357 70.3690
L109.8148 70.4294
" />
<path d="M109.8148 70.4294
L109.5729 70.4294
" />
<path d="M109.5729 70.4294
L109.4519 70.3690
" />
<path d="M109.4519 70.3690
L109.3914 70.3085
" />
<path d="M109.3914 70.3085
L109.3310 70.1875
" />
<path d="M109.3310 70.1875
L109.3310 69.8247
" />
<path d="M109.3310 69.8247
L109.3914 69.7037
" />
<path d="M109.3914 69.7037
L109.4519 69.6432
" />
<path d="M109.4519 69.6432
L109.5729 69.5828
" />
<path d="M109.5729 69.5828
L109.8148 69.5828
" />
<path d="M109.8148 69.5828
L109.9357 69.6432
" />
<path d="M110.5404 70.4294
L110.5404 69.1594
" />
<path d="M110.5404 69.7642
L111.2661 69.7642
" />
<path d="M111.2661 70.4294
L111.2661 69.1594
" />
<path d="M112.0524 70.4294
L111.9314 70.3690
" />
<path d="M111.9314 70.3690
L111.8709 70.3085
" />
<path d="M111.8709 70.3085
L111.8105 70.1875
" />
<path d="M111.8105 70.1875
L111.8105 69.8247
" />
<path d="M111.8105 69.8247
L111.8709 69.7037
" />
<path d="M111.8709 69.7037
L111.9314 69.6432
" />
<path d="M111.9314 69.6432
L112.0524 69.5828
" />
<path d="M112.0524 69.5828
L112.2338 69.5828
" />
<path d="M112.2338 69.5828
L112.3547 69.6432
" />
<path d="M112.3547 69.6432
L112.4152 69.7037
" />
<path d="M112.4152 69.7037
L112.4757 69.8247
" />
<path d="M112.4757 69.8247
L112.4757 70.1875
" />
<path d="M112.4757 70.1875
L112.4152 70.3085
" />
<path d="M112.4152 70.3085
L112.3547 70.3690
" />
<path d="M112.3547 70.3690
L112.2338 70.4294
" />
<path d="M112.2338 70.4294
L112.0524 70.4294
" />
<path d="M113.2014 70.4294
L113.0804 70.3690
" />
<path d="M113.0804 70.3690
L113.0199 70.2480
" />
<path d="M113.0199 70.2480
L113.0199 69.1594
" />
<path d="M114.1689 70.3690
L114.0480 70.4294
" />
<path d="M114.0480 70.4294
L113.8061 70.4294
" />
<path d="M113.8061 70.4294
L113.6851 70.3690
" />
<path d="M113.6851 70.3690
L113.6247 70.2480
" />
<path d="M113.6247 70.2480
L113.6247 69.7642
" />
<path d="M113.6247 69.7642
L113.6851 69.6432
" />
<path d="M113.6851 69.6432
L113.8061 69.5828
" />
<path d="M113.8061 69.5828
L114.0480 69.5828
" />
<path d="M114.0480 69.5828
L114.1689 69.6432
" />
<path d="M114.1689 69.6432
L114.2294 69.7642
" />
<path d="M114.2294 69.7642
L114.2294 69.8851
" />
<path d="M114.2294 69.8851
L113.6247 70.0061
" />
</g></g>
<g style="fill:none; 
stroke:#840000; stroke-width:1.2700; stroke-opacity:1; 
stroke-linecap:round; stroke-linejoin:round;">
<circle cx="99.0600" cy="83.8200" r="1.2700" /> 
</g>
<g style="fill:none; 
stroke:#006464; stroke-width:0.1524; stroke-opacity:1; 
stroke-linecap:round; stroke-linejoin:round;">
<text x="102.9812" y="83.1849"
textLength="2.7432" font-size="1.6933" lengthAdjust="spacingAndGlyphs"
text-anchor="middle" opacity="0" stroke-opacity="0">H3</text>
<g class="stroked-text"><desc>H3</desc>
<path d="M102.0135 83.1294
L102.0135 81.8594
" />
<path d="M102.0135 82.4642
L102.7392 82.4642
" />
<path d="M102.7392 83.1294
L102.7392 81.8594
" />
<path d="M103.2231 81.8594
L104.0093 81.8594
" />
<path d="M104.0093 81.8594
L103.5859 82.3432
" />
<path d="M103.5859 82.3432
L103.7674 82.3432
" />
<path d="M103.7674 82.3432
L103.8883 82.4037
" />
<path d="M103.8883 82.4037
L103.9488 82.4642
" />
<path d="M103.9488 82.4642
L104.0093 82.5851
" />
<path d="M104.0093 82.5851
L104.0093 82.8875
" />
<path d="M104.0093 82.8875
L103.9488 83.0085
" />
<path d="M103.9488 83.0085
L103.8883 83.0690
" />
<path d="M103.8883 83.0690
L103.7674 83.1294
" />
<path d="M103.7674 83.1294
L103.4045 83.1294
" />
<path d="M103.4045 83.1294
L103.2836 83.0690
" />
<path d="M103.2836 83.0690
L103.2231 83.0085
" />
</g><text x="108.0913" y="85.7249"
textLength="12.9634" font-size="1.6933" lengthAdjust="spacingAndGlyphs"
text-anchor="middle" opacity="0" stroke-opacity="0">MountingHole</text>
<g class="stroked-text"><desc>MountingHole</desc>
<path d="M102.0135 85.6694
L102.0135 84.3994
" />
<path d="M102.0135 84.3994
L102.4369 85.3066
" />
<path d="M102.4369 85.3066
L102.8602 84.3994
" />
<path d="M102.8602 84.3994
L102.8602 85.6694
" />
<path d="M103.6464 85.6694
L103.5254 85.6090
" />
<path d="M103.5254 85.6090
L103.4649 85.5485
" />
<path d="M103.4649 85.5485
L103.4045 85.4275
" />
<path d="M103.4045 85.4275
L103.4045 85.0647
" />
<path d="M103.4045 85.0647
L103.4649 84.9437
" />
<path d="M103.4649 84.9437
L103.5254 84.8832
" />
<path d="M103.5254 84.8832
L103.6464 84.8228
" />
<path d="M103.6464 84.8228
L103.8278 84.8228
" />
<path d="M103.8278 84.8228
L103.9487 84.8832
" />
<path d="M103.9487 84.8832
L104.0092 84.9437
" />
<path d="M104.0092 84.9437
L104.0697 85.0647
" />
<path d="M104.0697 85.0647
L104.0697 85.4275
" />
<path d="M104.0697 85.4275
L104.0092 85.5485
" />
<path d="M104.0092 85.5485
L103.9487 85.6090
" />
<path d="M103.9487 85.6090
L103.8278 85.6694
" />
<path d="M103.8278 85.6694
L103.6464 85.6694
" />
<path d="M105.1582 84.8228
L105.1582 85.6694
" />
<path d="M104.6139 84.8228
L104.6139 85.4880
" />
<path d="M104.6139 85.4880
L104.6744 85.6090
" />
<path d="M104.6744 85.6090
L104.7954 85.6694
" />
<path d="M104.7954 85.6694
L104.9768 85.6694
" />
<path d="M104.9768 85.6694
L105.0977 85.6090
" />
<path d="M105.0977 85.6090
L105.1582 85.5485
" />
<path d="M105.7629 84.8228
L105.7629 85.6694
" />
<path d="M105.7629 84.9437
L105.8234 84.8832
" />
<path d="M105.8234 84.8832
L105.9444 84.8228
" />
<path d="M105.9444 84.8228
L106.1258 84.8228
" />
<path d="M106.1258 84.8228
L106.2467 84.8832
" />
<path d="M106.2467 84.8832
L106.3072 85.0042
" />
<path d="M106.3072 85.0042
L106.3072 85.6694
" />
<path d="M106.7305 84.8228
L107.2143 84.8228
" />
<path d="M106.9119 84.3994
L106.9119 85.4880
" />
<path d="M106.9119 85.4880
L106.9724 85.6090
" />
<path d="M106.9724 85.6090
L107.0934 85.6694
" />
<path d="M107.0934 85.6694
L107.2143 85.6694
" />
<path d="M107.6376 85.6694
L107.6376 84.8228
" />
<path d="M107.6376 84.3994
L107.5772 84.4599
" />
<path d="M107.5772 84.4599
L107.6376 84.5204
" />
<path d="M107.6376 84.5204
L107.6981 84.4599
" />
<path d="M107.6981 84.4599
L107.6376 84.3994
" />
<path d="M107.6376 84.3994
L107.6376 84.5204
" />
<path d="M108.2424 84.8228
L108.2424 85.6694
" />
<path d="M108.2424 84.9437
L108.3029 84.8832
" />
<path d="M108.3029 84.8832
L108.4239 84.8228
" />
<path d="M108.4239 84.8228
L108.6053 84.8228
" />
<path d="M108.6053 84.8228
L108.7262 84.8832
" />
<path d="M108.7262 84.8832
L108.7867 85.0042
" />
<path d="M108.7867 85.0042
L108.7867 85.6694
" />
<path d="M109.9357 84.8228
L109.9357 85.8509
" />
<path d="M109.9357 85.8509
L109.8752 85.9718
" />
<path d="M109.8752 85.9718
L109.8148 86.0323
" />
<path d="M109.8148 86.0323
L109.6938 86.0928
" />
<path d="M109.6938 86.0928
L109.5124 86.0928
" />
<path d="M109.5124 86.0928
L109.3914 86.0323
" />
<path d="M109.9357 85.6090
L109.8148 85.6694
" />
<path d="M109.8148 85.6694
L109.5729 85.6694
" />
<path d="M109.5729 85.6694
L109.4519 85.6090
" />
<path d="M109.4519 85.6090
L109.3914 85.5485
" />
<path d="M109.3914 85.5485
L109.3310 85.4275
" />
<path d="M109.3310 85.4275
L109.3310 85.0647
" />
<path d="M109.3310 85.0647
L109.3914 84.9437
" />
<path d="M109.3914 84.9437
L109.4519 84.8832
" />
<path d="M109.4519 84.8832
L109.5729 84.8228
" />
<path d="M109.5729 84.8228
L109.8148 84.8228
" />
<path d="M109.8148 84.8228
L109.9357 84.8832
" />
<path d="M110.5404 85.6694
L110.5404 84.3994
" />
<path d="M110.5404 85.0042
L111.2661 85.0042
" />
<path d="M111.2661 85.6694
L111.2661 84.3994
" />
<path d="M112.0524 85.6694
L111.9314 85.6090
" />
<path d="M111.9314 85.6090
L111.8709 85.5485
" />
<path d="M111.8709 85.5485
L111.8105 85.4275
" />
<path d="M111.8105 85.4275
L111.8105 85.0647
" />
<path d="M111.8105 85.0647
L111.8709 84.9437
" />
<path d="M111.8709 84.9437
L111.9314 84.8832
" />
<path d="M111.9314 84.8832
L112.0524 84.8228
" />
<path d="M112.0524 84.8228
L112.2338 84.8228
" />
<path d="M112.2338 84.8228
L112.3547 84.8832
" />
<path d="M112.3547 84.8832
L112.4152 84.9437
" />
<path d="M112.4152 84.9437
L112.4757 85.0647
" />
<path d="M112.4757 85.0647
L112.4757 85.4275
" />
<path d="M112.4757 85.4275
L112.4152 85.5485
" />
<path d="M112.4152 85.5485
L112.3547 85.6090
" />
<path d="M112.3547 85.6090
L112.2338 85.6694
" />
<path d="M112.2338 85.6694
L112.0524 85.6694
" />
<path d="M113.2014 85.6694
L113.0804 85.6090
" />
<path d="M113.0804 85.6090
L113.0199 85.4880
" />
<path d="M113.0199 85.4880
L113.0199 84.3994
" />
<path d="M114.1689 85.6090
L114.0480 85.6694
" />
<path d="M114.0480 85.6694
L113.8061 85.6694
" />
<path d="M113.8061 85.6694
L113.6851 85.6090
" />
<path d="M113.6851 85.6090
L113.6247 85.4880
" />
<path d="M113.6247 85.4880
L113.6247 85.0042
" />
<path d="M113.6247 85.0042
L113.6851 84.8832
" />
<path d="M113.6851 84.8832
L113.8061 84.8228
" />
<path d="M113.8061 84.8228
L114.0480 84.8228
" />
<path d="M114.0480 84.8228
L114.1689 84.8832
" />
<path d="M114.1689 84.8832
L114.2294 85.0042
" />
<path d="M114.2294 85.0042
L114.2294 85.1251
" />
<path d="M114.2294 85.1251
L113.6247 85.2461
" />
</g></g>
<g style="fill:none; 
stroke:#840000; stroke-width:1.2700; stroke-opacity:1; 
stroke-linecap:round; stroke-linejoin:round;">
<circle cx="72.3900" cy="83.8200" r="1.2700" /> 
</g>
<g style="fill:none; 
stroke:#006464; stroke-width:0.1524; stroke-opacity:1; 
stroke-linecap:round; stroke-linejoin:round;">
<text x="76.3112" y="83.1849"
textLength="2.7432" font-size="1.6933" lengthAdjust="spacingAndGlyphs"
text-anchor="middle" opacity="0" stroke-opacity="0">H4</text>
<g class="stroked-text"><desc>H4</desc>
<path d="M75.3435 83.1294
L75.3435 81.8594
" />
<path d="M75.3435 82.4642
L76.0692 82.4642
" />
<path d="M76.0692 83.1294
L76.0692 81.8594
" />
<path d="M77.2183 82.2828
L77.2183 83.1294
" />
<path d="M76.9159 81.7990
L76.6136 82.7061
" />
<path d="M76.6136 82.7061
L77.3997 82.7061
" />
</g><text x="81.4213" y="85.7249"
textLength="12.9634" font-size="1.6933" lengthAdjust="spacingAndGlyphs"
text-anchor="middle" opacity="0" stroke-opacity="0">MountingHole</text>
<g class="stroked-text"><desc>MountingHole</desc>
<path d="M75.3435 85.6694
L75.3435 84.3994
" />
<path d="M75.3435 84.3994
L75.7669 85.3066
" />
<path d="M75.7669 85.3066
L76.1902 84.3994
" />
<path d="M76.1902 84.3994
L76.1902 85.6694
" />
<path d="M76.9764 85.6694
L76.8554 85.6090
" />
<path d="M76.8554 85.6090
L76.7949 85.5485
" />
<path d="M76.7949 85.5485
L76.7345 85.4275
" />
<path d="M76.7345 85.4275
L76.7345 85.0647
" />
<path d="M76.7345 85.0647
L76.7949 84.9437
" />
<path d="M76.7949 84.9437
L76.8554 84.8832
" />
<path d="M76.8554 84.8832
L76.9764 84.8228
" />
<path d="M76.9764 84.8228
L77.1578 84.8228
" />
<path d="M77.1578 84.8228
L77.2787 84.8832
" />
<path d="M77.2787 84.8832
L77.3392 84.9437
" />
<path d="M77.3392 84.9437
L77.3997 85.0647
" />
<path d="M77.3997 85.0647
L77.3997 85.4275
" />
<path d="M77.3997 85.4275
L77.3392 85.5485
" />
<path d="M77.3392 85.5485
L77.2787 85.6090
" />
<path d="M77.2787 85.6090
L77.1578 85.6694
" />
<path d="M77.1578 85.6694
L76.9764 85.6694
" />
<path d="M78.4882 84.8228
L78.4882 85.6694
" />
<path d="M77.9439 84.8228
L77.9439 85.4880
" />
<path d="M77.9439 85.4880
L78.0044 85.6090
" />
<path d="M78.0044 85.6090
L78.1254 85.6694
" />
<path d="M78.1254 85.6694
L78.3068 85.6694
" />
<path d="M78.3068 85.6694
L78.4277 85.6090
" />
<path d="M78.4277 85.6090
L78.4882 85.5485
" />
<path d="M79.0929 84.8228
L79.0929 85.6694
" />
<path d="M79.0929 84.9437
L79.1534 84.8832
" />
<path d="M79.1534 84.8832
L79.2744 84.8228
" />
<path d="M79.2744 84.8228
L79.4558 84.8228
" />
<path d="M79.4558 84.8228
L79.5767 84.8832
" />
<path d="M79.5767 84.8832
L79.6372 85.0042
" />
<path d="M79.6372 85.0042
L79.6372 85.6694
" />
<path d="M80.0605 84.8228
L80.5443 84.8228
" />
<path d="M80.2419 84.3994
L80.2419 85.4880
" />
<path d="M80.2419 85.4880
L80.3024 85.6090
" />
<path d="M80.3024 85.6090
L80.4234 85.6694
" />
<path d="M80.4234 85.6694
L80.5443 85.6694
" />
<path d="M80.9676 85.6694
L80.9676 84.8228
" />
<path d="M80.9676 84.3994
L80.9072 84.4599
" />
<path d="M80.9072 84.4599
L80.9676 84.5204
" />
<path d="M80.9676 84.5204
L81.0281 84.4599
" />
<path d="M81.0281 84.4599
L80.9676 84.3994
" />
<path d="M80.9676 84.3994
L80.9676 84.5204
" />
<path d="M81.5724 84.8228
L81.5724 85.6694
" />
<path d="M81.5724 84.9437
L81.6329 84.8832
" />
<path d="M81.6329 84.8832
L81.7539 84.8228
" />
<path d="M81.7539 84.8228
L81.9353 84.8228
" />
<path d="M81.9353 84.8228
L82.0562 84.8832
" />
<path d="M82.0562 84.8832
L82.1167 85.0042
" />
<path d="M82.1167 85.0042
L82.1167 85.6694
" />
<path d="M83.2657 84.8228
L83.2657 85.8509
" />
<path d="M83.2657 85.8509
L83.2052 85.9718
" />
<path d="M83.2052 85.9718
L83.1448 86.0323
" />
<path d="M83.1448 86.0323
L83.0238 86.0928
" />
<path d="M83.0238 86.0928
L82.8424 86.0928
" />
<path d="M82.8424 86.0928
L82.7214 86.0323
" />
<path d="M83.2657 85.6090
L83.1448 85.6694
" />
<path d="M83.1448 85.6694
L82.9029 85.6694
" />
<path d="M82.9029 85.6694
L82.7819 85.6090
" />
<path d="M82.7819 85.6090
L82.7214 85.5485
" />
<path d="M82.7214 85.5485
L82.6610 85.4275
" />
<path d="M82.6610 85.4275
L82.6610 85.0647
" />
<path d="M82.6610 85.0647
L82.7214 84.9437
" />
<path d="M82.7214 84.9437
L82.7819 84.8832
" />
<path d="M82.7819 84.8832
L82.9029 84.8228
" />
<path d="M82.9029 84.8228
L83.1448 84.8228
" />
<path d="M83.1448 84.8228
L83.2657 84.8832
" />
<path d="M83.8704 85.6694
L83.8704 84.3994
" />
<path d="M83.8704 85.0042
L84.5961 85.0042
" />
<path d="M84.5961 85.6694
L84.5961 84.3994
" />
<path d="M85.3824 85.6694
L85.2614 85.6090
" />
<path d="M85.2614 85.6090
L85.2009 85.5485
" />
<path d="M85.2009 85.5485
L85.1405 85.4275
" />
<path d="M85.1405 85.4275
L85.1405 85.0647
" />
<path d="M85.1405 85.0647
L85.2009 84.9437
" />
<path d="M85.2009 84.9437
L85.2614 84.8832
" />
<path d="M85.2614 84.8832
L85.3824 84.8228
" />
<path d="M85.3824 84.8228
L85.5638 84.8228
" />
<path d="M85.5638 84.8228
L85.6847 84.8832
" />
<path d="M85.6847 84.8832
L85.7452 84.9437
" />
<path d="M85.7452 84.9437
L85.8057 85.0647
" />
<path d="M85.8057 85.0647
L85.8057 85.4275
" />
<path d="M85.8057 85.4275
L85.7452 85.5485
" />
<path d="M85.7452 85.5485
L85.6847 85.6090
" />
<path d="M85.6847 85.6090
L85.5638 85.6694
" />
<path d="M85.5638 85.6694
L85.3824 85.6694
" />
<path d="M86.5314 85.6694
L86.4104 85.6090
" />
<path d="M86.4104 85.6090
L86.3499 85.4880
" />
<path d="M86.3499 85.4880
L86.3499 84.3994
" />
<path d="M87.4989 85.6090
L87.3780 85.6694
" />
<path d="M87.3780 85.6694
L87.1361 85.6694
" />
<path d="M87.1361 85.6694
L87.0151 85.6090
" />
<path d="M87.0151 85.6090
L86.9547 85.4880
" />
<path d="M86.9547 85.4880
L86.9547 85.0042
" />
<path d="M86.9547 85.0042
L87.0151 84.8832
" />
<path d="M87.0151 84.8832
L87.1361 84.8228
" />
<path d="M87.1361 84.8228
L87.3780 84.8228
" />
<path d="M87.3780 84.8228
L87.4989 84.8832
" />
<path d="M87.4989 84.8832
L87.5594 85.0042
" />
<path d="M87.5594 85.0042
L87.5594 85.1251
" />
<path d="M87.5594 85.1251
L86.9547 85.2461
" />
</g></g> 
</svg>
