<svg xmlns="http://www.w3.org/2000/svg" xmlns:xlink="http://www.w3.org/1999/xlink" contentStyleType="text/css" height="852px" preserveAspectRatio="none" style="width:747px;height:852px;background:#FFFFFF;" version="1.1" viewBox="0 0 747 852" width="747px" zoomAndPan="magnify"><defs/><g><!--class U8G2--><g id="elem_U8G2"><rect codeLine="1" fill="#F1F1F1" height="48" id="U8G2" rx="2.5" ry="2.5" style="stroke:#181818;stroke-width:0.5;" width="70.9102" x="234.93" y="322"/><ellipse cx="249.93" cy="338" fill="#A9DCDF" rx="11" ry="11" style="stroke:#181818;stroke-width:1;"/><path d="M250.0394,333.3438 L248.8831,338.4219 L251.2113,338.4219 L250.0394,333.3438 Z M248.555,331.1094 L251.5394,331.1094 L254.8988,343.5 L252.4456,343.5 L251.68,340.4375 L248.3988,340.4375 L247.6488,343.5 L245.2113,343.5 L248.555,331.1094 Z " fill="#000000"/><text fill="#000000" font-family="sans-serif" font-size="14" font-style="italic" lengthAdjust="spacing" textLength="38.9102" x="263.93" y="342.8467">U8G2</text><line style="stroke:#181818;stroke-width:0.5;" x1="235.93" x2="304.8402" y1="354" y2="354"/><line style="stroke:#181818;stroke-width:0.5;" x1="235.93" x2="304.8402" y1="362" y2="362"/></g><!--class Display--><g id="elem_Display"><rect codeLine="2" fill="#F1F1F1" height="48" id="Display" rx="2.5" ry="2.5" style="stroke:#181818;stroke-width:0.5;" width="83.6045" x="279.58" y="431"/><ellipse cx="294.58" cy="447" fill="#ADD1B2" rx="11" ry="11" style="stroke:#181818;stroke-width:1;"/><path d="M297.5488,452.6406 Q296.9706,452.9375 296.33,453.0781 Q295.6894,453.2344 294.9863,453.2344 Q292.4863,453.2344 291.1581,451.5938 Q289.8456,449.9375 289.8456,446.8125 Q289.8456,443.6875 291.1581,442.0313 Q292.4863,440.375 294.9863,440.375 Q295.6894,440.375 296.33,440.5313 Q296.9863,440.6875 297.5488,440.9844 L297.5488,443.7031 Q296.9238,443.125 296.33,442.8594 Q295.7363,442.5781 295.1113,442.5781 Q293.7675,442.5781 293.08,443.6563 Q292.3925,444.7188 292.3925,446.8125 Q292.3925,448.9063 293.08,449.9844 Q293.7675,451.0469 295.1113,451.0469 Q295.7363,451.0469 296.33,450.7813 Q296.9238,450.5 297.5488,449.9219 L297.5488,452.6406 Z " fill="#000000"/><text fill="#000000" font-family="sans-serif" font-size="14" lengthAdjust="spacing" textLength="51.6045" x="308.58" y="451.8467">Display</text><line style="stroke:#181818;stroke-width:0.5;" x1="280.58" x2="362.1845" y1="463" y2="463"/><line style="stroke:#181818;stroke-width:0.5;" x1="280.58" x2="362.1845" y1="471" y2="471"/></g><!--class DisplayDriver--><g id="elem_DisplayDriver"><rect codeLine="3" fill="#F1F1F1" height="48" id="DisplayDriver" rx="2.5" ry="2.5" style="stroke:#181818;stroke-width:0.5;" width="176.6895" x="233.04" y="540"/><ellipse cx="248.04" cy="556" fill="#ADD1B2" rx="11" ry="11" style="stroke:#181818;stroke-width:1;"/><path d="M251.0088,561.6406 Q250.4306,561.9375 249.79,562.0781 Q249.1494,562.2344 248.4463,562.2344 Q245.9463,562.2344 244.6181,560.5938 Q243.3056,558.9375 243.3056,555.8125 Q243.3056,552.6875 244.6181,551.0313 Q245.9463,549.375 248.4463,549.375 Q249.1494,549.375 249.79,549.5313 Q250.4463,549.6875 251.0088,549.9844 L251.0088,552.7031 Q250.3838,552.125 249.79,551.8594 Q249.1963,551.5781 248.5713,551.5781 Q247.2275,551.5781 246.54,552.6563 Q245.8525,553.7188 245.8525,555.8125 Q245.8525,557.9063 246.54,558.9844 Q247.2275,560.0469 248.5713,560.0469 Q249.1963,560.0469 249.79,559.7813 Q250.3838,559.5 251.0088,558.9219 L251.0088,561.6406 Z " fill="#000000"/><text fill="#000000" font-family="sans-serif" font-size="14" lengthAdjust="spacing" textLength="144.6895" x="262.04" y="560.8467">DisplayDriver</text><line style="stroke:#181818;stroke-width:0.5;" x1="234.04" x2="408.7295" y1="572" y2="572"/><line style="stroke:#181818;stroke-width:0.5;" x1="234.04" x2="408.7295" y1="580" y2="580"/></g><!--class stm32-st7735--><g id="elem_stm32-st7735"><rect codeLine="4" fill="#F1F1F1" height="48" id="stm32-st7735" rx="2.5" ry="2.5" style="stroke:#181818;stroke-width:0.5;" width="129.6992" x="447.53" y="665"/><ellipse cx="462.53" cy="681" fill="#ADD1B2" rx="11" ry="11" style="stroke:#181818;stroke-width:1;"/><path d="M465.4988,686.6406 Q464.9206,686.9375 464.28,687.0781 Q463.6394,687.2344 462.9363,687.2344 Q460.4363,687.2344 459.1081,685.5938 Q457.7956,683.9375 457.7956,680.8125 Q457.7956,677.6875 459.1081,676.0313 Q460.4363,674.375 462.9363,674.375 Q463.6394,674.375 464.28,674.5313 Q464.9363,674.6875 465.4988,674.9844 L465.4988,677.7031 Q464.8738,677.125 464.28,676.8594 Q463.6863,676.5781 463.0613,676.5781 Q461.7175,676.5781 461.03,677.6563 Q460.3425,678.7188 460.3425,680.8125 Q460.3425,682.9063 461.03,683.9844 Q461.7175,685.0469 463.0613,685.0469 Q463.6863,685.0469 464.28,684.7813 Q464.8738,684.5 465.4988,683.9219 L465.4988,686.6406 Z " fill="#000000"/><text fill="#000000" font-family="sans-serif" font-size="14" lengthAdjust="spacing" textLength="97.6992" x="476.53" y="685.8467">stm32-st7735</text><line style="stroke:#181818;stroke-width:0.5;" x1="448.53" x2="576.2292" y1="697" y2="697"/><line style="stroke:#181818;stroke-width:0.5;" x1="448.53" x2="576.2292" y1="705" y2="705"/></g><!--class CubeMX HAL--><g id="elem_CubeMX HAL"><rect codeLine="5" fill="#F1F1F1" height="48" id="CubeMX HAL" rx="2.5" ry="2.5" style="stroke:#181818;stroke-width:0.5;" width="122.1729" x="71.3" y="665"/><ellipse cx="86.3" cy="681" fill="#ADD1B2" rx="11" ry="11" style="stroke:#181818;stroke-width:1;"/><path d="M89.2688,686.6406 Q88.6906,686.9375 88.05,687.0781 Q87.4094,687.2344 86.7063,687.2344 Q84.2063,687.2344 82.8781,685.5938 Q81.5656,683.9375 81.5656,680.8125 Q81.5656,677.6875 82.8781,676.0313 Q84.2063,674.375 86.7063,674.375 Q87.4094,674.375 88.05,674.5313 Q88.7063,674.6875 89.2688,674.9844 L89.2688,677.7031 Q88.6438,677.125 88.05,676.8594 Q87.4563,676.5781 86.8313,676.5781 Q85.4875,676.5781 84.8,677.6563 Q84.1125,678.7188 84.1125,680.8125 Q84.1125,682.9063 84.8,683.9844 Q85.4875,685.0469 86.8313,685.0469 Q87.4563,685.0469 88.05,684.7813 Q88.6438,684.5 89.2688,683.9219 L89.2688,686.6406 Z " fill="#000000"/><text fill="#000000" font-family="sans-serif" font-size="14" lengthAdjust="spacing" textLength="90.1729" x="100.3" y="685.8467">CubeMX HAL</text><line style="stroke:#181818;stroke-width:0.5;" x1="72.3" x2="192.4729" y1="697" y2="697"/><line style="stroke:#181818;stroke-width:0.5;" x1="72.3" x2="192.4729" y1="705" y2="705"/></g><!--class MUIU8G2--><g id="elem_MUIU8G2"><rect codeLine="6" fill="#F1F1F1" height="48" id="MUIU8G2" rx="2.5" ry="2.5" style="stroke:#181818;stroke-width:0.5;" width="97.3652" x="221.7" y="132"/><ellipse cx="236.7" cy="148" fill="#ADD1B2" rx="11" ry="11" style="stroke:#181818;stroke-width:1;"/><path d="M239.6688,153.6406 Q239.0906,153.9375 238.45,154.0781 Q237.8094,154.2344 237.1063,154.2344 Q234.6063,154.2344 233.2781,152.5938 Q231.9656,150.9375 231.9656,147.8125 Q231.9656,144.6875 233.2781,143.0313 Q234.6063,141.375 237.1063,141.375 Q237.8094,141.375 238.45,141.5313 Q239.1063,141.6875 239.6688,141.9844 L239.6688,144.7031 Q239.0438,144.125 238.45,143.8594 Q237.8563,143.5781 237.2313,143.5781 Q235.8875,143.5781 235.2,144.6563 Q234.5125,145.7188 234.5125,147.8125 Q234.5125,149.9063 235.2,150.9844 Q235.8875,152.0469 237.2313,152.0469 Q237.8563,152.0469 238.45,151.7813 Q239.0438,151.5 239.6688,150.9219 L239.6688,153.6406 Z " fill="#000000"/><text fill="#000000" font-family="sans-serif" font-size="14" lengthAdjust="spacing" textLength="65.3652" x="250.7" y="152.8467">MUIU8G2</text><line style="stroke:#181818;stroke-width:0.5;" x1="222.7" x2="318.0652" y1="164" y2="164"/><line style="stroke:#181818;stroke-width:0.5;" x1="222.7" x2="318.0652" y1="172" y2="172"/></g><!--class User Defined Layouts--><g id="elem_User Defined Layouts"><rect codeLine="7" fill="#F1F1F1" height="48" id="User Defined Layouts" rx="2.5" ry="2.5" style="stroke:#181818;stroke-width:0.5;" width="182.2813" x="230.24" y="7"/><ellipse cx="245.24" cy="23" fill="#ADD1B2" rx="11" ry="11" style="stroke:#181818;stroke-width:1;"/><path d="M248.2088,28.6406 Q247.6306,28.9375 246.99,29.0781 Q246.3494,29.2344 245.6463,29.2344 Q243.1463,29.2344 241.8181,27.5938 Q240.5056,25.9375 240.5056,22.8125 Q240.5056,19.6875 241.8181,18.0313 Q243.1463,16.375 245.6463,16.375 Q246.3494,16.375 246.99,16.5313 Q247.6463,16.6875 248.2088,16.9844 L248.2088,19.7031 Q247.5838,19.125 246.99,18.8594 Q246.3963,18.5781 245.7713,18.5781 Q244.4275,18.5781 243.74,19.6563 Q243.0525,20.7188 243.0525,22.8125 Q243.0525,24.9063 243.74,25.9844 Q244.4275,27.0469 245.7713,27.0469 Q246.3963,27.0469 246.99,26.7813 Q247.5838,26.5 248.2088,25.9219 L248.2088,28.6406 Z " fill="#000000"/><text fill="#000000" font-family="sans-serif" font-size="14" lengthAdjust="spacing" textLength="150.2813" x="259.24" y="27.8467">User Defined Layouts</text><line style="stroke:#181818;stroke-width:0.5;" x1="231.24" x2="411.5213" y1="39" y2="39"/><line style="stroke:#181818;stroke-width:0.5;" x1="231.24" x2="411.5213" y1="47" y2="47"/></g><!--class Hardware--><g id="elem_Hardware"><rect codeLine="8" fill="#F1F1F1" height="48" id="Hardware" rx="2.5" ry="2.5" style="stroke:#181818;stroke-width:0.5;" width="100.1475" x="82.31" y="793.7"/><ellipse cx="97.31" cy="809.7" fill="#ADD1B2" rx="11" ry="11" style="stroke:#181818;stroke-width:1;"/><path d="M100.2788,815.3406 Q99.7006,815.6375 99.06,815.7781 Q98.4194,815.9344 97.7163,815.9344 Q95.2163,815.9344 93.8881,814.2937 Q92.5756,812.6375 92.5756,809.5125 Q92.5756,806.3875 93.8881,804.7312 Q95.2163,803.075 97.7163,803.075 Q98.4194,803.075 99.06,803.2312 Q99.7163,803.3875 100.2788,803.6844 L100.2788,806.4031 Q99.6538,805.825 99.06,805.5594 Q98.4663,805.2781 97.8413,805.2781 Q96.4975,805.2781 95.81,806.3562 Q95.1225,807.4187 95.1225,809.5125 Q95.1225,811.6062 95.81,812.6844 Q96.4975,813.7469 97.8413,813.7469 Q98.4663,813.7469 99.06,813.4812 Q99.6538,813.2 100.2788,812.6219 L100.2788,815.3406 Z " fill="#000000"/><text fill="#000000" font-family="sans-serif" font-size="14" lengthAdjust="spacing" textLength="68.1475" x="111.31" y="814.5467">Hardware</text><line style="stroke:#181818;stroke-width:0.5;" x1="83.31" x2="181.4575" y1="825.7" y2="825.7"/><line style="stroke:#181818;stroke-width:0.5;" x1="83.31" x2="181.4575" y1="833.7" y2="833.7"/></g><g id="elem_GMN19"><path d="M329.89,790 L329.89,845.3984 A0,0 0 0 0 329.89,845.3984 L694.8695,845.3984 A0,0 0 0 0 694.8695,845.3984 L694.8695,800 L684.8695,790 L516.38,790 L512.38,713.24 L508.38,790 L329.89,790 A0,0 0 0 0 329.89,790 " fill="#FEFFDD" style="stroke:#181818;stroke-width:0.5;"/><path d="M684.8695,790 L684.8695,800 L694.8695,800 L684.8695,790 " fill="#FEFFDD" style="stroke:#181818;stroke-width:0.5;"/><text fill="#000000" font-family="sans-serif" font-size="13" lengthAdjust="spacing" textLength="206.6479" x="335.89" y="807.0669">Library from STMicroelectronics</text><text fill="#000000" font-family="sans-serif" font-size="13" lengthAdjust="spacing" textLength="309.2959" x="335.89" y="822.1997">(not the commonly used stm32-st7735 library).</text><text fill="#000000" font-family="sans-serif" font-size="13" lengthAdjust="spacing" textLength="343.9795" x="335.89" y="837.3325">Implements communication with the ST7735 via SPI.</text></g><g id="elem_CubeMX_NOTE"><path d="M228.57,676.44 L228.57,685 L193.7,689 L228.57,693 L228.57,701.5728 A0,0 0 0 0 228.57,701.5728 L412.2033,701.5728 A0,0 0 0 0 412.2033,701.5728 L412.2033,686.44 L402.2033,676.44 L228.57,676.44 A0,0 0 0 0 228.57,676.44 " fill="#FEFFDD" style="stroke:#181818;stroke-width:0.5;"/><path d="M402.2033,676.44 L402.2033,686.44 L412.2033,686.44 L402.2033,676.44 " fill="#FEFFDD" style="stroke:#181818;stroke-width:0.5;"/><text fill="#000000" font-family="sans-serif" font-size="13" lengthAdjust="spacing" textLength="162.6333" x="234.57" y="693.5069">Generated with CubeMX.</text></g><g id="elem_U8G2_NOTE"><path d="M6,135.87 L6,176.1356 L186.7642,176.1356 L186.7642,145.87 L176.7642,135.87 L6,135.87 " fill="#FEFFDD" style="stroke:#181818;stroke-width:0.5;"/><path d="M176.7642,135.87 L176.7642,145.87 L186.7642,145.87 L176.7642,135.87 " fill="#FEFFDD" style="stroke:#181818;stroke-width:1;"/><text fill="#000000" font-family="sans-serif" font-size="13" lengthAdjust="spacing" textLength="155.6318" x="12" y="152.9369">Part of the u8g2 library,</text><text fill="#000000" font-family="sans-serif" font-size="13" lengthAdjust="spacing" textLength="158.2598" x="12" y="168.0697">providing GUI and fonts.</text></g><!--reverse link U8G2 to Display--><g id="link_U8G2_Display"><path codeLine="10" d="M289.3198,386.7263 C297.8298,404.5663 301.72,412.75 310.22,430.57 " fill="none" id="U8G2-backto-Display" style="stroke:#181818;stroke-width:1;"/><polygon fill="none" points="281.57,370.48,283.9043,389.3095,294.7352,384.143,281.57,370.48" style="stroke:#181818;stroke-width:1;"/></g><!--reverse link Display to DisplayDriver--><g id="link_Display_DisplayDriver"><path codeLine="12" d="M321.38,491.48 C321.38,509.32 321.38,521.75 321.38,539.57 " fill="none" id="Display-backto-DisplayDriver" style="stroke:#181818;stroke-width:1;"/><polygon fill="#181818" points="321.38,479.48,317.38,485.48,321.38,491.48,325.38,485.48,321.38,479.48" style="stroke:#181818;stroke-width:1;"/></g><!--link DisplayDriver to CubeMX HAL--><g id="link_DisplayDriver_CubeMX HAL"><path codeLine="14" d="M285.39,588.43 C251.76,610.31 206.8595,639.5383 173.2695,661.3883 " fill="none" id="DisplayDriver-to-CubeMX HAL" style="stroke:#181818;stroke-width:1;stroke-dasharray:7.0,7.0;"/><polygon fill="#181818" points="168.24,664.66,177.9654,663.1055,172.4313,661.9336,173.6032,656.3995,168.24,664.66" style="stroke:#181818;stroke-width:1;"/><text fill="#000000" font-family="sans-serif" font-size="13" lengthAdjust="spacing" textLength="29.7832" x="239.38" y="631.0669">uses</text></g><!--reverse link DisplayDriver to stm32-st7735--><g id="link_DisplayDriver_stm32-st7735"><path codeLine="16" d="M362.8047,591.6783 C396.7847,613.5583 442.2,642.81 476.14,664.66 " fill="none" id="DisplayDriver-backto-stm32-st7735" style="stroke:#181818;stroke-width:1;stroke-dasharray:7.0,7.0;"/><polygon fill="#181818" points="357.76,588.43,363.1615,596.6655,361.9639,591.1369,367.4925,589.9393,357.76,588.43" style="stroke:#181818;stroke-width:1;"/><text fill="#000000" font-family="sans-serif" font-size="13" lengthAdjust="spacing" textLength="29.7832" x="428.38" y="631.0669">uses</text></g><!--link CubeMX HAL to Hardware--><g id="link_CubeMX HAL_Hardware"><path codeLine="18" d="M132.38,713.24 C132.38,736.1 132.38,764.8 132.38,787.61 " fill="none" id="CubeMX HAL-to-Hardware" style="stroke:#181818;stroke-width:1;"/><polygon fill="#181818" points="132.38,793.61,136.38,784.61,132.38,788.61,128.38,784.61,132.38,793.61" style="stroke:#181818;stroke-width:1;"/><text fill="#000000" font-family="sans-serif" font-size="13" lengthAdjust="spacing" textLength="142.9619" x="133.38" y="756.0669">communicates via SPI</text></g><!--link MUIU8G2 to U8G2--><g id="link_MUIU8G2_U8G2"><path codeLine="20" d="M270.38,180.43 C270.38,216.56 270.38,279.45 270.38,315.57 " fill="none" id="MUIU8G2-to-U8G2" style="stroke:#181818;stroke-width:1;stroke-dasharray:7.0,7.0;"/><polygon fill="#181818" points="270.38,321.57,274.38,312.57,270.38,316.57,266.38,312.57,270.38,321.57" style="stroke:#181818;stroke-width:1;"/><text fill="#000000" font-family="sans-serif" font-size="13" lengthAdjust="spacing" textLength="29.7832" x="271.38" y="255.5669">uses</text></g><!--link User Defined Layouts to MUIU8G2--><g id="link_User Defined Layouts_MUIU8G2"><path codeLine="22" d="M311.67,55.43 C302.59,77.31 291.4181,104.2676 282.3581,126.1176 " fill="none" id="User Defined Layouts-to-MUIU8G2" style="stroke:#181818;stroke-width:1;stroke-dasharray:7.0,7.0;"/><polygon fill="#181818" points="280.06,131.66,287.2022,124.8784,281.9751,127.0413,279.8123,121.8143,280.06,131.66" style="stroke:#181818;stroke-width:1;"/><text fill="#000000" font-family="sans-serif" font-size="13" lengthAdjust="spacing" textLength="29.7832" x="300.38" y="98.0669">uses</text></g><!--link User Defined Layouts to Display--><g id="link_User Defined Layouts_Display"><path codeLine="24" d="M330.6,55.37 C333.73,64.46 336.83,75.07 338.38,85 C339.55,92.47 338.48,94.45 338.38,102 C336.79,225.89 327.5026,368.0449 323.5126,424.5549 " fill="none" id="User Defined Layouts-to-Display" style="stroke:#181818;stroke-width:1;stroke-dasharray:7.0,7.0;"/><polygon fill="#181818" points="323.09,430.54,327.714,421.8441,323.4422,425.5524,319.7338,421.2806,323.09,430.54" style="stroke:#181818;stroke-width:1;"/><text fill="#000000" font-family="sans-serif" font-size="13" lengthAdjust="spacing" textLength="29.7832" x="525.0594" y="223.0669">uses</text><path d="M339.38,232.1328 L339.38,287.1328 L740.38,287.1328 L740.38,242.1328 L730.38,232.1328 L339.38,232.1328 " fill="#FEFFDD" style="stroke:#181818;stroke-width:0.5;"/><path d="M730.38,232.1328 L730.38,242.1328 L740.38,242.1328 L730.38,232.1328 " fill="#FEFFDD" style="stroke:#181818;stroke-width:0.5;"/><text fill="#000000" font-family="sans-serif" font-size="13" lengthAdjust="spacing" textLength="376.0098" x="345.38" y="249.1997">U8G2 and MUIU8G2 libraries are monochrome by default.</text><text fill="#000000" font-family="sans-serif" font-size="13" lengthAdjust="spacing" textLength="283.188" x="345.38" y="264.3325">As a workaround, the color can be changed</text><text fill="#000000" font-family="sans-serif" font-size="13" lengthAdjust="spacing" textLength="222.3076" x="345.38" y="279.4653">directly through the Display class.</text></g><!--link U8G2_NOTE to MUIU8G2--><g id="link_U8G2_NOTE_MUIU8G2"><path codeLine="51" d="M187.12,156 C198.5,156 209.89,156 221.27,156 " fill="none" id="U8G2_NOTE-MUIU8G2" style="stroke:#181818;stroke-width:1;stroke-dasharray:7.0,7.0;"/></g><!--link U8G2_NOTE to U8G2--><g id="link_U8G2_NOTE_U8G2"><path codeLine="52" d="M114.35,176.41 C146.56,211.22 214.02,284.1 248.73,321.61 " fill="none" id="U8G2_NOTE-U8G2" style="stroke:#181818;stroke-width:1;stroke-dasharray:7.0,7.0;"/></g><!--SRC=[ZP9RYzim48NVzIk6lFJ2sW-xb5rAMLYQaWqasuKaqBSYssDRh2o5aPnWw8_lMBwi4rpecpGwElhEZ6JYFCdKm-5XTIjIBPs3fN97BPj-j_FtztTV-jgIr0cfFrauNztTHYu85aFnUvtWzXSyFss6qlQmdhWl3Wu9bfWhWnbiP6DhxmRfiwJiB0c5Q6_0jpzHDEA8VW6VkJX79MQA4CUF5qpm5Mg7JeXBUeZh8old7COBKvSeUXnXMP7QgggDIgL71oSbOVUw5g8F7XZ2OhIQxK7G3NV-GphqOv0Qwn6i0QtCMzS_QRBHKAk492dcQv4hQsnQagqGaWOop6MjVGpYYO_XREbDagrDTWE-H4wdBK4g3IIyAQKf64LaYZ3rkc49QuioI0UcCCvO80EqM49yW9SMBsUZgtyJi1FhlQt0vjUdcu3TGCwiiDjlLKeMDJzCblljG7pa-prbnQcOXxkHmTIbpzvyue3hwgYnGkFTP6YAktPMlekmsuSx_HJ_bM7wpKC2wQ2h_NxvkVyXLcYG-3jadN5tD36x-4qngQBazayDfgzT3tDyiTrqybT9lcrVcw1-A8PvDpSWZcHFAbEcWDLX7Mnoo_cdoSQVgZ5dZdVRsUfV]--></g></svg>