<svg xmlns="http://www.w3.org/2000/svg" xmlns:xlink="http://www.w3.org/1999/xlink" contentStyleType="text/css" data-diagram-type="SEQUENCE" height="733px" preserveAspectRatio="none" style="width:865px;height:733px;background:#FFFFFF;" version="1.1" viewBox="0 0 865 733" width="865px" zoomAndPan="magnify"><defs/><g><rect fill="#DDDDDD" height="721.3828" style="stroke:#181818;stroke-width:0.5;" width="167.9502" x="1" y="6"/><text fill="#000000" font-family="sans-serif" font-size="13" font-weight="bold" lengthAdjust="spacing" textLength="92.0537" x="38.9482" y="18.0669">MVC pattern</text><rect fill="#DDDDDD" height="721.3828" style="stroke:#181818;stroke-width:0.5;" width="196.8184" x="303.8672" y="6"/><text fill="#000000" font-family="sans-serif" font-size="13" font-weight="bold" lengthAdjust="spacing" textLength="92.1299" x="356.2114" y="18.0669">U8G2 library</text><rect fill="#DDDDDD" height="721.3828" style="stroke:#181818;stroke-width:0.5;" width="119.6992" x="737.8647" y="6"/><text fill="#000000" font-family="sans-serif" font-size="13" font-weight="bold" lengthAdjust="spacing" textLength="83.9795" x="755.7246" y="18.0669">STM library</text><line style="stroke:#181818;stroke-width:0.5;stroke-dasharray:5.0,5.0;" x1="46" x2="46" y1="56.4297" y2="693.0859"/><line style="stroke:#181818;stroke-width:0.5;stroke-dasharray:5.0,5.0;" x1="140.4199" x2="140.4199" y1="56.4297" y2="693.0859"/><line style="stroke:#181818;stroke-width:0.5;stroke-dasharray:5.0,5.0;" x1="235.9502" x2="235.9502" y1="56.4297" y2="693.0859"/><line style="stroke:#181818;stroke-width:0.5;stroke-dasharray:5.0,5.0;" x1="346.8672" x2="346.8672" y1="56.4297" y2="693.0859"/><line style="stroke:#181818;stroke-width:0.5;stroke-dasharray:5.0,5.0;" x1="469.7754" x2="469.7754" y1="56.4297" y2="693.0859"/><line style="stroke:#181818;stroke-width:0.5;stroke-dasharray:5.0,5.0;" x1="611.6855" x2="611.6855" y1="56.4297" y2="693.0859"/><line style="stroke:#181818;stroke-width:0.5;stroke-dasharray:5.0,5.0;" x1="796.8647" x2="796.8647" y1="56.4297" y2="693.0859"/><rect fill="#E2E2F0" height="30.2969" rx="2.5" ry="2.5" style="stroke:#181818;stroke-width:0.5;" width="83.1729" x="5" y="25.1328"/><text fill="#000000" font-family="sans-serif" font-size="14" lengthAdjust="spacing" textLength="69.1729" x="12" y="45.1279">Controller</text><rect fill="#E2E2F0" height="30.2969" rx="2.5" ry="2.5" style="stroke:#181818;stroke-width:0.5;" width="83.1729" x="5" y="692.0859"/><text fill="#000000" font-family="sans-serif" font-size="14" lengthAdjust="spacing" textLength="69.1729" x="12" y="712.0811">Controller</text><rect fill="#E2E2F0" height="30.2969" rx="2.5" ry="2.5" style="stroke:#181818;stroke-width:0.5;" width="47.5303" x="117.4199" y="25.1328"/><text fill="#000000" font-family="sans-serif" font-size="14" lengthAdjust="spacing" textLength="33.5303" x="124.4199" y="45.1279">View</text><rect fill="#E2E2F0" height="30.2969" rx="2.5" ry="2.5" style="stroke:#181818;stroke-width:0.5;" width="47.5303" x="117.4199" y="692.0859"/><text fill="#000000" font-family="sans-serif" font-size="14" lengthAdjust="spacing" textLength="33.5303" x="124.4199" y="712.0811">View</text><rect fill="#E2E2F0" height="30.2969" rx="2.5" ry="2.5" style="stroke:#181818;stroke-width:0.5;" width="122.917" x="174.9502" y="25.1328"/><text fill="#000000" font-family="sans-serif" font-size="14" lengthAdjust="spacing" textLength="108.917" x="181.9502" y="45.1279">Device::Display</text><rect fill="#E2E2F0" height="30.2969" rx="2.5" ry="2.5" style="stroke:#181818;stroke-width:0.5;" width="122.917" x="174.9502" y="692.0859"/><text fill="#000000" font-family="sans-serif" font-size="14" lengthAdjust="spacing" textLength="108.917" x="181.9502" y="712.0811">Device::Display</text><rect fill="#E2E2F0" height="30.2969" rx="2.5" ry="2.5" style="stroke:#181818;stroke-width:0.5;" width="79.3652" x="307.8672" y="25.1328"/><text fill="#000000" font-family="sans-serif" font-size="14" lengthAdjust="spacing" textLength="65.3652" x="314.8672" y="45.1279">MUIU8G2</text><rect fill="#E2E2F0" height="30.2969" rx="2.5" ry="2.5" style="stroke:#181818;stroke-width:0.5;" width="79.3652" x="307.8672" y="692.0859"/><text fill="#000000" font-family="sans-serif" font-size="14" lengthAdjust="spacing" textLength="65.3652" x="314.8672" y="712.0811">MUIU8G2</text><rect fill="#E2E2F0" height="30.2969" rx="2.5" ry="2.5" style="stroke:#181818;stroke-width:0.5;" width="52.9102" x="443.7754" y="25.1328"/><text fill="#000000" font-family="sans-serif" font-size="14" lengthAdjust="spacing" textLength="38.9102" x="450.7754" y="45.1279">U8G2</text><rect fill="#E2E2F0" height="30.2969" rx="2.5" ry="2.5" style="stroke:#181818;stroke-width:0.5;" width="52.9102" x="443.7754" y="692.0859"/><text fill="#000000" font-family="sans-serif" font-size="14" lengthAdjust="spacing" textLength="38.9102" x="450.7754" y="712.0811">U8G2</text><rect fill="#E2E2F0" height="30.2969" rx="2.5" ry="2.5" style="stroke:#181818;stroke-width:0.5;" width="211.2031" x="506.6855" y="25.1328"/><text fill="#000000" font-family="sans-serif" font-size="14" lengthAdjust="spacing" textLength="197.2031" x="513.6855" y="45.1279">Driver::DisplayDriver</text><rect fill="#E2E2F0" height="30.2969" rx="2.5" ry="2.5" style="stroke:#181818;stroke-width:0.5;" width="211.2031" x="506.6855" y="692.0859"/><text fill="#000000" font-family="sans-serif" font-size="14" lengthAdjust="spacing" textLength="197.2031" x="513.6855" y="712.0811">Driver::DisplayDriver</text><rect fill="#E2E2F0" height="30.2969" rx="2.5" ry="2.5" style="stroke:#181818;stroke-width:0.5;" width="111.6992" x="741.8647" y="25.1328"/><text fill="#000000" font-family="sans-serif" font-size="14" lengthAdjust="spacing" textLength="97.6992" x="748.8647" y="45.1279">stm32-st7735</text><rect fill="#E2E2F0" height="30.2969" rx="2.5" ry="2.5" style="stroke:#181818;stroke-width:0.5;" width="111.6992" x="741.8647" y="692.0859"/><text fill="#000000" font-family="sans-serif" font-size="14" lengthAdjust="spacing" textLength="97.6992" x="748.8647" y="712.0811">stm32-st7735</text><path d="M241,71.4297 L241,111.4297 L385,111.4297 L385,81.4297 L375,71.4297 L241,71.4297 " fill="#FEFFDD" style="stroke:#181818;stroke-width:0.5;"/><path d="M375,71.4297 L375,81.4297 L385,81.4297 L375,71.4297 " fill="#FEFFDD" style="stroke:#181818;stroke-width:0.5;"/><text fill="#000000" font-family="sans-serif" font-size="13" lengthAdjust="spacing" textLength="101.1372" x="247" y="88.4966">Device::Display</text><text fill="#000000" font-family="sans-serif" font-size="13" lengthAdjust="spacing" textLength="123.8491" x="247" y="103.6294">inherits from U8G2</text><rect fill="#EEEEEE" height="3" style="stroke:#EEEEEE;stroke-width:1;" width="858.564" x="0" y="137.2617"/><line style="stroke:#000000;stroke-width:1;" x1="0" x2="858.564" y1="137.2617" y2="137.2617"/><line style="stroke:#000000;stroke-width:1;" x1="0" x2="858.564" y1="140.2617" y2="140.2617"/><rect fill="#EEEEEE" height="23.1328" style="stroke:#000000;stroke-width:2;" width="110.624" x="373.97" y="126.6953"/><text fill="#000000" font-family="sans-serif" font-size="13" font-weight="bold" lengthAdjust="spacing" textLength="92.0981" x="379.97" y="142.7622">Initialization</text><polygon fill="#181818" points="224.4087,176.9609,234.4087,180.9609,224.4087,184.9609,228.4087,180.9609" style="stroke:#181818;stroke-width:1;"/><line style="stroke:#181818;stroke-width:1;stroke-dasharray:2.0,2.0;" x1="46.5864" x2="230.4087" y1="180.9609" y2="180.9609"/><text fill="#000000" font-family="sans-serif" font-size="13" lengthAdjust="spacing" textLength="70.5986" x="53.5864" y="175.895">onInit</text><polygon fill="#181818" points="600.2871,206.0938,610.2871,210.0938,600.2871,214.0938,604.2871,210.0938" style="stroke:#181818;stroke-width:1;"/><line style="stroke:#181818;stroke-width:1;stroke-dasharray:2.0,2.0;" x1="236.4087" x2="606.2871" y1="210.0938" y2="210.0938"/><text fill="#000000" font-family="sans-serif" font-size="13" lengthAdjust="spacing" textLength="70.5986" x="243.4087" y="205.0278">onInit</text><polygon fill="#181818" points="458.2305,235.2266,468.2305,239.2266,458.2305,243.2266,462.2305,239.2266" style="stroke:#181818;stroke-width:1;"/><line style="stroke:#181818;stroke-width:1;stroke-dasharray:2.0,2.0;" x1="236.4087" x2="464.2305" y1="239.2266" y2="239.2266"/><text fill="#000000" font-family="sans-serif" font-size="13" lengthAdjust="spacing" textLength="128.8257" x="243.4087" y="234.1606">u8g2_Setup_st7735</text><polygon fill="#181818" points="785.7144,264.3594,795.7144,268.3594,785.7144,272.3594,789.7144,268.3594" style="stroke:#181818;stroke-width:1;"/><line style="stroke:#181818;stroke-width:1;stroke-dasharray:2.0,2.0;" x1="612.2871" x2="791.7144" y1="268.3594" y2="268.3594"/><text fill="#000000" font-family="sans-serif" font-size="13" lengthAdjust="spacing" textLength="161.4272" x="619.2871" y="263.2935">Initialize hardware (TBD)</text><polygon fill="#181818" points="129.1851,293.4922,139.1851,297.4922,129.1851,301.4922,133.1851,297.4922" style="stroke:#181818;stroke-width:1;"/><line style="stroke:#181818;stroke-width:1;stroke-dasharray:2.0,2.0;" x1="46.5864" x2="135.1851" y1="297.4922" y2="297.4922"/><text fill="#000000" font-family="sans-serif" font-size="13" lengthAdjust="spacing" textLength="70.5986" x="53.5864" y="292.4263">onInit</text><rect fill="#EEEEEE" height="3" style="stroke:#EEEEEE;stroke-width:1;" width="858.564" x="0" y="326.0586"/><line style="stroke:#000000;stroke-width:1;" x1="0" x2="858.564" y1="326.0586" y2="326.0586"/><line style="stroke:#000000;stroke-width:1;" x1="0" x2="858.564" y1="329.0586" y2="329.0586"/><rect fill="#EEEEEE" height="23.1328" style="stroke:#000000;stroke-width:2;" width="55.501" x="401.5315" y="315.4922"/><text fill="#000000" font-family="sans-serif" font-size="13" font-weight="bold" lengthAdjust="spacing" textLength="36.9751" x="407.5315" y="331.5591">Start</text><polygon fill="#181818" points="224.4087,365.7578,234.4087,369.7578,224.4087,373.7578,228.4087,369.7578" style="stroke:#181818;stroke-width:1;"/><line style="stroke:#181818;stroke-width:1;stroke-dasharray:2.0,2.0;" x1="46.5864" x2="230.4087" y1="369.7578" y2="369.7578"/><text fill="#000000" font-family="sans-serif" font-size="13" lengthAdjust="spacing" textLength="47.9502" x="53.5864" y="364.6919">onStart</text><polygon fill="#181818" points="600.2871,394.8906,610.2871,398.8906,600.2871,402.8906,604.2871,398.8906" style="stroke:#181818;stroke-width:1;"/><line style="stroke:#181818;stroke-width:1;stroke-dasharray:2.0,2.0;" x1="236.4087" x2="606.2871" y1="398.8906" y2="398.8906"/><text fill="#000000" font-family="sans-serif" font-size="13" lengthAdjust="spacing" textLength="47.9502" x="243.4087" y="393.8247">onStart</text><polygon fill="#181818" points="785.7144,424.0234,795.7144,428.0234,785.7144,432.0234,789.7144,428.0234" style="stroke:#181818;stroke-width:1;"/><line style="stroke:#181818;stroke-width:1;stroke-dasharray:2.0,2.0;" x1="612.2871" x2="791.7144" y1="428.0234" y2="428.0234"/><text fill="#000000" font-family="sans-serif" font-size="13" lengthAdjust="spacing" textLength="160.4116" x="619.2871" y="422.9575">Configure settings (TBD)</text><polygon fill="#181818" points="458.2305,453.1563,468.2305,457.1563,458.2305,461.1563,462.2305,457.1563" style="stroke:#181818;stroke-width:1;"/><line style="stroke:#181818;stroke-width:1;stroke-dasharray:2.0,2.0;" x1="46.5864" x2="464.2305" y1="457.1563" y2="457.1563"/><text fill="#000000" font-family="sans-serif" font-size="13" lengthAdjust="spacing" textLength="36.353" x="53.5864" y="452.0903">begin</text><polygon fill="#181818" points="335.5498,482.2891,345.5498,486.2891,335.5498,490.2891,339.5498,486.2891" style="stroke:#181818;stroke-width:1;"/><line style="stroke:#181818;stroke-width:1;stroke-dasharray:2.0,2.0;" x1="46.5864" x2="341.5498" y1="486.2891" y2="486.2891"/><text fill="#000000" font-family="sans-serif" font-size="13" lengthAdjust="spacing" textLength="36.353" x="53.5864" y="481.2231">begin</text><rect fill="#EEEEEE" height="3" style="stroke:#EEEEEE;stroke-width:1;" width="858.564" x="0" y="514.8555"/><line style="stroke:#000000;stroke-width:1;" x1="0" x2="858.564" y1="514.8555" y2="514.8555"/><line style="stroke:#000000;stroke-width:1;" x1="0" x2="858.564" y1="517.8555" y2="517.8555"/><rect fill="#EEEEEE" height="23.1328" style="stroke:#000000;stroke-width:2;" width="93.9233" x="382.3203" y="504.2891"/><text fill="#000000" font-family="sans-serif" font-size="13" font-weight="bold" lengthAdjust="spacing" textLength="75.3975" x="388.3203" y="520.356">Main Loop</text><polygon fill="#181818" points="335.5498,554.5547,345.5498,558.5547,335.5498,562.5547,339.5498,558.5547" style="stroke:#181818;stroke-width:1;"/><line style="stroke:#181818;stroke-width:1;stroke-dasharray:2.0,2.0;" x1="141.1851" x2="341.5498" y1="558.5547" y2="558.5547"/><text fill="#000000" font-family="sans-serif" font-size="13" lengthAdjust="spacing" textLength="32.1953" x="148.1851" y="553.4888">draw</text><polygon fill="#181818" points="458.2305,583.6875,468.2305,587.6875,458.2305,591.6875,462.2305,587.6875" style="stroke:#181818;stroke-width:1;"/><line style="stroke:#181818;stroke-width:1;stroke-dasharray:2.0,2.0;" x1="347.5498" x2="464.2305" y1="587.6875" y2="587.6875"/><text fill="#000000" font-family="sans-serif" font-size="13" lengthAdjust="spacing" textLength="98.6807" x="354.5498" y="582.6216">u8x8_d_st7735</text><polygon fill="#181818" points="247.4087,612.8203,237.4087,616.8203,247.4087,620.8203,243.4087,616.8203" style="stroke:#181818;stroke-width:1;"/><line style="stroke:#181818;stroke-width:1;stroke-dasharray:2.0,2.0;" x1="241.4087" x2="469.2305" y1="616.8203" y2="616.8203"/><text fill="#000000" font-family="sans-serif" font-size="13" lengthAdjust="spacing" textLength="98.6807" x="253.4087" y="611.7544">u8x8_d_st7735</text><polygon fill="#181818" points="600.2871,641.9531,610.2871,645.9531,600.2871,649.9531,604.2871,645.9531" style="stroke:#181818;stroke-width:1;"/><line style="stroke:#181818;stroke-width:1;stroke-dasharray:2.0,2.0;" x1="236.4087" x2="606.2871" y1="645.9531" y2="645.9531"/><text fill="#000000" font-family="sans-serif" font-size="13" lengthAdjust="spacing" textLength="78.7046" x="243.4087" y="640.8872">drawBitmap</text><polygon fill="#181818" points="785.7144,671.0859,795.7144,675.0859,785.7144,679.0859,789.7144,675.0859" style="stroke:#181818;stroke-width:1;"/><line style="stroke:#181818;stroke-width:1;stroke-dasharray:2.0,2.0;" x1="612.2871" x2="791.7144" y1="675.0859" y2="675.0859"/><text fill="#000000" font-family="sans-serif" font-size="13" lengthAdjust="spacing" textLength="109.0591" x="619.2871" y="670.02">Send Data (TBD)</text><!--SRC=[XL9BRu904BxlhvXmQWzUD8s6X2PLJ4C2jH5hqnDPTCL9S9Siuwk_lkoAMeYsDtRcc_aUJAeEu4Jp4HISI6Zfi89hmWKMN18u8oL9gpmNsW5UmcZoDfjEmd0yRSBcAFOMC0_6dqp89QJgm9eON-nm8LpNnxB8-T72_I1-3r- -c5GaG6Es9b2hIxKrmL2kXKOgOQNL1Zu6hrrBPOOPIuqHKuCSKytriUaa-WZimE_QPSCDiHftGhjkJFr-xwaMS2gUX4-3UHM29OrdqMrEfwHDhzifxGux5i_CPn86moklvq4WaP3d-Cq9bGJFO-oQD7Gwp-T8m0KbBsZ1pcKBiPB-GjXqNDWEicuI2zeMoKaQO_Mi0LqbLj3h8bXplTnpBU1XDlGVs_hCVsynLxvYgjBupuu5tNDID-_8gwvpXTcs4bKA8fHPMQjhyzNEKv6XRFVgoxYqZV28euHGgSAAD-PQqANcUtP-Dh8z39BbELTRR1bk8cxQDik7I1jUt7KUc_FnEV6JuHy0]--></g></svg>