<svg xmlns="http://www.w3.org/2000/svg" xmlns:xlink="http://www.w3.org/1999/xlink" contentStyleType="text/css" data-diagram-type="CLASS" height="1290px" preserveAspectRatio="none" style="width:2945px;height:1290px;background:#FFFFFF;" version="1.1" viewBox="0 0 2945 1290" width="2945px" zoomAndPan="magnify"><defs/><g><!--class globalOnSerialTx--><g id="elem_globalOnSerialTx"><rect codeLine="8" fill="#F1F1F1" height="48" id="globalOnSerialTx" rx="2.5" ry="2.5" style="stroke:#181818;stroke-width:0.5;" width="306.5352" x="290.52" y="1159.36"/><ellipse cx="305.52" cy="1175.36" fill="#ADD1B2" rx="11" ry="11" style="stroke:#181818;stroke-width:1;"/><path d="M309.6294,1181.36 L301.9106,1181.36 L301.9106,1168.9694 L309.6294,1168.9694 L309.6294,1171.1256 L304.3638,1171.1256 L304.3638,1173.7975 L309.1294,1173.7975 L309.1294,1175.9538 L304.3638,1175.9538 L304.3638,1179.2038 L309.6294,1179.2038 L309.6294,1181.36 Z " fill="#000000"/><text fill="#000000" font-family="Courier" font-size="12" lengthAdjust="spacing" textLength="274.5352" x="319.52" y="1179.5143">global&#160;onSerialTx&#160;:&#160;OnSerialTxCallback</text><line style="stroke:#181818;stroke-width:0.5;" x1="291.52" x2="596.0552" y1="1191.36" y2="1191.36"/><line style="stroke:#181818;stroke-width:0.5;" x1="291.52" x2="596.0552" y1="1199.36" y2="1199.36"/></g><!--class globalOnGpioChange--><g id="elem_globalOnGpioChange"><rect codeLine="9" fill="#F1F1F1" height="48" id="globalOnGpioChange" rx="2.5" ry="2.5" style="stroke:#181818;stroke-width:0.5;" width="335.4336" x="632.07" y="1159.36"/><ellipse cx="647.07" cy="1175.36" fill="#ADD1B2" rx="11" ry="11" style="stroke:#181818;stroke-width:1;"/><path d="M651.1794,1181.36 L643.4606,1181.36 L643.4606,1168.9694 L651.1794,1168.9694 L651.1794,1171.1256 L645.9138,1171.1256 L645.9138,1173.7975 L650.6794,1173.7975 L650.6794,1175.9538 L645.9138,1175.9538 L645.9138,1179.2038 L651.1794,1179.2038 L651.1794,1181.36 Z " fill="#000000"/><text fill="#000000" font-family="Courier" font-size="12" lengthAdjust="spacing" textLength="303.4336" x="661.07" y="1179.5143">global&#160;onGpioChange&#160;:&#160;OnGpioChangeCallback</text><line style="stroke:#181818;stroke-width:0.5;" x1="633.07" x2="966.5036" y1="1191.36" y2="1191.36"/><line style="stroke:#181818;stroke-width:0.5;" x1="633.07" x2="966.5036" y1="1199.36" y2="1199.36"/></g><!--class HmiEventHandlers--><g id="elem_HmiEventHandlers"><rect codeLine="15" fill="#F1F1F1" height="178.375" id="HmiEventHandlers" rx="2.5" ry="2.5" style="stroke:#181818;stroke-width:0.5;" width="600.1846" x="321.69" y="788.04"/><ellipse cx="559.7354" cy="804.04" fill="#ADD1B2" rx="11" ry="11" style="stroke:#181818;stroke-width:1;"/><path d="M562.7042,809.6806 Q562.126,809.9775 561.4854,810.1181 Q560.8448,810.2744 560.1417,810.2744 Q557.6417,810.2744 556.3135,808.6338 Q555.001,806.9775 555.001,803.8525 Q555.001,800.7275 556.3135,799.0713 Q557.6417,797.415 560.1417,797.415 Q560.8448,797.415 561.4854,797.5713 Q562.1417,797.7275 562.7042,798.0244 L562.7042,800.7431 Q562.0792,800.165 561.4854,799.8994 Q560.8917,799.6181 560.2667,799.6181 Q558.9229,799.6181 558.2354,800.6963 Q557.5479,801.7588 557.5479,803.8525 Q557.5479,805.9463 558.2354,807.0244 Q558.9229,808.0869 560.2667,808.0869 Q560.8917,808.0869 561.4854,807.8213 Q562.0792,807.54 562.7042,806.9619 L562.7042,809.6806 Z " fill="#000000"/><text fill="#000000" font-family="Courier" font-size="12" lengthAdjust="spacing" textLength="115.5938" x="580.2354" y="808.1943">HmiEventHandlers</text><line style="stroke:#181818;stroke-width:0.5;" x1="322.69" x2="920.8746" y1="820.04" y2="820.04"/><text fill="#000000" font-family="sans-serif" font-size="14" lengthAdjust="spacing" textLength="376.7422" x="327.69" y="837.0351">+registerOnSerialTx(callback : "void(*)(char*)") : void</text><text fill="#000000" font-family="sans-serif" font-size="14" lengthAdjust="spacing" textLength="461.9111" x="327.69" y="853.332">+registerOnGpioChange(callback : OnGpioChangeCallback) : void</text><text fill="#000000" font-family="sans-serif" font-size="14" lengthAdjust="spacing" textLength="203.8135" x="327.69" y="869.6289">+serialTx(data : char*) : void</text><text fill="#000000" font-family="sans-serif" font-size="14" lengthAdjust="spacing" textLength="346.6572" x="327.69" y="885.9257">+setPinState(gpioId : GPIO_ID, state : bool) : void</text><text fill="#000000" font-family="sans-serif" font-size="14" lengthAdjust="spacing" textLength="588.1846" x="327.69" y="902.2226">+serialRx(pData : uint8_t*, Size : uint16_t, Timeout : uint32_t) : HAL_StatusTypeDef</text><line style="stroke:#181818;stroke-width:1;" x1="322.69" x2="920.8746" y1="909.5244" y2="909.5244"/><text fill="#000000" font-family="sans-serif" font-size="14" lengthAdjust="spacing" textLength="228.3066" x="327.69" y="926.5195">-onSerialTx : OnSerialTxCallback</text><text fill="#000000" font-family="sans-serif" font-size="14" lengthAdjust="spacing" textLength="286.9863" x="327.69" y="942.8164">-onGpioChange : OnGpioChangeCallback</text><text fill="#000000" font-family="sans-serif" font-size="14" lengthAdjust="spacing" textLength="257.1543" x="327.69" y="959.1132">-uartQueueTx : std::deque&lt;uint8_t&gt;</text></g><!--class LibWrapper--><g id="elem_LibWrapper"><rect codeLine="30" fill="#F1F1F1" height="129.4844" id="LibWrapper" rx="2.5" ry="2.5" style="stroke:#181818;stroke-width:0.5;" width="709.5664" x="7" y="7"/><ellipse cx="321.4102" cy="23" fill="#ADD1B2" rx="11" ry="11" style="stroke:#181818;stroke-width:1;"/><path d="M324.3789,28.6406 Q323.8008,28.9375 323.1602,29.0781 Q322.5195,29.2344 321.8164,29.2344 Q319.3164,29.2344 317.9883,27.5938 Q316.6758,25.9375 316.6758,22.8125 Q316.6758,19.6875 317.9883,18.0313 Q319.3164,16.375 321.8164,16.375 Q322.5195,16.375 323.1602,16.5313 Q323.8164,16.6875 324.3789,16.9844 L324.3789,19.7031 Q323.7539,19.125 323.1602,18.8594 Q322.5664,18.5781 321.9414,18.5781 Q320.5977,18.5781 319.9102,19.6563 Q319.2227,20.7188 319.2227,22.8125 Q319.2227,24.9063 319.9102,25.9844 Q320.5977,27.0469 321.9414,27.0469 Q322.5664,27.0469 323.1602,26.7813 Q323.7539,26.5 324.3789,25.9219 L324.3789,28.6406 Z " fill="#000000"/><text fill="#000000" font-family="Courier" font-size="12" lengthAdjust="spacing" textLength="72.2461" x="341.9102" y="27.1543">LibWrapper</text><line style="stroke:#181818;stroke-width:0.5;" x1="8" x2="715.5664" y1="39" y2="39"/><line style="stroke:#181818;stroke-width:0.5;" x1="8" x2="715.5664" y1="47" y2="47"/><text fill="#000000" font-family="sans-serif" font-size="14" lengthAdjust="spacing" textLength="176.1758" x="13" y="63.9951">+LibWrapper_Init() : void</text><text fill="#000000" font-family="sans-serif" font-size="14" lengthAdjust="spacing" textLength="182.041" x="13" y="80.292">+LibWrapper_Tick() : void</text><text fill="#000000" font-family="sans-serif" font-size="14" lengthAdjust="spacing" textLength="455.7314" x="13" y="96.5889">+LibWrapper_RegisterOnSerialTx(callback : void(*)(char*)) : void</text><text fill="#000000" font-family="sans-serif" font-size="14" lengthAdjust="spacing" textLength="542.3223" x="13" y="112.8857">+LibWrapper_RegisterOnGpioChange(callback : void(*)(GPIO_ID, bool)) : void</text><text fill="#000000" font-family="sans-serif" font-size="14" lengthAdjust="spacing" textLength="697.5664" x="13" y="129.1826">+LibWrapper_OnSerialRx(pData : uint8_t*, Size : uint16_t, Timeout : uint32_t) : HAL_StatusTypeDef</text></g><!--class Arduino--><g id="elem_Arduino"><rect codeLine="42" fill="#FFFFE0" height="249.5" id="Arduino" rx="2.5" ry="2.5" style="stroke:#181818;stroke-width:0.5;" width="471.5596" x="386" y="399.46"/><ellipse cx="577.6001" cy="418.4288" fill="#ADD1B2" rx="11" ry="11" style="stroke:#181818;stroke-width:1;"/><path d="M580.5688,424.0694 Q579.9907,424.3663 579.3501,424.5069 Q578.7095,424.6631 578.0063,424.6631 Q575.5063,424.6631 574.1782,423.0225 Q572.8657,421.3663 572.8657,418.2413 Q572.8657,415.1163 574.1782,413.46 Q575.5063,411.8038 578.0063,411.8038 Q578.7095,411.8038 579.3501,411.96 Q580.0063,412.1163 580.5688,412.4131 L580.5688,415.1319 Q579.9438,414.5538 579.3501,414.2881 Q578.7563,414.0069 578.1313,414.0069 Q576.7876,414.0069 576.1001,415.085 Q575.4126,416.1475 575.4126,418.2413 Q575.4126,420.335 576.1001,421.4131 Q576.7876,422.4756 578.1313,422.4756 Q578.7563,422.4756 579.3501,422.21 Q579.9438,421.9288 580.5688,421.3506 L580.5688,424.0694 Z " fill="#000000"/><text fill="#000000" font-family="sans-serif" font-size="12" font-style="italic" lengthAdjust="spacing" textLength="83.8594" x="596.1001" y="415.5987">&#171;Highlighted&#187;</text><text fill="#000000" font-family="Courier" font-size="12" lengthAdjust="spacing" textLength="50.5723" x="612.7437" y="429.5674">Arduino</text><line style="stroke:#181818;stroke-width:0.5;" x1="387" x2="856.5596" y1="437.3975" y2="437.3975"/><line style="stroke:#181818;stroke-width:0.5;" x1="387" x2="856.5596" y1="445.3975" y2="445.3975"/><text fill="#000000" font-family="sans-serif" font-size="14" lengthAdjust="spacing" textLength="320.2227" x="392" y="462.3926">+pinMode(pin : uint8_t, mode : uint8_t) : void</text><text fill="#000000" font-family="sans-serif" font-size="14" lengthAdjust="spacing" textLength="322.5811" x="392" y="478.6895">+digitalWrite(pin : uint8_t, val : uint8_t) : void</text><text fill="#000000" font-family="sans-serif" font-size="14" lengthAdjust="spacing" textLength="217.6289" x="392" y="494.9864">+digitalRead(pin : uint8_t) : int</text><text fill="#000000" font-family="sans-serif" font-size="14" lengthAdjust="spacing" textLength="221.4912" x="392" y="511.2832">+analogRead(pin : uint8_t) : int</text><text fill="#000000" font-family="sans-serif" font-size="14" lengthAdjust="spacing" textLength="286.5488" x="392" y="527.5801">+analogReference(mode : uint8_t) : void</text><text fill="#000000" font-family="sans-serif" font-size="14" lengthAdjust="spacing" textLength="296.1738" x="392" y="543.877">+analogWrite(pin : uint8_t, val : int) : void</text><text fill="#000000" font-family="sans-serif" font-size="14" lengthAdjust="spacing" textLength="459.5596" x="392" y="560.1739">+analogWriteMode(pin : uint8_t, val : int, openDrain : bool) : void</text><text fill="#000000" font-family="sans-serif" font-size="14" lengthAdjust="spacing" textLength="281.4014" x="392" y="576.4707">+analogWriteFreq(freq : uint32_t) : void</text><text fill="#000000" font-family="sans-serif" font-size="14" lengthAdjust="spacing" textLength="278.1748" x="392" y="592.7676">+analogWriteResolution(res : int) : void</text><text fill="#000000" font-family="sans-serif" font-size="14" lengthAdjust="spacing" textLength="307.2959" x="392" y="609.0645">+analogWriteRange(range : uint32_t) : void</text><text fill="#000000" font-family="sans-serif" font-size="14" lengthAdjust="spacing" textLength="237.5557" x="392" y="625.3614">+delay(ms : unsigned long) : void</text><text fill="#000000" font-family="sans-serif" font-size="14" lengthAdjust="spacing" textLength="171.6162" x="392" y="641.6582">+millis() : unsigned long</text></g><!--class Print--><g id="elem_Print"><rect codeLine="61" fill="#FFFFE0" height="257.6484" id="Print" rx="2.5" ry="2.5" style="stroke:#181818;stroke-width:0.5;" width="313.4375" x="2078.06" y="748.4"/><ellipse cx="2190.5991" cy="767.3688" fill="#ADD1B2" rx="11" ry="11" style="stroke:#181818;stroke-width:1;"/><path d="M2193.5678,773.0094 Q2192.9897,773.3063 2192.3491,773.4469 Q2191.7084,773.6031 2191.0053,773.6031 Q2188.5053,773.6031 2187.1772,771.9625 Q2185.8647,770.3063 2185.8647,767.1813 Q2185.8647,764.0563 2187.1772,762.4 Q2188.5053,760.7438 2191.0053,760.7438 Q2191.7084,760.7438 2192.3491,760.9 Q2193.0053,761.0563 2193.5678,761.3531 L2193.5678,764.0719 Q2192.9428,763.4938 2192.3491,763.2281 Q2191.7553,762.9469 2191.1303,762.9469 Q2189.7866,762.9469 2189.0991,764.025 Q2188.4116,765.0875 2188.4116,767.1813 Q2188.4116,769.275 2189.0991,770.3531 Q2189.7866,771.4156 2191.1303,771.4156 Q2191.7553,771.4156 2192.3491,771.15 Q2192.9428,770.8688 2193.5678,770.2906 L2193.5678,773.0094 Z " fill="#000000"/><text fill="#000000" font-family="sans-serif" font-size="12" font-style="italic" lengthAdjust="spacing" textLength="83.8594" x="2209.0991" y="764.5387">&#171;Highlighted&#187;</text><text fill="#000000" font-family="Courier" font-size="12" lengthAdjust="spacing" textLength="36.123" x="2232.9672" y="778.5074">Print</text><line style="stroke:#181818;stroke-width:0.5;" x1="2079.06" x2="2390.4975" y1="786.3375" y2="786.3375"/><text fill="#000000" font-family="sans-serif" font-size="14" lengthAdjust="spacing" textLength="113.5654" x="2084.06" y="823.6295">-write_error : int</text><line style="stroke:#181818;stroke-width:1;" x1="2079.06" x2="2218.0649" y1="802.4859" y2="802.4859"/><text fill="#000000" font-family="sans-serif" font-size="14" lengthAdjust="spacing" textLength="33.4277" x="2218.0649" y="806.8326">Data</text><line style="stroke:#181818;stroke-width:1;" x1="2251.4926" x2="2390.4975" y1="802.4859" y2="802.4859"/><text fill="#000000" font-family="sans-serif" font-size="14" lengthAdjust="spacing" textLength="229.209" x="2084.06" y="860.2232">+virtual size_t write(uint8_t) = 0</text><text fill="#000000" font-family="sans-serif" font-size="14" lengthAdjust="spacing" textLength="248.3633" x="2084.06" y="876.5201">+size_t write(const uint8_t*, size_t)</text><text fill="#000000" font-family="sans-serif" font-size="14" lengthAdjust="spacing" textLength="182.2119" x="2084.06" y="892.817">+size_t write(const char*)</text><text fill="#000000" font-family="sans-serif" font-size="14" lengthAdjust="spacing" textLength="258.4941" x="2084.06" y="909.1139">+size_t printf(const char* format, ...)</text><text fill="#000000" font-family="sans-serif" font-size="14" lengthAdjust="spacing" textLength="142.0234" x="2084.06" y="925.4107">+size_t println(void)</text><text fill="#000000" font-family="sans-serif" font-size="14" lengthAdjust="spacing" textLength="179.9082" x="2084.06" y="941.7076">+size_t print(const char*)</text><text fill="#000000" font-family="sans-serif" font-size="14" lengthAdjust="spacing" textLength="186.1699" x="2084.06" y="958.0045">+size_t print(int, int=DEC)</text><text fill="#000000" font-family="sans-serif" font-size="14" lengthAdjust="spacing" textLength="301.4375" x="2084.06" y="974.3014">+size_t print(unsigned long long, int=DEC)</text><line style="stroke:#181818;stroke-width:1;" x1="2079.06" x2="2188.8344" y1="839.0797" y2="839.0797"/><text fill="#000000" font-family="sans-serif" font-size="14" lengthAdjust="spacing" textLength="91.8887" x="2188.8344" y="843.4264">Key methods</text><line style="stroke:#181818;stroke-width:1;" x1="2280.7231" x2="2390.4975" y1="839.0797" y2="839.0797"/><line style="stroke:#181818;stroke-width:1;stroke-dasharray:1.0,2.0;" x1="2079.06" x2="2221.6538" y1="989.7516" y2="989.7516"/><text fill="#000000" font-family="sans-serif" font-size="14" lengthAdjust="spacing" textLength="26.25" x="2221.6538" y="994.0982">etc.</text><line style="stroke:#181818;stroke-width:1;stroke-dasharray:1.0,2.0;" x1="2247.9038" x2="2390.4975" y1="989.7516" y2="989.7516"/></g><!--class HardwareSerial--><g id="elem_HardwareSerial"><rect codeLine="81" fill="#FFFFE0" height="294.3906" id="HardwareSerial" rx="2.5" ry="2.5" style="stroke:#181818;stroke-width:0.5;" width="624.835" x="1282.37" y="377.01"/><ellipse cx="1539.9652" cy="395.9788" fill="#ADD1B2" rx="11" ry="11" style="stroke:#181818;stroke-width:1;"/><path d="M1542.934,401.6194 Q1542.3558,401.9163 1541.7152,402.0569 Q1541.0746,402.2131 1540.3715,402.2131 Q1537.8715,402.2131 1536.5433,400.5725 Q1535.2308,398.9163 1535.2308,395.7913 Q1535.2308,392.6663 1536.5433,391.01 Q1537.8715,389.3538 1540.3715,389.3538 Q1541.0746,389.3538 1541.7152,389.51 Q1542.3715,389.6663 1542.934,389.9631 L1542.934,392.6819 Q1542.309,392.1038 1541.7152,391.8381 Q1541.1215,391.5569 1540.4965,391.5569 Q1539.1527,391.5569 1538.4652,392.635 Q1537.7777,393.6975 1537.7777,395.7913 Q1537.7777,397.885 1538.4652,398.9631 Q1539.1527,400.0256 1540.4965,400.0256 Q1541.1215,400.0256 1541.7152,399.76 Q1542.309,399.4788 1542.934,398.9006 L1542.934,401.6194 Z " fill="#000000"/><text fill="#000000" font-family="sans-serif" font-size="12" font-style="italic" lengthAdjust="spacing" textLength="83.8594" x="1569.1078" y="393.1487">&#171;Highlighted&#187;</text><text fill="#000000" font-family="Courier" font-size="12" lengthAdjust="spacing" textLength="101.1445" x="1560.4652" y="407.1174">HardwareSerial</text><line style="stroke:#181818;stroke-width:0.5;" x1="1283.37" x2="1906.205" y1="414.9475" y2="414.9475"/><text fill="#000000" font-family="sans-serif" font-size="14" lengthAdjust="spacing" textLength="212.6113" x="1288.37" y="452.2395">+HardwareSerial(uart_nr : int)</text><text fill="#000000" font-family="sans-serif" font-size="14" lengthAdjust="spacing" textLength="142.1465" x="1288.37" y="468.5364">+~HardwareSerial()</text><text fill="#000000" font-family="sans-serif" font-size="14" lengthAdjust="spacing" textLength="209.501" x="1288.37" y="484.8332">+begin(baud : unsigned long)</text><text fill="#000000" font-family="sans-serif" font-size="14" lengthAdjust="spacing" textLength="359.3926" x="1288.37" y="501.1301">+begin(baud : unsigned long, config : SerialConfig)</text><text fill="#000000" font-family="sans-serif" font-size="14" lengthAdjust="spacing" textLength="499.3721" x="1288.37" y="517.427">+begin(baud : unsigned long, config : SerialConfig, mode : SerialMode)</text><text fill="#000000" font-family="sans-serif" font-size="14" lengthAdjust="spacing" textLength="612.835" x="1288.37" y="533.7239">+begin(baud : unsigned long, config : SerialConfig, mode : SerialMode, tx_pin : uint8_t)</text><text fill="#000000" font-family="sans-serif" font-size="14" lengthAdjust="spacing" textLength="92.2715" x="1288.37" y="550.0207">+end() : void</text><text fill="#000000" font-family="sans-serif" font-size="14" lengthAdjust="spacing" textLength="117.7148" x="1288.37" y="566.3176">+available() : int</text><text fill="#000000" font-family="sans-serif" font-size="14" lengthAdjust="spacing" textLength="86.3584" x="1288.37" y="582.6145">+read() : int</text><text fill="#000000" font-family="sans-serif" font-size="14" lengthAdjust="spacing" textLength="180.9404" x="1288.37" y="598.9114">+write(c : uint8_t) : size_t</text><text fill="#000000" font-family="sans-serif" font-size="14" lengthAdjust="spacing" textLength="311.5273" x="1288.37" y="615.2082">+write(buffer : uint8_t*, size : size_t) : size_t</text><text fill="#000000" font-family="sans-serif" font-size="14" lengthAdjust="spacing" textLength="99.7568" x="1288.37" y="631.5051">+flush() : void</text><text fill="#000000" font-family="sans-serif" font-size="14" lengthAdjust="spacing" textLength="150.7734" x="1288.37" y="647.802">+isTxEnabled() : bool</text><text fill="#000000" font-family="sans-serif" font-size="14" lengthAdjust="spacing" textLength="151.9492" x="1288.37" y="664.0989">+isRxEnabled() : bool</text><line style="stroke:#181818;stroke-width:1;" x1="1283.37" x2="1506.9115" y1="431.0959" y2="431.0959"/><text fill="#000000" font-family="sans-serif" font-size="14" lengthAdjust="spacing" textLength="175.752" x="1506.9115" y="435.4426">Constructors/Destructors</text><line style="stroke:#181818;stroke-width:1;" x1="1682.6635" x2="1906.205" y1="431.0959" y2="431.0959"/></g><!--class Client--><g id="elem_Client"><rect codeLine="110" fill="#FFFFE0" height="216.9063" id="Client" rx="2.5" ry="2.5" style="stroke:#181818;stroke-width:0.5;" width="326.248" x="1295.66" y="768.77"/><ellipse cx="1414.6043" cy="787.7388" fill="#ADD1B2" rx="11" ry="11" style="stroke:#181818;stroke-width:1;"/><path d="M1417.5731,793.3794 Q1416.995,793.6763 1416.3543,793.8169 Q1415.7137,793.9731 1415.0106,793.9731 Q1412.5106,793.9731 1411.1825,792.3325 Q1409.87,790.6763 1409.87,787.5513 Q1409.87,784.4263 1411.1825,782.77 Q1412.5106,781.1138 1415.0106,781.1138 Q1415.7137,781.1138 1416.3543,781.27 Q1417.0106,781.4263 1417.5731,781.7231 L1417.5731,784.4419 Q1416.9481,783.8638 1416.3543,783.5981 Q1415.7606,783.3169 1415.1356,783.3169 Q1413.7918,783.3169 1413.1043,784.395 Q1412.4168,785.4575 1412.4168,787.5513 Q1412.4168,789.645 1413.1043,790.7231 Q1413.7918,791.7856 1415.1356,791.7856 Q1415.7606,791.7856 1416.3543,791.52 Q1416.9481,791.2388 1417.5731,790.6606 L1417.5731,793.3794 Z " fill="#000000"/><text fill="#000000" font-family="sans-serif" font-size="12" font-style="italic" lengthAdjust="spacing" textLength="83.8594" x="1433.1043" y="784.9087">&#171;Highlighted&#187;</text><text fill="#000000" font-family="Courier" font-size="12" lengthAdjust="spacing" textLength="43.3477" x="1453.3602" y="798.8774">Client</text><line style="stroke:#181818;stroke-width:0.5;" x1="1296.66" x2="1620.908" y1="806.7075" y2="806.7075"/><text fill="#000000" font-family="sans-serif" font-size="14" lengthAdjust="spacing" textLength="74.9014" x="1301.66" y="823.7026">&#171;abstract&#187;</text><line style="stroke:#181818;stroke-width:0.5;" x1="1296.66" x2="1620.908" y1="831.0044" y2="831.0044"/><text fill="#000000" font-family="sans-serif" font-size="14" lengthAdjust="spacing" textLength="314.248" x="1301.66" y="847.9995">+connect(ip : IPAddress, port : uint16_t) : int</text><text fill="#000000" font-family="sans-serif" font-size="14" lengthAdjust="spacing" textLength="300.7197" x="1301.66" y="864.2964">+connect(host : char*, port : uint16_t) : int</text><text fill="#000000" font-family="sans-serif" font-size="14" lengthAdjust="spacing" textLength="159.626" x="1301.66" y="880.5932">+write(uint8_t) : size_t</text><text fill="#000000" font-family="sans-serif" font-size="14" lengthAdjust="spacing" textLength="292.2295" x="1301.66" y="896.8901">+write(buf : uint8_t*, size : size_t) : size_t</text><text fill="#000000" font-family="sans-serif" font-size="14" lengthAdjust="spacing" textLength="117.7148" x="1301.66" y="913.187">+available() : int</text><text fill="#000000" font-family="sans-serif" font-size="14" lengthAdjust="spacing" textLength="86.3584" x="1301.66" y="929.4839">+read() : int</text><text fill="#000000" font-family="sans-serif" font-size="14" lengthAdjust="spacing" textLength="96.1338" x="1301.66" y="945.7807">+stop() : void</text><text fill="#000000" font-family="sans-serif" font-size="14" lengthAdjust="spacing" textLength="158.1016" x="1301.66" y="962.0776">+connected() : uint8_t</text><text fill="#000000" font-family="sans-serif" font-size="14" lengthAdjust="spacing" textLength="99.7568" x="1301.66" y="978.3745">+flush() : void</text></g><!--class ESP8266WiFiClass--><g id="elem_ESP8266WiFiClass"><rect codeLine="127" fill="#FFFFE0" height="282.0938" id="ESP8266WiFiClass" rx="2.5" ry="2.5" style="stroke:#181818;stroke-width:0.5;" width="355.1846" x="892.19" y="383.16"/><ellipse cx="1007.7354" cy="402.1288" fill="#ADD1B2" rx="11" ry="11" style="stroke:#181818;stroke-width:1;"/><path d="M1010.7042,407.7694 Q1010.126,408.0663 1009.4854,408.2069 Q1008.8448,408.3631 1008.1417,408.3631 Q1005.6417,408.3631 1004.3135,406.7225 Q1003.001,405.0663 1003.001,401.9413 Q1003.001,398.8163 1004.3135,397.16 Q1005.6417,395.5038 1008.1417,395.5038 Q1008.8448,395.5038 1009.4854,395.66 Q1010.1417,395.8163 1010.7042,396.1131 L1010.7042,398.8319 Q1010.0792,398.2538 1009.4854,397.9881 Q1008.8917,397.7069 1008.2667,397.7069 Q1006.9229,397.7069 1006.2354,398.785 Q1005.5479,399.8475 1005.5479,401.9413 Q1005.5479,404.035 1006.2354,405.1131 Q1006.9229,406.1756 1008.2667,406.1756 Q1008.8917,406.1756 1009.4854,405.91 Q1010.0792,405.6288 1010.7042,405.0506 L1010.7042,407.7694 Z " fill="#000000"/><text fill="#000000" font-family="sans-serif" font-size="12" font-style="italic" lengthAdjust="spacing" textLength="83.8594" x="1044.1026" y="399.2987">&#171;Highlighted&#187;</text><text fill="#000000" font-family="Courier" font-size="12" lengthAdjust="spacing" textLength="115.5938" x="1028.2354" y="413.2674">ESP8266WiFiClass</text><line style="stroke:#181818;stroke-width:0.5;" x1="893.19" x2="1246.3746" y1="421.0975" y2="421.0975"/><line style="stroke:#181818;stroke-width:0.5;" x1="893.19" x2="1246.3746" y1="429.0975" y2="429.0975"/><text fill="#000000" font-family="sans-serif" font-size="14" lengthAdjust="spacing" textLength="343.1846" x="898.19" y="446.0926">+begin(ssid : std::string, pass : std::string) : void</text><text fill="#000000" font-family="sans-serif" font-size="14" lengthAdjust="spacing" textLength="314.248" x="898.19" y="462.3895">+connect(ip : IPAddress, port : uint16_t) : int</text><text fill="#000000" font-family="sans-serif" font-size="14" lengthAdjust="spacing" textLength="300.7197" x="898.19" y="478.6864">+connect(host : char*, port : uint16_t) : int</text><text fill="#000000" font-family="sans-serif" font-size="14" lengthAdjust="spacing" textLength="159.626" x="898.19" y="494.9832">+write(uint8_t) : size_t</text><text fill="#000000" font-family="sans-serif" font-size="14" lengthAdjust="spacing" textLength="334.5986" x="898.19" y="511.2801">+write(buf : const uint8_t*, size : size_t) : size_t</text><text fill="#000000" font-family="sans-serif" font-size="14" lengthAdjust="spacing" textLength="117.7148" x="898.19" y="527.577">+available() : int</text><text fill="#000000" font-family="sans-serif" font-size="14" lengthAdjust="spacing" textLength="86.3584" x="898.19" y="543.8739">+read() : int</text><text fill="#000000" font-family="sans-serif" font-size="14" lengthAdjust="spacing" textLength="96.1338" x="898.19" y="560.1707">+stop() : void</text><text fill="#000000" font-family="sans-serif" font-size="14" lengthAdjust="spacing" textLength="158.1016" x="898.19" y="576.4676">+connected() : uint8_t</text><text fill="#000000" font-family="sans-serif" font-size="14" lengthAdjust="spacing" textLength="97.542" x="898.19" y="592.7645">+status() : int</text><text fill="#000000" font-family="sans-serif" font-size="14" lengthAdjust="spacing" textLength="150.3428" x="898.19" y="609.0614">+localIP() : IPAddress</text><text fill="#000000" font-family="sans-serif" font-size="14" lengthAdjust="spacing" textLength="168.3965" x="898.19" y="625.3582">+remoteIP() : IPAddress</text><text fill="#000000" font-family="sans-serif" font-size="14" lengthAdjust="spacing" textLength="154.5742" x="898.19" y="641.6551">+localPort() : uint16_t</text><text fill="#000000" font-family="sans-serif" font-size="14" lengthAdjust="spacing" textLength="172.6279" x="898.19" y="657.952">+remotePort() : uint16_t</text></g><!--class PubSubClient--><g id="elem_PubSubClient"><rect codeLine="149" fill="#FFFFE0" height="233.2031" id="PubSubClient" rx="2.5" ry="2.5" style="stroke:#181818;stroke-width:0.5;" width="623.2422" x="2315.16" y="407.61"/><ellipse cx="2579.1834" cy="426.5788" fill="#ADD1B2" rx="11" ry="11" style="stroke:#181818;stroke-width:1;"/><path d="M2582.1522,432.2194 Q2581.5741,432.5163 2580.9334,432.6569 Q2580.2928,432.8131 2579.5897,432.8131 Q2577.0897,432.8131 2575.7616,431.1725 Q2574.4491,429.5163 2574.4491,426.3913 Q2574.4491,423.2663 2575.7616,421.61 Q2577.0897,419.9538 2579.5897,419.9538 Q2580.2928,419.9538 2580.9334,420.11 Q2581.5897,420.2663 2582.1522,420.5631 L2582.1522,423.2819 Q2581.5272,422.7038 2580.9334,422.4381 Q2580.3397,422.1569 2579.7147,422.1569 Q2578.3709,422.1569 2577.6834,423.235 Q2576.9959,424.2975 2576.9959,426.3913 Q2576.9959,428.485 2577.6834,429.5631 Q2578.3709,430.6256 2579.7147,430.6256 Q2580.3397,430.6256 2580.9334,430.36 Q2581.5272,430.0788 2582.1522,429.5006 L2582.1522,432.2194 Z " fill="#000000"/><text fill="#000000" font-family="sans-serif" font-size="12" font-style="italic" lengthAdjust="spacing" textLength="83.8594" x="2601.1014" y="423.7487">&#171;Highlighted&#187;</text><text fill="#000000" font-family="Courier" font-size="12" lengthAdjust="spacing" textLength="86.6953" x="2599.6834" y="437.7174">PubSubClient</text><line style="stroke:#181818;stroke-width:0.5;" x1="2316.16" x2="2937.4022" y1="445.5475" y2="445.5475"/><line style="stroke:#181818;stroke-width:0.5;" x1="2316.16" x2="2937.4022" y1="453.5475" y2="453.5475"/><text fill="#000000" font-family="sans-serif" font-size="14" lengthAdjust="spacing" textLength="262.7939" x="2321.16" y="470.5426">+PubSubClient(client : Client&amp;) : void</text><text fill="#000000" font-family="sans-serif" font-size="14" lengthAdjust="spacing" textLength="611.2422" x="2321.16" y="486.8395">+PubSubClient(const char*, uint16_t, MQTT_CALLBACK_SIGNATURE, Client&amp;, Stream&amp;)</text><text fill="#000000" font-family="sans-serif" font-size="14" lengthAdjust="spacing" textLength="411.79" x="2321.16" y="503.1364">+setServer(ip : IPAddress, port : uint16_t) : PubSubClient&amp;</text><text fill="#000000" font-family="sans-serif" font-size="14" lengthAdjust="spacing" textLength="500.8896" x="2321.16" y="519.4332">+setCallback(callback : MQTT_CALLBACK_SIGNATURE) : PubSubClient&amp;</text><text fill="#000000" font-family="sans-serif" font-size="14" lengthAdjust="spacing" textLength="228.6553" x="2321.16" y="535.7301">+connect(id : const char*) : bool</text><text fill="#000000" font-family="sans-serif" font-size="14" lengthAdjust="spacing" textLength="496.8291" x="2321.16" y="552.027">+connect(id : const char*, user : const char*, pass : const char*) : bool</text><text fill="#000000" font-family="sans-serif" font-size="14" lengthAdjust="spacing" textLength="403.6553" x="2321.16" y="568.3239">+publish(topic : const char*, payload : const char*) : bool</text><text fill="#000000" font-family="sans-serif" font-size="14" lengthAdjust="spacing" textLength="261.7891" x="2321.16" y="584.6207">+subscribe(topic : const char*) : bool</text><text fill="#000000" font-family="sans-serif" font-size="14" lengthAdjust="spacing" textLength="96.0859" x="2321.16" y="600.9176">+loop() : bool</text><text fill="#000000" font-family="sans-serif" font-size="14" lengthAdjust="spacing" textLength="139.4873" x="2321.16" y="617.2145">+connected() : bool</text><text fill="#000000" font-family="sans-serif" font-size="14" lengthAdjust="spacing" textLength="89.9883" x="2321.16" y="633.5114">+state() : int</text></g><!--class String--><g id="elem_String"><rect codeLine="168" fill="#FFFFE0" height="200.6094" id="String" rx="2.5" ry="2.5" style="stroke:#181818;stroke-width:0.5;" width="306.082" x="2081.74" y="1083.05"/><ellipse cx="2190.6013" cy="1102.0188" fill="#ADD1B2" rx="11" ry="11" style="stroke:#181818;stroke-width:1;"/><path d="M2193.5701,1107.6594 Q2192.992,1107.9563 2192.3513,1108.0969 Q2191.7107,1108.2531 2191.0076,1108.2531 Q2188.5076,1108.2531 2187.1795,1106.6125 Q2185.867,1104.9563 2185.867,1101.8313 Q2185.867,1098.7063 2187.1795,1097.05 Q2188.5076,1095.3938 2191.0076,1095.3938 Q2191.7107,1095.3938 2192.3513,1095.55 Q2193.0076,1095.7063 2193.5701,1096.0031 L2193.5701,1098.7219 Q2192.9451,1098.1438 2192.3513,1097.8781 Q2191.7576,1097.5969 2191.1326,1097.5969 Q2189.7888,1097.5969 2189.1013,1098.675 Q2188.4138,1099.7375 2188.4138,1101.8313 Q2188.4138,1103.925 2189.1013,1105.0031 Q2189.7888,1106.0656 2191.1326,1106.0656 Q2191.7576,1106.0656 2192.3513,1105.8 Q2192.9451,1105.5188 2193.5701,1104.9406 L2193.5701,1107.6594 Z " fill="#000000"/><text fill="#000000" font-family="sans-serif" font-size="12" font-style="italic" lengthAdjust="spacing" textLength="83.8594" x="2209.1013" y="1099.1887">&#171;Highlighted&#187;</text><text fill="#000000" font-family="Courier" font-size="12" lengthAdjust="spacing" textLength="43.3477" x="2229.3572" y="1113.1574">String</text><line style="stroke:#181818;stroke-width:0.5;" x1="2082.74" x2="2386.822" y1="1120.9875" y2="1120.9875"/><line style="stroke:#181818;stroke-width:0.5;" x1="2082.74" x2="2386.822" y1="1128.9875" y2="1128.9875"/><text fill="#000000" font-family="sans-serif" font-size="14" lengthAdjust="spacing" textLength="64.4355" x="2087.74" y="1145.9826">+String()</text><text fill="#000000" font-family="sans-serif" font-size="14" lengthAdjust="spacing" textLength="175.3965" x="2087.74" y="1162.2795">+String(const char* cstr)</text><text fill="#000000" font-family="sans-serif" font-size="14" lengthAdjust="spacing" textLength="182.4922" x="2087.74" y="1178.5764">+String(const String&amp; str)</text><text fill="#000000" font-family="sans-serif" font-size="14" lengthAdjust="spacing" textLength="228.4844" x="2087.74" y="1194.8732">+String(String&amp;&amp; rval) noexcept</text><text fill="#000000" font-family="sans-serif" font-size="14" lengthAdjust="spacing" textLength="167.7881" x="2087.74" y="1211.1701">+length() : unsigned int</text><text fill="#000000" font-family="sans-serif" font-size="14" lengthAdjust="spacing" textLength="282.3516" x="2087.74" y="1227.467">+operator=(const String&amp; rhs) : String&amp;</text><text fill="#000000" font-family="sans-serif" font-size="14" lengthAdjust="spacing" textLength="294.082" x="2087.74" y="1243.7639">+operator+=(const String&amp; rhs) : String&amp;</text><text fill="#000000" font-family="sans-serif" font-size="14" lengthAdjust="spacing" textLength="252.2051" x="2087.74" y="1260.0607">+charAt(index : unsigned int) : char</text><text fill="#000000" font-family="sans-serif" font-size="14" lengthAdjust="spacing" textLength="149.7822" x="2087.74" y="1276.3576">+c_str() : const char*</text></g><!--class MainCpp--><g id="elem_MainCpp"><rect codeLine="181" fill="#90EE90" height="86.5313" id="MainCpp" rx="2.5" ry="2.5" style="stroke:#181818;stroke-width:0.5;" width="117.0547" x="1011.26" y="213.48"/><ellipse cx="1036.2101" cy="232.4488" fill="#ADD1B2" rx="11" ry="11" style="stroke:#181818;stroke-width:1;"/><path d="M1040.3195,238.4488 L1032.6007,238.4488 L1032.6007,226.0581 L1040.3195,226.0581 L1040.3195,228.2144 L1035.0538,228.2144 L1035.0538,230.8863 L1039.8195,230.8863 L1039.8195,233.0425 L1035.0538,233.0425 L1035.0538,236.2925 L1040.3195,236.2925 L1040.3195,238.4488 Z " fill="#000000"/><text fill="#000000" font-family="sans-serif" font-size="12" font-style="italic" lengthAdjust="spacing" textLength="66.9434" x="1050.4212" y="229.6187">&#171;MainCpp&#187;</text><text fill="#000000" font-family="Courier" font-size="12" lengthAdjust="spacing" textLength="57.7969" x="1054.9945" y="243.5874">main.cpp</text><line style="stroke:#181818;stroke-width:0.5;" x1="1012.26" x2="1127.3147" y1="251.4175" y2="251.4175"/><line style="stroke:#181818;stroke-width:0.5;" x1="1012.26" x2="1127.3147" y1="259.4175" y2="259.4175"/><text fill="#000000" font-family="sans-serif" font-size="14" lengthAdjust="spacing" textLength="105.0547" x="1017.26" y="276.4126">+setup() : void</text><text fill="#000000" font-family="sans-serif" font-size="14" lengthAdjust="spacing" textLength="95.8057" x="1017.26" y="292.7095">+loop() : void</text></g><!--class OnSerialTxCallback--><g id="elem_OnSerialTxCallback"><rect fill="#F1F1F1" height="48" id="OnSerialTxCallback" rx="2.5" ry="2.5" style="stroke:#181818;stroke-width:0.5;" width="162.043" x="1002.76" y="1159.36"/><ellipse cx="1017.76" cy="1175.36" fill="#ADD1B2" rx="11" ry="11" style="stroke:#181818;stroke-width:1;"/><path d="M1020.7288,1181.0006 Q1020.1506,1181.2975 1019.51,1181.4381 Q1018.8694,1181.5944 1018.1663,1181.5944 Q1015.6663,1181.5944 1014.3381,1179.9538 Q1013.0256,1178.2975 1013.0256,1175.1725 Q1013.0256,1172.0475 1014.3381,1170.3913 Q1015.6663,1168.735 1018.1663,1168.735 Q1018.8694,1168.735 1019.51,1168.8913 Q1020.1663,1169.0475 1020.7288,1169.3444 L1020.7288,1172.0631 Q1020.1038,1171.485 1019.51,1171.2194 Q1018.9163,1170.9381 1018.2913,1170.9381 Q1016.9475,1170.9381 1016.26,1172.0163 Q1015.5725,1173.0788 1015.5725,1175.1725 Q1015.5725,1177.2663 1016.26,1178.3444 Q1016.9475,1179.4069 1018.2913,1179.4069 Q1018.9163,1179.4069 1019.51,1179.1413 Q1020.1038,1178.86 1020.7288,1178.2819 L1020.7288,1181.0006 Z " fill="#000000"/><text fill="#000000" font-family="Courier" font-size="12" lengthAdjust="spacing" textLength="130.043" x="1031.76" y="1179.5143">OnSerialTxCallback</text><line style="stroke:#181818;stroke-width:0.5;" x1="1003.76" x2="1163.803" y1="1191.36" y2="1191.36"/><line style="stroke:#181818;stroke-width:0.5;" x1="1003.76" x2="1163.803" y1="1199.36" y2="1199.36"/></g><!--class OnGpioChangeCallback--><g id="elem_OnGpioChangeCallback"><rect fill="#F1F1F1" height="48" id="OnGpioChangeCallback" rx="2.5" ry="2.5" style="stroke:#181818;stroke-width:0.5;" width="176.4922" x="78.54" y="1159.36"/><ellipse cx="93.54" cy="1175.36" fill="#ADD1B2" rx="11" ry="11" style="stroke:#181818;stroke-width:1;"/><path d="M96.5088,1181.0006 Q95.9306,1181.2975 95.29,1181.4381 Q94.6494,1181.5944 93.9463,1181.5944 Q91.4463,1181.5944 90.1181,1179.9538 Q88.8056,1178.2975 88.8056,1175.1725 Q88.8056,1172.0475 90.1181,1170.3913 Q91.4463,1168.735 93.9463,1168.735 Q94.6494,1168.735 95.29,1168.8913 Q95.9463,1169.0475 96.5088,1169.3444 L96.5088,1172.0631 Q95.8838,1171.485 95.29,1171.2194 Q94.6963,1170.9381 94.0713,1170.9381 Q92.7275,1170.9381 92.04,1172.0163 Q91.3525,1173.0788 91.3525,1175.1725 Q91.3525,1177.2663 92.04,1178.3444 Q92.7275,1179.4069 94.0713,1179.4069 Q94.6963,1179.4069 95.29,1179.1413 Q95.8838,1178.86 96.5088,1178.2819 L96.5088,1181.0006 Z " fill="#000000"/><text fill="#000000" font-family="Courier" font-size="12" lengthAdjust="spacing" textLength="144.4922" x="107.54" y="1179.5143">OnGpioChangeCallback</text><line style="stroke:#181818;stroke-width:0.5;" x1="79.54" x2="254.0322" y1="1191.36" y2="1191.36"/><line style="stroke:#181818;stroke-width:0.5;" x1="79.54" x2="254.0322" y1="1199.36" y2="1199.36"/></g><!--link HardwareSerial to Print--><g id="link_HardwareSerial_Print"><path codeLine="99" d="M1862.03,671.78 C1935.55,712.11 1997.1076,745.8747 2062.1676,781.5547 " fill="none" id="HardwareSerial-to-Print" style="stroke:#181818;stroke-width:1;"/><polygon fill="none" points="2077.95,790.21,2065.0527,776.2938,2059.2825,786.8155,2077.95,790.21" style="stroke:#181818;stroke-width:1;"/></g><!--link ESP8266WiFiClass to Client--><g id="link_ESP8266WiFiClass_Client"><path codeLine="143" d="M1225.48,665.7 C1263.45,699.96 1290.1085,724.0089 1326.0685,756.4689 " fill="none" id="ESP8266WiFiClass-to-Client" style="stroke:#181818;stroke-width:1;"/><polygon fill="none" points="1339.43,768.53,1330.0888,752.0151,1322.0481,760.9228,1339.43,768.53" style="stroke:#181818;stroke-width:1;"/></g><!--link PubSubClient to Print--><g id="link_PubSubClient_Print"><path codeLine="162" d="M2497.34,641.12 C2459.1,675.36 2430.4207,701.0436 2391.3607,736.0136 " fill="none" id="PubSubClient-to-Print" style="stroke:#181818;stroke-width:1;"/><polygon fill="none" points="2377.95,748.02,2395.3628,740.4838,2387.3585,731.5434,2377.95,748.02" style="stroke:#181818;stroke-width:1;"/></g><!--link PubSubClient to Client--><g id="link_PubSubClient_Client"><path codeLine="163" d="M2377.28,641.27 C2350.37,652.13 2323.18,662.41 2296.78,671.4 C2067.3,749.59 1798.8515,809.6034 1628.1515,844.0434 " fill="none" id="PubSubClient-to-Client" style="stroke:#181818;stroke-width:1;"/><polygon fill="#181818" points="1622.27,845.23,1631.8833,847.371,1627.1712,844.2411,1630.3011,839.5291,1622.27,845.23" style="stroke:#181818;stroke-width:1;"/><text fill="#000000" font-family="sans-serif" font-size="13" lengthAdjust="spacing" textLength="69.6211" x="2186.78" y="714.4669">uses client</text></g><!--reverse link HmiEventHandlers to OnSerialTxCallback--><g id="link_HmiEventHandlers_OnSerialTxCallback"><path codeLine="190" d="M814.0589,972.517 C874.2289,1005.417 929.39,1039.65 984.78,1083.05 C1014.49,1106.32 1044.51,1137.82 1063.58,1159.05 " fill="none" id="HmiEventHandlers-backto-OnSerialTxCallback" style="stroke:#181818;stroke-width:1;"/><polygon fill="none" points="803.53,966.76,806.8754,973.1481,814.0589,972.517,810.7134,966.1289,803.53,966.76" style="stroke:#181818;stroke-width:1;"/><text fill="#000000" font-family="sans-serif" font-size="13" lengthAdjust="spacing" textLength="68.6118" x="940.78" y="1049.1169">onSerialTx</text></g><!--reverse link HmiEventHandlers to OnGpioChangeCallback--><g id="link_HmiEventHandlers_OnGpioChangeCallback"><path codeLine="191" d="M443.208,972.8083 C384.198,1006.4883 329.06,1041 272.78,1083.05 C241.47,1106.45 209.22,1137.92 188.64,1159.11 " fill="none" id="HmiEventHandlers-backto-OnGpioChangeCallback" style="stroke:#181818;stroke-width:1;"/><polygon fill="none" points="453.63,966.86,446.4362,966.3602,443.208,972.8083,450.4018,973.3082,453.63,966.86" style="stroke:#181818;stroke-width:1;"/><text fill="#000000" font-family="sans-serif" font-size="13" lengthAdjust="spacing" textLength="95.856" x="337.78" y="1049.1169">onGpioChange</text></g><!--link LibWrapper to HmiEventHandlers--><g id="link_LibWrapper_HmiEventHandlers"><path codeLine="194" d="M345.68,136.6 C320.45,250.62 282.82,493.89 368.78,671.4 C391.01,717.31 424.2868,752.5998 464.1768,783.8498 " fill="none" id="LibWrapper-to-HmiEventHandlers" style="stroke:#181818;stroke-width:1;"/><polygon fill="#181818" points="468.9,787.55,464.282,778.8509,464.964,784.4665,459.3484,785.1485,468.9,787.55" style="stroke:#181818;stroke-width:1;"/><text fill="#000000" font-family="sans-serif" font-size="13" lengthAdjust="spacing" textLength="29.7832" x="318.78" y="343.0769">uses</text></g><!--link LibWrapper to MainCpp--><g id="link_LibWrapper_MainCpp"><path codeLine="195" d="M609.9,136.87 C753.8,174.07 917.5908,216.4088 1005.1208,239.0288 " fill="none" id="LibWrapper-to-MainCpp" style="stroke:#181818;stroke-width:1;"/><polygon fill="#181818" points="1010.93,240.53,1003.2171,234.4054,1006.089,239.279,1001.2154,242.1509,1010.93,240.53" style="stroke:#181818;stroke-width:1;"/><text fill="#000000" font-family="sans-serif" font-size="13" lengthAdjust="spacing" textLength="150.3823" x="780.78" y="179.5469">calls setup() and loop()</text></g><!--link Arduino to HmiEventHandlers--><g id="link_Arduino_HmiEventHandlers"><path codeLine="198" d="M621.78,648.96 C621.78,694.76 621.78,739.71 621.78,781.75 " fill="none" id="Arduino-to-HmiEventHandlers" style="stroke:#181818;stroke-width:1;"/><polygon fill="#181818" points="621.78,787.75,625.78,778.75,621.78,782.75,617.78,778.75,621.78,787.75" style="stroke:#181818;stroke-width:1;"/><text fill="#000000" font-family="sans-serif" font-size="13" lengthAdjust="spacing" textLength="196.7964" x="622.78" y="714.4669">digitalWrite() calls setPinState</text></g><!--link HmiEventHandlers to globalOnGpioChange--><g id="link_HmiEventHandlers_globalOnGpioChange"><path codeLine="199" d="M673.51,966.6 C712.2,1032.72 759.3491,1113.2718 783.1191,1153.8818 " fill="none" id="HmiEventHandlers-to-globalOnGpioChange" style="stroke:#181818;stroke-width:1;"/><polygon fill="#181818" points="786.15,1159.06,785.0558,1149.2721,783.6242,1154.7448,778.1515,1153.3133,786.15,1159.06" style="stroke:#181818;stroke-width:1;"/><text fill="#000000" font-family="sans-serif" font-size="13" lengthAdjust="spacing" textLength="175.5635" x="722.78" y="1049.1169">calls onGpioChange() if set</text></g><!--link HardwareSerial to HmiEventHandlers--><g id="link_HardwareSerial_HmiEventHandlers"><path codeLine="202" d="M1282.04,664.76 C1276.25,667.02 1270.5,669.23 1264.78,671.4 C1154.29,713.33 1036.7581,752.2342 927.9581,786.1542 " fill="none" id="HardwareSerial-to-HmiEventHandlers" style="stroke:#181818;stroke-width:1;"/><polygon fill="#181818" points="922.23,787.94,932.0127,789.08,927.0034,786.4518,929.6316,781.4426,922.23,787.94" style="stroke:#181818;stroke-width:1;"/><text fill="#000000" font-family="sans-serif" font-size="13" lengthAdjust="spacing" textLength="143.5396" x="1179.78" y="714.4669">write(...) calls serialTx</text></g><!--link HmiEventHandlers to globalOnSerialTx--><g id="link_HmiEventHandlers_globalOnSerialTx"><path codeLine="203" d="M570.06,966.6 C531.36,1032.72 484.2209,1113.2718 460.4509,1153.8818 " fill="none" id="HmiEventHandlers-to-globalOnSerialTx" style="stroke:#181818;stroke-width:1;"/><polygon fill="#181818" points="457.42,1159.06,465.4185,1153.3133,459.9458,1154.7448,458.5142,1149.2721,457.42,1159.06" style="stroke:#181818;stroke-width:1;"/><text fill="#000000" font-family="sans-serif" font-size="13" lengthAdjust="spacing" textLength="148.3193" x="528.78" y="1049.1169">calls onSerialTx() if set</text></g><!--link MainCpp to Arduino--><g id="link_MainCpp_Arduino"><path codeLine="206" d="M1011.22,292.45 C964.91,319.89 902.4416,356.9009 836.5016,395.9809 " fill="none" id="MainCpp-to-Arduino" style="stroke:#181818;stroke-width:1;"/><polygon fill="#181818" points="831.34,399.04,841.1218,397.8925,835.6413,396.4908,837.043,391.0103,831.34,399.04" style="stroke:#181818;stroke-width:1;"/><text fill="#000000" font-family="sans-serif" font-size="13" lengthAdjust="spacing" textLength="29.1104" x="938.78" y="343.0769">calls</text></g><!--link MainCpp to HardwareSerial--><g id="link_MainCpp_HardwareSerial"><path codeLine="207" d="M1128.73,287.55 C1173.2,310.04 1232.4656,340.0025 1299.5056,373.9025 " fill="none" id="MainCpp-to-HardwareSerial" style="stroke:#181818;stroke-width:1;"/><polygon fill="#181818" points="1304.86,376.61,1298.6335,368.9791,1300.398,374.3537,1295.0234,376.1183,1304.86,376.61" style="stroke:#181818;stroke-width:1;"/><text fill="#000000" font-family="sans-serif" font-size="13" lengthAdjust="spacing" textLength="29.1104" x="1240.78" y="343.0769">calls</text></g><!--link MainCpp to PubSubClient--><g id="link_MainCpp_PubSubClient"><path codeLine="208" d="M1128.75,256.87 C1307.73,255.62 1859.24,262.04 2296.78,377.01 C2327.24,385.01 2352.848,393.361 2383.348,405.061 " fill="none" id="MainCpp-to-PubSubClient" style="stroke:#181818;stroke-width:1;"/><polygon fill="#181818" points="2388.95,407.21,2381.9797,400.2519,2384.2817,405.4192,2379.1144,407.7212,2388.95,407.21" style="stroke:#181818;stroke-width:1;"/><text fill="#000000" font-family="sans-serif" font-size="13" lengthAdjust="spacing" textLength="29.1104" x="2168.78" y="343.0769">calls</text></g><!--link MainCpp to ESP8266WiFiClass--><g id="link_MainCpp_ESP8266WiFiClass"><path codeLine="209" d="M1069.78,300.4 C1069.78,323.19 1069.78,346.69 1069.78,376.72 " fill="none" id="MainCpp-to-ESP8266WiFiClass" style="stroke:#181818;stroke-width:1;"/><polygon fill="#181818" points="1069.78,382.72,1073.78,373.72,1069.78,377.72,1065.78,373.72,1069.78,382.72" style="stroke:#181818;stroke-width:1;"/><text fill="#000000" font-family="sans-serif" font-size="13" lengthAdjust="spacing" textLength="29.1104" x="1070.78" y="343.0769">calls</text></g><!--link Print to String--><g id="link_Print_String"><path codeLine="212" d="M2234.78,1006.32 C2234.78,1031.81 2234.78,1052.22 2234.78,1076.59 " fill="none" id="Print-to-String" style="stroke:#181818;stroke-width:1;"/><polygon fill="#181818" points="2234.78,1082.59,2238.78,1073.59,2234.78,1077.59,2230.78,1073.59,2234.78,1082.59" style="stroke:#181818;stroke-width:1;"/><text fill="#000000" font-family="sans-serif" font-size="13" lengthAdjust="spacing" textLength="29.7832" x="2235.78" y="1049.1169">uses</text></g><!--SRC=[pLXPRziu47xtho3yaCgja-nsWQ8maW2EaoP6dSIrNHJxP50IRHEHHPMaScot-zjtUEYW93jgKIos3suq5uUSRuR34VSqJZ37MnH4M8YXb9pwgIJZWCLp-XT1ltM4A_A1nL9pVd_RnBh5Mu96BEMKy2h_70VtQyxIE1onYF6JanjCur6Id9sX2Lrlv1Kd97vHwHf48oLEmapnJn95xB7JUOMk9dVdmmdwyFbsj1ZVtQBftVXsSJcResCq6aucvyFHnpbwrI6nfF8PTTSHyt64OA-4Knmjdj00tUKV8nn5FYpVHLWW8remwpQk4if66nolYRPIV3RQATWTvVZftdyWSBsbbm-mvZMEmuXmyRAEFhwQ7lhMGUWDucHDXIIys90NM3V1- -u3ew7tkkS56ynVzxeze2bIHRNOGrcvQUkE0P6j66A9WM4MSINabCPpYINnrc1i70BtQZg-Muul-aWeEX1yng86mxCdBxambbCQo_TB-RgFD6GDuVTtIzb72xebB9MMziVRfLIcheUJfLes5OldX5oG5TWzF5G_Bu74ohm80YsNOYu_fIGbsfYGuM0GagyfER4EdtM-jmB5XFfVE4uIoBMMS2WqB10Amd8SK-av1rfYBcXmlvCvsuic5qmlssY6LMObXu4E_ovhcIU_5WpjeZBa8PXXy9Ttmu9xSJoEWsDBFDg0duOwvmKrI99Usn1Q7LGjXIQU2OrlM4Wy-B_OSnzjWLPyEwSMqZMLEFh2gQofFK1bswir8pXqbPGK_AM5S8mZjcudioASn07nzdXgHFSu2b-x59eE9LVg8vQG-89ZpQ_LbPAP3vnyzLRmKy5Aa-oC21QbahBOuqJiTs-cuSvjuMYq7988FtjRPIYD1Lt794GHYzUEq9P64HKwKHsXbj2TSXKM0Euv5iHSm6Z5E4eKdS9QRK6g3JL2zF0GwOIqPVLHxNv9E8TLCb20o4VoZBP4RbWeZEGRz42vJ25Y0h9tAOsYbyFa55eLVGUKkT3525bAVCFixH8q1QhCrVjUbTdgEBOO47DqT5GNZM9FXQBEsB-2fp48FwSNbwC6jXDA_UD87nqX8eCZ-BzbcAyn3nyn9wP60e4yIHA7eeX_KRXSMLs_VgXSkVgx835InyFJG38kZYz8_dSMVDUAfoxGPMmHOmxidug8eVfmgyIUZzEmbZOlyFi8GhQYQw0RYoFz-PDgUGKsH5MDVfsbFf9FIxV0QjiGKlVAnW-OHjYFY5Ukm5pLvpB1veHRXGqWItm_NK7DTYvMOIvMcsQkqYfAnSPrXuh5qsMi_37hgy9h6RCw0w1TmTBXuTzd5hA0nlc6FIAv8KWa9A0h6jW2WjXAxGok5o47dPX1xyWL_1JTDJWOTFVMZIuufpgIUbSz6EHDhMrppEdq40ATnmqDDYWLfF4P4IBbKwky7KKK5aKUzY51S21R9w5LR4g-avFCsjcPFdpOV4m2g4a9dFnuEWn3E3dHHmdZijGrbG6JgMoOa5b3lrUXKhoRqTKQMYrXBIHBN01QlotAx69DQ6rNLY_dq_TltxtxGZ_GaJfsLKYpoceYq3fWLLCxkZrJFOIWOVQEW51ILJiIfUJGcdR-lmXoKxRzXw4MkiLtr2C6QJwUQbf-E7QbBIHh8qihJU4uyXNKWPIqwhpldLgSTKqpO6dNiQN-FFMjGlqYRzUibMpi05fPn0kCvC3wUU0Sj2jPT3tzqdlhvjDYiSm6Cilv-EfskFWyk-nd1k699Y6csuDUDWw0Ulb0U1kubjS_oDIprtVvGRd3YMORURw4EM3piKL-RUqIwglQpwiqcw6xZ2Mf3vtynWCaqw2k-nmnlCyNaVeYuDGdJGOSoOZPNAdketehwxbBdYVVEmviIdTnXPx1MSsLz1reuDDj1U-vBbrjWMoagn0s23OysnRQZt9V7q2LR62QZmDKvLhw0UBmYkp15KwU0fBOya7YjTouZx2ijC13asFeR4yhzlb6A7dxwOY-QI6hzZ1KxuYGF5MMxTbYRUIMi17jMMdlhQwtRDwvXKUoUW3eQQQTuABoBFTRbdHffGJdGFk1AtLsEHcgIUxyUZoT_yoS59q00EsCTfN6WNgEGzdG3Q7erAGPl4Ngmpq5tMB-rzsbLf_s6SM2ha5Vci6PRXASOVK1RqbC9L5jpO7kAAjYMKHWOMCy2mIesGXe9x8fKeDbrSpcyzTEBjZiGzSP7_LGlcXceE6q3lEGtBa3K-jo-SJ095qfUzhhwWFWR4ydNdyjD6_0j2BgEPyxlpFEPSzBu-3SxtpywNYTnOIJ22lyYGrDH2UZAflP8MUckWwtif5c8QVgDelKcer2B9lzQ9ZOCbfsjsEuoehbschU_HS0]--></g></svg>