<?xml version="1.0" encoding="UTF-8" standalone="no"?><svg xmlns="http://www.w3.org/2000/svg" xmlns:xlink="http://www.w3.org/1999/xlink" contentScriptType="application/ecmascript" contentStyleType="text/css" height="381px" preserveAspectRatio="none" style="width:431px;height:381px;background:#FFFFFF;" version="1.1" viewBox="0 0 431 381" width="431px" zoomAndPan="magnify"><defs><filter height="300%" id="f13dwca932qpwm" width="300%" x="-1" y="-1"><feGaussianBlur result="blurOut" stdDeviation="2.0"/><feColorMatrix in="blurOut" result="blurOut2" type="matrix" values="0 0 0 0 0 0 0 0 0 0 0 0 0 0 0 0 0 0 .4 0"/><feOffset dx="4.0" dy="4.0" in="blurOut2" result="blurOut3"/><feBlend in="SourceGraphic" in2="blurOut3" mode="normal"/></filter></defs><g><!--MD5=[b03e332d6d59af71b80fa2f602c07408]
class KeysHandler--><rect codeLine="2" fill="#FEFECE" filter="url(#f13dwca932qpwm)" height="61.8359" id="KeysHandler" style="stroke:#A80036;stroke-width:1.5;" width="140" x="110" y="7"/><ellipse cx="141.65" cy="23" fill="#ADD1B2" rx="11" ry="11" style="stroke:#A80036;stroke-width:1.0;"/><path d="M144.4156,18.875 Q144.5719,18.6563 144.7594,18.5469 Q144.9469,18.4375 145.1656,18.4375 Q145.5406,18.4375 145.775,18.6953 Q146.0094,18.9531 146.0094,19.5625 L146.0094,21.0156 Q146.0094,21.625 145.775,21.8906 Q145.5406,22.1563 145.1656,22.1563 Q144.8219,22.1563 144.6188,21.9531 Q144.4156,21.7656 144.3063,21.25 Q144.2594,20.8906 144.0719,20.7031 Q143.7438,20.3281 143.1344,20.1094 Q142.525,19.8906 141.9,19.8906 Q141.1344,19.8906 140.5016,20.2188 Q139.8688,20.5469 139.3766,21.2969 Q138.8844,22.0469 138.8844,23.0781 L138.8844,24.1719 Q138.8844,25.4063 139.775,26.2266 Q140.6656,27.0469 142.2594,27.0469 Q143.1969,27.0469 143.8531,26.7969 Q144.2438,26.6406 144.6656,26.2031 Q144.9313,25.9375 145.0797,25.8594 Q145.2281,25.7813 145.4313,25.7813 Q145.7594,25.7813 146.0172,26.0391 Q146.275,26.2969 146.275,26.6406 Q146.275,26.9844 145.9313,27.3906 Q145.4313,27.9688 144.6344,28.2969 Q143.5563,28.75 142.2594,28.75 Q140.7438,28.75 139.5406,28.125 Q138.5563,27.625 137.8688,26.5547 Q137.1813,25.4844 137.1813,24.2031 L137.1813,23.0469 Q137.1813,21.7188 137.7984,20.5703 Q138.4156,19.4219 139.5094,18.8047 Q140.6031,18.1875 141.8375,18.1875 Q142.5719,18.1875 143.2203,18.3516 Q143.8688,18.5156 144.4156,18.875 Z " fill="#000000"/><text fill="#000000" font-family="sans-serif" font-size="12" lengthAdjust="spacing" textLength="71" x="159.35" y="27.9102">KeysHandler</text><line style="stroke:#A80036;stroke-width:1.5;" x1="111" x2="249" y1="39" y2="39"/><line style="stroke:#A80036;stroke-width:1.5;" x1="111" x2="249" y1="47" y2="47"/><ellipse cx="121" cy="58" fill="#84BE84" rx="3" ry="3" style="stroke:#038048;stroke-width:1.0;"/><text fill="#000000" font-family="sans-serif" font-size="11" lengthAdjust="spacing" textLength="114" x="130" y="62.4189">void updateKeysState()</text><!--MD5=[62c1de6f042aeb39e35a1b567915856f]
class KeysDebouncer--><rect codeLine="6" fill="#FEFECE" filter="url(#f13dwca932qpwm)" height="48" id="KeysDebouncer" style="stroke:#A80036;stroke-width:1.5;" width="120" x="7" y="156.5"/><ellipse cx="22" cy="172.5" fill="#ADD1B2" rx="11" ry="11" style="stroke:#A80036;stroke-width:1.0;"/><path d="M24.7656,168.375 Q24.9219,168.1563 25.1094,168.0469 Q25.2969,167.9375 25.5156,167.9375 Q25.8906,167.9375 26.125,168.1953 Q26.3594,168.4531 26.3594,169.0625 L26.3594,170.5156 Q26.3594,171.125 26.125,171.3906 Q25.8906,171.6563 25.5156,171.6563 Q25.1719,171.6563 24.9688,171.4531 Q24.7656,171.2656 24.6563,170.75 Q24.6094,170.3906 24.4219,170.2031 Q24.0938,169.8281 23.4844,169.6094 Q22.875,169.3906 22.25,169.3906 Q21.4844,169.3906 20.8516,169.7188 Q20.2188,170.0469 19.7266,170.7969 Q19.2344,171.5469 19.2344,172.5781 L19.2344,173.6719 Q19.2344,174.9063 20.125,175.7266 Q21.0156,176.5469 22.6094,176.5469 Q23.5469,176.5469 24.2031,176.2969 Q24.5938,176.1406 25.0156,175.7031 Q25.2813,175.4375 25.4297,175.3594 Q25.5781,175.2813 25.7813,175.2813 Q26.1094,175.2813 26.3672,175.5391 Q26.625,175.7969 26.625,176.1406 Q26.625,176.4844 26.2813,176.8906 Q25.7813,177.4688 24.9844,177.7969 Q23.9063,178.25 22.6094,178.25 Q21.0938,178.25 19.8906,177.625 Q18.9063,177.125 18.2188,176.0547 Q17.5313,174.9844 17.5313,173.7031 L17.5313,172.5469 Q17.5313,171.2188 18.1484,170.0703 Q18.7656,168.9219 19.8594,168.3047 Q20.9531,167.6875 22.1875,167.6875 Q22.9219,167.6875 23.5703,167.8516 Q24.2188,168.0156 24.7656,168.375 Z " fill="#000000"/><text fill="#000000" font-family="sans-serif" font-size="12" lengthAdjust="spacing" textLength="88" x="36" y="177.4102">KeysDebouncer</text><line style="stroke:#A80036;stroke-width:1.5;" x1="8" x2="126" y1="188.5" y2="188.5"/><line style="stroke:#A80036;stroke-width:1.5;" x1="8" x2="126" y1="196.5" y2="196.5"/><!--MD5=[0240cd4574b6ff2a190495a64497245c]
class Key_State_t--><rect codeLine="10" fill="#FEFECE" filter="url(#f13dwca932qpwm)" height="75.6719" id="Key_State_t" style="stroke:#A80036;stroke-width:1.5;" width="206" x="20" y="292"/><ellipse cx="86.25" cy="308" fill="#EB937F" rx="11" ry="11" style="stroke:#A80036;stroke-width:1.0;"/><path d="M85.1094,308.7969 L85.1094,311.2969 L89.4375,311.2969 L89.4375,310.375 Q89.4375,309.7656 89.6797,309.5 Q89.9219,309.2344 90.2969,309.2344 Q90.6719,309.2344 90.9063,309.5 Q91.1406,309.7656 91.1406,310.375 L91.1406,313 L83.1406,313 Q82.5156,313 82.2578,312.7656 Q82,312.5313 82,312.1406 Q82,311.7656 82.2656,311.5313 Q82.5313,311.2969 83.1406,311.2969 L83.4063,311.2969 L83.4063,304.6406 L83.1406,304.6406 Q82.5156,304.6406 82.2578,304.4063 Q82,304.1719 82,303.7813 Q82,303.4063 82.2578,303.1719 Q82.5156,302.9375 83.1406,302.9375 L90.7656,302.9375 L90.7656,305.5313 Q90.7656,306.1406 90.5391,306.3984 Q90.3125,306.6563 89.9219,306.6563 Q89.5469,306.6563 89.3125,306.3984 Q89.0781,306.1406 89.0781,305.5313 L89.0781,304.6406 L85.1094,304.6406 L85.1094,307.0938 L86.5938,307.0938 Q86.5938,306.4375 86.7188,306.25 Q86.9844,305.8438 87.4531,305.8438 Q87.8281,305.8438 88.0625,306.1016 Q88.2969,306.3594 88.2969,306.9688 L88.2969,308.9375 Q88.2969,309.4844 88.1719,309.6719 Q87.9063,310.0625 87.4531,310.0625 Q86.9844,310.0625 86.7188,309.6563 Q86.5938,309.4688 86.5938,308.7969 L85.1094,308.7969 Z " fill="#000000"/><text fill="#000000" font-family="sans-serif" font-size="12" lengthAdjust="spacing" textLength="65" x="106.75" y="312.9102">Key_State_t</text><line style="stroke:#A80036;stroke-width:1.5;" x1="21" x2="225" y1="324" y2="324"/><text fill="#000000" font-family="sans-serif" font-size="11" lengthAdjust="spacing" textLength="173" x="26" y="339.4189">LOGGER_KEYBOARD_KEY_PRESS</text><text fill="#000000" font-family="sans-serif" font-size="11" lengthAdjust="spacing" textLength="194" x="26" y="353.2549">LOGGER_KEYBOARD_KEY_NO_PRESS</text><line style="stroke:#A80036;stroke-width:1.5;" x1="21" x2="225" y1="359.6719" y2="359.6719"/><!--MD5=[456d381f89554ce67a4e8fa222e02095]
class Keys_Key_Id_t--><rect codeLine="15" fill="#FEFECE" filter="url(#f13dwca932qpwm)" height="103.3438" id="Keys_Key_Id_t" style="stroke:#A80036;stroke-width:1.5;" width="184" x="233" y="129"/><ellipse cx="280.25" cy="145" fill="#EB937F" rx="11" ry="11" style="stroke:#A80036;stroke-width:1.0;"/><path d="M279.1094,145.7969 L279.1094,148.2969 L283.4375,148.2969 L283.4375,147.375 Q283.4375,146.7656 283.6797,146.5 Q283.9219,146.2344 284.2969,146.2344 Q284.6719,146.2344 284.9063,146.5 Q285.1406,146.7656 285.1406,147.375 L285.1406,150 L277.1406,150 Q276.5156,150 276.2578,149.7656 Q276,149.5313 276,149.1406 Q276,148.7656 276.2656,148.5313 Q276.5313,148.2969 277.1406,148.2969 L277.4063,148.2969 L277.4063,141.6406 L277.1406,141.6406 Q276.5156,141.6406 276.2578,141.4063 Q276,141.1719 276,140.7813 Q276,140.4063 276.2578,140.1719 Q276.5156,139.9375 277.1406,139.9375 L284.7656,139.9375 L284.7656,142.5313 Q284.7656,143.1406 284.5391,143.3984 Q284.3125,143.6563 283.9219,143.6563 Q283.5469,143.6563 283.3125,143.3984 Q283.0781,143.1406 283.0781,142.5313 L283.0781,141.6406 L279.1094,141.6406 L279.1094,144.0938 L280.5938,144.0938 Q280.5938,143.4375 280.7188,143.25 Q280.9844,142.8438 281.4531,142.8438 Q281.8281,142.8438 282.0625,143.1016 Q282.2969,143.3594 282.2969,143.9688 L282.2969,145.9375 Q282.2969,146.4844 282.1719,146.6719 Q281.9063,147.0625 281.4531,147.0625 Q280.9844,147.0625 280.7188,146.6563 Q280.5938,146.4688 280.5938,145.7969 L279.1094,145.7969 Z " fill="#000000"/><text fill="#000000" font-family="sans-serif" font-size="12" lengthAdjust="spacing" textLength="81" x="300.75" y="149.9102">Keys_Key_Id_t</text><line style="stroke:#A80036;stroke-width:1.5;" x1="234" x2="416" y1="161" y2="161"/><text fill="#000000" font-family="sans-serif" font-size="11" lengthAdjust="spacing" textLength="153" x="239" y="176.4189">LOGGER_KEYBOARD_KEY_UP</text><text fill="#000000" font-family="sans-serif" font-size="11" lengthAdjust="spacing" textLength="172" x="239" y="190.2549">LOGGER_KEYBOARD_KEY_DOWN</text><text fill="#000000" font-family="sans-serif" font-size="11" lengthAdjust="spacing" textLength="164" x="239" y="204.0908">LOGGER_KEYBOARD_KEY_LEFT</text><text fill="#000000" font-family="sans-serif" font-size="11" lengthAdjust="spacing" textLength="170" x="239" y="217.9268">LOGGER_KEYBOARD_KEY_RIGHT</text><line style="stroke:#A80036;stroke-width:1.5;" x1="234" x2="416" y1="224.3438" y2="224.3438"/><!--MD5=[1e666a5688949bb2ea1e3083142744d7]
link KeysHandler to Keys_Key_Id_t--><path codeLine="22" d="M211.11,69.14 C229.08,86.56 252.16,108.92 272.84,128.96 " fill="none" id="KeysHandler-Keys_Key_Id_t" style="stroke:#A80036;stroke-width:1.0;"/><!--MD5=[0a869c632a4be817daf3e0404f111388]
link KeysHandler to Key_State_t--><path codeLine="23" d="M174.95,69.17 C168.48,107.21 156.71,174.61 145,232 C140.96,251.8 136.02,273.76 131.84,291.77 " fill="none" id="KeysHandler-Key_State_t" style="stroke:#A80036;stroke-width:1.0;"/><!--MD5=[9c4c4a15a680f2c43bb29a587a6469d9]
link KeysDebouncer to Key_State_t--><path codeLine="25" d="M75.75,204.55 C84.61,227.88 98.45,264.34 108.87,291.78 " fill="none" id="KeysDebouncer-Key_State_t" style="stroke:#A80036;stroke-width:1.0;"/><!--MD5=[b3d93426f893d8aa2708bb3d6bcc85ee]
reverse link KeysHandler to KeysDebouncer--><path codeLine="27" d="M147.5,79.41 C127.43,104.37 102.39,135.5 85.61,156.36 " fill="none" id="KeysHandler-backto-KeysDebouncer" style="stroke:#A80036;stroke-width:1.0;"/><polygon fill="#A80036" points="155.76,69.14,148.8831,71.3099,148.2412,78.4924,155.118,76.3225,155.76,69.14" style="stroke:#A80036;stroke-width:1.0;"/><!--MD5=[9692fddac0933baf9a59e06fa81d6ef7]
@startuml

class KeysHandler {
    +void updateKeysState()
}

class KeysDebouncer {

}

enum Key_State_t {
    LOGGER_KEYBOARD_KEY_PRESS
    LOGGER_KEYBOARD_KEY_NO_PRESS
}

enum Keys_Key_Id_t {
    LOGGER_KEYBOARD_KEY_UP
    LOGGER_KEYBOARD_KEY_DOWN
    LOGGER_KEYBOARD_KEY_LEFT
    LOGGER_KEYBOARD_KEY_RIGHT
}

KeysHandler - - Keys_Key_Id_t
KeysHandler - - Key_State_t

KeysDebouncer - - Key_State_t

KeysHandler *- - KeysDebouncer
@enduml

PlantUML version 1.2021.7(Sun May 23 14:40:07 CEST 2021)
(GPL source distribution)
Java Runtime: Java(TM) SE Runtime Environment
JVM: Java HotSpot(TM) 64-Bit Server VM
Default Encoding: Cp1250
Language: pl
Country: PL
--></g></svg>