<svg xmlns="http://www.w3.org/2000/svg" xmlns:xlink="http://www.w3.org/1999/xlink" contentStyleType="text/css" data-diagram-type="SEQUENCE" height="442px" preserveAspectRatio="none" style="width:458px;height:442px;background:#FFFFFF;" version="1.1" viewBox="0 0 458 442" width="458px" zoomAndPan="magnify"><defs/><g><rect fill="none" height="192.7969" style="stroke:#000000;stroke-width:1.5;" width="431.1567" x="10" y="197.8281"/><rect fill="none" height="132.5313" style="stroke:#000000;stroke-width:1.5;" width="278.5249" x="152.6318" y="251.0938"/><rect fill="none" height="59.2656" style="stroke:#000000;stroke-width:1.5;" width="258.5249" x="162.6318" y="317.3594"/><g class="participant-lifeline" data-entity-uid="part1" data-qualified-name="ApplicationFacade" id="part1-lifeline"><g><title>ApplicationFacade</title><rect fill="#000000" fill-opacity="0.00000" height="371.3281" width="8" x="87.3159" y="36.2969"/><line style="stroke:#181818;stroke-width:0.5;stroke-dasharray:5,5;" x1="91" x2="91" y1="36.2969" y2="407.625"/></g></g><g class="participant-lifeline" data-entity-uid="part2" data-qualified-name="MeasurementCoordinator" id="part2-lifeline"><g><title>MeasurementCoordinator</title><rect fill="#000000" fill-opacity="0.00000" height="371.3281" width="8" x="265.1929" y="36.2969"/><line style="stroke:#181818;stroke-width:0.5;stroke-dasharray:5,5;" x1="268.6318" x2="268.6318" y1="36.2969" y2="407.625"/></g></g><g class="participant participant-head" data-entity-uid="part1" data-qualified-name="ApplicationFacade" id="part1-head"><rect fill="#E2E2F0" height="30.2969" rx="2.5" ry="2.5" style="stroke:#181818;stroke-width:0.5;" width="142.6318" x="20" y="5"/><text fill="#000000" font-family="sans-serif" font-size="14" lengthAdjust="spacing" textLength="128.6318" x="27" y="24.9951">ApplicationFacade</text></g><g class="participant participant-tail" data-entity-uid="part1" data-qualified-name="ApplicationFacade" id="part1-tail"><rect fill="#E2E2F0" height="30.2969" rx="2.5" ry="2.5" style="stroke:#181818;stroke-width:0.5;" width="142.6318" x="20" y="406.625"/><text fill="#000000" font-family="sans-serif" font-size="14" lengthAdjust="spacing" textLength="128.6318" x="27" y="426.6201">ApplicationFacade</text></g><g class="participant participant-head" data-entity-uid="part2" data-qualified-name="MeasurementCoordinator" id="part2-head"><rect fill="#E2E2F0" height="30.2969" rx="2.5" ry="2.5" style="stroke:#181818;stroke-width:0.5;" width="193.1221" x="172.6318" y="5"/><text fill="#000000" font-family="sans-serif" font-size="14" lengthAdjust="spacing" textLength="179.1221" x="179.6318" y="24.9951">MeasurementCoordinator</text></g><g class="participant participant-tail" data-entity-uid="part2" data-qualified-name="MeasurementCoordinator" id="part2-tail"><rect fill="#E2E2F0" height="30.2969" rx="2.5" ry="2.5" style="stroke:#181818;stroke-width:0.5;" width="193.1221" x="172.6318" y="406.625"/><text fill="#000000" font-family="sans-serif" font-size="14" lengthAdjust="spacing" textLength="179.1221" x="179.6318" y="426.6201">MeasurementCoordinator</text></g><rect fill="#EEEEEE" height="3" style="stroke:#EEEEEE;stroke-width:1;" width="451.1567" x="0" y="66.8633"/><line style="stroke:#000000;stroke-width:1;" x1="0" x2="451.1567" y1="66.8633" y2="66.8633"/><line style="stroke:#000000;stroke-width:1;" x1="0" x2="451.1567" y1="69.8633" y2="69.8633"/><rect fill="#EEEEEE" height="23.1328" style="stroke:#000000;stroke-width:2;" width="110.624" x="170.2664" y="56.2969"/><text fill="#000000" font-family="sans-serif" font-size="13" font-weight="bold" lengthAdjust="spacing" textLength="92.0981" x="176.2664" y="72.3638">Initialization</text><g class="message" data-entity-1="part1" data-entity-2="part2" id="msg1"><polygon fill="#181818" points="257.1929,106.5625,267.1929,110.5625,257.1929,114.5625,261.1929,110.5625" style="stroke:#181818;stroke-width:1;"/><line style="stroke:#181818;stroke-width:1;stroke-dasharray:2,2;" x1="91.3159" x2="263.1929" y1="110.5625" y2="110.5625"/><text fill="#000000" font-family="sans-serif" font-size="13" lengthAdjust="spacing" textLength="20.5601" x="98.3159" y="105.4966">init</text></g><g class="message" data-entity-1="part1" data-entity-2="part2" id="msg2"><polygon fill="#181818" points="257.1929,135.6953,267.1929,139.6953,257.1929,143.6953,261.1929,139.6953" style="stroke:#181818;stroke-width:1;"/><line style="stroke:#181818;stroke-width:1;stroke-dasharray:2,2;" x1="91.3159" x2="263.1929" y1="139.6953" y2="139.6953"/><text fill="#000000" font-family="sans-serif" font-size="13" lengthAdjust="spacing" textLength="30.2783" x="98.3159" y="134.6294">start</text></g><rect fill="#EEEEEE" height="3" style="stroke:#EEEEEE;stroke-width:1;" width="451.1567" x="0" y="168.2617"/><line style="stroke:#000000;stroke-width:1;" x1="0" x2="451.1567" y1="168.2617" y2="168.2617"/><line style="stroke:#000000;stroke-width:1;" x1="0" x2="451.1567" y1="171.2617" y2="171.2617"/><rect fill="#EEEEEE" height="23.1328" style="stroke:#000000;stroke-width:2;" width="47.0459" x="202.0554" y="157.6953"/><text fill="#000000" font-family="sans-serif" font-size="13" font-weight="bold" lengthAdjust="spacing" textLength="28.52" x="208.0554" y="173.7622">Run</text><path d="M10,197.8281 L86.624,197.8281 L86.624,204.9609 L76.624,214.9609 L10,214.9609 L10,197.8281" fill="#EEEEEE" style="stroke:#000000;stroke-width:1.5;"/><rect fill="none" height="192.7969" style="stroke:#000000;stroke-width:1.5;" width="431.1567" x="10" y="197.8281"/><text fill="#000000" font-family="sans-serif" font-size="13" font-weight="bold" lengthAdjust="spacing" textLength="31.624" x="25" y="210.895">loop</text><text fill="#000000" font-family="sans-serif" font-size="11" font-weight="bold" lengthAdjust="spacing" textLength="74.6152" x="101.624" y="210.0386">[Each cycle]</text><g class="message" data-entity-1="part1" data-entity-2="part2" id="msg3"><polygon fill="#181818" points="257.1929,232.0938,267.1929,236.0938,257.1929,240.0938,261.1929,236.0938" style="stroke:#181818;stroke-width:1;"/><line style="stroke:#181818;stroke-width:1;stroke-dasharray:2,2;" x1="91.3159" x2="263.1929" y1="236.0938" y2="236.0938"/><text fill="#000000" font-family="sans-serif" font-size="13" lengthAdjust="spacing" textLength="33.5283" x="98.3159" y="231.0278">tick()</text></g><path d="M152.6318,251.0938 L229.2559,251.0938 L229.2559,258.2266 L219.2559,268.2266 L152.6318,268.2266 L152.6318,251.0938" fill="#EEEEEE" style="stroke:#000000;stroke-width:1.5;"/><rect fill="none" height="132.5313" style="stroke:#000000;stroke-width:1.5;" width="278.5249" x="152.6318" y="251.0938"/><text fill="#000000" font-family="sans-serif" font-size="13" font-weight="bold" lengthAdjust="spacing" textLength="31.624" x="167.6318" y="264.1606">loop</text><text fill="#000000" font-family="sans-serif" font-size="11" font-weight="bold" lengthAdjust="spacing" textLength="170.9941" x="244.2559" y="263.3042">[Each MeasurementSource]</text><g class="message" data-entity-1="part2" data-entity-2="part2" id="msg4"><line style="stroke:#181818;stroke-width:1;stroke-dasharray:2,2;" x1="269.1929" x2="311.1929" y1="289.3594" y2="289.3594"/><line style="stroke:#181818;stroke-width:1;stroke-dasharray:2,2;" x1="311.1929" x2="311.1929" y1="289.3594" y2="302.3594"/><line style="stroke:#181818;stroke-width:1;stroke-dasharray:2,2;" x1="270.1929" x2="311.1929" y1="302.3594" y2="302.3594"/><polygon fill="#181818" points="280.1929,298.3594,270.1929,302.3594,280.1929,306.3594,276.1929,302.3594" style="stroke:#181818;stroke-width:1;"/><text fill="#000000" font-family="sans-serif" font-size="13" lengthAdjust="spacing" textLength="121.0244" x="276.1929" y="284.2935">getMeasurement()</text></g><path d="M162.6318,317.3594 L239.2559,317.3594 L239.2559,324.4922 L229.2559,334.4922 L162.6318,334.4922 L162.6318,317.3594" fill="#EEEEEE" style="stroke:#000000;stroke-width:1.5;"/><rect fill="none" height="59.2656" style="stroke:#000000;stroke-width:1.5;" width="258.5249" x="162.6318" y="317.3594"/><text fill="#000000" font-family="sans-serif" font-size="13" font-weight="bold" lengthAdjust="spacing" textLength="31.624" x="177.6318" y="330.4263">loop</text><text fill="#000000" font-family="sans-serif" font-size="11" font-weight="bold" lengthAdjust="spacing" textLength="161.9009" x="254.2559" y="329.5698">[Each MeasurementStore]</text><g class="message" data-entity-1="part2" data-entity-2="part2" id="msg5"><line style="stroke:#181818;stroke-width:1;stroke-dasharray:2,2;" x1="269.1929" x2="311.1929" y1="355.625" y2="355.625"/><line style="stroke:#181818;stroke-width:1;stroke-dasharray:2,2;" x1="311.1929" x2="311.1929" y1="355.625" y2="368.625"/><line style="stroke:#181818;stroke-width:1;stroke-dasharray:2,2;" x1="270.1929" x2="311.1929" y1="368.625" y2="368.625"/><polygon fill="#181818" points="280.1929,364.625,270.1929,368.625,280.1929,372.625,276.1929,368.625" style="stroke:#181818;stroke-width:1;"/><text fill="#000000" font-family="sans-serif" font-size="13" lengthAdjust="spacing" textLength="47.3154" x="276.1929" y="350.5591">notify()</text></g><!--SRC=[dO_12i8m38RlUOeSzU0B21D453nuqIS8NTLWRKgN7URJMpVc2ZfX1a8BwVzzJQ2eR3YGLro7uDYGilWT6IejGCZ61qjL7UtTUjs8n98zgKI0ei2zPsLo_6Z3M1G07p1SB5OZ35mY9yBKJANfTwt_M7TI9n9mI-QAfZ7E0gQQ24thtcPpQAC3Bdj-aZgQ3lsg4T1FnyLgDaks7lQ-V3Udz23-L-v5-TnaKkjBwC_KJm00]--></g></svg>