<svg xmlns="http://www.w3.org/2000/svg" xmlns:xlink="http://www.w3.org/1999/xlink" contentStyleType="text/css" data-diagram-type="SEQUENCE" height="588px" preserveAspectRatio="none" style="width:1106px;height:588px;background:#FFFFFF;" version="1.1" viewBox="0 0 1106 588" width="1106px" zoomAndPan="magnify"><defs/><g><rect fill="none" height="221.9297" style="stroke:#000000;stroke-width:1.5;" width="1079.3647" x="10" y="314.3594"/><rect fill="none" height="161.6641" style="stroke:#000000;stroke-width:1.5;" width="471.647" x="607.7178" y="367.625"/><rect fill="none" height="59.2656" style="stroke:#000000;stroke-width:1.5;" width="258.5249" x="810.8398" y="463.0234"/><line style="stroke:#181818;stroke-width:0.5;stroke-dasharray:5.0,5.0;" x1="90" x2="90" y1="36.2969" y2="553.2891"/><line style="stroke:#181818;stroke-width:0.5;stroke-dasharray:5.0,5.0;" x1="280.7363" x2="280.7363" y1="36.2969" y2="553.2891"/><line style="stroke:#181818;stroke-width:0.5;stroke-dasharray:5.0,5.0;" x1="503.2676" x2="503.2676" y1="36.2969" y2="553.2891"/><line style="stroke:#181818;stroke-width:0.5;stroke-dasharray:5.0,5.0;" x1="713.7178" x2="713.7178" y1="36.2969" y2="553.2891"/><line style="stroke:#181818;stroke-width:0.5;stroke-dasharray:5.0,5.0;" x1="910.8398" x2="910.8398" y1="36.2969" y2="553.2891"/><rect fill="#E2E2F0" height="30.2969" rx="2.5" ry="2.5" style="stroke:#181818;stroke-width:0.5;" width="141.7363" x="20" y="5"/><text fill="#000000" font-family="sans-serif" font-size="14" lengthAdjust="spacing" textLength="127.7363" x="27" y="24.9951">ApplicationBuilder</text><rect fill="#E2E2F0" height="30.2969" rx="2.5" ry="2.5" style="stroke:#181818;stroke-width:0.5;" width="141.7363" x="20" y="552.2891"/><text fill="#000000" font-family="sans-serif" font-size="14" lengthAdjust="spacing" textLength="127.7363" x="27" y="572.2842">ApplicationBuilder</text><rect fill="#E2E2F0" height="30.2969" rx="2.5" ry="2.5" style="stroke:#181818;stroke-width:0.5;" width="218.5313" x="171.7363" y="5"/><text fill="#000000" font-family="sans-serif" font-size="14" lengthAdjust="spacing" textLength="204.5313" x="178.7363" y="24.9951">MeasurementSourcesFactory</text><rect fill="#E2E2F0" height="30.2969" rx="2.5" ry="2.5" style="stroke:#181818;stroke-width:0.5;" width="218.5313" x="171.7363" y="552.2891"/><text fill="#000000" font-family="sans-serif" font-size="14" lengthAdjust="spacing" textLength="204.5313" x="178.7363" y="572.2842">MeasurementSourcesFactory</text><rect fill="#E2E2F0" height="30.2969" rx="2.5" ry="2.5" style="stroke:#181818;stroke-width:0.5;" width="207.4502" x="400.2676" y="5"/><text fill="#000000" font-family="sans-serif" font-size="14" lengthAdjust="spacing" textLength="193.4502" x="407.2676" y="24.9951">MeasurementStoresFactory</text><rect fill="#E2E2F0" height="30.2969" rx="2.5" ry="2.5" style="stroke:#181818;stroke-width:0.5;" width="207.4502" x="400.2676" y="552.2891"/><text fill="#000000" font-family="sans-serif" font-size="14" lengthAdjust="spacing" textLength="193.4502" x="407.2676" y="572.2842">MeasurementStoresFactory</text><rect fill="#E2E2F0" height="30.2969" rx="2.5" ry="2.5" style="stroke:#181818;stroke-width:0.5;" width="193.1221" x="617.7178" y="5"/><text fill="#000000" font-family="sans-serif" font-size="14" lengthAdjust="spacing" textLength="179.1221" x="624.7178" y="24.9951">MeasurementCoordinator</text><rect fill="#E2E2F0" height="30.2969" rx="2.5" ry="2.5" style="stroke:#181818;stroke-width:0.5;" width="193.1221" x="617.7178" y="552.2891"/><text fill="#000000" font-family="sans-serif" font-size="14" lengthAdjust="spacing" textLength="179.1221" x="624.7178" y="572.2842">MeasurementCoordinator</text><rect fill="#E2E2F0" height="30.2969" rx="2.5" ry="2.5" style="stroke:#181818;stroke-width:0.5;" width="181.1592" x="820.8398" y="5"/><text fill="#000000" font-family="sans-serif" font-size="14" lengthAdjust="spacing" textLength="167.1592" x="827.8398" y="24.9951">MeasurementDataStore</text><rect fill="#E2E2F0" height="30.2969" rx="2.5" ry="2.5" style="stroke:#181818;stroke-width:0.5;" width="181.1592" x="820.8398" y="552.2891"/><text fill="#000000" font-family="sans-serif" font-size="14" lengthAdjust="spacing" textLength="167.1592" x="827.8398" y="572.2842">MeasurementDataStore</text><rect fill="#EEEEEE" height="3" style="stroke:#EEEEEE;stroke-width:1;" width="1099.3647" x="0" y="66.8633"/><line style="stroke:#000000;stroke-width:1;" x1="0" x2="1099.3647" y1="66.8633" y2="66.8633"/><line style="stroke:#000000;stroke-width:1;" x1="0" x2="1099.3647" y1="69.8633" y2="69.8633"/><rect fill="#EEEEEE" height="23.1328" style="stroke:#000000;stroke-width:2;" width="110.624" x="494.3704" y="56.2969"/><text fill="#000000" font-family="sans-serif" font-size="13" font-weight="bold" lengthAdjust="spacing" textLength="92.0981" x="500.3704" y="72.3638">Initialization</text><polygon fill="#181818" points="269.002,106.5625,279.002,110.5625,269.002,114.5625,273.002,110.5625" style="stroke:#181818;stroke-width:1;"/><line style="stroke:#181818;stroke-width:1;stroke-dasharray:2.0,2.0;" x1="90.8682" x2="275.002" y1="110.5625" y2="110.5625"/><text fill="#000000" font-family="sans-serif" font-size="13" lengthAdjust="spacing" textLength="54.1836" x="97.8682" y="105.4966">initialize</text><polygon fill="#181818" points="491.9927,135.6953,501.9927,139.6953,491.9927,143.6953,495.9927,139.6953" style="stroke:#181818;stroke-width:1;"/><line style="stroke:#181818;stroke-width:1;stroke-dasharray:2.0,2.0;" x1="90.8682" x2="497.9927" y1="139.6953" y2="139.6953"/><text fill="#000000" font-family="sans-serif" font-size="13" lengthAdjust="spacing" textLength="54.1836" x="97.8682" y="134.6294">initialize</text><polygon fill="#181818" points="702.2788,164.8281,712.2788,168.8281,702.2788,172.8281,706.2788,168.8281" style="stroke:#181818;stroke-width:1;"/><line style="stroke:#181818;stroke-width:1;stroke-dasharray:2.0,2.0;" x1="90.8682" x2="708.2788" y1="168.8281" y2="168.8281"/><text fill="#000000" font-family="sans-serif" font-size="13" lengthAdjust="spacing" textLength="54.1836" x="97.8682" y="163.7622">initialize</text><polygon fill="#181818" points="899.4194,193.9609,909.4194,197.9609,899.4194,201.9609,903.4194,197.9609" style="stroke:#181818;stroke-width:1;"/><line style="stroke:#181818;stroke-width:1;stroke-dasharray:2.0,2.0;" x1="90.8682" x2="905.4194" y1="197.9609" y2="197.9609"/><text fill="#000000" font-family="sans-serif" font-size="13" lengthAdjust="spacing" textLength="54.1836" x="97.8682" y="192.895">initialize</text><polygon fill="#181818" points="702.2788,223.0938,712.2788,227.0938,702.2788,231.0938,706.2788,227.0938" style="stroke:#181818;stroke-width:1;"/><line style="stroke:#181818;stroke-width:1;stroke-dasharray:2.0,2.0;" x1="281.002" x2="708.2788" y1="227.0938" y2="227.0938"/><text fill="#000000" font-family="sans-serif" font-size="13" lengthAdjust="spacing" textLength="102.1274" x="288.002" y="222.0278">registerSources</text><polygon fill="#181818" points="899.4194,252.2266,909.4194,256.2266,899.4194,260.2266,903.4194,256.2266" style="stroke:#181818;stroke-width:1;"/><line style="stroke:#181818;stroke-width:1;stroke-dasharray:2.0,2.0;" x1="503.9927" x2="905.4194" y1="256.2266" y2="256.2266"/><text fill="#000000" font-family="sans-serif" font-size="13" lengthAdjust="spacing" textLength="91.8379" x="510.9927" y="251.1606">registerStores</text><rect fill="#EEEEEE" height="3" style="stroke:#EEEEEE;stroke-width:1;" width="1099.3647" x="0" y="284.793"/><line style="stroke:#000000;stroke-width:1;" x1="0" x2="1099.3647" y1="284.793" y2="284.793"/><line style="stroke:#000000;stroke-width:1;" x1="0" x2="1099.3647" y1="287.793" y2="287.793"/><rect fill="#EEEEEE" height="23.1328" style="stroke:#000000;stroke-width:2;" width="47.0459" x="526.1594" y="274.2266"/><text fill="#000000" font-family="sans-serif" font-size="13" font-weight="bold" lengthAdjust="spacing" textLength="28.52" x="532.1594" y="290.2935">Run</text><path d="M10,314.3594 L86.624,314.3594 L86.624,321.4922 L76.624,331.4922 L10,331.4922 L10,314.3594 " fill="#EEEEEE" style="stroke:#000000;stroke-width:1.5;"/><rect fill="none" height="221.9297" style="stroke:#000000;stroke-width:1.5;" width="1079.3647" x="10" y="314.3594"/><text fill="#000000" font-family="sans-serif" font-size="13" font-weight="bold" lengthAdjust="spacing" textLength="31.624" x="25" y="327.4263">loop</text><text fill="#000000" font-family="sans-serif" font-size="11" font-weight="bold" lengthAdjust="spacing" textLength="74.6152" x="101.624" y="326.5698">[Each cycle]</text><polygon fill="#181818" points="702.2788,348.625,712.2788,352.625,702.2788,356.625,706.2788,352.625" style="stroke:#181818;stroke-width:1;"/><line style="stroke:#181818;stroke-width:1;stroke-dasharray:2.0,2.0;" x1="90.8682" x2="708.2788" y1="352.625" y2="352.625"/><text fill="#000000" font-family="sans-serif" font-size="13" lengthAdjust="spacing" textLength="33.5283" x="97.8682" y="347.5591">tick()</text><path d="M607.7178,367.625 L684.3418,367.625 L684.3418,374.7578 L674.3418,384.7578 L607.7178,384.7578 L607.7178,367.625 " fill="#EEEEEE" style="stroke:#000000;stroke-width:1.5;"/><rect fill="none" height="161.6641" style="stroke:#000000;stroke-width:1.5;" width="471.647" x="607.7178" y="367.625"/><text fill="#000000" font-family="sans-serif" font-size="13" font-weight="bold" lengthAdjust="spacing" textLength="31.624" x="622.7178" y="380.6919">loop</text><text fill="#000000" font-family="sans-serif" font-size="11" font-weight="bold" lengthAdjust="spacing" textLength="170.9941" x="699.3418" y="379.8354">[Each MeasurementSource]</text><line style="stroke:#181818;stroke-width:1;stroke-dasharray:2.0,2.0;" x1="714.2788" x2="756.2788" y1="405.8906" y2="405.8906"/><line style="stroke:#181818;stroke-width:1;stroke-dasharray:2.0,2.0;" x1="756.2788" x2="756.2788" y1="405.8906" y2="418.8906"/><line style="stroke:#181818;stroke-width:1;stroke-dasharray:2.0,2.0;" x1="715.2788" x2="756.2788" y1="418.8906" y2="418.8906"/><polygon fill="#181818" points="725.2788,414.8906,715.2788,418.8906,725.2788,422.8906,721.2788,418.8906" style="stroke:#181818;stroke-width:1;"/><text fill="#000000" font-family="sans-serif" font-size="13" lengthAdjust="spacing" textLength="152.2549" x="721.2788" y="400.8247">updateMeasurements()</text><polygon fill="#181818" points="899.4194,444.0234,909.4194,448.0234,899.4194,452.0234,903.4194,448.0234" style="stroke:#181818;stroke-width:1;"/><line style="stroke:#181818;stroke-width:1;stroke-dasharray:2.0,2.0;" x1="714.2788" x2="905.4194" y1="448.0234" y2="448.0234"/><text fill="#000000" font-family="sans-serif" font-size="13" lengthAdjust="spacing" textLength="43.3101" x="721.2788" y="442.9575">store()</text><path d="M810.8398,463.0234 L887.4639,463.0234 L887.4639,470.1563 L877.4639,480.1563 L810.8398,480.1563 L810.8398,463.0234 " fill="#EEEEEE" style="stroke:#000000;stroke-width:1.5;"/><rect fill="none" height="59.2656" style="stroke:#000000;stroke-width:1.5;" width="258.5249" x="810.8398" y="463.0234"/><text fill="#000000" font-family="sans-serif" font-size="13" font-weight="bold" lengthAdjust="spacing" textLength="31.624" x="825.8398" y="476.0903">loop</text><text fill="#000000" font-family="sans-serif" font-size="11" font-weight="bold" lengthAdjust="spacing" textLength="161.9009" x="902.4639" y="475.2339">[Each MeasurementStore]</text><line style="stroke:#181818;stroke-width:1;stroke-dasharray:2.0,2.0;" x1="911.4194" x2="953.4194" y1="501.2891" y2="501.2891"/><line style="stroke:#181818;stroke-width:1;stroke-dasharray:2.0,2.0;" x1="953.4194" x2="953.4194" y1="501.2891" y2="514.2891"/><line style="stroke:#181818;stroke-width:1;stroke-dasharray:2.0,2.0;" x1="912.4194" x2="953.4194" y1="514.2891" y2="514.2891"/><polygon fill="#181818" points="922.4194,510.2891,912.4194,514.2891,922.4194,518.2891,918.4194,514.2891" style="stroke:#181818;stroke-width:1;"/><text fill="#000000" font-family="sans-serif" font-size="13" lengthAdjust="spacing" textLength="43.3101" x="918.4194" y="496.2231">store()</text><!--SRC=[bL9BJWCn3Dtx55x2eXT0caf0GMB11avWPIom6f8eSHRjwKa3dQPgC-fO6YMItySlda1HnKWWf_WOWXL3AjuzPR4ZHu3GzD-PKexymqu_VOw6qoiPzN7NHPNc2TH3FNiVHt5KG3t8XfIg6C0mu9iJ5RAohwFYC01SZewhrRe_yGFAKOHl8RT1phWta9jykD1todrEX6wkUU_8NvAKupy7UWddnfWqAg7kuoF_BS5w7_25p3UQdR4CM6hfyvJjR-_keN9FUXTvQ_zG7Q5PZnn6KcxQgJWk4snV91tEHc6wN9-__iROr5NP1NxiHZYUvVi5]--></g></svg>