<?xml version="1.0" encoding="UTF-8" standalone="no"?><svg xmlns="http://www.w3.org/2000/svg" xmlns:xlink="http://www.w3.org/1999/xlink" contentScriptType="application/ecmascript" contentStyleType="text/css" height="1200px" preserveAspectRatio="none" style="width:664px;height:1200px;background:#FFFFFF;" version="1.1" viewBox="0 0 664 1200" width="664px" zoomAndPan="magnify"><defs><filter height="300%" id="fyjr9za2234no" width="300%" x="-1" y="-1"><feGaussianBlur result="blurOut" stdDeviation="2.0"/><feColorMatrix in="blurOut" result="blurOut2" type="matrix" values="0 0 0 0 0 0 0 0 0 0 0 0 0 0 0 0 0 0 .4 0"/><feOffset dx="4.0" dy="4.0" in="blurOut2" result="blurOut3"/><feBlend in="SourceGraphic" in2="blurOut3" mode="normal"/></filter></defs><g><ellipse cx="329.5" cy="16" fill="#000000" filter="url(#fyjr9za2234no)" rx="10" ry="10" style="stroke:none;stroke-width:1.0;"/><rect fill="#FEFECE" filter="url(#fyjr9za2234no)" height="448.2188" rx="12.5" ry="12.5" style="stroke:#A80036;stroke-width:1.5;" width="645" x="7" y="87"/><rect fill="#FFFFFF" height="414.6094" rx="12.5" ry="12.5" style="stroke:#FFFFFF;stroke-width:1.0;" width="639" x="10" y="117.6094"/><line style="stroke:#A80036;stroke-width:1.5;" x1="7" x2="652" y1="114.6094" y2="114.6094"/><text fill="#000000" font-family="sans-serif" font-size="14" lengthAdjust="spacing" textLength="18" x="320.5" y="106.5332">Init</text><ellipse cx="328.5" cy="135.6094" fill="#000000" filter="url(#fyjr9za2234no)" rx="10" ry="10" style="stroke:none;stroke-width:1.0;"/><g id="Init.HAL_Init"><rect fill="#FEFECE" filter="url(#fyjr9za2234no)" height="50" rx="12.5" ry="12.5" style="stroke:#A80036;stroke-width:1.5;" width="72" x="292.5" y="181.6094"/><line style="stroke:#A80036;stroke-width:1.5;" x1="292.5" x2="364.5" y1="209.2188" y2="209.2188"/><text fill="#000000" font-family="sans-serif" font-size="14" lengthAdjust="spacing" textLength="52" x="302.5" y="201.1426">HAL_Init</text></g><rect fill="#FEFECE" filter="url(#fyjr9za2234no)" height="107.6094" rx="12.5" ry="12.5" style="stroke:#A80036;stroke-width:1.5;" width="403.5" x="126.5" y="267.6094"/><rect fill="#FFFFFF" height="74" rx="12.5" ry="12.5" style="stroke:#FFFFFF;stroke-width:1.0;" width="397.5" x="129.5" y="298.2188"/><line style="stroke:#A80036;stroke-width:1.5;" x1="126.5" x2="530" y1="295.2188" y2="295.2188"/><text fill="#000000" font-family="sans-serif" font-size="14" lengthAdjust="spacing" textLength="49" x="303.75" y="287.1426">HMI_Init</text><ellipse cx="147.5" cy="332.2188" fill="#000000" filter="url(#fyjr9za2234no)" rx="10" ry="10" style="stroke:none;stroke-width:1.0;"/><g id="Init.HMI_Init.Display_Init"><rect fill="#FEFECE" filter="url(#fyjr9za2234no)" height="50" rx="12.5" ry="12.5" style="stroke:#A80036;stroke-width:1.5;" width="92" x="175.5" y="307.2188"/><line style="stroke:#A80036;stroke-width:1.5;" x1="175.5" x2="267.5" y1="334.8281" y2="334.8281"/><text fill="#000000" font-family="sans-serif" font-size="14" lengthAdjust="spacing" textLength="72" x="185.5" y="326.752">Display_Init</text></g><g id="Init.HMI_Init.Backlight_Init"><rect fill="#FEFECE" filter="url(#fyjr9za2234no)" height="50" rx="12.5" ry="12.5" style="stroke:#A80036;stroke-width:1.5;" width="103" x="286" y="307.2188"/><line style="stroke:#A80036;stroke-width:1.5;" x1="286" x2="389" y1="334.8281" y2="334.8281"/><text fill="#000000" font-family="sans-serif" font-size="14" lengthAdjust="spacing" textLength="83" x="296" y="326.752">Backlight_Init</text></g><g id="Init.HMI_Init.Keyboard_Init"><rect fill="#FEFECE" filter="url(#fyjr9za2234no)" height="50" rx="12.5" ry="12.5" style="stroke:#A80036;stroke-width:1.5;" width="107" x="407" y="307.2188"/><line style="stroke:#A80036;stroke-width:1.5;" x1="407" x2="514" y1="334.8281" y2="334.8281"/><text fill="#000000" font-family="sans-serif" font-size="14" lengthAdjust="spacing" textLength="87" x="417" y="326.752">Keyboard_Init</text></g><!--MD5=[360e814929682de0afbabe6cdf858675]
link *start*HMI_Init to Display_Init--><path d="M157.62,332.2188 C161.71,332.2188 165.81,332.2188 169.9,332.2188 " fill="none" id="*start*HMI_Init-to-Display_Init" style="stroke:#A80036;stroke-width:1.0;"/><polygon fill="#A80036" points="175.09,332.2188,166.09,328.2188,170.09,332.2188,166.09,336.2188,175.09,332.2188" style="stroke:#A80036;stroke-width:1.0;"/><!--MD5=[9e71a6465277625590a7e1a936b62ea9]
link Display_Init to Backlight_Init--><path d="M267.72,332.2188 C272.09,332.2188 276.47,332.2188 280.85,332.2188 " fill="none" id="Display_Init-to-Backlight_Init" style="stroke:#A80036;stroke-width:1.0;"/><polygon fill="#A80036" points="285.98,332.2188,276.98,328.2188,280.98,332.2188,276.98,336.2188,285.98,332.2188" style="stroke:#A80036;stroke-width:1.0;"/><!--MD5=[d9f12ac689578172d6ec5caed1731b82]
link Backlight_Init to Keyboard_Init--><path d="M389.39,332.2188 C393.49,332.2188 397.59,332.2188 401.7,332.2188 " fill="none" id="Backlight_Init-to-Keyboard_Init" style="stroke:#A80036;stroke-width:1.0;"/><polygon fill="#A80036" points="406.89,332.2188,397.89,328.2188,401.89,332.2188,397.89,336.2188,406.89,332.2188" style="stroke:#A80036;stroke-width:1.0;"/><rect fill="#FEFECE" filter="url(#fyjr9za2234no)" height="107.6094" rx="12.5" ry="12.5" style="stroke:#A80036;stroke-width:1.5;" width="619" x="19" y="411.6094"/><rect fill="#FFFFFF" height="74" rx="12.5" ry="12.5" style="stroke:#FFFFFF;stroke-width:1.0;" width="613" x="22" y="442.2188"/><line style="stroke:#A80036;stroke-width:1.5;" x1="19" x2="638" y1="439.2188" y2="439.2188"/><text fill="#000000" font-family="sans-serif" font-size="14" lengthAdjust="spacing" textLength="63" x="297" y="431.1426">UART_Init</text><ellipse cx="40" cy="476.2188" fill="#000000" filter="url(#fyjr9za2234no)" rx="10" ry="10" style="stroke:none;stroke-width:1.0;"/><g id="Init.UART_Init.Meassurement_Devices_UART_Init"><rect fill="#FEFECE" filter="url(#fyjr9za2234no)" height="50" rx="12.5" ry="12.5" style="stroke:#A80036;stroke-width:1.5;" width="242" x="68" y="451.2188"/><line style="stroke:#A80036;stroke-width:1.5;" x1="68" x2="310" y1="478.8281" y2="478.8281"/><text fill="#000000" font-family="sans-serif" font-size="14" lengthAdjust="spacing" textLength="222" x="78" y="470.752">Meassurement_Devices_UART_Init</text></g><g id="Init.UART_Init.Local_User_UART_Init"><rect fill="#FEFECE" filter="url(#fyjr9za2234no)" height="50" rx="12.5" ry="12.5" style="stroke:#A80036;stroke-width:1.5;" width="162" x="328" y="451.2188"/><line style="stroke:#A80036;stroke-width:1.5;" x1="328" x2="490" y1="478.8281" y2="478.8281"/><text fill="#000000" font-family="sans-serif" font-size="14" lengthAdjust="spacing" textLength="142" x="338" y="470.752">Local_User_UART_Init</text></g><g id="Init.UART_Init.Wifi_UART_Init"><rect fill="#FEFECE" filter="url(#fyjr9za2234no)" height="50" rx="12.5" ry="12.5" style="stroke:#A80036;stroke-width:1.5;" width="114" x="508" y="451.2188"/><line style="stroke:#A80036;stroke-width:1.5;" x1="508" x2="622" y1="478.8281" y2="478.8281"/><text fill="#000000" font-family="sans-serif" font-size="14" lengthAdjust="spacing" textLength="94" x="518" y="470.752">Wifi_UART_Init</text></g><!--MD5=[4e978c52e4c1b1c361af96a9e5569897]
link *start*UART_Init to Meassurement_Devices_UART_Init--><path d="M50.19,476.2188 C54.32,476.2188 58.45,476.2188 62.58,476.2188 " fill="none" id="*start*UART_Init-to-Meassurement_Devices_UART_Init" style="stroke:#A80036;stroke-width:1.0;"/><polygon fill="#A80036" points="67.81,476.2188,58.81,472.2188,62.81,476.2188,58.81,480.2188,67.81,476.2188" style="stroke:#A80036;stroke-width:1.0;"/><!--MD5=[baa8bfbca353ab3fecbc8e75a124cb03]
link Meassurement_Devices_UART_Init to Local_User_UART_Init--><path d="M310.17,476.2188 C314.33,476.2188 318.5,476.2188 322.66,476.2188 " fill="none" id="Meassurement_Devices_UART_Init-to-Local_User_UART_Init" style="stroke:#A80036;stroke-width:1.0;"/><polygon fill="#A80036" points="327.93,476.2188,318.93,472.2188,322.93,476.2188,318.93,480.2188,327.93,476.2188" style="stroke:#A80036;stroke-width:1.0;"/><!--MD5=[5e772e185fed40ffcf41472c39ceb638]
link Local_User_UART_Init to Wifi_UART_Init--><path d="M490.05,476.2188 C494.33,476.2188 498.6,476.2188 502.88,476.2188 " fill="none" id="Local_User_UART_Init-to-Wifi_UART_Init" style="stroke:#A80036;stroke-width:1.0;"/><polygon fill="#A80036" points="507.91,476.2188,498.91,472.2188,502.91,476.2188,498.91,480.2188,507.91,476.2188" style="stroke:#A80036;stroke-width:1.0;"/><!--MD5=[ff1d481b988217f8d5de2b120b36ff33]
link *start*Init to HAL_Init--><path d="M328.5,145.6294 C328.5,153.4894 328.5,165.3294 328.5,176.4194 " fill="none" id="*start*Init-to-HAL_Init" style="stroke:#A80036;stroke-width:1.0;"/><polygon fill="#A80036" points="328.5,181.4394,332.5,172.4394,328.5,176.4394,324.5,172.4394,328.5,181.4394" style="stroke:#A80036;stroke-width:1.0;"/><!--MD5=[28ced1e960c567f47c644f9f72f88c1b]
link HAL_Init to HMI_Init--><path d="M328.5,231.8494 C328.5,240.7694 328.5,251.2994 328.5,261.9294 " fill="none" id="HAL_Init-to-HMI_Init" style="stroke:#A80036;stroke-width:1.0;"/><polygon fill="#A80036" points="328.5,267.1494,332.5,258.1494,328.5,262.1494,324.5,258.1494,328.5,267.1494" style="stroke:#A80036;stroke-width:1.0;"/><!--MD5=[10ebd625e87081c2b1f35c55c71e6148]
link HMI_Init to UART_Init--><path d="M328.5,375.8894 C328.5,385.8094 328.5,396.2194 328.5,406.2794 " fill="none" id="HMI_Init-to-UART_Init" style="stroke:#A80036;stroke-width:1.0;"/><polygon fill="#A80036" points="328.5,411.4994,332.5,402.4994,328.5,406.4994,324.5,402.4994,328.5,411.4994" style="stroke:#A80036;stroke-width:1.0;"/><rect fill="#FEFECE" filter="url(#fyjr9za2234no)" height="248.6094" rx="12.5" ry="12.5" style="stroke:#A80036;stroke-width:1.5;" width="520.6208" x="69" y="613"/><rect fill="#FFFFFF" height="215" rx="12.5" ry="12.5" style="stroke:#FFFFFF;stroke-width:1.0;" width="514.6208" x="72" y="643.6094"/><line style="stroke:#A80036;stroke-width:1.5;" x1="69" x2="589.6208" y1="640.6094" y2="640.6094"/><text fill="#000000" font-family="sans-serif" font-size="14" lengthAdjust="spacing" textLength="74" x="292.3104" y="632.5332">Operational</text><ellipse cx="246.5" cy="661.6094" fill="#000000" filter="url(#fyjr9za2234no)" rx="10" ry="10" style="stroke:none;stroke-width:1.0;"/><g id="Operational.Measurement_Tick"><rect fill="#FEFECE" filter="url(#fyjr9za2234no)" height="50" rx="12.5" ry="12.5" style="stroke:#A80036;stroke-width:1.5;" width="140" x="176.5" y="707.6094"/><line style="stroke:#A80036;stroke-width:1.5;" x1="176.5" x2="316.5" y1="735.2188" y2="735.2188"/><text fill="#000000" font-family="sans-serif" font-size="14" lengthAdjust="spacing" textLength="120" x="186.5" y="727.1426">Measurement_Tick</text></g><g id="Operational.Storage_Tick"><rect fill="#FEFECE" filter="url(#fyjr9za2234no)" height="50" rx="12.5" ry="12.5" style="stroke:#A80036;stroke-width:1.5;" width="104" x="130.5" y="793.6094"/><line style="stroke:#A80036;stroke-width:1.5;" x1="130.5" x2="234.5" y1="821.2188" y2="821.2188"/><text fill="#000000" font-family="sans-serif" font-size="14" lengthAdjust="spacing" textLength="84" x="140.5" y="813.1426">Storage_Tick</text></g><g id="Operational.HMI_Tick"><rect fill="#FEFECE" filter="url(#fyjr9za2234no)" height="50" rx="12.5" ry="12.5" style="stroke:#A80036;stroke-width:1.5;" width="77" x="81" y="707.6094"/><line style="stroke:#A80036;stroke-width:1.5;" x1="81" x2="158" y1="735.2188" y2="735.2188"/><text fill="#000000" font-family="sans-serif" font-size="14" lengthAdjust="spacing" textLength="57" x="91" y="727.1426">HMI_Tick</text></g><!--MD5=[918b4958162eafc9f4bb146dd63c8577]
link *start*Operational to Measurement_Tick--><path d="M246.5,671.6294 C246.5,679.4894 246.5,691.3294 246.5,702.4194 " fill="none" id="*start*Operational-to-Measurement_Tick" style="stroke:#A80036;stroke-width:1.0;"/><polygon fill="#A80036" points="246.5,707.4394,250.5,698.4394,246.5,702.4394,242.5,698.4394,246.5,707.4394" style="stroke:#A80036;stroke-width:1.0;"/><!--MD5=[82dbca0fc1a90be797feec2279cf6a47]
link Measurement_Tick to Storage_Tick--><path d="M227.99,757.9094 C220.49,767.7394 211.79,779.1694 204.01,789.3794 " fill="none" id="Measurement_Tick-to-Storage_Tick" style="stroke:#A80036;stroke-width:1.0;"/><polygon fill="#A80036" points="200.97,793.3694,209.6082,788.6384,204.0019,789.3935,203.2468,783.7873,200.97,793.3694" style="stroke:#A80036;stroke-width:1.0;"/><!--MD5=[c9dbcaf55c4b3af3993849691660d447]
link Storage_Tick to HMI_Tick--><path d="M164.32,793.3694 C157.01,783.6194 148.53,772.3094 140.92,762.1694 " fill="none" id="Storage_Tick-to-HMI_Tick" style="stroke:#A80036;stroke-width:1.0;"/><polygon fill="#A80036" points="137.72,757.9094,139.92,767.5094,140.72,761.9094,146.32,762.7094,137.72,757.9094" style="stroke:#A80036;stroke-width:1.0;"/><!--MD5=[ba6d593932f640430248be0c8ea954be]
link HMI_Tick to Measurement_Tick--><path d="M158.2,732.6094 C162.58,732.6094 166.96,732.6094 171.34,732.6094 " fill="none" id="HMI_Tick-to-Measurement_Tick" style="stroke:#A80036;stroke-width:1.0;"/><polygon fill="#A80036" points="176.48,732.6094,167.48,728.6094,171.48,732.6094,167.48,736.6094,176.48,732.6094" style="stroke:#A80036;stroke-width:1.0;"/><line style="stroke:#A80036;stroke-width:1.5;stroke-dasharray:8.0,10.0;" x1="317.5" x2="317.5" y1="645.6094" y2="864.6094"/><ellipse cx="442.5" cy="661.6094" fill="#000000" filter="url(#fyjr9za2234no)" rx="10" ry="10" style="stroke:none;stroke-width:1.0;"/><g id="Operational.CONC37.Get_Meassurement_From_Device"><rect fill="#FEFECE" filter="url(#fyjr9za2234no)" height="50" rx="12.5" ry="12.5" style="stroke:#A80036;stroke-width:1.5;" width="236" x="324.5" y="707.6094"/><line style="stroke:#A80036;stroke-width:1.5;" x1="324.5" x2="560.5" y1="735.2188" y2="735.2188"/><text fill="#000000" font-family="sans-serif" font-size="14" lengthAdjust="spacing" textLength="216" x="334.5" y="727.1426">Get_Meassurement_From_Device</text></g><!--MD5=[a70be8550c2226228a6fb63b629d824a]
link *start*CONC37 to Get_Meassurement_From_Device--><path d="M442.5,671.6294 C442.5,679.4894 442.5,691.3294 442.5,702.4194 " fill="none" id="*start*CONC37-to-Get_Meassurement_From_Device" style="stroke:#A80036;stroke-width:1.0;"/><polygon fill="#A80036" points="442.5,707.4394,446.5,698.4394,442.5,702.4394,438.5,698.4394,442.5,707.4394" style="stroke:#A80036;stroke-width:1.0;"/><!--MD5=[2553177fb0157b2919b444fca50cef74]
link Get_Meassurement_From_Device to Get_Meassurement_From_Device--><path d="M560.94,722.1794 C571.72,724.3494 578.5,727.8194 578.5,732.6094 C578.5,736.5694 573.85,739.6394 566.13,741.8094 " fill="none" id="Get_Meassurement_From_Device-to-Get_Meassurement_From_Device" style="stroke:#A80036;stroke-width:1.0;"/><polygon fill="#A80036" points="560.94,743.0394,570.6208,744.8511,565.8046,741.8838,568.7719,737.0677,560.94,743.0394" style="stroke:#A80036;stroke-width:1.0;"/><rect fill="#FEFECE" filter="url(#fyjr9za2234no)" height="248.6094" rx="12.5" ry="12.5" style="stroke:#A80036;stroke-width:1.5;" width="193" x="233" y="940"/><rect fill="#FFFFFF" height="215" rx="12.5" ry="12.5" style="stroke:#FFFFFF;stroke-width:1.0;" width="187" x="236" y="970.6094"/><line style="stroke:#A80036;stroke-width:1.5;" x1="233" x2="426" y1="967.6094" y2="967.6094"/><text fill="#000000" font-family="sans-serif" font-size="14" lengthAdjust="spacing" textLength="39" x="310" y="959.5332">Faulty</text><ellipse cx="327.5" cy="988.6094" fill="#000000" filter="url(#fyjr9za2234no)" rx="10" ry="10" style="stroke:none;stroke-width:1.0;"/><g id="Faulty.Disable_Faulty_Device"><rect fill="#FEFECE" filter="url(#fyjr9za2234no)" height="50" rx="12.5" ry="12.5" style="stroke:#A80036;stroke-width:1.5;" width="165" x="245" y="1034.6094"/><line style="stroke:#A80036;stroke-width:1.5;" x1="245" x2="410" y1="1062.2188" y2="1062.2188"/><text fill="#000000" font-family="sans-serif" font-size="14" lengthAdjust="spacing" textLength="145" x="255" y="1054.1426">Disable_Faulty_Device</text></g><g id="Faulty.Log_Diagnostic_Data"><rect fill="#FEFECE" filter="url(#fyjr9za2234no)" height="50" rx="12.5" ry="12.5" style="stroke:#A80036;stroke-width:1.5;" width="156" x="249.5" y="1120.6094"/><line style="stroke:#A80036;stroke-width:1.5;" x1="249.5" x2="405.5" y1="1148.2188" y2="1148.2188"/><text fill="#000000" font-family="sans-serif" font-size="14" lengthAdjust="spacing" textLength="136" x="259.5" y="1140.1426">Log_Diagnostic_Data</text></g><!--MD5=[aa7d4d8c7e5e3cbc92cbdf917ba6a3ee]
link *start*Faulty to Disable_Faulty_Device--><path d="M327.5,998.6294 C327.5,1006.4894 327.5,1018.3294 327.5,1029.4194 " fill="none" id="*start*Faulty-to-Disable_Faulty_Device" style="stroke:#A80036;stroke-width:1.0;"/><polygon fill="#A80036" points="327.5,1034.4394,331.5,1025.4394,327.5,1029.4394,323.5,1025.4394,327.5,1034.4394" style="stroke:#A80036;stroke-width:1.0;"/><!--MD5=[53bfb7d395859dd7f443ef56995d67bf]
link Disable_Faulty_Device to Log_Diagnostic_Data--><path d="M327.5,1084.9094 C327.5,1094.3994 327.5,1105.3594 327.5,1115.2894 " fill="none" id="Disable_Faulty_Device-to-Log_Diagnostic_Data" style="stroke:#A80036;stroke-width:1.0;"/><polygon fill="#A80036" points="327.5,1120.3694,331.5,1111.3694,327.5,1115.3694,323.5,1111.3694,327.5,1120.3694" style="stroke:#A80036;stroke-width:1.0;"/><!--MD5=[6c6fd5bc6631f4eb2dc5d7a81c52ede6]
link *start to Init--><path d="M329.5,26.09 C329.5,37.05 329.5,57.08 329.5,81.64 " fill="none" id="*start-to-Init" style="stroke:#A80036;stroke-width:1.0;"/><polygon fill="#A80036" points="329.5,86.95,333.5,77.95,329.5,81.95,325.5,77.95,329.5,86.95" style="stroke:#A80036;stroke-width:1.0;"/><!--MD5=[8d20f19393a916b6ec0119be6d25e12d]
link Init to Operational--><path d="M329.5,535.13 C329.5,559.95 329.5,584.56 329.5,607.62 " fill="none" id="Init-to-Operational" style="stroke:#A80036;stroke-width:1.0;"/><polygon fill="#A80036" points="329.5,612.83,333.5,603.83,329.5,607.83,325.5,603.83,329.5,612.83" style="stroke:#A80036;stroke-width:1.0;"/><text fill="#000000" font-family="sans-serif" font-size="13" lengthAdjust="spacing" textLength="86" x="330.5" y="579.4951">initialization ok</text><!--MD5=[04ef331d06336af02da96d4f51a8d89c]
link Operational to Faulty--><path d="M281.97,862.39 C279.38,872.3 277.16,882.25 275.5,892 C273.11,905.98 273.27,920.39 275.15,934.65 " fill="none" id="Operational-to-Faulty" style="stroke:#A80036;stroke-width:1.0;"/><polygon fill="#A80036" points="275.92,939.9,278.5955,930.4215,275.2069,934.9511,270.6773,931.5625,275.92,939.9" style="stroke:#A80036;stroke-width:1.0;"/><text fill="#000000" font-family="sans-serif" font-size="13" lengthAdjust="spacing" textLength="78" x="276.5" y="906.4951">fault detected</text><!--MD5=[bdd4b9ccac693c53660de7c1eb5a02e3]
link Faulty to Operational--><path d="M355.8,939.81 C357.29,929.76 358.56,919.73 359.5,910 C360.84,896.2 360.73,881.84 359.66,867.56 " fill="none" id="Faulty-to-Operational" style="stroke:#A80036;stroke-width:1.0;"/><polygon fill="#A80036" points="359.22,862.31,355.979,871.6103,359.634,867.2928,363.9515,870.9479,359.22,862.31" style="stroke:#A80036;stroke-width:1.0;"/><!--MD5=[5a398fd8661940f4183d26f64d14417c]
@startuml
[*] - -> Init



state Init {
  [*] - -> HAL_Init
  HAL_Init - -> HMI_Init

  state HMI_Init {
    [*] -> Display_Init
    Display_Init -> Backlight_Init
    Backlight_Init -> Keyboard_Init
  }

  HMI_Init - ->  UART_Init

  state UART_Init {
    [*] ->  Meassurement_Devices_UART_Init
    Meassurement_Devices_UART_Init -> Local_User_UART_Init
    Local_User_UART_Init -> Wifi_UART_Init
  }
}



state Operational {
    [*] - -> Measurement_Tick
    Measurement_Tick - -> Storage_Tick
    Storage_Tick - -> HMI_Tick
    HMI_Tick -> Measurement_Tick
    ||
    [*] - -> Get_Meassurement_From_Device
    Get_Meassurement_From_Device - -> Get_Meassurement_From_Device
}


state Faulty {
    [*] - ->  Disable_Faulty_Device
    Disable_Faulty_Device - -> Log_Diagnostic_Data
}

Init - -> Operational : initialization ok
Operational - -> Faulty : fault detected
Faulty  - -> Operational


/'
SDCard_Init
Wifi_Init
'/
@enduml

@startuml
[*] - -> Init



state Init {
  [*] - -> HAL_Init
  HAL_Init - -> HMI_Init

  state HMI_Init {
    [*] -> Display_Init
    Display_Init -> Backlight_Init
    Backlight_Init -> Keyboard_Init
  }

  HMI_Init - ->  UART_Init

  state UART_Init {
    [*] ->  Meassurement_Devices_UART_Init
    Meassurement_Devices_UART_Init -> Local_User_UART_Init
    Local_User_UART_Init -> Wifi_UART_Init
  }
}



state Operational {
    [*] - -> Measurement_Tick
    Measurement_Tick - -> Storage_Tick
    Storage_Tick - -> HMI_Tick
    HMI_Tick -> Measurement_Tick
    ||
    [*] - -> Get_Meassurement_From_Device
    Get_Meassurement_From_Device - -> Get_Meassurement_From_Device
}


state Faulty {
    [*] - ->  Disable_Faulty_Device
    Disable_Faulty_Device - -> Log_Diagnostic_Data
}

Init - -> Operational : initialization ok
Operational - -> Faulty : fault detected
Faulty  - -> Operational


@enduml

PlantUML version 1.2021.7(Sun May 23 14:40:07 CEST 2021)
(GPL source distribution)
Java Runtime: Java(TM) SE Runtime Environment
JVM: Java HotSpot(TM) 64-Bit Server VM
Default Encoding: Cp1250
Language: pl
Country: PL
--></g></svg>