<?xml version="1.0" encoding="UTF-8" standalone="no"?><svg xmlns="http://www.w3.org/2000/svg" xmlns:xlink="http://www.w3.org/1999/xlink" contentScriptType="application/ecmascript" contentStyleType="text/css" height="366px" preserveAspectRatio="none" style="width:538px;height:366px;background:#FFFFFF;" version="1.1" viewBox="0 0 538 366" width="538px" zoomAndPan="magnify"><defs><filter height="300%" id="f1h0vvb8g42o3g" width="300%" x="-1" y="-1"><feGaussianBlur result="blurOut" stdDeviation="2.0"/><feColorMatrix in="blurOut" result="blurOut2" type="matrix" values="0 0 0 0 0 0 0 0 0 0 0 0 0 0 0 0 0 0 .4 0"/><feOffset dx="4.0" dy="4.0" in="blurOut2" result="blurOut3"/><feBlend in="SourceGraphic" in2="blurOut3" mode="normal"/></filter></defs><g><!--MD5=[1d3fc6c7834c61241fbb08646b57c42e]
class LCDDriver--><rect codeLine="5" fill="#FEFECE" filter="url(#f1h0vvb8g42o3g)" height="48" id="LCDDriver" style="stroke:#A80036;stroke-width:1.5;" width="89" x="68" y="223"/><ellipse cx="83" cy="239" fill="#ADD1B2" rx="11" ry="11" style="stroke:#A80036;stroke-width:1.0;"/><path d="M85.7656,234.875 Q85.9219,234.6563 86.1094,234.5469 Q86.2969,234.4375 86.5156,234.4375 Q86.8906,234.4375 87.125,234.6953 Q87.3594,234.9531 87.3594,235.5625 L87.3594,237.0156 Q87.3594,237.625 87.125,237.8906 Q86.8906,238.1563 86.5156,238.1563 Q86.1719,238.1563 85.9688,237.9531 Q85.7656,237.7656 85.6563,237.25 Q85.6094,236.8906 85.4219,236.7031 Q85.0938,236.3281 84.4844,236.1094 Q83.875,235.8906 83.25,235.8906 Q82.4844,235.8906 81.8516,236.2188 Q81.2188,236.5469 80.7266,237.2969 Q80.2344,238.0469 80.2344,239.0781 L80.2344,240.1719 Q80.2344,241.4063 81.125,242.2266 Q82.0156,243.0469 83.6094,243.0469 Q84.5469,243.0469 85.2031,242.7969 Q85.5938,242.6406 86.0156,242.2031 Q86.2813,241.9375 86.4297,241.8594 Q86.5781,241.7813 86.7813,241.7813 Q87.1094,241.7813 87.3672,242.0391 Q87.625,242.2969 87.625,242.6406 Q87.625,242.9844 87.2813,243.3906 Q86.7813,243.9688 85.9844,244.2969 Q84.9063,244.75 83.6094,244.75 Q82.0938,244.75 80.8906,244.125 Q79.9063,243.625 79.2188,242.5547 Q78.5313,241.4844 78.5313,240.2031 L78.5313,239.0469 Q78.5313,237.7188 79.1484,236.5703 Q79.7656,235.4219 80.8594,234.8047 Q81.9531,234.1875 83.1875,234.1875 Q83.9219,234.1875 84.5703,234.3516 Q85.2188,234.5156 85.7656,234.875 Z " fill="#000000"/><text fill="#000000" font-family="sans-serif" font-size="12" lengthAdjust="spacing" textLength="57" x="97" y="243.9102">LCDDriver</text><line style="stroke:#A80036;stroke-width:1.5;" x1="69" x2="156" y1="255" y2="255"/><line style="stroke:#A80036;stroke-width:1.5;" x1="69" x2="156" y1="263" y2="263"/><path d="M6,331 L6,357.3516 A0,0 0 0 0 6,357.3516 L219,357.3516 A0,0 0 0 0 219,357.3516 L219,341 L209,331 L116.5,331 L112.5,271.48 L108.5,331 L6,331 A0,0 0 0 0 6,331 " fill="#FBFB77" filter="url(#f1h0vvb8g42o3g)" style="stroke:#A80036;stroke-width:1.0;"/><path d="M209,331 L209,341 L219,341 L209,331 " fill="#FBFB77" style="stroke:#A80036;stroke-width:1.0;"/><text fill="#000000" font-family="sans-serif" font-size="13" lengthAdjust="spacing" textLength="192" x="12" y="349.4951">Uses external lib for ST7735 LCD</text><!--MD5=[8b0da68eae32e0b30331bbf48af9f6f2]
class AmbientLightLevelSensorDriver--><rect codeLine="6" fill="#FEFECE" filter="url(#f1h0vvb8g42o3g)" height="48" id="AmbientLightLevelSensorDriver" style="stroke:#A80036;stroke-width:1.5;" width="205" x="192" y="223"/><ellipse cx="207" cy="239" fill="#ADD1B2" rx="11" ry="11" style="stroke:#A80036;stroke-width:1.0;"/><path d="M209.7656,234.875 Q209.9219,234.6563 210.1094,234.5469 Q210.2969,234.4375 210.5156,234.4375 Q210.8906,234.4375 211.125,234.6953 Q211.3594,234.9531 211.3594,235.5625 L211.3594,237.0156 Q211.3594,237.625 211.125,237.8906 Q210.8906,238.1563 210.5156,238.1563 Q210.1719,238.1563 209.9688,237.9531 Q209.7656,237.7656 209.6563,237.25 Q209.6094,236.8906 209.4219,236.7031 Q209.0938,236.3281 208.4844,236.1094 Q207.875,235.8906 207.25,235.8906 Q206.4844,235.8906 205.8516,236.2188 Q205.2188,236.5469 204.7266,237.2969 Q204.2344,238.0469 204.2344,239.0781 L204.2344,240.1719 Q204.2344,241.4063 205.125,242.2266 Q206.0156,243.0469 207.6094,243.0469 Q208.5469,243.0469 209.2031,242.7969 Q209.5938,242.6406 210.0156,242.2031 Q210.2813,241.9375 210.4297,241.8594 Q210.5781,241.7813 210.7813,241.7813 Q211.1094,241.7813 211.3672,242.0391 Q211.625,242.2969 211.625,242.6406 Q211.625,242.9844 211.2813,243.3906 Q210.7813,243.9688 209.9844,244.2969 Q208.9063,244.75 207.6094,244.75 Q206.0938,244.75 204.8906,244.125 Q203.9063,243.625 203.2188,242.5547 Q202.5313,241.4844 202.5313,240.2031 L202.5313,239.0469 Q202.5313,237.7188 203.1484,236.5703 Q203.7656,235.4219 204.8594,234.8047 Q205.9531,234.1875 207.1875,234.1875 Q207.9219,234.1875 208.5703,234.3516 Q209.2188,234.5156 209.7656,234.875 Z " fill="#000000"/><text fill="#000000" font-family="sans-serif" font-size="12" lengthAdjust="spacing" textLength="173" x="221" y="243.9102">AmbientLightLevelSensorDriver</text><line style="stroke:#A80036;stroke-width:1.5;" x1="193" x2="396" y1="255" y2="255"/><line style="stroke:#A80036;stroke-width:1.5;" x1="193" x2="396" y1="263" y2="263"/><!--MD5=[75a90c66e08aa45890b8efb914901d73]
class LCD--><rect codeLine="7" fill="#FEFECE" filter="url(#f1h0vvb8g42o3g)" height="48" id="LCD" style="stroke:#A80036;stroke-width:1.5;" width="57" x="175" y="115"/><ellipse cx="190" cy="131" fill="#ADD1B2" rx="11" ry="11" style="stroke:#A80036;stroke-width:1.0;"/><path d="M192.7656,126.875 Q192.9219,126.6563 193.1094,126.5469 Q193.2969,126.4375 193.5156,126.4375 Q193.8906,126.4375 194.125,126.6953 Q194.3594,126.9531 194.3594,127.5625 L194.3594,129.0156 Q194.3594,129.625 194.125,129.8906 Q193.8906,130.1563 193.5156,130.1563 Q193.1719,130.1563 192.9688,129.9531 Q192.7656,129.7656 192.6563,129.25 Q192.6094,128.8906 192.4219,128.7031 Q192.0938,128.3281 191.4844,128.1094 Q190.875,127.8906 190.25,127.8906 Q189.4844,127.8906 188.8516,128.2188 Q188.2188,128.5469 187.7266,129.2969 Q187.2344,130.0469 187.2344,131.0781 L187.2344,132.1719 Q187.2344,133.4063 188.125,134.2266 Q189.0156,135.0469 190.6094,135.0469 Q191.5469,135.0469 192.2031,134.7969 Q192.5938,134.6406 193.0156,134.2031 Q193.2813,133.9375 193.4297,133.8594 Q193.5781,133.7813 193.7813,133.7813 Q194.1094,133.7813 194.3672,134.0391 Q194.625,134.2969 194.625,134.6406 Q194.625,134.9844 194.2813,135.3906 Q193.7813,135.9688 192.9844,136.2969 Q191.9063,136.75 190.6094,136.75 Q189.0938,136.75 187.8906,136.125 Q186.9063,135.625 186.2188,134.5547 Q185.5313,133.4844 185.5313,132.2031 L185.5313,131.0469 Q185.5313,129.7188 186.1484,128.5703 Q186.7656,127.4219 187.8594,126.8047 Q188.9531,126.1875 190.1875,126.1875 Q190.9219,126.1875 191.5703,126.3516 Q192.2188,126.5156 192.7656,126.875 Z " fill="#000000"/><text fill="#000000" font-family="sans-serif" font-size="12" lengthAdjust="spacing" textLength="25" x="204" y="135.9102">LCD</text><line style="stroke:#A80036;stroke-width:1.5;" x1="176" x2="231" y1="147" y2="147"/><line style="stroke:#A80036;stroke-width:1.5;" x1="176" x2="231" y1="155" y2="155"/><!--MD5=[392b3e915ca79094cec8ba85002b277c]
class KeyboardDriver--><rect codeLine="9" fill="#FEFECE" filter="url(#f1h0vvb8g42o3g)" height="48" id="KeyboardDriver" style="stroke:#A80036;stroke-width:1.5;" width="116" x="267.5" y="115"/><ellipse cx="282.5" cy="131" fill="#ADD1B2" rx="11" ry="11" style="stroke:#A80036;stroke-width:1.0;"/><path d="M285.2656,126.875 Q285.4219,126.6563 285.6094,126.5469 Q285.7969,126.4375 286.0156,126.4375 Q286.3906,126.4375 286.625,126.6953 Q286.8594,126.9531 286.8594,127.5625 L286.8594,129.0156 Q286.8594,129.625 286.625,129.8906 Q286.3906,130.1563 286.0156,130.1563 Q285.6719,130.1563 285.4688,129.9531 Q285.2656,129.7656 285.1563,129.25 Q285.1094,128.8906 284.9219,128.7031 Q284.5938,128.3281 283.9844,128.1094 Q283.375,127.8906 282.75,127.8906 Q281.9844,127.8906 281.3516,128.2188 Q280.7188,128.5469 280.2266,129.2969 Q279.7344,130.0469 279.7344,131.0781 L279.7344,132.1719 Q279.7344,133.4063 280.625,134.2266 Q281.5156,135.0469 283.1094,135.0469 Q284.0469,135.0469 284.7031,134.7969 Q285.0938,134.6406 285.5156,134.2031 Q285.7813,133.9375 285.9297,133.8594 Q286.0781,133.7813 286.2813,133.7813 Q286.6094,133.7813 286.8672,134.0391 Q287.125,134.2969 287.125,134.6406 Q287.125,134.9844 286.7813,135.3906 Q286.2813,135.9688 285.4844,136.2969 Q284.4063,136.75 283.1094,136.75 Q281.5938,136.75 280.3906,136.125 Q279.4063,135.625 278.7188,134.5547 Q278.0313,133.4844 278.0313,132.2031 L278.0313,131.0469 Q278.0313,129.7188 278.6484,128.5703 Q279.2656,127.4219 280.3594,126.8047 Q281.4531,126.1875 282.6875,126.1875 Q283.4219,126.1875 284.0703,126.3516 Q284.7188,126.5156 285.2656,126.875 Z " fill="#000000"/><text fill="#000000" font-family="sans-serif" font-size="12" lengthAdjust="spacing" textLength="84" x="296.5" y="135.9102">KeyboardDriver</text><line style="stroke:#A80036;stroke-width:1.5;" x1="268.5" x2="382.5" y1="147" y2="147"/><line style="stroke:#A80036;stroke-width:1.5;" x1="268.5" x2="382.5" y1="155" y2="155"/><!--MD5=[5cc3309cb56ec8619001912fde98fc5f]
class HMILayout--><rect codeLine="10" fill="#FEFECE" filter="url(#f1h0vvb8g42o3g)" height="48" id="HMILayout" style="stroke:#A80036;stroke-width:1.5;" width="89" x="281" y="7"/><ellipse cx="296" cy="23" fill="#ADD1B2" rx="11" ry="11" style="stroke:#A80036;stroke-width:1.0;"/><path d="M298.7656,18.875 Q298.9219,18.6563 299.1094,18.5469 Q299.2969,18.4375 299.5156,18.4375 Q299.8906,18.4375 300.125,18.6953 Q300.3594,18.9531 300.3594,19.5625 L300.3594,21.0156 Q300.3594,21.625 300.125,21.8906 Q299.8906,22.1563 299.5156,22.1563 Q299.1719,22.1563 298.9688,21.9531 Q298.7656,21.7656 298.6563,21.25 Q298.6094,20.8906 298.4219,20.7031 Q298.0938,20.3281 297.4844,20.1094 Q296.875,19.8906 296.25,19.8906 Q295.4844,19.8906 294.8516,20.2188 Q294.2188,20.5469 293.7266,21.2969 Q293.2344,22.0469 293.2344,23.0781 L293.2344,24.1719 Q293.2344,25.4063 294.125,26.2266 Q295.0156,27.0469 296.6094,27.0469 Q297.5469,27.0469 298.2031,26.7969 Q298.5938,26.6406 299.0156,26.2031 Q299.2813,25.9375 299.4297,25.8594 Q299.5781,25.7813 299.7813,25.7813 Q300.1094,25.7813 300.3672,26.0391 Q300.625,26.2969 300.625,26.6406 Q300.625,26.9844 300.2813,27.3906 Q299.7813,27.9688 298.9844,28.2969 Q297.9063,28.75 296.6094,28.75 Q295.0938,28.75 293.8906,28.125 Q292.9063,27.625 292.2188,26.5547 Q291.5313,25.4844 291.5313,24.2031 L291.5313,23.0469 Q291.5313,21.7188 292.1484,20.5703 Q292.7656,19.4219 293.8594,18.8047 Q294.9531,18.1875 296.1875,18.1875 Q296.9219,18.1875 297.5703,18.3516 Q298.2188,18.5156 298.7656,18.875 Z " fill="#000000"/><text fill="#000000" font-family="sans-serif" font-size="12" lengthAdjust="spacing" textLength="57" x="310" y="27.9102">HMILayout</text><line style="stroke:#A80036;stroke-width:1.5;" x1="282" x2="369" y1="39" y2="39"/><line style="stroke:#A80036;stroke-width:1.5;" x1="282" x2="369" y1="47" y2="47"/><!--MD5=[e765b16ba1ad7f613e9e561680a8660d]
class DataGateway--><rect codeLine="12" fill="#FEFECE" filter="url(#f1h0vvb8g42o3g)" height="48" id="DataGateway" style="stroke:#A80036;stroke-width:1.5;" width="105" x="419" y="115"/><ellipse cx="434" cy="131" fill="#ADD1B2" rx="11" ry="11" style="stroke:#A80036;stroke-width:1.0;"/><path d="M436.7656,126.875 Q436.9219,126.6563 437.1094,126.5469 Q437.2969,126.4375 437.5156,126.4375 Q437.8906,126.4375 438.125,126.6953 Q438.3594,126.9531 438.3594,127.5625 L438.3594,129.0156 Q438.3594,129.625 438.125,129.8906 Q437.8906,130.1563 437.5156,130.1563 Q437.1719,130.1563 436.9688,129.9531 Q436.7656,129.7656 436.6563,129.25 Q436.6094,128.8906 436.4219,128.7031 Q436.0938,128.3281 435.4844,128.1094 Q434.875,127.8906 434.25,127.8906 Q433.4844,127.8906 432.8516,128.2188 Q432.2188,128.5469 431.7266,129.2969 Q431.2344,130.0469 431.2344,131.0781 L431.2344,132.1719 Q431.2344,133.4063 432.125,134.2266 Q433.0156,135.0469 434.6094,135.0469 Q435.5469,135.0469 436.2031,134.7969 Q436.5938,134.6406 437.0156,134.2031 Q437.2813,133.9375 437.4297,133.8594 Q437.5781,133.7813 437.7813,133.7813 Q438.1094,133.7813 438.3672,134.0391 Q438.625,134.2969 438.625,134.6406 Q438.625,134.9844 438.2813,135.3906 Q437.7813,135.9688 436.9844,136.2969 Q435.9063,136.75 434.6094,136.75 Q433.0938,136.75 431.8906,136.125 Q430.9063,135.625 430.2188,134.5547 Q429.5313,133.4844 429.5313,132.2031 L429.5313,131.0469 Q429.5313,129.7188 430.1484,128.5703 Q430.7656,127.4219 431.8594,126.8047 Q432.9531,126.1875 434.1875,126.1875 Q434.9219,126.1875 435.5703,126.3516 Q436.2188,126.5156 436.7656,126.875 Z " fill="#000000"/><text fill="#000000" font-family="sans-serif" font-size="12" lengthAdjust="spacing" textLength="73" x="448" y="135.9102">DataGateway</text><line style="stroke:#A80036;stroke-width:1.5;" x1="420" x2="523" y1="147" y2="147"/><line style="stroke:#A80036;stroke-width:1.5;" x1="420" x2="523" y1="155" y2="155"/><!--MD5=[a1d5a1cf6db50bcbbfea94dcef2084a9]
link LCD to LCDDriver--><path codeLine="14" d="M183.75,163 C168.6,180.66 147.75,204.94 132.52,222.68 " fill="none" id="LCD-LCDDriver" style="stroke:#A80036;stroke-width:1.0;"/><!--MD5=[acebdfb4ff167f0b8525824873d63c8e]
link LCD to AmbientLightLevelSensorDriver--><path codeLine="15" d="M223.25,163 C238.4,180.66 259.25,204.94 274.48,222.68 " fill="none" id="LCD-AmbientLightLevelSensorDriver" style="stroke:#A80036;stroke-width:1.0;"/><!--MD5=[b7bc0bbe42285e29caf58ec66b0b9c28]
link HMILayout to LCD--><path codeLine="16" d="M299.03,55 C278.7,72.66 250.76,96.94 230.34,114.68 " fill="none" id="HMILayout-LCD" style="stroke:#A80036;stroke-width:1.0;"/><!--MD5=[e418fbb3cf828343e8bbfcf199d1ddad]
link HMILayout to KeyboardDriver--><path codeLine="17" d="M325.5,55 C325.5,72.66 325.5,96.94 325.5,114.68 " fill="none" id="HMILayout-KeyboardDriver" style="stroke:#A80036;stroke-width:1.0;"/><!--MD5=[b6700ea17090bbc65879066ba7649159]
link HMILayout to DataGateway--><path codeLine="18" d="M357.18,55 C381.59,72.72 415.18,97.11 439.63,114.86 " fill="none" id="HMILayout-DataGateway" style="stroke:#A80036;stroke-width:1.0;"/><!--MD5=[8e46193c11f931ffbf6d091d68a4eed5]
@startuml

note bottom of LCDDriver
Uses external lib for ST7735 LCD
end note
class LCDDriver
class AmbientLightLevelSensorDriver
class LCD

class KeyboardDriver
class HMILayout

class DataGateway

LCD - - LCDDriver
LCD - - AmbientLightLevelSensorDriver
HMILayout - - LCD
HMILayout- - KeyboardDriver
HMILayout - - DataGateway





@enduml

PlantUML version 1.2021.7(Sun May 23 14:40:07 CEST 2021)
(GPL source distribution)
Java Runtime: Java(TM) SE Runtime Environment
JVM: Java HotSpot(TM) 64-Bit Server VM
Default Encoding: Cp1250
Language: pl
Country: PL
--></g></svg>