<?xml version="1.0" encoding="UTF-8" standalone="no"?><svg xmlns="http://www.w3.org/2000/svg" xmlns:xlink="http://www.w3.org/1999/xlink" contentScriptType="application/ecmascript" contentStyleType="text/css" height="720px" preserveAspectRatio="none" style="width:664px;height:720px;background:#FFFFFF;" version="1.1" viewBox="0 0 664 720" width="664px" zoomAndPan="magnify"><defs><filter height="300%" id="fqg1ciflgjm1e" width="300%" x="-1" y="-1"><feGaussianBlur result="blurOut" stdDeviation="2.0"/><feColorMatrix in="blurOut" result="blurOut2" type="matrix" values="0 0 0 0 0 0 0 0 0 0 0 0 0 0 0 0 0 0 .4 0"/><feOffset dx="4.0" dy="4.0" in="blurOut2" result="blurOut3"/><feBlend in="SourceGraphic" in2="blurOut3" mode="normal"/></filter></defs><g><ellipse cx="329.5" cy="16" fill="#000000" filter="url(#fqg1ciflgjm1e)" rx="10" ry="10" style="stroke:none;stroke-width:1.0;"/><rect fill="#FEFECE" filter="url(#fqg1ciflgjm1e)" height="622.6094" rx="12.5" ry="12.5" style="stroke:#A80036;stroke-width:1.5;" width="645" x="7" y="86"/><rect fill="#FFFFFF" height="589" rx="12.5" ry="12.5" style="stroke:#FFFFFF;stroke-width:1.0;" width="639" x="10" y="116.6094"/><line style="stroke:#A80036;stroke-width:1.5;" x1="7" x2="652" y1="113.6094" y2="113.6094"/><text fill="#000000" font-family="sans-serif" font-size="14" lengthAdjust="spacing" textLength="18" x="320.5" y="105.5332">Init</text><ellipse cx="328.5" cy="134.6094" fill="#000000" filter="url(#fqg1ciflgjm1e)" rx="10" ry="10" style="stroke:none;stroke-width:1.0;"/><g id="Init.HAL_Init"><rect fill="#FEFECE" filter="url(#fqg1ciflgjm1e)" height="50" rx="12.5" ry="12.5" style="stroke:#A80036;stroke-width:1.5;" width="72" x="292.5" y="180.6094"/><line style="stroke:#A80036;stroke-width:1.5;" x1="292.5" x2="364.5" y1="208.2188" y2="208.2188"/><text fill="#000000" font-family="sans-serif" font-size="14" lengthAdjust="spacing" textLength="52" x="302.5" y="200.1426">HAL_Init</text></g><g id="Init.SDCard_Init"><rect fill="#FEFECE" filter="url(#fqg1ciflgjm1e)" height="50" rx="12.5" ry="12.5" style="stroke:#A80036;stroke-width:1.5;" width="96" x="280.5" y="554.6094"/><line style="stroke:#A80036;stroke-width:1.5;" x1="280.5" x2="376.5" y1="582.2188" y2="582.2188"/><text fill="#000000" font-family="sans-serif" font-size="14" lengthAdjust="spacing" textLength="76" x="290.5" y="574.1426">SDCard_Init</text></g><g id="Init.Wifi_Init"><rect fill="#FEFECE" filter="url(#fqg1ciflgjm1e)" height="50" rx="12.5" ry="12.5" style="stroke:#A80036;stroke-width:1.5;" width="69" x="294" y="640.6094"/><line style="stroke:#A80036;stroke-width:1.5;" x1="294" x2="363" y1="668.2188" y2="668.2188"/><text fill="#000000" font-family="sans-serif" font-size="14" lengthAdjust="spacing" textLength="49" x="304" y="660.1426">Wifi_Init</text></g><rect fill="#FEFECE" filter="url(#fqg1ciflgjm1e)" height="107.6094" rx="12.5" ry="12.5" style="stroke:#A80036;stroke-width:1.5;" width="403.5" x="126.5" y="266.6094"/><rect fill="#FFFFFF" height="74" rx="12.5" ry="12.5" style="stroke:#FFFFFF;stroke-width:1.0;" width="397.5" x="129.5" y="297.2188"/><line style="stroke:#A80036;stroke-width:1.5;" x1="126.5" x2="530" y1="294.2188" y2="294.2188"/><text fill="#000000" font-family="sans-serif" font-size="14" lengthAdjust="spacing" textLength="49" x="303.75" y="286.1426">HMI_Init</text><ellipse cx="147.5" cy="331.2188" fill="#000000" filter="url(#fqg1ciflgjm1e)" rx="10" ry="10" style="stroke:none;stroke-width:1.0;"/><g id="Init.HMI_Init.Display_Init"><rect fill="#FEFECE" filter="url(#fqg1ciflgjm1e)" height="50" rx="12.5" ry="12.5" style="stroke:#A80036;stroke-width:1.5;" width="92" x="175.5" y="306.2188"/><line style="stroke:#A80036;stroke-width:1.5;" x1="175.5" x2="267.5" y1="333.8281" y2="333.8281"/><text fill="#000000" font-family="sans-serif" font-size="14" lengthAdjust="spacing" textLength="72" x="185.5" y="325.752">Display_Init</text></g><g id="Init.HMI_Init.Backlight_Init"><rect fill="#FEFECE" filter="url(#fqg1ciflgjm1e)" height="50" rx="12.5" ry="12.5" style="stroke:#A80036;stroke-width:1.5;" width="103" x="286" y="306.2188"/><line style="stroke:#A80036;stroke-width:1.5;" x1="286" x2="389" y1="333.8281" y2="333.8281"/><text fill="#000000" font-family="sans-serif" font-size="14" lengthAdjust="spacing" textLength="83" x="296" y="325.752">Backlight_Init</text></g><g id="Init.HMI_Init.Keyboard_Init"><rect fill="#FEFECE" filter="url(#fqg1ciflgjm1e)" height="50" rx="12.5" ry="12.5" style="stroke:#A80036;stroke-width:1.5;" width="107" x="407" y="306.2188"/><line style="stroke:#A80036;stroke-width:1.5;" x1="407" x2="514" y1="333.8281" y2="333.8281"/><text fill="#000000" font-family="sans-serif" font-size="14" lengthAdjust="spacing" textLength="87" x="417" y="325.752">Keyboard_Init</text></g><!--MD5=[360e814929682de0afbabe6cdf858675]
link *start*HMI_Init to Display_Init--><path d="M157.62,331.2188 C161.71,331.2188 165.81,331.2188 169.9,331.2188 " fill="none" id="*start*HMI_Init-to-Display_Init" style="stroke:#A80036;stroke-width:1.0;"/><polygon fill="#A80036" points="175.09,331.2188,166.09,327.2188,170.09,331.2188,166.09,335.2188,175.09,331.2188" style="stroke:#A80036;stroke-width:1.0;"/><!--MD5=[9e71a6465277625590a7e1a936b62ea9]
link Display_Init to Backlight_Init--><path d="M267.72,331.2188 C272.09,331.2188 276.47,331.2188 280.85,331.2188 " fill="none" id="Display_Init-to-Backlight_Init" style="stroke:#A80036;stroke-width:1.0;"/><polygon fill="#A80036" points="285.98,331.2188,276.98,327.2188,280.98,331.2188,276.98,335.2188,285.98,331.2188" style="stroke:#A80036;stroke-width:1.0;"/><!--MD5=[d9f12ac689578172d6ec5caed1731b82]
link Backlight_Init to Keyboard_Init--><path d="M389.39,331.2188 C393.49,331.2188 397.59,331.2188 401.7,331.2188 " fill="none" id="Backlight_Init-to-Keyboard_Init" style="stroke:#A80036;stroke-width:1.0;"/><polygon fill="#A80036" points="406.89,331.2188,397.89,327.2188,401.89,331.2188,397.89,335.2188,406.89,331.2188" style="stroke:#A80036;stroke-width:1.0;"/><rect fill="#FEFECE" filter="url(#fqg1ciflgjm1e)" height="107.6094" rx="12.5" ry="12.5" style="stroke:#A80036;stroke-width:1.5;" width="619" x="19" y="410.6094"/><rect fill="#FFFFFF" height="74" rx="12.5" ry="12.5" style="stroke:#FFFFFF;stroke-width:1.0;" width="613" x="22" y="441.2188"/><line style="stroke:#A80036;stroke-width:1.5;" x1="19" x2="638" y1="438.2188" y2="438.2188"/><text fill="#000000" font-family="sans-serif" font-size="14" lengthAdjust="spacing" textLength="63" x="297" y="430.1426">UART_Init</text><ellipse cx="40" cy="475.2188" fill="#000000" filter="url(#fqg1ciflgjm1e)" rx="10" ry="10" style="stroke:none;stroke-width:1.0;"/><g id="Init.UART_Init.Meassurement_Devices_UART_Init"><rect fill="#FEFECE" filter="url(#fqg1ciflgjm1e)" height="50" rx="12.5" ry="12.5" style="stroke:#A80036;stroke-width:1.5;" width="242" x="68" y="450.2188"/><line style="stroke:#A80036;stroke-width:1.5;" x1="68" x2="310" y1="477.8281" y2="477.8281"/><text fill="#000000" font-family="sans-serif" font-size="14" lengthAdjust="spacing" textLength="222" x="78" y="469.752">Meassurement_Devices_UART_Init</text></g><g id="Init.UART_Init.Local_User_UART_Init"><rect fill="#FEFECE" filter="url(#fqg1ciflgjm1e)" height="50" rx="12.5" ry="12.5" style="stroke:#A80036;stroke-width:1.5;" width="162" x="328" y="450.2188"/><line style="stroke:#A80036;stroke-width:1.5;" x1="328" x2="490" y1="477.8281" y2="477.8281"/><text fill="#000000" font-family="sans-serif" font-size="14" lengthAdjust="spacing" textLength="142" x="338" y="469.752">Local_User_UART_Init</text></g><g id="Init.UART_Init.Wifi_UART_Init"><rect fill="#FEFECE" filter="url(#fqg1ciflgjm1e)" height="50" rx="12.5" ry="12.5" style="stroke:#A80036;stroke-width:1.5;" width="114" x="508" y="450.2188"/><line style="stroke:#A80036;stroke-width:1.5;" x1="508" x2="622" y1="477.8281" y2="477.8281"/><text fill="#000000" font-family="sans-serif" font-size="14" lengthAdjust="spacing" textLength="94" x="518" y="469.752">Wifi_UART_Init</text></g><!--MD5=[4e978c52e4c1b1c361af96a9e5569897]
link *start*UART_Init to Meassurement_Devices_UART_Init--><path d="M50.19,475.2188 C54.32,475.2188 58.45,475.2188 62.58,475.2188 " fill="none" id="*start*UART_Init-to-Meassurement_Devices_UART_Init" style="stroke:#A80036;stroke-width:1.0;"/><polygon fill="#A80036" points="67.81,475.2188,58.81,471.2188,62.81,475.2188,58.81,479.2188,67.81,475.2188" style="stroke:#A80036;stroke-width:1.0;"/><!--MD5=[baa8bfbca353ab3fecbc8e75a124cb03]
link Meassurement_Devices_UART_Init to Local_User_UART_Init--><path d="M310.17,475.2188 C314.33,475.2188 318.5,475.2188 322.66,475.2188 " fill="none" id="Meassurement_Devices_UART_Init-to-Local_User_UART_Init" style="stroke:#A80036;stroke-width:1.0;"/><polygon fill="#A80036" points="327.93,475.2188,318.93,471.2188,322.93,475.2188,318.93,479.2188,327.93,475.2188" style="stroke:#A80036;stroke-width:1.0;"/><!--MD5=[5e772e185fed40ffcf41472c39ceb638]
link Local_User_UART_Init to Wifi_UART_Init--><path d="M490.05,475.2188 C494.33,475.2188 498.6,475.2188 502.88,475.2188 " fill="none" id="Local_User_UART_Init-to-Wifi_UART_Init" style="stroke:#A80036;stroke-width:1.0;"/><polygon fill="#A80036" points="507.91,475.2188,498.91,471.2188,502.91,475.2188,498.91,479.2188,507.91,475.2188" style="stroke:#A80036;stroke-width:1.0;"/><!--MD5=[ff1d481b988217f8d5de2b120b36ff33]
link *start*Init to HAL_Init--><path d="M328.5,144.6294 C328.5,152.4894 328.5,164.3294 328.5,175.4194 " fill="none" id="*start*Init-to-HAL_Init" style="stroke:#A80036;stroke-width:1.0;"/><polygon fill="#A80036" points="328.5,180.4394,332.5,171.4394,328.5,175.4394,324.5,171.4394,328.5,180.4394" style="stroke:#A80036;stroke-width:1.0;"/><!--MD5=[28ced1e960c567f47c644f9f72f88c1b]
link HAL_Init to HMI_Init--><path d="M328.5,230.8494 C328.5,239.7694 328.5,250.2994 328.5,260.9294 " fill="none" id="HAL_Init-to-HMI_Init" style="stroke:#A80036;stroke-width:1.0;"/><polygon fill="#A80036" points="328.5,266.1494,332.5,257.1494,328.5,261.1494,324.5,257.1494,328.5,266.1494" style="stroke:#A80036;stroke-width:1.0;"/><!--MD5=[10ebd625e87081c2b1f35c55c71e6148]
link HMI_Init to UART_Init--><path d="M328.5,374.8894 C328.5,384.8094 328.5,395.2194 328.5,405.2794 " fill="none" id="HMI_Init-to-UART_Init" style="stroke:#A80036;stroke-width:1.0;"/><polygon fill="#A80036" points="328.5,410.4994,332.5,401.4994,328.5,405.4994,324.5,401.4994,328.5,410.4994" style="stroke:#A80036;stroke-width:1.0;"/><!--MD5=[9da66256794e346185be453a28cbfc51]
link UART_Init to SDCard_Init--><path d="M328.5,518.7994 C328.5,529.3294 328.5,540.0094 328.5,549.3794 " fill="none" id="UART_Init-to-SDCard_Init" style="stroke:#A80036;stroke-width:1.0;"/><polygon fill="#A80036" points="328.5,554.4394,332.5,545.4394,328.5,549.4394,324.5,545.4394,328.5,554.4394" style="stroke:#A80036;stroke-width:1.0;"/><!--MD5=[542b995ba951529710d949dd5043aa44]
link SDCard_Init to Wifi_Init--><path d="M328.5,604.9094 C328.5,614.3994 328.5,625.3594 328.5,635.2894 " fill="none" id="SDCard_Init-to-Wifi_Init" style="stroke:#A80036;stroke-width:1.0;"/><polygon fill="#A80036" points="328.5,640.3694,332.5,631.3694,328.5,635.3694,324.5,631.3694,328.5,640.3694" style="stroke:#A80036;stroke-width:1.0;"/><!--MD5=[6c6fd5bc6631f4eb2dc5d7a81c52ede6]
link *start to Init--><path d="M329.5,26.01 C329.5,36.69 329.5,56.2 329.5,80.88 " fill="none" id="*start-to-Init" style="stroke:#A80036;stroke-width:1.0;"/><polygon fill="#A80036" points="329.5,85.89,333.5,76.89,329.5,80.89,325.5,76.89,329.5,85.89" style="stroke:#A80036;stroke-width:1.0;"/><!--MD5=[a3afc99387c1bb19578bea9f31c4e4b1]
@startuml
[*] - -> Init

state Init {
  [*] - -> HAL_Init
  HAL_Init - -> HMI_Init

  state HMI_Init {
    [*] -> Display_Init
    Display_Init -> Backlight_Init
    Backlight_Init -> Keyboard_Init
  }

  HMI_Init - ->  UART_Init

  state UART_Init {
    [*] ->  Meassurement_Devices_UART_Init
    Meassurement_Devices_UART_Init -> Local_User_UART_Init
    Local_User_UART_Init -> Wifi_UART_Init
  }
  
  UART_Init - ->SDCard_Init

  SDCard_Init - -> Wifi_Init

}

@enduml

PlantUML version 1.2021.7(Sun May 23 14:40:07 CEST 2021)
(GPL source distribution)
Java Runtime: Java(TM) SE Runtime Environment
JVM: Java HotSpot(TM) 64-Bit Server VM
Default Encoding: Cp1250
Language: pl
Country: PL
--></g></svg>