<svg xmlns="http://www.w3.org/2000/svg" xmlns:xlink="http://www.w3.org/1999/xlink" contentStyleType="text/css" data-diagram-type="DESCRIPTION" height="1260px" preserveAspectRatio="none" style="width:819px;height:1260px;background:#FFFFFF;" version="1.1" viewBox="0 0 819 1260" width="819px" zoomAndPan="magnify"><defs/><g><!--cluster Simulation (located in Simulation/FirmwarePCSimulator)--><g id="cluster_Simulation (located in Simulation/FirmwarePCSimulator)"><path d="M330.5,4 L778.7549,4 A3.75,3.75 0 0 1 781.2549,6.5 L788.2549,26.2969 L788.5,26.2969 A2.5,2.5 0 0 1 791,28.7969 L791,480.5 A2.5,2.5 0 0 1 788.5,483 L330.5,483 A2.5,2.5 0 0 1 328,480.5 L328,6.5 A2.5,2.5 0 0 1 330.5,4 " fill="none" style="stroke:#000000;stroke-width:1.5;"/><line style="stroke:#000000;stroke-width:1.5;" x1="328" x2="788.2549" y1="26.2969" y2="26.2969"/><text fill="#000000" font-family="sans-serif" font-size="14" font-weight="bold" lengthAdjust="spacing" textLength="447.2549" x="332" y="18.9951">Simulation (located in Simulation/FirmwarePCSimulator)</text></g><!--cluster Firmware (located in Software/STM32F103RBTx)--><g id="cluster_Firmware (located in Software/STM32F103RBTx)"><path d="M294.5,491 L678.9346,491 A3.75,3.75 0 0 1 681.4346,493.5 L688.4346,513.2969 L809.5,513.2969 A2.5,2.5 0 0 1 812,515.7969 L812,1250.5 A2.5,2.5 0 0 1 809.5,1253 L294.5,1253 A2.5,2.5 0 0 1 292,1250.5 L292,493.5 A2.5,2.5 0 0 1 294.5,491 " fill="none" style="stroke:#000000;stroke-width:1.5;"/><line style="stroke:#000000;stroke-width:1.5;" x1="292" x2="688.4346" y1="513.2969" y2="513.2969"/><text fill="#000000" font-family="sans-serif" font-size="14" font-weight="bold" lengthAdjust="spacing" textLength="383.4346" x="296" y="505.9951">Firmware (located in Software/STM32F103RBTx)</text></g><!--cluster Application--><g id="cluster_Application"><rect fill="none" height="558" rx="2.5" ry="2.5" style="stroke:#181818;stroke-width:1;" width="376" x="396" y="518"/><rect fill="none" height="10" style="stroke:#181818;stroke-width:1;" width="15" x="752" y="523"/><rect fill="none" height="2" style="stroke:#181818;stroke-width:1;" width="4" x="750" y="525"/><rect fill="none" height="2" style="stroke:#181818;stroke-width:1;" width="4" x="750" y="529"/><text fill="#000000" font-family="sans-serif" font-size="14" font-weight="bold" lengthAdjust="spacing" textLength="89.2979" x="539.3511" y="543.9951">Application</text></g><!--cluster BL--><g id="cluster_BL"><path d="M482.5,545 L599.9297,545 A3.75,3.75 0 0 1 602.4297,547.5 L609.4297,567.2969 L733.5,567.2969 A2.5,2.5 0 0 1 736,569.7969 L736,721.5 A2.5,2.5 0 0 1 733.5,724 L482.5,724 A2.5,2.5 0 0 1 480,721.5 L480,547.5 A2.5,2.5 0 0 1 482.5,545 " fill="none" style="stroke:#000000;stroke-width:1.5;"/><line style="stroke:#000000;stroke-width:1.5;" x1="480" x2="609.4297" y1="567.2969" y2="567.2969"/><text fill="#000000" font-family="sans-serif" font-size="14" font-weight="bold" lengthAdjust="spacing" textLength="116.4297" x="484" y="559.9951">Business Logic</text></g><!--cluster Dev--><g id="cluster_Dev"><path d="M438.5,762 L492.335,762 A3.75,3.75 0 0 1 494.835,764.5 L501.835,784.2969 L689.5,784.2969 A2.5,2.5 0 0 1 692,786.7969 L692,938.5 A2.5,2.5 0 0 1 689.5,941 L438.5,941 A2.5,2.5 0 0 1 436,938.5 L436,764.5 A2.5,2.5 0 0 1 438.5,762 " fill="none" style="stroke:#000000;stroke-width:1.5;"/><line style="stroke:#000000;stroke-width:1.5;" x1="436" x2="501.835" y1="784.2969" y2="784.2969"/><text fill="#000000" font-family="sans-serif" font-size="14" font-weight="bold" lengthAdjust="spacing" textLength="52.835" x="440" y="776.9951">Device</text></g><!--cluster Drv--><g id="cluster_Drv"><path d="M406.5,979 L456.3496,979 A3.75,3.75 0 0 1 458.8496,981.5 L465.8496,1001.2969 L761.5,1001.2969 A2.5,2.5 0 0 1 764,1003.7969 L764,1065.5 A2.5,2.5 0 0 1 761.5,1068 L406.5,1068 A2.5,2.5 0 0 1 404,1065.5 L404,981.5 A2.5,2.5 0 0 1 406.5,979 " fill="none" style="stroke:#000000;stroke-width:1.5;"/><line style="stroke:#000000;stroke-width:1.5;" x1="404" x2="465.8496" y1="1001.2969" y2="1001.2969"/><text fill="#000000" font-family="sans-serif" font-size="14" font-weight="bold" lengthAdjust="spacing" textLength="48.8496" x="408" y="993.9951">Driver</text></g><!--cluster Libraries \n(located in Middlewares/Third_Party)--><g id="cluster_Libraries \n(located in Middlewares/Third_Party)"><rect fill="none" height="140" rx="2.5" ry="2.5" style="stroke:#181818;stroke-width:1;" width="307" x="300" y="1105"/><rect fill="none" height="10" style="stroke:#181818;stroke-width:1;" width="15" x="587" y="1110"/><rect fill="none" height="2" style="stroke:#181818;stroke-width:1;" width="4" x="585" y="1112"/><rect fill="none" height="2" style="stroke:#181818;stroke-width:1;" width="4" x="585" y="1116"/><text fill="#000000" font-family="sans-serif" font-size="14" font-weight="bold" lengthAdjust="spacing" textLength="69.624" x="416.251" y="1130.9951">Libraries</text><text fill="#000000" font-family="sans-serif" font-size="14" font-weight="bold" lengthAdjust="spacing" textLength="291.6484" x="307.6758" y="1147.292">(located in Middlewares/Third_Party)</text></g><!--cluster STM32-ST7735--><g id="cluster_STM32-ST7735"><path d="M310.5,1148 L428.9551,1148 A3.75,3.75 0 0 1 431.4551,1150.5 L438.4551,1170.2969 L445.5,1170.2969 A2.5,2.5 0 0 1 448,1172.7969 L448,1234.5 A2.5,2.5 0 0 1 445.5,1237 L310.5,1237 A2.5,2.5 0 0 1 308,1234.5 L308,1150.5 A2.5,2.5 0 0 1 310.5,1148 " fill="none" style="stroke:#000000;stroke-width:1.5;"/><line style="stroke:#000000;stroke-width:1.5;" x1="308" x2="438.4551" y1="1170.2969" y2="1170.2969"/><text fill="#000000" font-family="sans-serif" font-size="14" font-weight="bold" lengthAdjust="spacing" textLength="117.4551" x="312" y="1162.9951">STM32-ST7735</text></g><!--cluster Core (located in Core)--><g id="cluster_Core (located in Core)"><rect fill="none" height="89" rx="2.5" ry="2.5" style="stroke:#181818;stroke-width:1;" width="189" x="615" y="1148"/><rect fill="none" height="10" style="stroke:#181818;stroke-width:1;" width="15" x="784" y="1153"/><rect fill="none" height="2" style="stroke:#181818;stroke-width:1;" width="4" x="782" y="1155"/><rect fill="none" height="2" style="stroke:#181818;stroke-width:1;" width="4" x="782" y="1159"/><text fill="#000000" font-family="sans-serif" font-size="14" font-weight="bold" lengthAdjust="spacing" textLength="173.1406" x="622.9297" y="1173.9951">Core (located in Core)</text></g><g id="elem_GMN42"><path d="M6,34 L6,74.2656 A0,0 0 0 0 6,74.2656 L320.2871,74.2656 A0,0 0 0 0 320.2871,74.2656 L320.2871,58 L390.4633,54 L320.2871,50 L320.2871,44 L310.2871,34 L6,34 A0,0 0 0 0 6,34 " fill="#FEFFDD" style="stroke:#181818;stroke-width:0.5;"/><path d="M310.2871,34 L310.2871,44 L320.2871,44 L310.2871,34 " fill="#FEFFDD" style="stroke:#181818;stroke-width:0.5;"/><text fill="#000000" font-family="sans-serif" font-size="13" lengthAdjust="spacing" textLength="264.6528" x="12" y="51.0669">Uses PyQt6. Only this component uses it</text><text fill="#000000" font-family="sans-serif" font-size="13" lengthAdjust="spacing" textLength="293.2871" x="12" y="66.1997">to avoid tightly coupling with the framework.</text></g><g id="elem_GMN45"><path d="M26.5,277 L26.5,392.9297 A0,0 0 0 0 26.5,392.9297 L270.8994,392.9297 L338.6881,428.947 L278.8994,392.9297 L319.5352,392.9297 A0,0 0 0 0 319.5352,392.9297 L319.5352,287 L309.5352,277 L26.5,277 A0,0 0 0 0 26.5,277 " fill="#FEFFDD" style="stroke:#181818;stroke-width:0.5;"/><path d="M309.5352,277 L309.5352,287 L319.5352,287 L309.5352,277 " fill="#FEFFDD" style="stroke:#181818;stroke-width:0.5;"/><text fill="#000000" font-family="sans-serif" font-size="13" lengthAdjust="spacing" textLength="272.0352" x="32.5" y="294.0669">These replace the hardware-specific code</text><text fill="#000000" font-family="sans-serif" font-size="13" lengthAdjust="spacing" textLength="239.3574" x="32.5" y="309.1997">from the firmware directory because</text><text fill="#000000" font-family="sans-serif" font-size="13" lengthAdjust="spacing" textLength="143.457" x="32.5" y="324.3325">the source code from:</text><ellipse cx="38" cy="335.0313" fill="#000000" rx="2.5" ry="2.5" style="stroke:#000000;stroke-width:0;"/><text fill="#000000" font-family="sans-serif" font-size="13" lengthAdjust="spacing" textLength="117.019" x="44.5" y="339.4653">Application/Driver</text><ellipse cx="38" cy="350.1641" fill="#000000" rx="2.5" ry="2.5" style="stroke:#000000;stroke-width:0;"/><text fill="#000000" font-family="sans-serif" font-size="13" lengthAdjust="spacing" textLength="159.8657" x="44.5" y="354.5981">Middlewares/Third_Party</text><ellipse cx="38" cy="365.2969" fill="#000000" rx="2.5" ry="2.5" style="stroke:#000000;stroke-width:0;"/><text fill="#000000" font-family="sans-serif" font-size="13" lengthAdjust="spacing" textLength="30.3735" x="44.5" y="369.731">Core</text><text fill="#000000" font-family="sans-serif" font-size="13" lengthAdjust="spacing" textLength="221.1143" x="32.5" y="384.8638">is not included in the compilation.</text></g><!--entity GUI--><g id="elem_GUI"><rect fill="#F1F1F1" height="46.2969" rx="2.5" ry="2.5" style="stroke:#181818;stroke-width:0.5;" width="65.2246" x="390.5" y="31"/><rect fill="#F1F1F1" height="10" style="stroke:#181818;stroke-width:0.5;" width="15" x="435.7246" y="36"/><rect fill="#F1F1F1" height="2" style="stroke:#181818;stroke-width:0.5;" width="4" x="433.7246" y="38"/><rect fill="#F1F1F1" height="2" style="stroke:#181818;stroke-width:0.5;" width="4" x="433.7246" y="42"/><text fill="#000000" font-family="sans-serif" font-size="14" lengthAdjust="spacing" textLength="25.2246" x="405.5" y="63.9951">GUI</text></g><!--entity Simulation Engine (simulation.py)--><g id="elem_Simulation Engine (simulation.py)"><rect fill="#F1F1F1" height="46.2969" rx="2.5" ry="2.5" style="stroke:#181818;stroke-width:0.5;" width="276.9814" x="336.5" y="113"/><rect fill="#F1F1F1" height="10" style="stroke:#181818;stroke-width:0.5;" width="15" x="593.4814" y="118"/><rect fill="#F1F1F1" height="2" style="stroke:#181818;stroke-width:0.5;" width="4" x="591.4814" y="120"/><rect fill="#F1F1F1" height="2" style="stroke:#181818;stroke-width:0.5;" width="4" x="591.4814" y="124"/><text fill="#000000" font-family="sans-serif" font-size="14" lengthAdjust="spacing" textLength="236.9814" x="351.5" y="145.9951">Simulation Engine (simulation.py)</text></g><!--entity Python Wrapper (device_under_test.py)--><g id="elem_Python Wrapper (device_under_test.py)"><rect fill="#F1F1F1" height="46.2969" rx="2.5" ry="2.5" style="stroke:#181818;stroke-width:0.5;" width="318.168" x="358" y="195"/><rect fill="#F1F1F1" height="10" style="stroke:#181818;stroke-width:0.5;" width="15" x="656.168" y="200"/><rect fill="#F1F1F1" height="2" style="stroke:#181818;stroke-width:0.5;" width="4" x="654.168" y="202"/><rect fill="#F1F1F1" height="2" style="stroke:#181818;stroke-width:0.5;" width="4" x="654.168" y="206"/><text fill="#000000" font-family="sans-serif" font-size="14" lengthAdjust="spacing" textLength="278.168" x="373" y="227.9951">Python Wrapper (device_under_test.py)</text></g><!--entity "DLL (libFirmwarePCSimulator.so)"--><g id="elem_&quot;DLL (libFirmwarePCSimulator.so)&quot;"><rect fill="#F1F1F1" height="46.2969" rx="2.5" ry="2.5" style="stroke:#181818;stroke-width:0.5;" width="283.127" x="360.5" y="312"/><rect fill="#F1F1F1" height="10" style="stroke:#181818;stroke-width:0.5;" width="15" x="623.627" y="317"/><rect fill="#F1F1F1" height="2" style="stroke:#181818;stroke-width:0.5;" width="4" x="621.627" y="319"/><rect fill="#F1F1F1" height="2" style="stroke:#181818;stroke-width:0.5;" width="4" x="621.627" y="323"/><text fill="#000000" font-family="sans-serif" font-size="14" lengthAdjust="spacing" textLength="243.127" x="375.5" y="344.9951">"DLL (libFirmwarePCSimulator.so)"</text></g><!--entity Mocks--><g id="elem_Mocks"><rect fill="#F1F1F1" height="46.2969" rx="2.5" ry="2.5" style="stroke:#181818;stroke-width:0.5;" width="83.7432" x="336" y="429"/><rect fill="#F1F1F1" height="10" style="stroke:#181818;stroke-width:0.5;" width="15" x="399.7432" y="434"/><rect fill="#F1F1F1" height="2" style="stroke:#181818;stroke-width:0.5;" width="4" x="397.7432" y="436"/><rect fill="#F1F1F1" height="2" style="stroke:#181818;stroke-width:0.5;" width="4" x="397.7432" y="440"/><text fill="#000000" font-family="sans-serif" font-size="14" lengthAdjust="spacing" textLength="43.7432" x="351" y="461.9951">Mocks</text></g><!--entity BusinessLogic_Headers--><g id="elem_BusinessLogic_Headers"><path d="M490.5,572 L531.5,572 A3.75,3.75 0 0 1 534,574.5 L541,593 L573.7695,593 A2.5,2.5 0 0 1 576.2695,595.5 L576.2695,623.7969 A2.5,2.5 0 0 1 573.7695,626.2969 L490.5,626.2969 A2.5,2.5 0 0 1 488,623.7969 L488,574.5 A2.5,2.5 0 0 1 490.5,572 " fill="#F1F1F1" style="stroke:#181818;stroke-width:0.5;"/><line style="stroke:#181818;stroke-width:0.5;" x1="488" x2="541" y1="593" y2="593"/><text fill="#000000" font-family="sans-serif" font-size="14" lengthAdjust="spacing" textLength="58.2695" x="498" y="612.9951">Headers</text></g><!--entity BusinessLogic_Interfaces--><g id="elem_BusinessLogic_Interfaces"><path d="M596.5,572 L637.5,572 A3.75,3.75 0 0 1 640,574.5 L647,593 L691.4727,593 A2.5,2.5 0 0 1 693.9727,595.5 L693.9727,623.7969 A2.5,2.5 0 0 1 691.4727,626.2969 L596.5,626.2969 A2.5,2.5 0 0 1 594,623.7969 L594,574.5 A2.5,2.5 0 0 1 596.5,572 " fill="#F1F1F1" style="stroke:#181818;stroke-width:0.5;"/><line style="stroke:#181818;stroke-width:0.5;" x1="594" x2="647" y1="593" y2="593"/><text fill="#000000" font-family="sans-serif" font-size="14" lengthAdjust="spacing" textLength="69.9727" x="604" y="612.9951">Interfaces</text></g><!--entity BusinessLogic_Sources--><g id="elem_BusinessLogic_Sources"><path d="M491.5,662 L532.5,662 A3.75,3.75 0 0 1 535,664.5 L542,683 L572.1855,683 A2.5,2.5 0 0 1 574.6855,685.5 L574.6855,713.7969 A2.5,2.5 0 0 1 572.1855,716.2969 L491.5,716.2969 A2.5,2.5 0 0 1 489,713.7969 L489,664.5 A2.5,2.5 0 0 1 491.5,662 " fill="#F1F1F1" style="stroke:#181818;stroke-width:0.5;"/><line style="stroke:#181818;stroke-width:0.5;" x1="489" x2="542" y1="683" y2="683"/><text fill="#000000" font-family="sans-serif" font-size="14" lengthAdjust="spacing" textLength="55.6855" x="499" y="702.9951">Sources</text></g><!--entity Device_Headers--><g id="elem_Device_Headers"><path d="M446.5,789 L487.5,789 A3.75,3.75 0 0 1 490,791.5 L497,810 L529.7695,810 A2.5,2.5 0 0 1 532.2695,812.5 L532.2695,840.7969 A2.5,2.5 0 0 1 529.7695,843.2969 L446.5,843.2969 A2.5,2.5 0 0 1 444,840.7969 L444,791.5 A2.5,2.5 0 0 1 446.5,789 " fill="#F1F1F1" style="stroke:#181818;stroke-width:0.5;"/><line style="stroke:#181818;stroke-width:0.5;" x1="444" x2="497" y1="810" y2="810"/><text fill="#000000" font-family="sans-serif" font-size="14" lengthAdjust="spacing" textLength="58.2695" x="454" y="829.9951">Headers</text></g><!--entity Device_Interfaces--><g id="elem_Device_Interfaces"><path d="M552.5,789 L593.5,789 A3.75,3.75 0 0 1 596,791.5 L603,810 L647.4727,810 A2.5,2.5 0 0 1 649.9727,812.5 L649.9727,840.7969 A2.5,2.5 0 0 1 647.4727,843.2969 L552.5,843.2969 A2.5,2.5 0 0 1 550,840.7969 L550,791.5 A2.5,2.5 0 0 1 552.5,789 " fill="#F1F1F1" style="stroke:#181818;stroke-width:0.5;"/><line style="stroke:#181818;stroke-width:0.5;" x1="550" x2="603" y1="810" y2="810"/><text fill="#000000" font-family="sans-serif" font-size="14" lengthAdjust="spacing" textLength="69.9727" x="560" y="829.9951">Interfaces</text></g><!--entity Device_Sources--><g id="elem_Device_Sources"><path d="M447.5,879 L488.5,879 A3.75,3.75 0 0 1 491,881.5 L498,900 L528.1855,900 A2.5,2.5 0 0 1 530.6855,902.5 L530.6855,930.7969 A2.5,2.5 0 0 1 528.1855,933.2969 L447.5,933.2969 A2.5,2.5 0 0 1 445,930.7969 L445,881.5 A2.5,2.5 0 0 1 447.5,879 " fill="#F1F1F1" style="stroke:#181818;stroke-width:0.5;"/><line style="stroke:#181818;stroke-width:0.5;" x1="445" x2="498" y1="900" y2="900"/><text fill="#000000" font-family="sans-serif" font-size="14" lengthAdjust="spacing" textLength="55.6855" x="455" y="919.9951">Sources</text></g><!--entity Driver_Headers--><g id="elem_Driver_Headers"><path d="M670.5,1006 L711.5,1006 A3.75,3.75 0 0 1 714,1008.5 L721,1027 L753.7695,1027 A2.5,2.5 0 0 1 756.2695,1029.5 L756.2695,1057.7969 A2.5,2.5 0 0 1 753.7695,1060.2969 L670.5,1060.2969 A2.5,2.5 0 0 1 668,1057.7969 L668,1008.5 A2.5,2.5 0 0 1 670.5,1006 " fill="#F1F1F1" style="stroke:#181818;stroke-width:0.5;"/><line style="stroke:#181818;stroke-width:0.5;" x1="668" x2="721" y1="1027" y2="1027"/><text fill="#000000" font-family="sans-serif" font-size="14" lengthAdjust="spacing" textLength="58.2695" x="678" y="1046.9951">Headers</text></g><!--entity Driver_Interfaces--><g id="elem_Driver_Interfaces"><path d="M414.5,1006 L455.5,1006 A3.75,3.75 0 0 1 458,1008.5 L465,1027 L509.4727,1027 A2.5,2.5 0 0 1 511.9727,1029.5 L511.9727,1057.7969 A2.5,2.5 0 0 1 509.4727,1060.2969 L414.5,1060.2969 A2.5,2.5 0 0 1 412,1057.7969 L412,1008.5 A2.5,2.5 0 0 1 414.5,1006 " fill="#F1F1F1" style="stroke:#181818;stroke-width:0.5;"/><line style="stroke:#181818;stroke-width:0.5;" x1="412" x2="465" y1="1027" y2="1027"/><text fill="#000000" font-family="sans-serif" font-size="14" lengthAdjust="spacing" textLength="69.9727" x="422" y="1046.9951">Interfaces</text></g><!--entity Driver_Sources--><g id="elem_Driver_Sources"><path d="M532.5,1006 L573.5,1006 A3.75,3.75 0 0 1 576,1008.5 L583,1027 L613.1855,1027 A2.5,2.5 0 0 1 615.6855,1029.5 L615.6855,1057.7969 A2.5,2.5 0 0 1 613.1855,1060.2969 L532.5,1060.2969 A2.5,2.5 0 0 1 530,1057.7969 L530,1008.5 A2.5,2.5 0 0 1 532.5,1006 " fill="#F1F1F1" style="stroke:#181818;stroke-width:0.5;"/><line style="stroke:#181818;stroke-width:0.5;" x1="530" x2="583" y1="1027" y2="1027"/><text fill="#000000" font-family="sans-serif" font-size="14" lengthAdjust="spacing" textLength="55.6855" x="540" y="1046.9951">Sources</text></g><!--entity STM32_ST7735_Headers--><g id="elem_STM32_ST7735_Headers"><path d="M318.5,1175 L359.5,1175 A3.75,3.75 0 0 1 362,1177.5 L369,1196 L437.4668,1196 A2.5,2.5 0 0 1 439.9668,1198.5 L439.9668,1226.7969 A2.5,2.5 0 0 1 437.4668,1229.2969 L318.5,1229.2969 A2.5,2.5 0 0 1 316,1226.7969 L316,1177.5 A2.5,2.5 0 0 1 318.5,1175 " fill="#F1F1F1" style="stroke:#181818;stroke-width:0.5;"/><line style="stroke:#181818;stroke-width:0.5;" x1="316" x2="369" y1="1196" y2="1196"/><text fill="#000000" font-family="sans-serif" font-size="14" lengthAdjust="spacing" textLength="93.9668" x="326" y="1215.9951">Headers (*.h)</text></g><!--entity Core_Headers--><g id="elem_Core_Headers"><path d="M625.5,1175 L666.5,1175 A3.75,3.75 0 0 1 669,1177.5 L676,1196 L744.4668,1196 A2.5,2.5 0 0 1 746.9668,1198.5 L746.9668,1226.7969 A2.5,2.5 0 0 1 744.4668,1229.2969 L625.5,1229.2969 A2.5,2.5 0 0 1 623,1226.7969 L623,1177.5 A2.5,2.5 0 0 1 625.5,1175 " fill="#F1F1F1" style="stroke:#181818;stroke-width:0.5;"/><line style="stroke:#181818;stroke-width:0.5;" x1="623" x2="676" y1="1196" y2="1196"/><text fill="#000000" font-family="sans-serif" font-size="14" lengthAdjust="spacing" textLength="93.9668" x="633" y="1215.9951">Headers (*.h)</text></g><polygon fill="#181818" points="460.5928,112.835,459.0417,103.1091,457.8678,108.6428,452.3341,107.469,460.5928,112.835" style="stroke:#181818;stroke-width:1;"/><path d="M437.4849,77.2845 C444.6973,88.3804 450.1212,96.7249 457.3229,107.8044 " fill="none" style="stroke:#181818;stroke-width:1;"/><polygon fill="#181818" points="505.3634,194.835,504.7215,185.0071,503.0392,190.4081,497.6383,188.7258,505.3634,194.835" style="stroke:#181818;stroke-width:1;"/><path d="M486.6993,159.2845 C492.5247,170.3804 496.7577,178.4432 502.5744,189.5227 " fill="none" style="stroke:#181818;stroke-width:1;"/><polygon fill="#181818" points="504.8833,311.8949,510.0137,303.4879,505.53,306.9369,502.0809,302.4532,504.8833,311.8949" style="stroke:#181818;stroke-width:1;"/><path d="M514.1078,241.1732 C511.4517,261.537 508.3127,285.603 505.6593,305.9453 " fill="none" style="stroke:#181818;stroke-width:1;"/><polygon fill="#181818" points="365.0374,428.9303,364.4391,419.0996,362.7329,424.493,357.3395,422.7868,365.0374,428.9303" style="stroke:#181818;stroke-width:1;"/><path d="M391.9824,159.0257 C374.987,167.4722 359.1963,179.0818 349,195 C338.0152,212.1493 317.6348,246.8314 351,393 C353.8425,405.4528 356.8144,413.0971 362.272,423.6055 " fill="none" style="stroke:#181818;stroke-width:1;"/><polygon fill="#181818" points="478.0916,358.1732,468.7726,361.3603,474.4255,361.5731,474.2126,367.226,478.0916,358.1732" style="stroke:#181818;stroke-width:1;"/><path d="M473.6923,362.2531 C451.7347,382.617 423.7694,408.5526 401.835,428.8949 " fill="none" style="stroke:#181818;stroke-width:1;"/><polygon fill="#181818" points="719.4015,544.8229,722.2969,535.4093,718.8038,539.8588,714.3543,536.3657,719.4015,544.8229" style="stroke:#181818;stroke-width:1;"/><path d="M547.7898,358.0512 C594.8722,383.2853 666.3338,429.2351 703,491 C712.1695,506.4463 716.8635,525.2587 719.1451,542.7763 C719.2164,543.3237 719.2853,543.8699 719.352,544.4146 C719.3686,544.5508 718.6679,538.73 718.6843,538.866 " fill="none" style="stroke:#181818;stroke-width:1;"/><polygon fill="#181818" points="658.7387,761.7747,654.3542,752.9556,654.8863,758.5874,649.2545,759.1195,658.7387,761.7747" style="stroke:#181818;stroke-width:1;"/><path d="M495.9824,358.2371 C484.369,403.1738 460,508.1696 460,598 C460,598 460,598 460,690 C460,742.8518 504.3279,755.9743 551.3669,758.3226 C574.8864,759.4967 599.0836,757.9773 618.7565,757.3838 C628.5929,757.087 637.2983,757.0217 644.2223,757.6402 C647.6843,757.9495 650.701,758.4298 653.191,759.1375 C654.436,759.4914 655.5494,759.9022 656.521,760.3769 C657.0067,760.6143 657.457,760.8676 657.8706,761.1378 C658.0774,761.273 658.2751,761.4123 658.4633,761.5559 C658.5575,761.6278 654.0264,757.8759 654.1158,757.9499 " fill="none" style="stroke:#181818;stroke-width:1;"/><polygon fill="#181818" points="446.1694,1005.7193,445.4081,995.8999,443.7916,1001.3209,438.3706,999.7044,446.1694,1005.7193" style="stroke:#181818;stroke-width:1;"/><path d="M387.1694,475.2379 C389.0011,480.347 390.7449,485.8062 392,491 C412.7184,576.7351 416,599.7971 416,688 C416,688 416,688 416,907 C416,942.8425 430.0099,975.8279 443.316,1000.4412 " fill="none" style="stroke:#181818;stroke-width:1;"/><polygon fill="#181818" points="672.2295,1174.7252,671.3838,1164.9128,669.814,1170.3474,664.3793,1168.7777,672.2295,1174.7252" style="stroke:#181818;stroke-width:1;"/><path d="M378,475.0313 C378,516.6458 378,609.6667 378,688 C378,688 378,688 378,1034 C378,1055.0725 382.7574,1063.8863 400,1076 C477.4551,1130.416 529.1051,1057.5277 611,1105 C638.855,1121.1468 656.9482,1147.0303 669.3309,1169.4719 " fill="none" style="stroke:#181818;stroke-width:1;"/><polygon fill="#181818" points="368.2141,1174.8097,369.0506,1164.9964,366.5788,1170.0846,361.4905,1167.6128,368.2141,1174.8097" style="stroke:#181818;stroke-width:1;"/><path d="M368.8306,475.2379 C366.9989,480.347 365.2551,485.8062 364,491 C343.2816,576.7351 340,599.7971 340,688 C340,688 340,688 340,1034 C340,1084.8454 354.9926,1136.6069 366.2517,1169.1396 " fill="none" style="stroke:#181818;stroke-width:1;"/><!--SRC=[dLNVRzem47xFNt7BIw5IO5krLTe3Kd-isoIgiK6rXwv29Zc8rSIERASiclg_xsodAT3GfkC1Wk-xytVVVNRU58gjSWOPgsHfGETec611KB3ubgqGmYdFoumPBWNqCXapWmbm0O_BmmkkyZLJE3ch5wNgX_0t0BZ-SlNj1g9e1DSRPJwB5HS8FTqi3OggVsFnBwDyjKbbKiByKgmeK44lmJiUuxmK2QgvGMsQYjsGlcfuFXvJatpHqj50otxuAewNChxLBiC_GLGM7NUvtz3_0RMjlbmQkpYSpYwFtb-yUtlqytJsfrOzbdaX1Ge3uKbHP3nsp7mCe2byMceYhpMCvOh78J0Df-CQ1B2K6Ia4uLTazAjzkCvm2VCwieF_9Wog9OknBUKnk9CrbQLgJwaZ3a-oR7LmxcRfakZnMUeUserpZUr4jiPkixJV1t1Uvda52ckl60ah9Si25fcr0zoXCZIQBAjscbASGhwuUg4f1-tObCTsQyfZMwGdWqJNAKyI53U9N8ieYgm4BcP7y3IeRD1bRzXop1UAAOuQVejDMrzISeRMs7euIxbAvXEcJDL_ubrd-sWwEpu- -X3kqmXwXuEqxpfo-Bd7R-brtyBkJEwSDhlGSDY_YOLj57Tbjq_WhZpkynzoT2syfnDxlmG7z4S8Z6q13GiqQqG1zcvY8e7crcbqqK67cmiYJs14JdaTthgekIWVkXYrsBO5j2NyRdpKFdpg_oH9W86G1cce2bnUuFvck3GWb_xz5Lnfcioa-c4-3k2xo2emATSRXYbjd1i8w8YpEyaJC7oL6WB6TDupBbQmvYQbDDf8iHpNKjqE0YIPxMx1yroCB1oL-dKoIr4ZtIf5HcguaYbJYHKtqWN6VCbZsZR1OAbaxhTy66N25OrRgegc7JDY7TYmTgVSvO3D-HGSmeQtXdu2jBZ7ZHIn-WSa2V4bayLPcNYtsV9M9bw_6vkM_m40]--></g></svg>