<svg xmlns="http://www.w3.org/2000/svg" xmlns:xlink="http://www.w3.org/1999/xlink" contentStyleType="text/css" data-diagram-type="DESCRIPTION" height="938px" preserveAspectRatio="none" style="width:1258px;height:938px;background:#FFFFFF;" version="1.1" viewBox="0 0 1258 938" width="1258px" zoomAndPan="magnify"><defs/><g><!--cluster Simulation (located in Simulation/FirmwarePCSimulator)--><g class="cluster" data-qualified-name="Simulation .located in Simulation.FirmwarePCSimulator." data-source-line="3" id="ent0002"><path d="M16.5,4 L464.7549,4 A3.75,3.75 0 0 1 467.2549,6.5 L474.2549,26.2969 L1171.5,26.2969 A2.5,2.5 0 0 1 1174,28.7969 L1174,928.5 A2.5,2.5 0 0 1 1171.5,931 L16.5,931 A2.5,2.5 0 0 1 14,928.5 L14,6.5 A2.5,2.5 0 0 1 16.5,4" fill="none" style="stroke:#000000;stroke-width:1.5;"/><line style="stroke:#000000;stroke-width:1.5;" x1="14" x2="474.2549" y1="26.2969" y2="26.2969"/><text fill="#000000" font-family="sans-serif" font-size="14" font-weight="bold" lengthAdjust="spacing" textLength="447.2549" x="18" y="18.9951">Simulation (located in Simulation/FirmwarePCSimulator)</text></g><!--cluster Firmware (located in Software/STM32F103RBTx)--><g class="cluster" data-qualified-name="Simulation .located in Simulation.FirmwarePCSimulator..Firmware .located in Software.STM32F103RBTx." data-source-line="10" id="ent0014"><path d="M24.5,31 L408.9346,31 A3.75,3.75 0 0 1 411.4346,33.5 L418.4346,53.2969 L539.5,53.2969 A2.5,2.5 0 0 1 542,55.7969 L542,920.5 A2.5,2.5 0 0 1 539.5,923 L24.5,923 A2.5,2.5 0 0 1 22,920.5 L22,33.5 A2.5,2.5 0 0 1 24.5,31" fill="none" style="stroke:#000000;stroke-width:1.5;"/><line style="stroke:#000000;stroke-width:1.5;" x1="22" x2="418.4346" y1="53.2969" y2="53.2969"/><text fill="#000000" font-family="sans-serif" font-size="14" font-weight="bold" lengthAdjust="spacing" textLength="383.4346" x="26" y="45.9951">Firmware (located in Software/STM32F103RBTx)</text></g><!--cluster Application--><g class="cluster" data-qualified-name="Simulation .located in Simulation.FirmwarePCSimulator..Firmware .located in Software.STM32F103RBTx..Application" data-source-line="11" id="ent0015"><rect fill="none" height="323" rx="2.5" ry="2.5" style="stroke:#181818;stroke-width:1;" width="364" x="109" y="107"/><rect fill="none" height="10" style="stroke:#181818;stroke-width:1;" width="15" x="453" y="112"/><rect fill="none" height="2" style="stroke:#181818;stroke-width:1;" width="4" x="451" y="114"/><rect fill="none" height="2" style="stroke:#181818;stroke-width:1;" width="4" x="451" y="118"/><text fill="#000000" font-family="sans-serif" font-size="14" font-weight="bold" lengthAdjust="spacing" textLength="89.2979" x="246.3511" y="132.9951">Application</text></g><!--cluster Libraries \n(located in Middlewares/Third_Party)--><g class="cluster" data-qualified-name="Simulation .located in Simulation.FirmwarePCSimulator..Firmware .located in Software.STM32F103RBTx..Libraries .n.located in Middlewares.Third_Party." data-source-line="32" id="ent0024"><rect fill="none" height="140" rx="2.5" ry="2.5" style="stroke:#181818;stroke-width:1;" width="307" x="227" y="775"/><rect fill="none" height="10" style="stroke:#181818;stroke-width:1;" width="15" x="514" y="780"/><rect fill="none" height="2" style="stroke:#181818;stroke-width:1;" width="4" x="512" y="782"/><rect fill="none" height="2" style="stroke:#181818;stroke-width:1;" width="4" x="512" y="786"/><text fill="#000000" font-family="sans-serif" font-size="14" font-weight="bold" lengthAdjust="spacing" textLength="69.624" x="343.251" y="800.9951">Libraries</text><text fill="#000000" font-family="sans-serif" font-size="14" font-weight="bold" lengthAdjust="spacing" textLength="291.6484" x="234.6758" y="817.292">(located in Middlewares/Third_Party)</text></g><!--cluster STM32-ST7735--><g class="cluster" data-qualified-name="Simulation .located in Simulation.FirmwarePCSimulator..Firmware .located in Software.STM32F103RBTx..Libraries .n.located in Middlewares.Third_Party..STM32-ST7735" data-source-line="33" id="ent0025"><path d="M388.5,818 L506.9551,818 A3.75,3.75 0 0 1 509.4551,820.5 L516.4551,840.2969 L523.5,840.2969 A2.5,2.5 0 0 1 526,842.7969 L526,904.5 A2.5,2.5 0 0 1 523.5,907 L388.5,907 A2.5,2.5 0 0 1 386,904.5 L386,820.5 A2.5,2.5 0 0 1 388.5,818" fill="none" style="stroke:#000000;stroke-width:1.5;"/><line style="stroke:#000000;stroke-width:1.5;" x1="386" x2="516.4551" y1="840.2969" y2="840.2969"/><text fill="#000000" font-family="sans-serif" font-size="14" font-weight="bold" lengthAdjust="spacing" textLength="117.4551" x="390" y="832.9951">STM32-ST7735</text></g><!--cluster Core (located in Core)--><g class="cluster" data-qualified-name="Simulation .located in Simulation.FirmwarePCSimulator..Firmware .located in Software.STM32F103RBTx..Core .located in Core." data-source-line="38" id="ent0027"><rect fill="none" height="89" rx="2.5" ry="2.5" style="stroke:#181818;stroke-width:1;" width="189" x="30" y="818"/><rect fill="none" height="10" style="stroke:#181818;stroke-width:1;" width="15" x="199" y="823"/><rect fill="none" height="2" style="stroke:#181818;stroke-width:1;" width="4" x="197" y="825"/><rect fill="none" height="2" style="stroke:#181818;stroke-width:1;" width="4" x="197" y="829"/><text fill="#000000" font-family="sans-serif" font-size="14" font-weight="bold" lengthAdjust="spacing" textLength="173.1406" x="37.9297" y="843.9951">Core (located in Core)</text></g><!--entity Driver_Interfaces--><g class="entity" data-qualified-name="Driver_Interfaces" data-source-line="66" id="ent0037"><ellipse cx="1191" cy="869" fill="#F1F1F1" rx="8" ry="8" style="stroke:#181818;stroke-width:0.5;"/><text fill="#000000" font-family="sans-serif" font-size="14" lengthAdjust="spacing" textLength="120.0527" x="1130.9736" y="898.9951">Driver_Interfaces</text></g><!--entity GUI--><g class="entity" data-qualified-name="Simulation .located in Simulation.FirmwarePCSimulator..GUI" data-source-line="4" id="ent0003"><rect fill="#F1F1F1" height="46.2969" rx="2.5" ry="2.5" style="stroke:#181818;stroke-width:0.5;" width="65.2246" x="882.5" y="147"/><rect fill="#F1F1F1" height="10" style="stroke:#181818;stroke-width:0.5;" width="15" x="927.7246" y="152"/><rect fill="#F1F1F1" height="2" style="stroke:#181818;stroke-width:0.5;" width="4" x="925.7246" y="154"/><rect fill="#F1F1F1" height="2" style="stroke:#181818;stroke-width:0.5;" width="4" x="925.7246" y="158"/><text fill="#000000" font-family="sans-serif" font-size="14" lengthAdjust="spacing" textLength="25.2246" x="897.5" y="179.9951">GUI</text></g><!--entity Simulation Engine (simulation.py)--><g class="entity" data-qualified-name="Simulation .located in Simulation.FirmwarePCSimulator..Simulation Engine .simulation.py." data-source-line="4" id="ent0004"><rect fill="#F1F1F1" height="46.2969" rx="2.5" ry="2.5" style="stroke:#181818;stroke-width:0.5;" width="276.9814" x="748.5" y="255"/><rect fill="#F1F1F1" height="10" style="stroke:#181818;stroke-width:0.5;" width="15" x="1005.4814" y="260"/><rect fill="#F1F1F1" height="2" style="stroke:#181818;stroke-width:0.5;" width="4" x="1003.4814" y="262"/><rect fill="#F1F1F1" height="2" style="stroke:#181818;stroke-width:0.5;" width="4" x="1003.4814" y="266"/><text fill="#000000" font-family="sans-serif" font-size="14" lengthAdjust="spacing" textLength="236.9814" x="763.5" y="287.9951">Simulation Engine (simulation.py)</text></g><!--entity Python Wrapper (device_under_test.py)--><g class="entity" data-qualified-name="Simulation .located in Simulation.FirmwarePCSimulator..Python Wrapper .device_under_test.py." data-source-line="5" id="ent0006"><rect fill="#F1F1F1" height="46.2969" rx="2.5" ry="2.5" style="stroke:#181818;stroke-width:0.5;" width="318.168" x="550" y="363"/><rect fill="#F1F1F1" height="10" style="stroke:#181818;stroke-width:0.5;" width="15" x="848.168" y="368"/><rect fill="#F1F1F1" height="2" style="stroke:#181818;stroke-width:0.5;" width="4" x="846.168" y="370"/><rect fill="#F1F1F1" height="2" style="stroke:#181818;stroke-width:0.5;" width="4" x="846.168" y="374"/><text fill="#000000" font-family="sans-serif" font-size="14" lengthAdjust="spacing" textLength="278.168" x="565" y="395.9951">Python Wrapper (device_under_test.py)</text></g><!--entity "DLL (libFirmwarePCSimulator.so)"--><g class="entity" data-qualified-name="Simulation .located in Simulation.FirmwarePCSimulator...DLL .libFirmwarePCSimulator.so.." data-source-line="6" id="ent0008"><rect fill="#F1F1F1" height="46.2969" rx="2.5" ry="2.5" style="stroke:#181818;stroke-width:0.5;" width="283.127" x="550.5" y="493"/><rect fill="#F1F1F1" height="10" style="stroke:#181818;stroke-width:0.5;" width="15" x="813.627" y="498"/><rect fill="#F1F1F1" height="2" style="stroke:#181818;stroke-width:0.5;" width="4" x="811.627" y="500"/><rect fill="#F1F1F1" height="2" style="stroke:#181818;stroke-width:0.5;" width="4" x="811.627" y="504"/><text fill="#000000" font-family="sans-serif" font-size="14" lengthAdjust="spacing" textLength="243.127" x="565.5" y="525.9951">"DLL (libFirmwarePCSimulator.so)"</text></g><!--entity Mocks--><g class="entity" data-qualified-name="Simulation .located in Simulation.FirmwarePCSimulator..Mocks" data-source-line="7" id="ent0010"><rect fill="#F1F1F1" height="46.2969" rx="2.5" ry="2.5" style="stroke:#181818;stroke-width:0.5;" width="83.7432" x="731" y="610"/><rect fill="#F1F1F1" height="10" style="stroke:#181818;stroke-width:0.5;" width="15" x="794.7432" y="615"/><rect fill="#F1F1F1" height="2" style="stroke:#181818;stroke-width:0.5;" width="4" x="792.7432" y="617"/><rect fill="#F1F1F1" height="2" style="stroke:#181818;stroke-width:0.5;" width="4" x="792.7432" y="621"/><text fill="#000000" font-family="sans-serif" font-size="14" lengthAdjust="spacing" textLength="43.7432" x="746" y="642.9951">Mocks</text></g><g class="entity" data-qualified-name="Simulation .located in Simulation.FirmwarePCSimulator..GMN31" data-source-line="50" id="ent0032"><path d="M550,150 L550,190.2656 A0,0 0 0 0 550,190.2656 L864.2871,190.2656 A0,0 0 0 0 864.2871,190.2656 L864.2871,174 L882.4683,170 L864.2871,166 L864.2871,160 L854.2871,150 L550,150 A0,0 0 0 0 550,150" fill="#FEFFDD" style="stroke:#181818;stroke-width:0.5;"/><path d="M854.2871,150 L854.2871,160 L864.2871,160 L854.2871,150" fill="#FEFFDD" style="stroke:#181818;stroke-width:0.5;"/><text fill="#000000" font-family="sans-serif" font-size="13" lengthAdjust="spacing" textLength="264.6528" x="556" y="167.0669">Uses PyQt6. Only this component uses it</text><text fill="#000000" font-family="sans-serif" font-size="13" lengthAdjust="spacing" textLength="293.2871" x="556" y="182.1997">to avoid tightly coupling with the framework.</text></g><g class="entity" data-qualified-name="Simulation .located in Simulation.FirmwarePCSimulator..GMN34" data-source-line="55" id="ent0035"><path d="M872.5,458 L872.5,573.9297 A0,0 0 0 0 872.5,573.9297 L892.7207,573.9297 L815.0225,612.3553 L900.7207,573.9297 L1165.5352,573.9297 A0,0 0 0 0 1165.5352,573.9297 L1165.5352,468 L1155.5352,458 L872.5,458 A0,0 0 0 0 872.5,458" fill="#FEFFDD" style="stroke:#181818;stroke-width:0.5;"/><path d="M1155.5352,458 L1155.5352,468 L1165.5352,468 L1155.5352,458" fill="#FEFFDD" style="stroke:#181818;stroke-width:0.5;"/><text fill="#000000" font-family="sans-serif" font-size="13" lengthAdjust="spacing" textLength="272.0352" x="878.5" y="475.0669">These replace the hardware-specific code</text><text fill="#000000" font-family="sans-serif" font-size="13" lengthAdjust="spacing" textLength="239.3574" x="878.5" y="490.1997">from the firmware directory because</text><text fill="#000000" font-family="sans-serif" font-size="13" lengthAdjust="spacing" textLength="143.457" x="878.5" y="505.3325">the source code from:</text><ellipse cx="884" cy="516.0313" fill="#000000" rx="2.5" ry="2.5"/><text fill="#000000" font-family="sans-serif" font-size="13" lengthAdjust="spacing" textLength="117.019" x="890.5" y="520.4653">Application/Driver</text><ellipse cx="884" cy="531.1641" fill="#000000" rx="2.5" ry="2.5"/><text fill="#000000" font-family="sans-serif" font-size="13" lengthAdjust="spacing" textLength="159.8657" x="890.5" y="535.5981">Middlewares/Third_Party</text><ellipse cx="884" cy="546.2969" fill="#000000" rx="2.5" ry="2.5"/><text fill="#000000" font-family="sans-serif" font-size="13" lengthAdjust="spacing" textLength="30.3735" x="890.5" y="550.731">Core</text><text fill="#000000" font-family="sans-serif" font-size="13" lengthAdjust="spacing" textLength="221.1143" x="878.5" y="565.8638">is not included in the compilation.</text></g><g class="entity" data-qualified-name="Simulation .located in Simulation.FirmwarePCSimulator..Firmware .located in Software.STM32F103RBTx..REUSABILITY" data-source-line="24" id="ent0021"><path d="M254.5,58 L254.5,98.2656 L509.8682,98.2656 L509.8682,68 L499.8682,58 L254.5,58" fill="#FEFFDD" style="stroke:#181818;stroke-width:0.5;"/><path d="M499.8682,58 L499.8682,68 L509.8682,68 L499.8682,58" fill="#FEFFDD" style="stroke:#181818;stroke-width:1;"/><text fill="#000000" font-family="sans-serif" font-size="13" lengthAdjust="spacing" textLength="156.7871" x="260.5" y="75.0669">All sources taken "as is"</text><text fill="#000000" font-family="sans-serif" font-size="13" lengthAdjust="spacing" textLength="234.3682" x="260.5" y="90.1997">without modifications for simulation</text></g><!--entity BL--><g class="entity" data-qualified-name="Simulation .located in Simulation.FirmwarePCSimulator..Firmware .located in Software.STM32F103RBTx..Application.BL" data-source-line="12" id="ent0016"><path d="M153.5,134 L186.0918,134 A3.75,3.75 0 0 1 188.5918,136.5 L195.5918,156.2969 L462.4375,156.2969 A2.5,2.5 0 0 1 464.9375,158.7969 L464.9375,203.3906 A2.5,2.5 0 0 1 462.4375,205.8906 L153.5,205.8906 A2.5,2.5 0 0 1 151,203.3906 L151,136.5 A2.5,2.5 0 0 1 153.5,134" fill="#F1F1F1" style="stroke:#181818;stroke-width:0.5;"/><line style="stroke:#181818;stroke-width:0.5;" x1="151" x2="195.5918" y1="156.2969" y2="156.2969"/><text fill="#000000" font-family="sans-serif" font-size="14" font-weight="bold" lengthAdjust="spacing" textLength="19.5918" x="161" y="149.9951">BL</text><text fill="#000000" font-family="sans-serif" font-size="14" lengthAdjust="spacing" textLength="103.0244" x="251.4565" y="176.292">Business Logic</text><text fill="#000000" font-family="sans-serif" font-size="14" lengthAdjust="spacing" textLength="279.4873" x="165.4502" y="192.5889">(all files, same files asd for target build)</text></g><!--entity Dev--><g class="entity" data-qualified-name="Simulation .located in Simulation.FirmwarePCSimulator..Firmware .located in Software.STM32F103RBTx..Application.Dev" data-source-line="14" id="ent0017"><path d="M153.5,242 L196.7422,242 A3.75,3.75 0 0 1 199.2422,244.5 L206.2422,264.2969 L462.4375,264.2969 A2.5,2.5 0 0 1 464.9375,266.7969 L464.9375,311.3906 A2.5,2.5 0 0 1 462.4375,313.8906 L153.5,313.8906 A2.5,2.5 0 0 1 151,311.3906 L151,244.5 A2.5,2.5 0 0 1 153.5,242" fill="#F1F1F1" style="stroke:#181818;stroke-width:0.5;"/><line style="stroke:#181818;stroke-width:0.5;" x1="151" x2="206.2422" y1="264.2969" y2="264.2969"/><text fill="#000000" font-family="sans-serif" font-size="14" font-weight="bold" lengthAdjust="spacing" textLength="30.2422" x="161" y="257.9951">Dev</text><text fill="#000000" font-family="sans-serif" font-size="14" lengthAdjust="spacing" textLength="47.8789" x="279.0293" y="284.292">Device</text><text fill="#000000" font-family="sans-serif" font-size="14" lengthAdjust="spacing" textLength="279.4873" x="165.4502" y="300.5889">(all files, same files asd for target build)</text></g><!--entity Drv--><g class="entity" data-qualified-name="Simulation .located in Simulation.FirmwarePCSimulator..Firmware .located in Software.STM32F103RBTx..Application.Drv" data-source-line="16" id="ent0018"><path d="M165,350 L205.6514,350 A3.75,3.75 0 0 1 208.1514,352.5 L215.1514,372.2969 L450.75,372.2969 A2.5,2.5 0 0 1 453.25,374.7969 L453.25,419.3906 A2.5,2.5 0 0 1 450.75,421.8906 L165,421.8906 A2.5,2.5 0 0 1 162.5,419.3906 L162.5,352.5 A2.5,2.5 0 0 1 165,350" fill="#F1F1F1" style="stroke:#181818;stroke-width:0.5;"/><line style="stroke:#181818;stroke-width:0.5;" x1="162.5" x2="215.1514" y1="372.2969" y2="372.2969"/><text fill="#000000" font-family="sans-serif" font-size="14" font-weight="bold" lengthAdjust="spacing" textLength="27.6514" x="172.5" y="365.9951">Drv</text><text fill="#000000" font-family="sans-serif" font-size="14" lengthAdjust="spacing" textLength="43.0801" x="281.335" y="392.292">Driver</text><text fill="#000000" font-family="sans-serif" font-size="14" lengthAdjust="spacing" textLength="256.2998" x="176.9502" y="408.5889">(taken only includes from Interface/)</text></g><!--entity STM32_ST7735_Headers--><g class="entity" data-qualified-name="Simulation .located in Simulation.FirmwarePCSimulator..Firmware .located in Software.STM32F103RBTx..Libraries .n.located in Middlewares.Third_Party..STM32-ST7735.STM32_ST7735_Headers" data-source-line="34" id="ent0026"><path d="M396.5,845 L437.5,845 A3.75,3.75 0 0 1 440,847.5 L447,866 L515.4668,866 A2.5,2.5 0 0 1 517.9668,868.5 L517.9668,896.7969 A2.5,2.5 0 0 1 515.4668,899.2969 L396.5,899.2969 A2.5,2.5 0 0 1 394,896.7969 L394,847.5 A2.5,2.5 0 0 1 396.5,845" fill="#F1F1F1" style="stroke:#181818;stroke-width:0.5;"/><line style="stroke:#181818;stroke-width:0.5;" x1="394" x2="447" y1="866" y2="866"/><text fill="#000000" font-family="sans-serif" font-size="14" lengthAdjust="spacing" textLength="93.9668" x="404" y="885.9951">Headers (*.h)</text></g><!--entity Core_Headers--><g class="entity" data-qualified-name="Simulation .located in Simulation.FirmwarePCSimulator..Firmware .located in Software.STM32F103RBTx..Core .located in Core..Core_Headers" data-source-line="39" id="ent0028"><path d="M89.5,845 L130.5,845 A3.75,3.75 0 0 1 133,847.5 L140,866 L208.4668,866 A2.5,2.5 0 0 1 210.9668,868.5 L210.9668,896.7969 A2.5,2.5 0 0 1 208.4668,899.2969 L89.5,899.2969 A2.5,2.5 0 0 1 87,896.7969 L87,847.5 A2.5,2.5 0 0 1 89.5,845" fill="#F1F1F1" style="stroke:#181818;stroke-width:0.5;"/><line style="stroke:#181818;stroke-width:0.5;" x1="87" x2="140" y1="866" y2="866"/><text fill="#000000" font-family="sans-serif" font-size="14" lengthAdjust="spacing" textLength="93.9668" x="97" y="885.9951">Headers (*.h)</text></g><g class="link" data-entity-1="ent0003" data-entity-2="ent0004" data-link-type="dependency" id="lnk5"><polygon fill="#181818" points="892.862,254.8082,899.0279,247.1282,894.1389,249.974,891.2932,245.0851,892.862,254.8082" style="stroke:#181818;stroke-width:1;"/><path d="M909.1303,193.2211 C904.3515,211.3121 899.171,230.924 894.3943,249.0072" fill="none" style="stroke:#181818;stroke-width:1;"/></g><g class="link" data-entity-1="ent0004" data-entity-2="ent0006" data-link-type="dependency" id="lnk7"><polygon fill="#181818" points="745.9602,362.99,755.7396,361.8219,750.2562,360.4317,751.6463,354.9483,745.9602,362.99" style="stroke:#181818;stroke-width:1;"/><path d="M849.6854,301.2211 C819.2041,319.3728 781.5001,341.8258 751.1154,359.9201" fill="none" style="stroke:#181818;stroke-width:1;"/></g><g class="link" data-entity-1="ent0006" data-entity-2="ent0008" data-link-type="dependency" id="lnk9"><polygon fill="#181818" points="694.9412,492.8548,700.0912,484.4598,695.5994,487.8983,692.1609,483.4065,694.9412,492.8548" style="stroke:#181818;stroke-width:1;"/><path d="M706.0776,409.004 C702.9638,432.449 698.852,463.4081 695.7311,486.907" fill="none" style="stroke:#181818;stroke-width:1;"/></g><g class="link" data-entity-1="ent0004" data-entity-2="ent0010" data-link-type="dependency" id="lnk11"><polygon fill="#181818" points="808.3935,609.794,817.9704,607.4955,812.3625,606.7531,813.1049,601.1451,808.3935,609.794" style="stroke:#181818;stroke-width:1;"/><path d="M888.0447,301.1516 C888.8852,330.9402 888.4253,385.3294 877,430 C873.6002,443.2924 868.1992,444.9381 864,458 C847.9397,507.9565 868.5101,528.7143 842,574 C833.7779,588.0454 825.6113,596.6021 813.1563,606.1449" fill="none" style="stroke:#181818;stroke-width:1;"/></g><g class="link" data-entity-1="ent0008" data-entity-2="ent0010" data-link-type="dependency" id="lnk13"><polygon fill="#181818" points="707.6176,539.1732,709.53,548.8346,710.4968,543.2609,716.0705,544.2278,707.6176,539.1732" style="stroke:#181818;stroke-width:1;"/><path d="M711.0727,544.0785 C725.4159,564.4424 743.1022,589.5526 757.4303,609.8949" fill="none" style="stroke:#181818;stroke-width:1;"/></g><g class="link" data-entity-1="ent0021" data-entity-2="ent0017" data-link-type="association" id="lnk22"><path d="M465.4695,98.0592 C468.6382,100.6807 471.5152,103.6464 474,107 C487.0973,124.6766 486.1175,187.6379 474,206 C464.2455,220.7814 450.7109,232.4965 435.5398,241.779" fill="none" style="stroke:#181818;stroke-width:1;stroke-dasharray:7,7;"/></g><g class="link" data-entity-1="ent0021" data-entity-2="ent0016" data-link-type="association" id="lnk23"><path d="M366.3065,98.0867 C357.7365,108.5097 346.8531,121.7463 336.8156,133.954" fill="none" style="stroke:#181818;stroke-width:1;stroke-dasharray:7,7;"/></g><g class="link" data-entity-1="ent0010" data-entity-2="ent0037" data-link-type="dependency" id="lnk38"><polygon fill="#181818" points="1181.7051,865.7299,1175.8488,857.8113,1177.3556,863.2638,1171.9031,864.7705,1181.7051,865.7299" style="stroke:#181818;stroke-width:1;"/><path d="M811.9491,656.0836 C904.3679,708.4837 1127.6144,835.0613 1176.4857,862.7706" fill="none" style="stroke:#181818;stroke-width:1;"/></g><g class="link" data-entity-1="ent0010" data-entity-2="ent0028" data-link-type="dependency" id="lnk39"><polygon fill="#181818" points="162.7428,844.6206,170.729,838.8568,165.2593,840.3,163.816,834.8304,162.7428,844.6206" style="stroke:#181818;stroke-width:1;"/><path d="M730.6593,635.6346 C633.1533,641.2416 388.4565,665.9996 223,775 C196.4649,792.4809 178.507,817.5551 165.7626,839.4359" fill="none" style="stroke:#181818;stroke-width:1;"/></g><g class="link" data-entity-1="ent0010" data-entity-2="ent0026" data-link-type="dependency" id="lnk40"><polygon fill="#181818" points="490.8302,844.9598,500.4335,842.7743,494.8347,841.9659,495.6432,836.3671,490.8302,844.9598" style="stroke:#181818;stroke-width:1;"/><path d="M743.4621,656.0836 C684.748,699.9802 558.4343,794.4166 495.6356,841.3671" fill="none" style="stroke:#181818;stroke-width:1;"/></g><!--SRC=[dLLPRzf047xthvZwfH0LQ1kraVeGAUHeaOXA0r5L9H5Ql6DOOUzQk-jGLEM_TtPzn11G3iiIrXpVV7FoBjDidZ98s5hb5aoAbaaM11cBbcoE48v5cYVC2YMXbQY8MUGW93oAUnT2fokcSNHQ2fLkX_0l0BZvVZsuWqxd66uQCEToBYH2ozIYRhPktpdxvwqAjD7QBiZcjsPPXXfQ7Ez5XDDSSjHJYyRMY2-pB533i-6GaXIp7HbrZMg7h-9ugQAbyHx55tJoxCLHw0MeUr1PRdP0nTO9U-F9vU7dYqyV3w_waxzbvTqJgJHJ4gM5y2JB4X5vXe_wHe1-RYWHOs2evYAwfLQp985O96W-W64f5j_038TOQR1Cpz72B1S9fuZCG7_Om7ru6k7Cr_qjoEJv3BGMzwWTj6LBbA1aigO2HKdE2JZMAeM1jAXZ5c6lnDGLvWvWIgLpin2SexpZQYKxZaAjTNIsrRfILo3bZrGMNRYhy-lnINym74p-b9eJAe9HkOw8OS4w93jXmifr9MXkQI5JnKLSjixu2ZqEMscAalj8GT280zskfxqbwWy3sEJOc9AXc6cc1L6wbSr9kwHa4tIpPdgJXT1yEcBQhjixHybFOsSyEJew_D8q02AVqD91-0CP_Hfe7NGNHJkypxJmcPRg9urvsClxL6sjXXDiiDiVsfbkXTmAjBaycwqldpUKxZNWU_8BAhBk3O9ot1ACBQYukBqal3P4QhJ-PRzsuQVR3BiGfb6ztEc5TI1M0RjNWeCLyuKbqqZbn4xE_JII8oshffLTARti1et1ynHyTAio7xm-VfC56WIDMKBRvo4MJ7DNa8x9C7ApJM6um_2RweDKvuuBZH6TnJNCC6B4r94aWs9pl9_t-aRo0sYKibVS12_UqmAlSuMa3oe8iQzkXY-n2-EA9Cgxtapt8GZUawkKHCwlvGpj2cc7VTR0oAw-s7MXgSZI229Cvp-e_nAgHXz3mNXQNogposXZMhVrnpltw3y0]--></g></svg>