<svg xmlns="http://www.w3.org/2000/svg" xmlns:xlink="http://www.w3.org/1999/xlink" contentStyleType="text/css" data-diagram-type="SEQUENCE" height="425px" preserveAspectRatio="none" style="width:1054px;height:425px;background:#FFFFFF;" version="1.1" viewBox="0 0 1054 425" width="1054px" zoomAndPan="magnify"><title>Deploy Diagram</title><defs/><g><text fill="#000000" font-family="sans-serif" font-size="14" font-weight="bold" lengthAdjust="spacing" textLength="126.3828" x="465.7297" y="27.9951">Deploy Diagram</text><rect fill="#FFFFE0" height="376.6563" style="stroke:#181818;stroke-width:0.5;" width="380.2271" x="173.0439" y="43.2969"/><text fill="#000000" font-family="sans-serif" font-size="13" font-weight="bold" lengthAdjust="spacing" textLength="156.9839" x="284.6655" y="55.3638">HardwareDataLogger</text><rect fill="#ADD8E6" height="376.6563" style="stroke:#181818;stroke-width:0.5;" width="262.4375" x="590.7871" y="43.2969"/><text fill="#000000" font-family="sans-serif" font-size="13" font-weight="bold" lengthAdjust="spacing" textLength="101.1055" x="671.4531" y="55.3638">Docker Image</text><line style="stroke:#181818;stroke-width:0.5;stroke-dasharray:5.0,5.0;" x1="86" x2="86" y1="124.7266" y2="340.6563"/><line style="stroke:#181818;stroke-width:0.5;stroke-dasharray:5.0,5.0;" x1="260.0439" x2="260.0439" y1="124.7266" y2="340.6563"/><line style="stroke:#181818;stroke-width:0.5;stroke-dasharray:5.0,5.0;" x1="476.7915" x2="476.7915" y1="124.7266" y2="340.6563"/><line style="stroke:#181818;stroke-width:0.5;stroke-dasharray:5.0,5.0;" x1="626.7871" x2="626.7871" y1="124.7266" y2="340.6563"/><line style="stroke:#181818;stroke-width:0.5;stroke-dasharray:5.0,5.0;" x1="814.0811" x2="814.0811" y1="124.7266" y2="340.6563"/><line style="stroke:#181818;stroke-width:0.5;stroke-dasharray:5.0,5.0;" x1="1018.8765" x2="1018.8765" y1="124.7266" y2="340.6563"/><text fill="#000000" font-family="sans-serif" font-size="14" lengthAdjust="spacing" textLength="156.0439" x="5" y="121.4248">Measurement Devices</text><ellipse cx="86.022" cy="56.9297" fill="#E2E2F0" rx="8" ry="8" style="stroke:#181818;stroke-width:0.5;"/><path d="M86.022,64.9297 L86.022,91.9297 M73.022,72.9297 L99.022,72.9297 M86.022,91.9297 L73.022,106.9297 M86.022,91.9297 L99.022,106.9297 " fill="none" style="stroke:#181818;stroke-width:0.5;"/><text fill="#000000" font-family="sans-serif" font-size="14" lengthAdjust="spacing" textLength="156.0439" x="5" y="352.6514">Measurement Devices</text><ellipse cx="86.022" cy="364.4531" fill="#E2E2F0" rx="8" ry="8" style="stroke:#181818;stroke-width:0.5;"/><path d="M86.022,372.4531 L86.022,399.4531 M73.022,380.4531 L99.022,380.4531 M86.022,399.4531 L73.022,414.4531 M86.022,399.4531 L99.022,414.4531 " fill="none" style="stroke:#181818;stroke-width:0.5;"/><rect fill="#E2E2F0" height="30.2969" rx="2.5" ry="2.5" style="stroke:#181818;stroke-width:0.5;" width="166.0723" x="177.0439" y="93.4297"/><text fill="#000000" font-family="sans-serif" font-size="14" lengthAdjust="spacing" textLength="152.0723" x="184.0439" y="113.4248">STM32F103RBTx chip</text><rect fill="#E2E2F0" height="30.2969" rx="2.5" ry="2.5" style="stroke:#181818;stroke-width:0.5;" width="166.0723" x="177.0439" y="339.6563"/><text fill="#000000" font-family="sans-serif" font-size="14" lengthAdjust="spacing" textLength="152.0723" x="184.0439" y="359.6514">STM32F103RBTx chip</text><rect fill="#E2E2F0" height="30.2969" rx="2.5" ry="2.5" style="stroke:#181818;stroke-width:0.5;" width="143.4795" x="405.7915" y="93.4297"/><text fill="#000000" font-family="sans-serif" font-size="14" lengthAdjust="spacing" textLength="129.4795" x="412.7915" y="113.4248">ESP8266MOD chip</text><rect fill="#E2E2F0" height="30.2969" rx="2.5" ry="2.5" style="stroke:#181818;stroke-width:0.5;" width="143.4795" x="405.7915" y="339.6563"/><text fill="#000000" font-family="sans-serif" font-size="14" lengthAdjust="spacing" textLength="129.4795" x="412.7915" y="359.6514">ESP8266MOD chip</text><text fill="#000000" font-family="sans-serif" font-size="14" lengthAdjust="spacing" textLength="59.3633" x="594.7871" y="121.4248">InfluxDB</text><path d="M609.4688,72.4297 C609.4688,62.4297 627.4688,62.4297 627.4688,62.4297 C627.4688,62.4297 645.4688,62.4297 645.4688,72.4297 L645.4688,98.4297 C645.4688,108.4297 627.4688,108.4297 627.4688,108.4297 C627.4688,108.4297 609.4688,108.4297 609.4688,98.4297 L609.4688,72.4297 " fill="#E2E2F0" style="stroke:#181818;stroke-width:1.5;"/><path d="M609.4688,72.4297 C609.4688,82.4297 627.4688,82.4297 627.4688,82.4297 C627.4688,82.4297 645.4688,82.4297 645.4688,72.4297 " fill="none" style="stroke:#181818;stroke-width:1.5;"/><text fill="#000000" font-family="sans-serif" font-size="14" lengthAdjust="spacing" textLength="59.3633" x="594.7871" y="352.6514">InfluxDB</text><path d="M609.4688,365.9531 C609.4688,355.9531 627.4688,355.9531 627.4688,355.9531 C627.4688,355.9531 645.4688,355.9531 645.4688,365.9531 L645.4688,391.9531 C645.4688,401.9531 627.4688,401.9531 627.4688,401.9531 C627.4688,401.9531 609.4688,401.9531 609.4688,391.9531 L609.4688,365.9531 " fill="#E2E2F0" style="stroke:#181818;stroke-width:1.5;"/><path d="M609.4688,365.9531 C609.4688,375.9531 627.4688,375.9531 627.4688,375.9531 C627.4688,375.9531 645.4688,375.9531 645.4688,365.9531 " fill="none" style="stroke:#181818;stroke-width:1.5;"/><rect fill="#E2E2F0" height="30.2969" rx="2.5" ry="2.5" style="stroke:#181818;stroke-width:0.5;" width="70.1436" x="779.0811" y="93.4297"/><text fill="#000000" font-family="sans-serif" font-size="14" lengthAdjust="spacing" textLength="56.1436" x="786.0811" y="113.4248">Grafana</text><rect fill="#E2E2F0" height="30.2969" rx="2.5" ry="2.5" style="stroke:#181818;stroke-width:0.5;" width="70.1436" x="779.0811" y="339.6563"/><text fill="#000000" font-family="sans-serif" font-size="14" lengthAdjust="spacing" textLength="56.1436" x="786.0811" y="359.6514">Grafana</text><text fill="#000000" font-family="sans-serif" font-size="14" lengthAdjust="spacing" textLength="62.9658" x="984.8765" y="121.4248">End User</text><ellipse cx="1019.3594" cy="56.9297" fill="#E2E2F0" rx="8" ry="8" style="stroke:#181818;stroke-width:0.5;"/><path d="M1019.3594,64.9297 L1019.3594,91.9297 M1006.3594,72.9297 L1032.3594,72.9297 M1019.3594,91.9297 L1006.3594,106.9297 M1019.3594,91.9297 L1032.3594,106.9297 " fill="none" style="stroke:#181818;stroke-width:0.5;"/><text fill="#000000" font-family="sans-serif" font-size="14" lengthAdjust="spacing" textLength="62.9658" x="984.8765" y="352.6514">End User</text><ellipse cx="1019.3594" cy="364.4531" fill="#E2E2F0" rx="8" ry="8" style="stroke:#181818;stroke-width:0.5;"/><path d="M1019.3594,372.4531 L1019.3594,399.4531 M1006.3594,380.4531 L1032.3594,380.4531 M1019.3594,399.4531 L1006.3594,414.4531 M1019.3594,399.4531 L1032.3594,414.4531 " fill="none" style="stroke:#181818;stroke-width:0.5;"/><path d="M498,139.7266 L498,164.7266 L942,164.7266 L942,149.7266 L932,139.7266 L498,139.7266 " fill="#FEFFDD" style="stroke:#181818;stroke-width:0.5;"/><path d="M932,139.7266 L932,149.7266 L942,149.7266 L932,139.7266 " fill="#FEFFDD" style="stroke:#181818;stroke-width:0.5;"/><text fill="#000000" font-family="sans-serif" font-size="13" lengthAdjust="spacing" textLength="423.2871" x="504" y="156.7935">"Either run locally (for debug) on PC or remotely on RaspberryPi"</text><polygon fill="#181818" points="248.0801,186.9922,258.0801,190.9922,248.0801,194.9922,252.0801,190.9922" style="stroke:#181818;stroke-width:1;"/><line style="stroke:#181818;stroke-width:1;" x1="86.022" x2="254.0801" y1="190.9922" y2="190.9922"/><text fill="#000000" font-family="sans-serif" font-size="13" lengthAdjust="spacing" textLength="106.4502" x="93.022" y="185.9263">Sends Raw Data</text><polygon fill="#181818" points="465.5313,216.125,475.5313,220.125,465.5313,224.125,469.5313,220.125" style="stroke:#181818;stroke-width:1;"/><line style="stroke:#181818;stroke-width:1;" x1="260.0801" x2="471.5313" y1="220.125" y2="220.125"/><text fill="#000000" font-family="sans-serif" font-size="13" lengthAdjust="spacing" textLength="193.4512" x="267.0801" y="215.0591">Processes and Transfers Data</text><polygon fill="#181818" points="615.4688,260.3906,625.4688,264.3906,615.4688,268.3906,619.4688,264.3906" style="stroke:#181818;stroke-width:1;"/><line style="stroke:#181818;stroke-width:1;stroke-dasharray:2.0,2.0;" x1="477.5313" x2="621.4688" y1="264.3906" y2="264.3906"/><text fill="#000000" font-family="sans-serif" font-size="13" lengthAdjust="spacing" textLength="76.5908" x="484.5313" y="244.1919">Stores Data</text><text fill="#000000" font-family="sans-serif" font-size="13" lengthAdjust="spacing" textLength="125.9375" x="484.5313" y="259.3247">(via MQTT or HTTP)</text><polygon fill="#181818" points="802.1528,289.5234,812.1528,293.5234,802.1528,297.5234,806.1528,293.5234" style="stroke:#181818;stroke-width:1;"/><line style="stroke:#181818;stroke-width:1;" x1="627.4688" x2="808.1528" y1="293.5234" y2="293.5234"/><text fill="#000000" font-family="sans-serif" font-size="13" lengthAdjust="spacing" textLength="162.6841" x="634.4688" y="288.4575">Fetches and Serves Data</text><polygon fill="#181818" points="825.1528,318.6563,815.1528,322.6563,825.1528,326.6563,821.1528,322.6563" style="stroke:#181818;stroke-width:1;"/><line style="stroke:#181818;stroke-width:1;" x1="819.1528" x2="1018.3594" y1="322.6563" y2="322.6563"/><text fill="#000000" font-family="sans-serif" font-size="13" lengthAdjust="spacing" textLength="181.2065" x="831.1528" y="317.5903">Accesses Data Visualization</text><!--SRC=[RP1TJy8m58Rl-ojEvWqaaYWan7XX8Ww41EA4QMBYpTausnfBkxGT7_vwpsGW4NhNdlVZzF7IAuAGIcLs44hCBQw4mDGR2y6Cq5MMLgGzIzOo9HS8aPWj16EqomrQ2j7ZrEGvsG2kfZ8l_0SfPJO2-9HelKnbYUmF5l6irntTtlJcWtWBQI7Bu5mqN4HttNv_zX8s2j9BuCAcDJJf5rcOh32dGzz0LVGRjEHL4dG4mKHdgjg6Wmi5pnOpr7WIh8qdC6kE_VDTdmY3eVG5JssbGPaKbTf1AsCyIqggl0r6G_G4V6TG7CLJVfcZAnEoTXV9VLNTSkGwv8StnyY4kCWOEWyNUS4zB3ZCSVm6QlBYegfs_mV9riWQ3dVa0Ba_jgXTHjOrGMU6JXrp959Ny-wqbt_grbeYp5xZkFxvE8wZjZWHrzO3G7QEoAT5qxiWkwPZwG74VyTZsgnQw-1TkWgL_4OlZVu1]--></g></svg>