<?xml version="1.0" encoding="UTF-8" standalone="no"?><svg xmlns="http://www.w3.org/2000/svg" xmlns:xlink="http://www.w3.org/1999/xlink" contentScriptType="application/ecmascript" contentStyleType="text/css" height="709px" preserveAspectRatio="none" style="width:725px;height:709px;background:#FFFFFF;" version="1.1" viewBox="0 0 725 709" width="725px" zoomAndPan="magnify"><defs><filter height="300%" id="f1twnrqkkyx683" width="300%" x="-1" y="-1"><feGaussianBlur result="blurOut" stdDeviation="2.0"/><feColorMatrix in="blurOut" result="blurOut2" type="matrix" values="0 0 0 0 0 0 0 0 0 0 0 0 0 0 0 0 0 0 .4 0"/><feOffset dx="4.0" dy="4.0" in="blurOut2" result="blurOut3"/><feBlend in="SourceGraphic" in2="blurOut3" mode="normal"/></filter></defs><g><!--MD5=[45a0bc03ebf70602769dbf80803c9ff5]
class StoragesContainer--><rect codeLine="2" fill="#FEFECE" filter="url(#f1twnrqkkyx683)" height="75.6719" id="StoragesContainer" style="stroke:#A80036;stroke-width:1.5;" width="136" x="228" y="7"/><ellipse cx="243" cy="23" fill="#ADD1B2" rx="11" ry="11" style="stroke:#A80036;stroke-width:1.0;"/><path d="M245.7656,18.875 Q245.9219,18.6563 246.1094,18.5469 Q246.2969,18.4375 246.5156,18.4375 Q246.8906,18.4375 247.125,18.6953 Q247.3594,18.9531 247.3594,19.5625 L247.3594,21.0156 Q247.3594,21.625 247.125,21.8906 Q246.8906,22.1563 246.5156,22.1563 Q246.1719,22.1563 245.9688,21.9531 Q245.7656,21.7656 245.6563,21.25 Q245.6094,20.8906 245.4219,20.7031 Q245.0938,20.3281 244.4844,20.1094 Q243.875,19.8906 243.25,19.8906 Q242.4844,19.8906 241.8516,20.2188 Q241.2188,20.5469 240.7266,21.2969 Q240.2344,22.0469 240.2344,23.0781 L240.2344,24.1719 Q240.2344,25.4063 241.125,26.2266 Q242.0156,27.0469 243.6094,27.0469 Q244.5469,27.0469 245.2031,26.7969 Q245.5938,26.6406 246.0156,26.2031 Q246.2813,25.9375 246.4297,25.8594 Q246.5781,25.7813 246.7813,25.7813 Q247.1094,25.7813 247.3672,26.0391 Q247.625,26.2969 247.625,26.6406 Q247.625,26.9844 247.2813,27.3906 Q246.7813,27.9688 245.9844,28.2969 Q244.9063,28.75 243.6094,28.75 Q242.0938,28.75 240.8906,28.125 Q239.9063,27.625 239.2188,26.5547 Q238.5313,25.4844 238.5313,24.2031 L238.5313,23.0469 Q238.5313,21.7188 239.1484,20.5703 Q239.7656,19.4219 240.8594,18.8047 Q241.9531,18.1875 243.1875,18.1875 Q243.9219,18.1875 244.5703,18.3516 Q245.2188,18.5156 245.7656,18.875 Z " fill="#000000"/><text fill="#000000" font-family="sans-serif" font-size="12" lengthAdjust="spacing" textLength="104" x="257" y="27.9102">StoragesContainer</text><line style="stroke:#A80036;stroke-width:1.5;" x1="229" x2="363" y1="39" y2="39"/><line style="stroke:#A80036;stroke-width:1.5;" x1="229" x2="363" y1="47" y2="47"/><ellipse cx="239" cy="58" fill="#84BE84" rx="3" ry="3" style="stroke:#038048;stroke-width:1.0;"/><text fill="#000000" font-family="sans-serif" font-size="11" lengthAdjust="spacing" textLength="44" x="248" y="62.4189">void init()</text><ellipse cx="239" cy="71.8359" fill="#84BE84" rx="3" ry="3" style="stroke:#038048;stroke-width:1.0;"/><text fill="#000000" font-family="sans-serif" font-size="11" lengthAdjust="spacing" textLength="77" x="248" y="76.2549">void configure()</text><!--MD5=[a8189d9cf1b87ad69209329390e98806]
class BluetoothWifiStorage--><rect codeLine="7" fill="#FEFECE" filter="url(#f1twnrqkkyx683)" height="48" id="BluetoothWifiStorage" style="stroke:#A80036;stroke-width:1.5;" width="147" x="222.5" y="143"/><ellipse cx="237.5" cy="159" fill="#ADD1B2" rx="11" ry="11" style="stroke:#A80036;stroke-width:1.0;"/><path d="M240.2656,154.875 Q240.4219,154.6563 240.6094,154.5469 Q240.7969,154.4375 241.0156,154.4375 Q241.3906,154.4375 241.625,154.6953 Q241.8594,154.9531 241.8594,155.5625 L241.8594,157.0156 Q241.8594,157.625 241.625,157.8906 Q241.3906,158.1563 241.0156,158.1563 Q240.6719,158.1563 240.4688,157.9531 Q240.2656,157.7656 240.1563,157.25 Q240.1094,156.8906 239.9219,156.7031 Q239.5938,156.3281 238.9844,156.1094 Q238.375,155.8906 237.75,155.8906 Q236.9844,155.8906 236.3516,156.2188 Q235.7188,156.5469 235.2266,157.2969 Q234.7344,158.0469 234.7344,159.0781 L234.7344,160.1719 Q234.7344,161.4063 235.625,162.2266 Q236.5156,163.0469 238.1094,163.0469 Q239.0469,163.0469 239.7031,162.7969 Q240.0938,162.6406 240.5156,162.2031 Q240.7813,161.9375 240.9297,161.8594 Q241.0781,161.7813 241.2813,161.7813 Q241.6094,161.7813 241.8672,162.0391 Q242.125,162.2969 242.125,162.6406 Q242.125,162.9844 241.7813,163.3906 Q241.2813,163.9688 240.4844,164.2969 Q239.4063,164.75 238.1094,164.75 Q236.5938,164.75 235.3906,164.125 Q234.4063,163.625 233.7188,162.5547 Q233.0313,161.4844 233.0313,160.2031 L233.0313,159.0469 Q233.0313,157.7188 233.6484,156.5703 Q234.2656,155.4219 235.3594,154.8047 Q236.4531,154.1875 237.6875,154.1875 Q238.4219,154.1875 239.0703,154.3516 Q239.7188,154.5156 240.2656,154.875 Z " fill="#000000"/><text fill="#000000" font-family="sans-serif" font-size="12" lengthAdjust="spacing" textLength="115" x="251.5" y="163.9102">BluetoothWifiStorage</text><line style="stroke:#A80036;stroke-width:1.5;" x1="223.5" x2="368.5" y1="175" y2="175"/><line style="stroke:#A80036;stroke-width:1.5;" x1="223.5" x2="368.5" y1="183" y2="183"/><!--MD5=[84e821c306fe4d51c0d081569378114b]
class IStorageIO--><rect codeLine="10" fill="#FEFECE" filter="url(#f1twnrqkkyx683)" height="89.5078" id="IStorageIO" style="stroke:#A80036;stroke-width:1.5;" width="92" x="343" y="421.5"/><ellipse cx="358" cy="437.5" fill="#B4A7E5" rx="11" ry="11" style="stroke:#A80036;stroke-width:1.0;"/><path d="M358.9531,434.1406 L358.9531,440.7969 L360.6719,440.7969 Q361.2813,440.7969 361.5469,441.0313 Q361.8125,441.2656 361.8125,441.6563 Q361.8125,442.0313 361.5469,442.2656 Q361.2813,442.5 360.6719,442.5 L355.5313,442.5 Q354.9219,442.5 354.6563,442.2656 Q354.3906,442.0313 354.3906,441.6406 Q354.3906,441.2656 354.6563,441.0313 Q354.9219,440.7969 355.5313,440.7969 L357.25,440.7969 L357.25,434.1406 L355.5313,434.1406 Q354.9219,434.1406 354.6563,433.9063 Q354.3906,433.6719 354.3906,433.2813 Q354.3906,432.9063 354.6563,432.6719 Q354.9219,432.4375 355.5313,432.4375 L360.6719,432.4375 Q361.2813,432.4375 361.5469,432.6719 Q361.8125,432.9063 361.8125,433.2813 Q361.8125,433.6719 361.5469,433.9063 Q361.2813,434.1406 360.6719,434.1406 L358.9531,434.1406 Z " fill="#000000"/><text fill="#000000" font-family="sans-serif" font-size="12" font-style="italic" lengthAdjust="spacing" textLength="60" x="372" y="442.4102">IStorageIO</text><line style="stroke:#A80036;stroke-width:1.5;" x1="344" x2="434" y1="453.5" y2="453.5"/><line style="stroke:#A80036;stroke-width:1.5;" x1="344" x2="434" y1="461.5" y2="461.5"/><ellipse cx="354" cy="472.5" fill="#84BE84" rx="3" ry="3" style="stroke:#038048;stroke-width:1.0;"/><text fill="#000000" font-family="sans-serif" font-size="11" lengthAdjust="spacing" textLength="44" x="363" y="476.9189">void init()</text><ellipse cx="354" cy="486.3359" fill="#84BE84" rx="3" ry="3" style="stroke:#038048;stroke-width:1.0;"/><text fill="#000000" font-family="sans-serif" font-size="11" lengthAdjust="spacing" textLength="56" x="363" y="490.7549">void deinit()</text><ellipse cx="354" cy="500.1719" fill="#84BE84" rx="3" ry="3" style="stroke:#038048;stroke-width:1.0;"/><text fill="#000000" font-family="sans-serif" font-size="11" lengthAdjust="spacing" textLength="56" x="363" y="504.5908">void write()</text><!--MD5=[55cf75b686679030a2cc053f7a18829b]
class IStorageDriver--><rect codeLine="16" fill="#FEFECE" filter="url(#f1twnrqkkyx683)" height="89.5078" id="IStorageDriver" style="stroke:#A80036;stroke-width:1.5;" width="112" x="331" y="606"/><ellipse cx="346" cy="622" fill="#B4A7E5" rx="11" ry="11" style="stroke:#A80036;stroke-width:1.0;"/><path d="M346.9531,618.6406 L346.9531,625.2969 L348.6719,625.2969 Q349.2813,625.2969 349.5469,625.5313 Q349.8125,625.7656 349.8125,626.1563 Q349.8125,626.5313 349.5469,626.7656 Q349.2813,627 348.6719,627 L343.5313,627 Q342.9219,627 342.6563,626.7656 Q342.3906,626.5313 342.3906,626.1406 Q342.3906,625.7656 342.6563,625.5313 Q342.9219,625.2969 343.5313,625.2969 L345.25,625.2969 L345.25,618.6406 L343.5313,618.6406 Q342.9219,618.6406 342.6563,618.4063 Q342.3906,618.1719 342.3906,617.7813 Q342.3906,617.4063 342.6563,617.1719 Q342.9219,616.9375 343.5313,616.9375 L348.6719,616.9375 Q349.2813,616.9375 349.5469,617.1719 Q349.8125,617.4063 349.8125,617.7813 Q349.8125,618.1719 349.5469,618.4063 Q349.2813,618.6406 348.6719,618.6406 L346.9531,618.6406 Z " fill="#000000"/><text fill="#000000" font-family="sans-serif" font-size="12" font-style="italic" lengthAdjust="spacing" textLength="80" x="360" y="626.9102">IStorageDriver</text><line style="stroke:#A80036;stroke-width:1.5;" x1="332" x2="442" y1="638" y2="638"/><line style="stroke:#A80036;stroke-width:1.5;" x1="332" x2="442" y1="646" y2="646"/><ellipse cx="342" cy="657" fill="#84BE84" rx="3" ry="3" style="stroke:#038048;stroke-width:1.0;"/><text fill="#000000" font-family="sans-serif" font-size="11" lengthAdjust="spacing" textLength="44" x="351" y="661.4189">void init()</text><ellipse cx="342" cy="670.8359" fill="#84BE84" rx="3" ry="3" style="stroke:#038048;stroke-width:1.0;"/><text fill="#000000" font-family="sans-serif" font-size="11" lengthAdjust="spacing" textLength="56" x="351" y="675.2549">void deinit()</text><ellipse cx="342" cy="684.6719" fill="#84BE84" rx="3" ry="3" style="stroke:#038048;stroke-width:1.0;"/><text fill="#000000" font-family="sans-serif" font-size="11" lengthAdjust="spacing" textLength="56" x="351" y="689.0908">void write()</text><!--MD5=[7db34624215397195264460eca68bfc7]
class SDCardStorage--><rect codeLine="22" fill="#FEFECE" filter="url(#f1twnrqkkyx683)" height="61.8359" id="SDCardStorage" style="stroke:#A80036;stroke-width:1.5;" width="119" x="62.5" y="258"/><ellipse cx="77.5" cy="274" fill="#ADD1B2" rx="11" ry="11" style="stroke:#A80036;stroke-width:1.0;"/><path d="M80.2656,269.875 Q80.4219,269.6563 80.6094,269.5469 Q80.7969,269.4375 81.0156,269.4375 Q81.3906,269.4375 81.625,269.6953 Q81.8594,269.9531 81.8594,270.5625 L81.8594,272.0156 Q81.8594,272.625 81.625,272.8906 Q81.3906,273.1563 81.0156,273.1563 Q80.6719,273.1563 80.4688,272.9531 Q80.2656,272.7656 80.1563,272.25 Q80.1094,271.8906 79.9219,271.7031 Q79.5938,271.3281 78.9844,271.1094 Q78.375,270.8906 77.75,270.8906 Q76.9844,270.8906 76.3516,271.2188 Q75.7188,271.5469 75.2266,272.2969 Q74.7344,273.0469 74.7344,274.0781 L74.7344,275.1719 Q74.7344,276.4063 75.625,277.2266 Q76.5156,278.0469 78.1094,278.0469 Q79.0469,278.0469 79.7031,277.7969 Q80.0938,277.6406 80.5156,277.2031 Q80.7813,276.9375 80.9297,276.8594 Q81.0781,276.7813 81.2813,276.7813 Q81.6094,276.7813 81.8672,277.0391 Q82.125,277.2969 82.125,277.6406 Q82.125,277.9844 81.7813,278.3906 Q81.2813,278.9688 80.4844,279.2969 Q79.4063,279.75 78.1094,279.75 Q76.5938,279.75 75.3906,279.125 Q74.4063,278.625 73.7188,277.5547 Q73.0313,276.4844 73.0313,275.2031 L73.0313,274.0469 Q73.0313,272.7188 73.6484,271.5703 Q74.2656,270.4219 75.3594,269.8047 Q76.4531,269.1875 77.6875,269.1875 Q78.4219,269.1875 79.0703,269.3516 Q79.7188,269.5156 80.2656,269.875 Z " fill="#000000"/><text fill="#000000" font-family="sans-serif" font-size="12" lengthAdjust="spacing" textLength="87" x="91.5" y="278.9102">SDCardStorage</text><line style="stroke:#A80036;stroke-width:1.5;" x1="63.5" x2="180.5" y1="290" y2="290"/><rect fill="none" height="6" style="stroke:#C82930;stroke-width:1.0;" width="6" x="70.5" y="298"/><text fill="#000000" font-family="sans-serif" font-size="11" lengthAdjust="spacing" textLength="41" x="82.5" y="305.4189">fileName</text><line style="stroke:#A80036;stroke-width:1.5;" x1="63.5" x2="180.5" y1="311.8359" y2="311.8359"/><!--MD5=[593d588e1c6f1d7ea50db6f5126e276f]
class UARTStorage--><rect codeLine="26" fill="#FEFECE" filter="url(#f1twnrqkkyx683)" height="48" id="UARTStorage" style="stroke:#A80036;stroke-width:1.5;" width="107" x="600.5" y="265"/><ellipse cx="615.5" cy="281" fill="#ADD1B2" rx="11" ry="11" style="stroke:#A80036;stroke-width:1.0;"/><path d="M618.2656,276.875 Q618.4219,276.6563 618.6094,276.5469 Q618.7969,276.4375 619.0156,276.4375 Q619.3906,276.4375 619.625,276.6953 Q619.8594,276.9531 619.8594,277.5625 L619.8594,279.0156 Q619.8594,279.625 619.625,279.8906 Q619.3906,280.1563 619.0156,280.1563 Q618.6719,280.1563 618.4688,279.9531 Q618.2656,279.7656 618.1563,279.25 Q618.1094,278.8906 617.9219,278.7031 Q617.5938,278.3281 616.9844,278.1094 Q616.375,277.8906 615.75,277.8906 Q614.9844,277.8906 614.3516,278.2188 Q613.7188,278.5469 613.2266,279.2969 Q612.7344,280.0469 612.7344,281.0781 L612.7344,282.1719 Q612.7344,283.4063 613.625,284.2266 Q614.5156,285.0469 616.1094,285.0469 Q617.0469,285.0469 617.7031,284.7969 Q618.0938,284.6406 618.5156,284.2031 Q618.7813,283.9375 618.9297,283.8594 Q619.0781,283.7813 619.2813,283.7813 Q619.6094,283.7813 619.8672,284.0391 Q620.125,284.2969 620.125,284.6406 Q620.125,284.9844 619.7813,285.3906 Q619.2813,285.9688 618.4844,286.2969 Q617.4063,286.75 616.1094,286.75 Q614.5938,286.75 613.3906,286.125 Q612.4063,285.625 611.7188,284.5547 Q611.0313,283.4844 611.0313,282.2031 L611.0313,281.0469 Q611.0313,279.7188 611.6484,278.5703 Q612.2656,277.4219 613.3594,276.8047 Q614.4531,276.1875 615.6875,276.1875 Q616.4219,276.1875 617.0703,276.3516 Q617.7188,276.5156 618.2656,276.875 Z " fill="#000000"/><text fill="#000000" font-family="sans-serif" font-size="12" lengthAdjust="spacing" textLength="75" x="629.5" y="285.9102">UARTStorage</text><line style="stroke:#A80036;stroke-width:1.5;" x1="601.5" x2="706.5" y1="297" y2="297"/><line style="stroke:#A80036;stroke-width:1.5;" x1="601.5" x2="706.5" y1="305" y2="305"/><!--MD5=[5dabd1a6e6389832061ac86dbbf44f08]
class WifiStorage--><rect codeLine="29" fill="#FEFECE" filter="url(#f1twnrqkkyx683)" height="75.6719" id="WifiStorage" style="stroke:#A80036;stroke-width:1.5;" width="95" x="450.5" y="251"/><ellipse cx="465.5" cy="267" fill="#ADD1B2" rx="11" ry="11" style="stroke:#A80036;stroke-width:1.0;"/><path d="M468.2656,262.875 Q468.4219,262.6563 468.6094,262.5469 Q468.7969,262.4375 469.0156,262.4375 Q469.3906,262.4375 469.625,262.6953 Q469.8594,262.9531 469.8594,263.5625 L469.8594,265.0156 Q469.8594,265.625 469.625,265.8906 Q469.3906,266.1563 469.0156,266.1563 Q468.6719,266.1563 468.4688,265.9531 Q468.2656,265.7656 468.1563,265.25 Q468.1094,264.8906 467.9219,264.7031 Q467.5938,264.3281 466.9844,264.1094 Q466.375,263.8906 465.75,263.8906 Q464.9844,263.8906 464.3516,264.2188 Q463.7188,264.5469 463.2266,265.2969 Q462.7344,266.0469 462.7344,267.0781 L462.7344,268.1719 Q462.7344,269.4063 463.625,270.2266 Q464.5156,271.0469 466.1094,271.0469 Q467.0469,271.0469 467.7031,270.7969 Q468.0938,270.6406 468.5156,270.2031 Q468.7813,269.9375 468.9297,269.8594 Q469.0781,269.7813 469.2813,269.7813 Q469.6094,269.7813 469.8672,270.0391 Q470.125,270.2969 470.125,270.6406 Q470.125,270.9844 469.7813,271.3906 Q469.2813,271.9688 468.4844,272.2969 Q467.4063,272.75 466.1094,272.75 Q464.5938,272.75 463.3906,272.125 Q462.4063,271.625 461.7188,270.5547 Q461.0313,269.4844 461.0313,268.2031 L461.0313,267.0469 Q461.0313,265.7188 461.6484,264.5703 Q462.2656,263.4219 463.3594,262.8047 Q464.4531,262.1875 465.6875,262.1875 Q466.4219,262.1875 467.0703,262.3516 Q467.7188,262.5156 468.2656,262.875 Z " fill="#000000"/><text fill="#000000" font-family="sans-serif" font-size="12" lengthAdjust="spacing" textLength="63" x="479.5" y="271.9102">WifiStorage</text><line style="stroke:#A80036;stroke-width:1.5;" x1="451.5" x2="544.5" y1="283" y2="283"/><rect fill="none" height="6" style="stroke:#C82930;stroke-width:1.0;" width="6" x="458.5" y="291"/><text fill="#000000" font-family="sans-serif" font-size="11" lengthAdjust="spacing" textLength="22" x="470.5" y="298.4189">login</text><rect fill="none" height="6" style="stroke:#C82930;stroke-width:1.0;" width="6" x="458.5" y="304.8359"/><text fill="#000000" font-family="sans-serif" font-size="11" lengthAdjust="spacing" textLength="50" x="470.5" y="312.2549">password</text><line style="stroke:#A80036;stroke-width:1.5;" x1="451.5" x2="544.5" y1="318.6719" y2="318.6719"/><path d="M405,145.5 L405,163 L369.58,167 L405,171 L405,188.2031 A0,0 0 0 0 405,188.2031 L601,188.2031 A0,0 0 0 0 601,188.2031 L601,155.5 L591,145.5 L405,145.5 A0,0 0 0 0 405,145.5 " fill="#FBFB77" filter="url(#f1twnrqkkyx683)" style="stroke:#A80036;stroke-width:1.0;"/><path d="M591,145.5 L591,155.5 L601,155.5 L591,145.5 " fill="#FBFB77" style="stroke:#A80036;stroke-width:1.0;"/><text fill="#000000" font-family="sans-serif" font-size="13" lengthAdjust="spacing" textLength="171" x="411" y="163.9951">ESP32 share same radio HW</text><text fill="#000000" font-family="sans-serif" font-size="13" lengthAdjust="spacing" textLength="129" x="411" y="180.3467">for WiFi anfd Bloototh.</text><!--MD5=[9a5acb08361f2f0c97025a0a1496322e]
class BluetoothStorage--><rect codeLine="35" fill="#FEFECE" filter="url(#f1twnrqkkyx683)" height="48" id="BluetoothStorage" style="stroke:#A80036;stroke-width:1.5;" width="127" x="216.5" y="265"/><ellipse cx="231.5" cy="281" fill="#ADD1B2" rx="11" ry="11" style="stroke:#A80036;stroke-width:1.0;"/><path d="M234.2656,276.875 Q234.4219,276.6563 234.6094,276.5469 Q234.7969,276.4375 235.0156,276.4375 Q235.3906,276.4375 235.625,276.6953 Q235.8594,276.9531 235.8594,277.5625 L235.8594,279.0156 Q235.8594,279.625 235.625,279.8906 Q235.3906,280.1563 235.0156,280.1563 Q234.6719,280.1563 234.4688,279.9531 Q234.2656,279.7656 234.1563,279.25 Q234.1094,278.8906 233.9219,278.7031 Q233.5938,278.3281 232.9844,278.1094 Q232.375,277.8906 231.75,277.8906 Q230.9844,277.8906 230.3516,278.2188 Q229.7188,278.5469 229.2266,279.2969 Q228.7344,280.0469 228.7344,281.0781 L228.7344,282.1719 Q228.7344,283.4063 229.625,284.2266 Q230.5156,285.0469 232.1094,285.0469 Q233.0469,285.0469 233.7031,284.7969 Q234.0938,284.6406 234.5156,284.2031 Q234.7813,283.9375 234.9297,283.8594 Q235.0781,283.7813 235.2813,283.7813 Q235.6094,283.7813 235.8672,284.0391 Q236.125,284.2969 236.125,284.6406 Q236.125,284.9844 235.7813,285.3906 Q235.2813,285.9688 234.4844,286.2969 Q233.4063,286.75 232.1094,286.75 Q230.5938,286.75 229.3906,286.125 Q228.4063,285.625 227.7188,284.5547 Q227.0313,283.4844 227.0313,282.2031 L227.0313,281.0469 Q227.0313,279.7188 227.6484,278.5703 Q228.2656,277.4219 229.3594,276.8047 Q230.4531,276.1875 231.6875,276.1875 Q232.4219,276.1875 233.0703,276.3516 Q233.7188,276.5156 234.2656,276.875 Z " fill="#000000"/><text fill="#000000" font-family="sans-serif" font-size="12" lengthAdjust="spacing" textLength="95" x="245.5" y="285.9102">BluetoothStorage</text><line style="stroke:#A80036;stroke-width:1.5;" x1="217.5" x2="342.5" y1="297" y2="297"/><line style="stroke:#A80036;stroke-width:1.5;" x1="217.5" x2="342.5" y1="305" y2="305"/><!--MD5=[de27ec6bb9ae4d985ba3a8f3c8f525a7]
class SDCardDriver--><rect codeLine="38" fill="#FEFECE" filter="url(#f1twnrqkkyx683)" height="158.6875" id="SDCardDriver" style="stroke:#A80036;stroke-width:1.5;" width="150" x="7" y="387"/><ellipse cx="40.9" cy="403" fill="#ADD1B2" rx="11" ry="11" style="stroke:#A80036;stroke-width:1.0;"/><path d="M43.6656,398.875 Q43.8219,398.6563 44.0094,398.5469 Q44.1969,398.4375 44.4156,398.4375 Q44.7906,398.4375 45.025,398.6953 Q45.2594,398.9531 45.2594,399.5625 L45.2594,401.0156 Q45.2594,401.625 45.025,401.8906 Q44.7906,402.1563 44.4156,402.1563 Q44.0719,402.1563 43.8688,401.9531 Q43.6656,401.7656 43.5563,401.25 Q43.5094,400.8906 43.3219,400.7031 Q42.9938,400.3281 42.3844,400.1094 Q41.775,399.8906 41.15,399.8906 Q40.3844,399.8906 39.7516,400.2188 Q39.1188,400.5469 38.6266,401.2969 Q38.1344,402.0469 38.1344,403.0781 L38.1344,404.1719 Q38.1344,405.4063 39.025,406.2266 Q39.9156,407.0469 41.5094,407.0469 Q42.4469,407.0469 43.1031,406.7969 Q43.4938,406.6406 43.9156,406.2031 Q44.1813,405.9375 44.3297,405.8594 Q44.4781,405.7813 44.6813,405.7813 Q45.0094,405.7813 45.2672,406.0391 Q45.525,406.2969 45.525,406.6406 Q45.525,406.9844 45.1813,407.3906 Q44.6813,407.9688 43.8844,408.2969 Q42.8063,408.75 41.5094,408.75 Q39.9938,408.75 38.7906,408.125 Q37.8063,407.625 37.1188,406.5547 Q36.4313,405.4844 36.4313,404.2031 L36.4313,403.0469 Q36.4313,401.7188 37.0484,400.5703 Q37.6656,399.4219 38.7594,398.8047 Q39.8531,398.1875 41.0875,398.1875 Q41.8219,398.1875 42.4703,398.3516 Q43.1188,398.5156 43.6656,398.875 Z " fill="#000000"/><text fill="#000000" font-family="sans-serif" font-size="12" lengthAdjust="spacing" textLength="76" x="59.1" y="407.9102">SDCardDriver</text><line style="stroke:#A80036;stroke-width:1.5;" x1="8" x2="156" y1="419" y2="419"/><rect fill="none" height="6" style="stroke:#C82930;stroke-width:1.0;" width="6" x="15" y="427"/><text fill="#000000" font-family="sans-serif" font-size="11" lengthAdjust="spacing" textLength="87" x="27" y="434.4189">fileSystemHandler</text><rect fill="none" height="6" style="stroke:#C82930;stroke-width:1.0;" width="6" x="15" y="440.8359"/><text fill="#000000" font-family="sans-serif" font-size="11" lengthAdjust="spacing" textLength="67" x="27" y="448.2549">logFileHandler</text><line style="stroke:#A80036;stroke-width:1.5;" x1="8" x2="156" y1="454.6719" y2="454.6719"/><rect fill="#F24D5C" height="6" style="stroke:#C82930;stroke-width:1.0;" width="6" x="15" y="462.6719"/><text fill="#000000" font-family="sans-serif" font-size="11" lengthAdjust="spacing" textLength="112" x="27" y="470.0908">void mountFileSystem()</text><rect fill="#F24D5C" height="6" style="stroke:#C82930;stroke-width:1.0;" width="6" x="15" y="476.5078"/><text fill="#000000" font-family="sans-serif" font-size="11" lengthAdjust="spacing" textLength="124" x="27" y="483.9268">void unmountFileSystem()</text><rect fill="#F24D5C" height="6" style="stroke:#C82930;stroke-width:1.0;" width="6" x="15" y="490.3438"/><text fill="#000000" font-family="sans-serif" font-size="11" lengthAdjust="spacing" textLength="71" x="27" y="497.7627">void openFile()</text><rect fill="#F24D5C" height="6" style="stroke:#C82930;stroke-width:1.0;" width="6" x="15" y="504.1797"/><text fill="#000000" font-family="sans-serif" font-size="11" lengthAdjust="spacing" textLength="73" x="27" y="511.5986">void closeFile()</text><rect fill="#F24D5C" height="6" style="stroke:#C82930;stroke-width:1.0;" width="6" x="15" y="518.0156"/><text fill="#000000" font-family="sans-serif" font-size="11" lengthAdjust="spacing" textLength="55" x="27" y="525.4346">void sync()</text><rect fill="#F24D5C" height="6" style="stroke:#C82930;stroke-width:1.0;" width="6" x="15" y="531.8516"/><text fill="#000000" font-family="sans-serif" font-size="11" lengthAdjust="spacing" textLength="84" x="27" y="539.2705">void writeToFile()</text><!--MD5=[123a1d09c24313992a8650e1506f75a8]
class UARTDriver--><rect codeLine="50" fill="#FEFECE" filter="url(#f1twnrqkkyx683)" height="75.6719" id="UARTDriver" style="stroke:#A80036;stroke-width:1.5;" width="96" x="615" y="428.5"/><ellipse cx="630" cy="444.5" fill="#ADD1B2" rx="11" ry="11" style="stroke:#A80036;stroke-width:1.0;"/><path d="M632.7656,440.375 Q632.9219,440.1563 633.1094,440.0469 Q633.2969,439.9375 633.5156,439.9375 Q633.8906,439.9375 634.125,440.1953 Q634.3594,440.4531 634.3594,441.0625 L634.3594,442.5156 Q634.3594,443.125 634.125,443.3906 Q633.8906,443.6563 633.5156,443.6563 Q633.1719,443.6563 632.9688,443.4531 Q632.7656,443.2656 632.6563,442.75 Q632.6094,442.3906 632.4219,442.2031 Q632.0938,441.8281 631.4844,441.6094 Q630.875,441.3906 630.25,441.3906 Q629.4844,441.3906 628.8516,441.7188 Q628.2188,442.0469 627.7266,442.7969 Q627.2344,443.5469 627.2344,444.5781 L627.2344,445.6719 Q627.2344,446.9063 628.125,447.7266 Q629.0156,448.5469 630.6094,448.5469 Q631.5469,448.5469 632.2031,448.2969 Q632.5938,448.1406 633.0156,447.7031 Q633.2813,447.4375 633.4297,447.3594 Q633.5781,447.2813 633.7813,447.2813 Q634.1094,447.2813 634.3672,447.5391 Q634.625,447.7969 634.625,448.1406 Q634.625,448.4844 634.2813,448.8906 Q633.7813,449.4688 632.9844,449.7969 Q631.9063,450.25 630.6094,450.25 Q629.0938,450.25 627.8906,449.625 Q626.9063,449.125 626.2188,448.0547 Q625.5313,446.9844 625.5313,445.7031 L625.5313,444.5469 Q625.5313,443.2188 626.1484,442.0703 Q626.7656,440.9219 627.8594,440.3047 Q628.9531,439.6875 630.1875,439.6875 Q630.9219,439.6875 631.5703,439.8516 Q632.2188,440.0156 632.7656,440.375 Z " fill="#000000"/><text fill="#000000" font-family="sans-serif" font-size="12" lengthAdjust="spacing" textLength="64" x="644" y="449.4102">UARTDriver</text><line style="stroke:#A80036;stroke-width:1.5;" x1="616" x2="710" y1="460.5" y2="460.5"/><line style="stroke:#A80036;stroke-width:1.5;" x1="616" x2="710" y1="468.5" y2="468.5"/><rect fill="#F24D5C" height="6" style="stroke:#C82930;stroke-width:1.0;" width="6" x="623" y="476.5"/><text fill="#000000" font-family="sans-serif" font-size="11" lengthAdjust="spacing" textLength="55" x="635" y="483.9189">void open()</text><rect fill="#F24D5C" height="6" style="stroke:#C82930;stroke-width:1.0;" width="6" x="623" y="490.3359"/><text fill="#000000" font-family="sans-serif" font-size="11" lengthAdjust="spacing" textLength="57" x="635" y="497.7549">void close()</text><!--MD5=[20f746540be94bb88eafd071c2d57044]
class WifiDriver--><rect codeLine="55" fill="#FEFECE" filter="url(#f1twnrqkkyx683)" height="75.6719" id="WifiDriver" style="stroke:#A80036;stroke-width:1.5;" width="110" x="470" y="428.5"/><ellipse cx="496.7" cy="444.5" fill="#ADD1B2" rx="11" ry="11" style="stroke:#A80036;stroke-width:1.0;"/><path d="M499.4656,440.375 Q499.6219,440.1563 499.8094,440.0469 Q499.9969,439.9375 500.2156,439.9375 Q500.5906,439.9375 500.825,440.1953 Q501.0594,440.4531 501.0594,441.0625 L501.0594,442.5156 Q501.0594,443.125 500.825,443.3906 Q500.5906,443.6563 500.2156,443.6563 Q499.8719,443.6563 499.6688,443.4531 Q499.4656,443.2656 499.3563,442.75 Q499.3094,442.3906 499.1219,442.2031 Q498.7938,441.8281 498.1844,441.6094 Q497.575,441.3906 496.95,441.3906 Q496.1844,441.3906 495.5516,441.7188 Q494.9188,442.0469 494.4266,442.7969 Q493.9344,443.5469 493.9344,444.5781 L493.9344,445.6719 Q493.9344,446.9063 494.825,447.7266 Q495.7156,448.5469 497.3094,448.5469 Q498.2469,448.5469 498.9031,448.2969 Q499.2938,448.1406 499.7156,447.7031 Q499.9813,447.4375 500.1297,447.3594 Q500.2781,447.2813 500.4813,447.2813 Q500.8094,447.2813 501.0672,447.5391 Q501.325,447.7969 501.325,448.1406 Q501.325,448.4844 500.9813,448.8906 Q500.4813,449.4688 499.6844,449.7969 Q498.6063,450.25 497.3094,450.25 Q495.7938,450.25 494.5906,449.625 Q493.6063,449.125 492.9188,448.0547 Q492.2313,446.9844 492.2313,445.7031 L492.2313,444.5469 Q492.2313,443.2188 492.8484,442.0703 Q493.4656,440.9219 494.5594,440.3047 Q495.6531,439.6875 496.8875,439.6875 Q497.6219,439.6875 498.2703,439.8516 Q498.9188,440.0156 499.4656,440.375 Z " fill="#000000"/><text fill="#000000" font-family="sans-serif" font-size="12" lengthAdjust="spacing" textLength="52" x="513.3" y="449.4102">WifiDriver</text><line style="stroke:#A80036;stroke-width:1.5;" x1="471" x2="579" y1="460.5" y2="460.5"/><line style="stroke:#A80036;stroke-width:1.5;" x1="471" x2="579" y1="468.5" y2="468.5"/><rect fill="#F24D5C" height="6" style="stroke:#C82930;stroke-width:1.0;" width="6" x="478" y="476.5"/><text fill="#000000" font-family="sans-serif" font-size="11" lengthAdjust="spacing" textLength="70" x="490" y="483.9189">void connect()</text><rect fill="#F24D5C" height="6" style="stroke:#C82930;stroke-width:1.0;" width="6" x="478" y="490.3359"/><text fill="#000000" font-family="sans-serif" font-size="11" lengthAdjust="spacing" textLength="84" x="490" y="497.7549">void disconnect()</text><!--MD5=[039f504997ab62c6994f87773ab0eb55]
class BluetoothDriver--><rect codeLine="60" fill="#FEFECE" filter="url(#f1twnrqkkyx683)" height="48" id="BluetoothDriver" style="stroke:#A80036;stroke-width:1.5;" width="116" x="192" y="442.5"/><ellipse cx="207" cy="458.5" fill="#ADD1B2" rx="11" ry="11" style="stroke:#A80036;stroke-width:1.0;"/><path d="M209.7656,454.375 Q209.9219,454.1563 210.1094,454.0469 Q210.2969,453.9375 210.5156,453.9375 Q210.8906,453.9375 211.125,454.1953 Q211.3594,454.4531 211.3594,455.0625 L211.3594,456.5156 Q211.3594,457.125 211.125,457.3906 Q210.8906,457.6563 210.5156,457.6563 Q210.1719,457.6563 209.9688,457.4531 Q209.7656,457.2656 209.6563,456.75 Q209.6094,456.3906 209.4219,456.2031 Q209.0938,455.8281 208.4844,455.6094 Q207.875,455.3906 207.25,455.3906 Q206.4844,455.3906 205.8516,455.7188 Q205.2188,456.0469 204.7266,456.7969 Q204.2344,457.5469 204.2344,458.5781 L204.2344,459.6719 Q204.2344,460.9063 205.125,461.7266 Q206.0156,462.5469 207.6094,462.5469 Q208.5469,462.5469 209.2031,462.2969 Q209.5938,462.1406 210.0156,461.7031 Q210.2813,461.4375 210.4297,461.3594 Q210.5781,461.2813 210.7813,461.2813 Q211.1094,461.2813 211.3672,461.5391 Q211.625,461.7969 211.625,462.1406 Q211.625,462.4844 211.2813,462.8906 Q210.7813,463.4688 209.9844,463.7969 Q208.9063,464.25 207.6094,464.25 Q206.0938,464.25 204.8906,463.625 Q203.9063,463.125 203.2188,462.0547 Q202.5313,460.9844 202.5313,459.7031 L202.5313,458.5469 Q202.5313,457.2188 203.1484,456.0703 Q203.7656,454.9219 204.8594,454.3047 Q205.9531,453.6875 207.1875,453.6875 Q207.9219,453.6875 208.5703,453.8516 Q209.2188,454.0156 209.7656,454.375 Z " fill="#000000"/><text fill="#000000" font-family="sans-serif" font-size="12" lengthAdjust="spacing" textLength="84" x="221" y="463.4102">BluetoothDriver</text><line style="stroke:#A80036;stroke-width:1.5;" x1="193" x2="307" y1="474.5" y2="474.5"/><line style="stroke:#A80036;stroke-width:1.5;" x1="193" x2="307" y1="482.5" y2="482.5"/><!--MD5=[5997f057033d78e5d6421eaeb3513814]
reverse link BluetoothWifiStorage to BluetoothStorage--><path codeLine="64" d="M291.16,204.3 C288.53,224.01 285.36,247.77 283.08,264.93 " fill="none" id="BluetoothWifiStorage-backto-BluetoothStorage" style="stroke:#A80036;stroke-width:1.0;"/><polygon fill="#A80036" points="292.92,191.14,288.1637,196.5601,291.3375,203.0352,296.0938,197.6151,292.92,191.14" style="stroke:#A80036;stroke-width:1.0;"/><!--MD5=[ce06e6d8737bb4748ef2138228aa3772]
reverse link BluetoothWifiStorage to WifiStorage--><path codeLine="65" d="M346.22,197.84 C378.04,216.74 418.95,241.04 450.27,259.65 " fill="none" id="BluetoothWifiStorage-backto-WifiStorage" style="stroke:#A80036;stroke-width:1.0;"/><polygon fill="#A80036" points="334.95,191.14,338.0627,197.6447,345.2643,197.2732,342.1515,190.7685,334.95,191.14" style="stroke:#A80036;stroke-width:1.0;"/><!--MD5=[897d6cce5a0f7e477ef98b189ee42119]
reverse link StoragesContainer to BluetoothWifiStorage--><path codeLine="67" d="M296,96.47 C296,112.53 296,129.51 296,142.68 " fill="none" id="StoragesContainer-backto-BluetoothWifiStorage" style="stroke:#A80036;stroke-width:1.0;"/><polygon fill="#A80036" points="296,83.31,292,89.31,296,95.31,300,89.31,296,83.31" style="stroke:#A80036;stroke-width:1.0;"/><!--MD5=[7de8398d00877e507ad41a6047a3e2b0]
reverse link StoragesContainer to SDCardStorage--><path codeLine="68" d="M247.69,93.05 C233.17,108.32 217.73,125.79 205,143 C177.41,180.32 151.88,227.63 136.62,257.86 " fill="none" id="StoragesContainer-backto-SDCardStorage" style="stroke:#A80036;stroke-width:1.0;"/><polygon fill="#A80036" points="257.06,83.35,250.0141,84.8848,248.7209,91.979,255.7668,90.4442,257.06,83.35" style="stroke:#A80036;stroke-width:1.0;"/><!--MD5=[278eb68ce087738c48779b563fd677ec]
reverse link StoragesContainer to UARTStorage--><path codeLine="69" d="M377.55,48.56 C450.91,55.34 556.48,76.95 619,143 C650.6,176.38 655.21,233.18 655.06,264.88 " fill="none" id="StoragesContainer-backto-UARTStorage" style="stroke:#A80036;stroke-width:1.0;"/><polygon fill="#A80036" points="364.25,47.46,369.9,51.9408,376.2092,48.4489,370.5592,43.9681,364.25,47.46" style="stroke:#A80036;stroke-width:1.0;"/><!--MD5=[14b44e116f090fc668459bf2eb26f69c]
link BluetoothWifiStorage to IStorageIO--><path codeLine="71" d="M319.75,191.17 C334.15,206.7 351.52,228.38 361,251 C381.03,298.77 387.61,357.33 389.41,401.19 " fill="none" id="BluetoothWifiStorage-to-IStorageIO" style="stroke:#A80036;stroke-width:1.0;"/><polygon fill="none" points="396.41,401.25,389.95,421.43,382.42,401.62,396.41,401.25" style="stroke:#A80036;stroke-width:1.0;"/><!--MD5=[4e8d9c7aea432df890306fcd8967540a]
link BluetoothStorage to IStorageIO--><path codeLine="72" d="M285.48,313.31 C296.44,336.51 318.1,373.13 338.99,404.62 " fill="none" id="BluetoothStorage-to-IStorageIO" style="stroke:#A80036;stroke-width:1.0;"/><polygon fill="none" points="344.99,401,350.44,421.48,333.41,408.87,344.99,401" style="stroke:#A80036;stroke-width:1.0;"/><!--MD5=[4e8d9c7aea432df890306fcd8967540a]
link BluetoothStorage to IStorageIO--><path codeLine="76" d="M303.99,313.31 C321.91,336.3 345.51,372.45 363.61,403.75 " fill="none" id="BluetoothStorage-to-IStorageIO-1" style="stroke:#A80036;stroke-width:1.0;"/><polygon fill="none" points="369.87,400.61,373.54,421.48,357.66,407.46,369.87,400.61" style="stroke:#A80036;stroke-width:1.0;"/><!--MD5=[46d2411870dec9150d07e93ab9a25cd6]
link SDCardStorage to IStorageIO--><path codeLine="73" d="M181.67,318.72 C187.53,321.52 193.38,324.32 199,327 C255.36,353.85 276.99,348.34 326,387 C333.06,392.57 339.83,399.07 346.13,405.9 " fill="none" id="SDCardStorage-to-IStorageIO" style="stroke:#A80036;stroke-width:1.0;"/><polygon fill="none" points="351.49,401.4,359.14,421.16,340.84,410.48,351.49,401.4" style="stroke:#A80036;stroke-width:1.0;"/><!--MD5=[e27c2e999f892a98a02425e0c3e688d9]
link WifiStorage to IStorageIO--><path codeLine="74" d="M474.88,327.22 C461.02,349.54 443.05,378.47 427.13,404.1 " fill="none" id="WifiStorage-to-IStorageIO" style="stroke:#A80036;stroke-width:1.0;"/><polygon fill="none" points="433.02,407.9,416.52,421.19,421.12,400.51,433.02,407.9" style="stroke:#A80036;stroke-width:1.0;"/><!--MD5=[ded591c8b5adf0f4343619ad341c6536]
link UARTStorage to IStorageIO--><path codeLine="75" d="M600.19,312.8 C549.31,334.91 477.25,367.85 453,387 C445.9,392.61 439.07,399.13 432.68,405.97 " fill="none" id="UARTStorage-to-IStorageIO" style="stroke:#A80036;stroke-width:1.0;"/><polygon fill="none" points="437.86,410.69,419.49,421.25,427.27,401.53,437.86,410.69" style="stroke:#A80036;stroke-width:1.0;"/><!--MD5=[6d6dcd0951ecaf7074f0d50ba715316a]
reverse link UARTStorage to UARTDriver--><path codeLine="78" d="M655.87,326.46 C657.4,356.28 659.55,398.27 661.09,428.29 " fill="none" id="UARTStorage-backto-UARTDriver" style="stroke:#A80036;stroke-width:1.0;"/><polygon fill="#A80036" points="655.2,313.31,651.5152,319.5085,655.8196,325.294,659.5045,319.0955,655.2,313.31" style="stroke:#A80036;stroke-width:1.0;"/><!--MD5=[24ea1a3a1c99c02c467f2545e0ecae49]
reverse link SDCardStorage to SDCardDriver--><path codeLine="79" d="M112.19,333.06 C108.49,349.27 104.17,368.25 99.96,386.7 " fill="none" id="SDCardStorage-backto-SDCardDriver" style="stroke:#A80036;stroke-width:1.0;"/><polygon fill="#A80036" points="115.12,320.17,109.8823,325.1264,112.4429,331.8676,117.6806,326.9112,115.12,320.17" style="stroke:#A80036;stroke-width:1.0;"/><!--MD5=[2dc7e96a9887d6a9972754472472160a]
reverse link WifiStorage to WifiDriver--><path codeLine="80" d="M505.76,340.42 C510.07,368.46 515.35,402.75 519.28,428.33 " fill="none" id="WifiStorage-backto-WifiDriver" style="stroke:#A80036;stroke-width:1.0;"/><polygon fill="#A80036" points="503.73,327.22,500.6867,333.7574,505.5507,339.0811,508.5941,332.5436,503.73,327.22" style="stroke:#A80036;stroke-width:1.0;"/><!--MD5=[fc17af59c2f07cd5cab324873e3b65f4]
reverse link BluetoothStorage to BluetoothDriver--><path codeLine="81" d="M273.81,326.21 C267.85,361.07 259.02,412.75 253.95,442.38 " fill="none" id="BluetoothStorage-backto-BluetoothDriver" style="stroke:#A80036;stroke-width:1.0;"/><polygon fill="#A80036" points="276.02,313.31,271.0624,318.5467,273.9895,325.137,278.9471,319.9003,276.02,313.31" style="stroke:#A80036;stroke-width:1.0;"/><!--MD5=[490bc86ac7b0803432b8af5cb7ab5df2]
link SDCardDriver to IStorageDriver--><path codeLine="83" d="M157.14,534.17 C162.73,538.33 168.38,542.32 174,546 C217.57,574.57 270.15,600.31 312.16,619.05 " fill="none" id="SDCardDriver-to-IStorageDriver" style="stroke:#A80036;stroke-width:1.0;"/><polygon fill="none" points="315.14,612.71,330.65,627.14,309.52,625.53,315.14,612.71" style="stroke:#A80036;stroke-width:1.0;"/><!--MD5=[99a817c53e8e408b6b3de7666fb8313a]
link UARTDriver to IStorageDriver--><path codeLine="84" d="M637.36,504.8 C626.39,518.92 612.72,534.37 598,546 C557.01,578.38 504.3,604.37 461.82,622.26 " fill="none" id="UARTDriver-to-IStorageDriver" style="stroke:#A80036;stroke-width:1.0;"/><polygon fill="none" points="464.27,628.83,443.1,629.91,458.97,615.87,464.27,628.83" style="stroke:#A80036;stroke-width:1.0;"/><!--MD5=[d3252ec5701628f5a04fc5c47e43bca1]
link BluetoothDriver to IStorageDriver--><path codeLine="85" d="M267.35,490.61 C285.98,515.42 316.32,555.85 341.79,589.78 " fill="none" id="BluetoothDriver-to-IStorageDriver" style="stroke:#A80036;stroke-width:1.0;"/><polygon fill="none" points="347.42,585.62,353.83,605.81,336.22,594.02,347.42,585.62" style="stroke:#A80036;stroke-width:1.0;"/><!--MD5=[f75aa50b865b0718b3b967a088c3ae2e]
link WifiDriver to IStorageDriver--><path codeLine="86" d="M496.74,504.87 C478.3,529.25 453.82,561.63 432.66,589.62 " fill="none" id="WifiDriver-to-IStorageDriver" style="stroke:#A80036;stroke-width:1.0;"/><polygon fill="none" points="437.97,594.2,420.33,605.93,426.81,585.75,437.97,594.2" style="stroke:#A80036;stroke-width:1.0;"/><!--MD5=[cb6616438fd1852ee73ba4b08f2fe996]
@startuml

class StoragesContainer {
    +void init()
    +void configure()
}

class BluetoothWifiStorage {
}

interface IStorageIO {
    +void init()
    +void deinit()
    +void write()
}

interface IStorageDriver {
    +void init()
    +void deinit()
    +void write()
}

class SDCardStorage {
    -fileName
}

class UARTStorage {
}

class WifiStorage {
    -login
    -password
}

note right of BluetoothWifiStorage: ESP32 share same radio HW \nfor WiFi anfd Bloototh.
class BluetoothStorage {
}

class SDCardDriver {
    -void mountFileSystem()
    -void unmountFileSystem()
    -void openFile()
    -void closeFile()
    -void sync()
    -void writeToFile()

    - fileSystemHandler
    - logFileHandler
}

class UARTDriver {
    -void open()
    -void close()
}

class WifiDriver {
    -void connect()
    -void disconnect()
}

class BluetoothDriver {
}


BluetoothWifiStorage *- - BluetoothStorage
BluetoothWifiStorage *- - WifiStorage

StoragesContainer *- - BluetoothWifiStorage
StoragesContainer *- - SDCardStorage
StoragesContainer *- - UARTStorage

BluetoothWifiStorage - -|> IStorageIO
BluetoothStorage - -|> IStorageIO
SDCardStorage - -|> IStorageIO
WifiStorage - -|> IStorageIO
UARTStorage - -|> IStorageIO
BluetoothStorage - -|> IStorageIO

UARTStorage *- - UARTDriver
SDCardStorage *- - SDCardDriver
WifiStorage *- - WifiDriver
BluetoothStorage *- - BluetoothDriver

SDCardDriver - -|> IStorageDriver
UARTDriver - -|> IStorageDriver
BluetoothDriver - -|> IStorageDriver
WifiDriver - -|> IStorageDriver


@enduml

PlantUML version 1.2021.7(Sun May 23 14:40:07 CEST 2021)
(GPL source distribution)
Java Runtime: Java(TM) SE Runtime Environment
JVM: Java HotSpot(TM) 64-Bit Server VM
Default Encoding: Cp1250
Language: pl
Country: PL
--></g></svg>