<?xml version="1.0" encoding="UTF-8" standalone="no"?><svg xmlns="http://www.w3.org/2000/svg" xmlns:xlink="http://www.w3.org/1999/xlink" contentScriptType="application/ecmascript" contentStyleType="text/css" height="694px" preserveAspectRatio="none" style="width:726px;height:694px;background:#FFFFFF;" version="1.1" viewBox="0 0 726 694" width="726px" zoomAndPan="magnify"><defs><filter height="300%" id="fqdtjlscx6miy" width="300%" x="-1" y="-1"><feGaussianBlur result="blurOut" stdDeviation="2.0"/><feColorMatrix in="blurOut" result="blurOut2" type="matrix" values="0 0 0 0 0 0 0 0 0 0 0 0 0 0 0 0 0 0 .4 0"/><feOffset dx="4.0" dy="4.0" in="blurOut2" result="blurOut3"/><feBlend in="SourceGraphic" in2="blurOut3" mode="normal"/></filter></defs><g><!--MD5=[d64883541e3d62e3241c4d12decf100d]
cluster Application--><polygon fill="#FFFFFF" filter="url(#fqdtjlscx6miy)" points="167,6,251,6,258,29.6094,488,29.6094,488,209,167,209,167,6" style="stroke:#000000;stroke-width:1.5;"/><line style="stroke:#000000;stroke-width:1.5;" x1="167" x2="258" y1="29.6094" y2="29.6094"/><text fill="#000000" font-family="sans-serif" font-size="14" font-weight="bold" lengthAdjust="spacing" textLength="78" x="171" y="22.5332">Application</text><!--MD5=[eba421ac8e20ac42f3ee759fe6c4cf96]
cluster Device--><polygon fill="#FFFFFF" filter="url(#fqdtjlscx6miy)" points="60,233,115,233,122,256.6094,447,256.6094,447,455,60,455,60,233" style="stroke:#000000;stroke-width:1.5;"/><line style="stroke:#000000;stroke-width:1.5;" x1="60" x2="122" y1="256.6094" y2="256.6094"/><text fill="#000000" font-family="sans-serif" font-size="14" font-weight="bold" lengthAdjust="spacing" textLength="49" x="64" y="249.5332">Device</text><!--MD5=[61c41a14a0f790ada34cbd71756aea65]
cluster Driver--><polygon fill="#FFFFFF" filter="url(#fqdtjlscx6miy)" points="16,479,66,479,73,502.6094,709,502.6094,709,687,16,687,16,479" style="stroke:#000000;stroke-width:1.5;"/><line style="stroke:#000000;stroke-width:1.5;" x1="16" x2="73" y1="502.6094" y2="502.6094"/><text fill="#000000" font-family="sans-serif" font-size="14" font-weight="bold" lengthAdjust="spacing" textLength="44" x="20" y="495.5332">Driver</text><!--MD5=[42df499ea091e702e8c30a3396030958]
class HMI--><rect codeLine="7" fill="#FEFECE" filter="url(#fqdtjlscx6miy)" height="48" id="HMI" style="stroke:#A80036;stroke-width:1.5;" width="53" x="230.5" y="145"/><ellipse cx="245.5" cy="161" fill="#ADD1B2" rx="11" ry="11" style="stroke:#A80036;stroke-width:1.0;"/><path d="M248.2656,156.875 Q248.4219,156.6563 248.6094,156.5469 Q248.7969,156.4375 249.0156,156.4375 Q249.3906,156.4375 249.625,156.6953 Q249.8594,156.9531 249.8594,157.5625 L249.8594,159.0156 Q249.8594,159.625 249.625,159.8906 Q249.3906,160.1563 249.0156,160.1563 Q248.6719,160.1563 248.4688,159.9531 Q248.2656,159.7656 248.1563,159.25 Q248.1094,158.8906 247.9219,158.7031 Q247.5938,158.3281 246.9844,158.1094 Q246.375,157.8906 245.75,157.8906 Q244.9844,157.8906 244.3516,158.2188 Q243.7188,158.5469 243.2266,159.2969 Q242.7344,160.0469 242.7344,161.0781 L242.7344,162.1719 Q242.7344,163.4063 243.625,164.2266 Q244.5156,165.0469 246.1094,165.0469 Q247.0469,165.0469 247.7031,164.7969 Q248.0938,164.6406 248.5156,164.2031 Q248.7813,163.9375 248.9297,163.8594 Q249.0781,163.7813 249.2813,163.7813 Q249.6094,163.7813 249.8672,164.0391 Q250.125,164.2969 250.125,164.6406 Q250.125,164.9844 249.7813,165.3906 Q249.2813,165.9688 248.4844,166.2969 Q247.4063,166.75 246.1094,166.75 Q244.5938,166.75 243.3906,166.125 Q242.4063,165.625 241.7188,164.5547 Q241.0313,163.4844 241.0313,162.2031 L241.0313,161.0469 Q241.0313,159.7188 241.6484,158.5703 Q242.2656,157.4219 243.3594,156.8047 Q244.4531,156.1875 245.6875,156.1875 Q246.4219,156.1875 247.0703,156.3516 Q247.7188,156.5156 248.2656,156.875 Z " fill="#000000"/><text fill="#000000" font-family="sans-serif" font-size="12" lengthAdjust="spacing" textLength="21" x="259.5" y="165.9102">HMI</text><line style="stroke:#A80036;stroke-width:1.5;" x1="231.5" x2="282.5" y1="177" y2="177"/><line style="stroke:#A80036;stroke-width:1.5;" x1="231.5" x2="282.5" y1="185" y2="185"/><path d="M183,42 L183,84.7031 A0,0 0 0 0 183,84.7031 L243.43,84.7031 L254.32,144.93 L251.43,84.7031 L307,84.7031 A0,0 0 0 0 307,84.7031 L307,52 L297,42 L183,42 A0,0 0 0 0 183,42 " fill="#FBFB77" filter="url(#fqdtjlscx6miy)" style="stroke:#A80036;stroke-width:1.0;"/><path d="M297,42 L297,52 L307,52 L297,42 " fill="#FBFB77" style="stroke:#A80036;stroke-width:1.0;"/><text fill="#000000" font-family="sans-serif" font-size="13" lengthAdjust="spacing" textLength="103" x="189" y="60.4951">1/ Based on MVC</text><text fill="#000000" font-family="sans-serif" font-size="13" lengthAdjust="spacing" textLength="84" x="189" y="76.8467">2/ Details TBD</text><!--MD5=[e765b16ba1ad7f613e9e561680a8660d]
class DataGateway--><rect codeLine="13" fill="#FEFECE" filter="url(#fqdtjlscx6miy)" height="48" id="DataGateway" style="stroke:#A80036;stroke-width:1.5;" width="105" x="342.5" y="145"/><ellipse cx="357.5" cy="161" fill="#ADD1B2" rx="11" ry="11" style="stroke:#A80036;stroke-width:1.0;"/><path d="M360.2656,156.875 Q360.4219,156.6563 360.6094,156.5469 Q360.7969,156.4375 361.0156,156.4375 Q361.3906,156.4375 361.625,156.6953 Q361.8594,156.9531 361.8594,157.5625 L361.8594,159.0156 Q361.8594,159.625 361.625,159.8906 Q361.3906,160.1563 361.0156,160.1563 Q360.6719,160.1563 360.4688,159.9531 Q360.2656,159.7656 360.1563,159.25 Q360.1094,158.8906 359.9219,158.7031 Q359.5938,158.3281 358.9844,158.1094 Q358.375,157.8906 357.75,157.8906 Q356.9844,157.8906 356.3516,158.2188 Q355.7188,158.5469 355.2266,159.2969 Q354.7344,160.0469 354.7344,161.0781 L354.7344,162.1719 Q354.7344,163.4063 355.625,164.2266 Q356.5156,165.0469 358.1094,165.0469 Q359.0469,165.0469 359.7031,164.7969 Q360.0938,164.6406 360.5156,164.2031 Q360.7813,163.9375 360.9297,163.8594 Q361.0781,163.7813 361.2813,163.7813 Q361.6094,163.7813 361.8672,164.0391 Q362.125,164.2969 362.125,164.6406 Q362.125,164.9844 361.7813,165.3906 Q361.2813,165.9688 360.4844,166.2969 Q359.4063,166.75 358.1094,166.75 Q356.5938,166.75 355.3906,166.125 Q354.4063,165.625 353.7188,164.5547 Q353.0313,163.4844 353.0313,162.2031 L353.0313,161.0469 Q353.0313,159.7188 353.6484,158.5703 Q354.2656,157.4219 355.3594,156.8047 Q356.4531,156.1875 357.6875,156.1875 Q358.4219,156.1875 359.0703,156.3516 Q359.7188,156.5156 360.2656,156.875 Z " fill="#000000"/><text fill="#000000" font-family="sans-serif" font-size="12" lengthAdjust="spacing" textLength="73" x="371.5" y="165.9102">DataGateway</text><line style="stroke:#A80036;stroke-width:1.5;" x1="343.5" x2="446.5" y1="177" y2="177"/><line style="stroke:#A80036;stroke-width:1.5;" x1="343.5" x2="446.5" y1="185" y2="185"/><path d="M342.5,42 L342.5,84.7031 A0,0 0 0 0 342.5,84.7031 L400.57,84.7031 L397.68,144.93 L408.57,84.7031 L471.5,84.7031 A0,0 0 0 0 471.5,84.7031 L471.5,52 L461.5,42 L342.5,42 A0,0 0 0 0 342.5,42 " fill="#FBFB77" filter="url(#fqdtjlscx6miy)" style="stroke:#A80036;stroke-width:1.0;"/><path d="M461.5,42 L461.5,52 L471.5,52 L461.5,42 " fill="#FBFB77" style="stroke:#A80036;stroke-width:1.0;"/><text fill="#000000" font-family="sans-serif" font-size="13" lengthAdjust="spacing" textLength="84" x="348.5" y="60.4951">Has access to</text><text fill="#000000" font-family="sans-serif" font-size="13" lengthAdjust="spacing" textLength="108" x="348.5" y="76.8467">measurement data</text><!--MD5=[e64f77ea1aeb54a2385dad69b34aa629]
class DisplayBacklight--><rect codeLine="18" fill="#FEFECE" filter="url(#fqdtjlscx6miy)" height="48" id="DisplayBacklight" style="stroke:#A80036;stroke-width:1.5;" width="123" x="195.5" y="269"/><ellipse cx="210.5" cy="285" fill="#ADD1B2" rx="11" ry="11" style="stroke:#A80036;stroke-width:1.0;"/><path d="M213.2656,280.875 Q213.4219,280.6563 213.6094,280.5469 Q213.7969,280.4375 214.0156,280.4375 Q214.3906,280.4375 214.625,280.6953 Q214.8594,280.9531 214.8594,281.5625 L214.8594,283.0156 Q214.8594,283.625 214.625,283.8906 Q214.3906,284.1563 214.0156,284.1563 Q213.6719,284.1563 213.4688,283.9531 Q213.2656,283.7656 213.1563,283.25 Q213.1094,282.8906 212.9219,282.7031 Q212.5938,282.3281 211.9844,282.1094 Q211.375,281.8906 210.75,281.8906 Q209.9844,281.8906 209.3516,282.2188 Q208.7188,282.5469 208.2266,283.2969 Q207.7344,284.0469 207.7344,285.0781 L207.7344,286.1719 Q207.7344,287.4063 208.625,288.2266 Q209.5156,289.0469 211.1094,289.0469 Q212.0469,289.0469 212.7031,288.7969 Q213.0938,288.6406 213.5156,288.2031 Q213.7813,287.9375 213.9297,287.8594 Q214.0781,287.7813 214.2813,287.7813 Q214.6094,287.7813 214.8672,288.0391 Q215.125,288.2969 215.125,288.6406 Q215.125,288.9844 214.7813,289.3906 Q214.2813,289.9688 213.4844,290.2969 Q212.4063,290.75 211.1094,290.75 Q209.5938,290.75 208.3906,290.125 Q207.4063,289.625 206.7188,288.5547 Q206.0313,287.4844 206.0313,286.2031 L206.0313,285.0469 Q206.0313,283.7188 206.6484,282.5703 Q207.2656,281.4219 208.3594,280.8047 Q209.4531,280.1875 210.6875,280.1875 Q211.4219,280.1875 212.0703,280.3516 Q212.7188,280.5156 213.2656,280.875 Z " fill="#000000"/><text fill="#000000" font-family="sans-serif" font-size="12" lengthAdjust="spacing" textLength="91" x="224.5" y="289.9102">DisplayBacklight</text><line style="stroke:#A80036;stroke-width:1.5;" x1="196.5" x2="317.5" y1="301" y2="301"/><line style="stroke:#A80036;stroke-width:1.5;" x1="196.5" x2="317.5" y1="309" y2="309"/><!--MD5=[55c9be64430a428749f3c8998163cc3b]
class IDisplay--><rect codeLine="19" fill="#FEFECE" filter="url(#fqdtjlscx6miy)" height="48" id="IDisplay" style="stroke:#A80036;stroke-width:1.5;" width="77" x="353.5" y="269"/><ellipse cx="368.5" cy="285" fill="#B4A7E5" rx="11" ry="11" style="stroke:#A80036;stroke-width:1.0;"/><path d="M369.4531,281.6406 L369.4531,288.2969 L371.1719,288.2969 Q371.7813,288.2969 372.0469,288.5313 Q372.3125,288.7656 372.3125,289.1563 Q372.3125,289.5313 372.0469,289.7656 Q371.7813,290 371.1719,290 L366.0313,290 Q365.4219,290 365.1563,289.7656 Q364.8906,289.5313 364.8906,289.1406 Q364.8906,288.7656 365.1563,288.5313 Q365.4219,288.2969 366.0313,288.2969 L367.75,288.2969 L367.75,281.6406 L366.0313,281.6406 Q365.4219,281.6406 365.1563,281.4063 Q364.8906,281.1719 364.8906,280.7813 Q364.8906,280.4063 365.1563,280.1719 Q365.4219,279.9375 366.0313,279.9375 L371.1719,279.9375 Q371.7813,279.9375 372.0469,280.1719 Q372.3125,280.4063 372.3125,280.7813 Q372.3125,281.1719 372.0469,281.4063 Q371.7813,281.6406 371.1719,281.6406 L369.4531,281.6406 Z " fill="#000000"/><text fill="#000000" font-family="sans-serif" font-size="12" font-style="italic" lengthAdjust="spacing" textLength="45" x="382.5" y="289.9102">IDisplay</text><line style="stroke:#A80036;stroke-width:1.5;" x1="354.5" x2="429.5" y1="301" y2="301"/><line style="stroke:#A80036;stroke-width:1.5;" x1="354.5" x2="429.5" y1="309" y2="309"/><!--MD5=[e17bd019cf9874112af63a52ea874b62]
class Keyboard--><rect codeLine="21" fill="#FEFECE" filter="url(#fqdtjlscx6miy)" height="48" id="Keyboard" style="stroke:#A80036;stroke-width:1.5;" width="84" x="76" y="269"/><ellipse cx="91" cy="285" fill="#ADD1B2" rx="11" ry="11" style="stroke:#A80036;stroke-width:1.0;"/><path d="M93.7656,280.875 Q93.9219,280.6563 94.1094,280.5469 Q94.2969,280.4375 94.5156,280.4375 Q94.8906,280.4375 95.125,280.6953 Q95.3594,280.9531 95.3594,281.5625 L95.3594,283.0156 Q95.3594,283.625 95.125,283.8906 Q94.8906,284.1563 94.5156,284.1563 Q94.1719,284.1563 93.9688,283.9531 Q93.7656,283.7656 93.6563,283.25 Q93.6094,282.8906 93.4219,282.7031 Q93.0938,282.3281 92.4844,282.1094 Q91.875,281.8906 91.25,281.8906 Q90.4844,281.8906 89.8516,282.2188 Q89.2188,282.5469 88.7266,283.2969 Q88.2344,284.0469 88.2344,285.0781 L88.2344,286.1719 Q88.2344,287.4063 89.125,288.2266 Q90.0156,289.0469 91.6094,289.0469 Q92.5469,289.0469 93.2031,288.7969 Q93.5938,288.6406 94.0156,288.2031 Q94.2813,287.9375 94.4297,287.8594 Q94.5781,287.7813 94.7813,287.7813 Q95.1094,287.7813 95.3672,288.0391 Q95.625,288.2969 95.625,288.6406 Q95.625,288.9844 95.2813,289.3906 Q94.7813,289.9688 93.9844,290.2969 Q92.9063,290.75 91.6094,290.75 Q90.0938,290.75 88.8906,290.125 Q87.9063,289.625 87.2188,288.5547 Q86.5313,287.4844 86.5313,286.2031 L86.5313,285.0469 Q86.5313,283.7188 87.1484,282.5703 Q87.7656,281.4219 88.8594,280.8047 Q89.9531,280.1875 91.1875,280.1875 Q91.9219,280.1875 92.5703,280.3516 Q93.2188,280.5156 93.7656,280.875 Z " fill="#000000"/><text fill="#000000" font-family="sans-serif" font-size="12" lengthAdjust="spacing" textLength="52" x="105" y="289.9102">Keyboard</text><line style="stroke:#A80036;stroke-width:1.5;" x1="77" x2="159" y1="301" y2="301"/><line style="stroke:#A80036;stroke-width:1.5;" x1="77" x2="159" y1="309" y2="309"/><!--MD5=[62c1de6f042aeb39e35a1b567915856f]
class KeysDebouncer--><rect codeLine="23" fill="#FEFECE" filter="url(#fqdtjlscx6miy)" height="61.8359" id="KeysDebouncer" style="stroke:#A80036;stroke-width:1.5;" width="120" x="76" y="377"/><ellipse cx="91" cy="393" fill="#ADD1B2" rx="11" ry="11" style="stroke:#A80036;stroke-width:1.0;"/><path d="M93.7656,388.875 Q93.9219,388.6563 94.1094,388.5469 Q94.2969,388.4375 94.5156,388.4375 Q94.8906,388.4375 95.125,388.6953 Q95.3594,388.9531 95.3594,389.5625 L95.3594,391.0156 Q95.3594,391.625 95.125,391.8906 Q94.8906,392.1563 94.5156,392.1563 Q94.1719,392.1563 93.9688,391.9531 Q93.7656,391.7656 93.6563,391.25 Q93.6094,390.8906 93.4219,390.7031 Q93.0938,390.3281 92.4844,390.1094 Q91.875,389.8906 91.25,389.8906 Q90.4844,389.8906 89.8516,390.2188 Q89.2188,390.5469 88.7266,391.2969 Q88.2344,392.0469 88.2344,393.0781 L88.2344,394.1719 Q88.2344,395.4063 89.125,396.2266 Q90.0156,397.0469 91.6094,397.0469 Q92.5469,397.0469 93.2031,396.7969 Q93.5938,396.6406 94.0156,396.2031 Q94.2813,395.9375 94.4297,395.8594 Q94.5781,395.7813 94.7813,395.7813 Q95.1094,395.7813 95.3672,396.0391 Q95.625,396.2969 95.625,396.6406 Q95.625,396.9844 95.2813,397.3906 Q94.7813,397.9688 93.9844,398.2969 Q92.9063,398.75 91.6094,398.75 Q90.0938,398.75 88.8906,398.125 Q87.9063,397.625 87.2188,396.5547 Q86.5313,395.4844 86.5313,394.2031 L86.5313,393.0469 Q86.5313,391.7188 87.1484,390.5703 Q87.7656,389.4219 88.8594,388.8047 Q89.9531,388.1875 91.1875,388.1875 Q91.9219,388.1875 92.5703,388.3516 Q93.2188,388.5156 93.7656,388.875 Z " fill="#000000"/><text fill="#000000" font-family="sans-serif" font-size="12" lengthAdjust="spacing" textLength="88" x="105" y="397.9102">KeysDebouncer</text><line style="stroke:#A80036;stroke-width:1.5;" x1="77" x2="195" y1="409" y2="409"/><rect fill="none" height="6" style="stroke:#C82930;stroke-width:1.0;" width="6" x="84" y="417"/><text fill="#000000" font-family="sans-serif" font-size="11" lengthAdjust="spacing" textLength="65" x="96" y="424.4189">uint8_t period</text><line style="stroke:#A80036;stroke-width:1.5;" x1="77" x2="195" y1="430.8359" y2="430.8359"/><!--MD5=[b5667e460708c1034203f8e5b447fd57]
class IAmbientLightSensorDriver--><rect codeLine="29" fill="#FEFECE" filter="url(#fqdtjlscx6miy)" height="48" id="IAmbientLightSensorDriver" style="stroke:#A80036;stroke-width:1.5;" width="182" x="360" y="515"/><ellipse cx="375" cy="531" fill="#B4A7E5" rx="11" ry="11" style="stroke:#A80036;stroke-width:1.0;"/><path d="M375.9531,527.6406 L375.9531,534.2969 L377.6719,534.2969 Q378.2813,534.2969 378.5469,534.5313 Q378.8125,534.7656 378.8125,535.1563 Q378.8125,535.5313 378.5469,535.7656 Q378.2813,536 377.6719,536 L372.5313,536 Q371.9219,536 371.6563,535.7656 Q371.3906,535.5313 371.3906,535.1406 Q371.3906,534.7656 371.6563,534.5313 Q371.9219,534.2969 372.5313,534.2969 L374.25,534.2969 L374.25,527.6406 L372.5313,527.6406 Q371.9219,527.6406 371.6563,527.4063 Q371.3906,527.1719 371.3906,526.7813 Q371.3906,526.4063 371.6563,526.1719 Q371.9219,525.9375 372.5313,525.9375 L377.6719,525.9375 Q378.2813,525.9375 378.5469,526.1719 Q378.8125,526.4063 378.8125,526.7813 Q378.8125,527.1719 378.5469,527.4063 Q378.2813,527.6406 377.6719,527.6406 L375.9531,527.6406 Z " fill="#000000"/><text fill="#000000" font-family="sans-serif" font-size="12" font-style="italic" lengthAdjust="spacing" textLength="150" x="389" y="535.9102">IAmbientLightSensorDriver</text><line style="stroke:#A80036;stroke-width:1.5;" x1="361" x2="541" y1="547" y2="547"/><line style="stroke:#A80036;stroke-width:1.5;" x1="361" x2="541" y1="555" y2="555"/><!--MD5=[945161a5e49aba06ea7de190f3ef3866]
class DummyAmbientLightSensorDriver--><rect codeLine="30" fill="#FEFECE" filter="url(#fqdtjlscx6miy)" height="48" id="DummyAmbientLightSensorDriver" style="stroke:#A80036;stroke-width:1.5;" width="219" x="392.5" y="623"/><ellipse cx="407.5" cy="639" fill="#ADD1B2" rx="11" ry="11" style="stroke:#A80036;stroke-width:1.0;"/><path d="M410.2656,634.875 Q410.4219,634.6563 410.6094,634.5469 Q410.7969,634.4375 411.0156,634.4375 Q411.3906,634.4375 411.625,634.6953 Q411.8594,634.9531 411.8594,635.5625 L411.8594,637.0156 Q411.8594,637.625 411.625,637.8906 Q411.3906,638.1563 411.0156,638.1563 Q410.6719,638.1563 410.4688,637.9531 Q410.2656,637.7656 410.1563,637.25 Q410.1094,636.8906 409.9219,636.7031 Q409.5938,636.3281 408.9844,636.1094 Q408.375,635.8906 407.75,635.8906 Q406.9844,635.8906 406.3516,636.2188 Q405.7188,636.5469 405.2266,637.2969 Q404.7344,638.0469 404.7344,639.0781 L404.7344,640.1719 Q404.7344,641.4063 405.625,642.2266 Q406.5156,643.0469 408.1094,643.0469 Q409.0469,643.0469 409.7031,642.7969 Q410.0938,642.6406 410.5156,642.2031 Q410.7813,641.9375 410.9297,641.8594 Q411.0781,641.7813 411.2813,641.7813 Q411.6094,641.7813 411.8672,642.0391 Q412.125,642.2969 412.125,642.6406 Q412.125,642.9844 411.7813,643.3906 Q411.2813,643.9688 410.4844,644.2969 Q409.4063,644.75 408.1094,644.75 Q406.5938,644.75 405.3906,644.125 Q404.4063,643.625 403.7188,642.5547 Q403.0313,641.4844 403.0313,640.2031 L403.0313,639.0469 Q403.0313,637.7188 403.6484,636.5703 Q404.2656,635.4219 405.3594,634.8047 Q406.4531,634.1875 407.6875,634.1875 Q408.4219,634.1875 409.0703,634.3516 Q409.7188,634.5156 410.2656,634.875 Z " fill="#000000"/><text fill="#000000" font-family="sans-serif" font-size="12" lengthAdjust="spacing" textLength="187" x="421.5" y="643.9102">DummyAmbientLightSensorDriver</text><line style="stroke:#A80036;stroke-width:1.5;" x1="393.5" x2="610.5" y1="655" y2="655"/><line style="stroke:#A80036;stroke-width:1.5;" x1="393.5" x2="610.5" y1="663" y2="663"/><!--MD5=[6ef1b6710edf06d73a6820e758c1633d]
class IDisplayBacklightDriver--><rect codeLine="33" fill="#FEFECE" filter="url(#fqdtjlscx6miy)" height="48" id="IDisplayBacklightDriver" style="stroke:#A80036;stroke-width:1.5;" width="161" x="163.5" y="515"/><ellipse cx="178.5" cy="531" fill="#B4A7E5" rx="11" ry="11" style="stroke:#A80036;stroke-width:1.0;"/><path d="M179.4531,527.6406 L179.4531,534.2969 L181.1719,534.2969 Q181.7813,534.2969 182.0469,534.5313 Q182.3125,534.7656 182.3125,535.1563 Q182.3125,535.5313 182.0469,535.7656 Q181.7813,536 181.1719,536 L176.0313,536 Q175.4219,536 175.1563,535.7656 Q174.8906,535.5313 174.8906,535.1406 Q174.8906,534.7656 175.1563,534.5313 Q175.4219,534.2969 176.0313,534.2969 L177.75,534.2969 L177.75,527.6406 L176.0313,527.6406 Q175.4219,527.6406 175.1563,527.4063 Q174.8906,527.1719 174.8906,526.7813 Q174.8906,526.4063 175.1563,526.1719 Q175.4219,525.9375 176.0313,525.9375 L181.1719,525.9375 Q181.7813,525.9375 182.0469,526.1719 Q182.3125,526.4063 182.3125,526.7813 Q182.3125,527.1719 182.0469,527.4063 Q181.7813,527.6406 181.1719,527.6406 L179.4531,527.6406 Z " fill="#000000"/><text fill="#000000" font-family="sans-serif" font-size="12" font-style="italic" lengthAdjust="spacing" textLength="129" x="192.5" y="535.9102">IDisplayBacklightDriver</text><line style="stroke:#A80036;stroke-width:1.5;" x1="164.5" x2="323.5" y1="547" y2="547"/><line style="stroke:#A80036;stroke-width:1.5;" x1="164.5" x2="323.5" y1="555" y2="555"/><!--MD5=[8286b3be79b041172c33cfe4b035058a]
class ST7735DisplayBacklightDriver--><rect codeLine="34" fill="#FEFECE" filter="url(#fqdtjlscx6miy)" height="48" id="ST7735DisplayBacklightDriver" style="stroke:#A80036;stroke-width:1.5;" width="198" x="159" y="623"/><ellipse cx="174" cy="639" fill="#ADD1B2" rx="11" ry="11" style="stroke:#A80036;stroke-width:1.0;"/><path d="M176.7656,634.875 Q176.9219,634.6563 177.1094,634.5469 Q177.2969,634.4375 177.5156,634.4375 Q177.8906,634.4375 178.125,634.6953 Q178.3594,634.9531 178.3594,635.5625 L178.3594,637.0156 Q178.3594,637.625 178.125,637.8906 Q177.8906,638.1563 177.5156,638.1563 Q177.1719,638.1563 176.9688,637.9531 Q176.7656,637.7656 176.6563,637.25 Q176.6094,636.8906 176.4219,636.7031 Q176.0938,636.3281 175.4844,636.1094 Q174.875,635.8906 174.25,635.8906 Q173.4844,635.8906 172.8516,636.2188 Q172.2188,636.5469 171.7266,637.2969 Q171.2344,638.0469 171.2344,639.0781 L171.2344,640.1719 Q171.2344,641.4063 172.125,642.2266 Q173.0156,643.0469 174.6094,643.0469 Q175.5469,643.0469 176.2031,642.7969 Q176.5938,642.6406 177.0156,642.2031 Q177.2813,641.9375 177.4297,641.8594 Q177.5781,641.7813 177.7813,641.7813 Q178.1094,641.7813 178.3672,642.0391 Q178.625,642.2969 178.625,642.6406 Q178.625,642.9844 178.2813,643.3906 Q177.7813,643.9688 176.9844,644.2969 Q175.9063,644.75 174.6094,644.75 Q173.0938,644.75 171.8906,644.125 Q170.9063,643.625 170.2188,642.5547 Q169.5313,641.4844 169.5313,640.2031 L169.5313,639.0469 Q169.5313,637.7188 170.1484,636.5703 Q170.7656,635.4219 171.8594,634.8047 Q172.9531,634.1875 174.1875,634.1875 Q174.9219,634.1875 175.5703,634.3516 Q176.2188,634.5156 176.7656,634.875 Z " fill="#000000"/><text fill="#000000" font-family="sans-serif" font-size="12" lengthAdjust="spacing" textLength="166" x="188" y="643.9102">ST7735DisplayBacklightDriver</text><line style="stroke:#A80036;stroke-width:1.5;" x1="160" x2="356" y1="655" y2="655"/><line style="stroke:#A80036;stroke-width:1.5;" x1="160" x2="356" y1="663" y2="663"/><!--MD5=[d710e98501da359e60d9db4502cda06d]
class ST7735Display--><rect codeLine="37" fill="#FEFECE" filter="url(#fqdtjlscx6miy)" height="48" id="ST7735Display" style="stroke:#A80036;stroke-width:1.5;" width="116" x="577" y="515"/><ellipse cx="592" cy="531" fill="#ADD1B2" rx="11" ry="11" style="stroke:#A80036;stroke-width:1.0;"/><path d="M594.7656,526.875 Q594.9219,526.6563 595.1094,526.5469 Q595.2969,526.4375 595.5156,526.4375 Q595.8906,526.4375 596.125,526.6953 Q596.3594,526.9531 596.3594,527.5625 L596.3594,529.0156 Q596.3594,529.625 596.125,529.8906 Q595.8906,530.1563 595.5156,530.1563 Q595.1719,530.1563 594.9688,529.9531 Q594.7656,529.7656 594.6563,529.25 Q594.6094,528.8906 594.4219,528.7031 Q594.0938,528.3281 593.4844,528.1094 Q592.875,527.8906 592.25,527.8906 Q591.4844,527.8906 590.8516,528.2188 Q590.2188,528.5469 589.7266,529.2969 Q589.2344,530.0469 589.2344,531.0781 L589.2344,532.1719 Q589.2344,533.4063 590.125,534.2266 Q591.0156,535.0469 592.6094,535.0469 Q593.5469,535.0469 594.2031,534.7969 Q594.5938,534.6406 595.0156,534.2031 Q595.2813,533.9375 595.4297,533.8594 Q595.5781,533.7813 595.7813,533.7813 Q596.1094,533.7813 596.3672,534.0391 Q596.625,534.2969 596.625,534.6406 Q596.625,534.9844 596.2813,535.3906 Q595.7813,535.9688 594.9844,536.2969 Q593.9063,536.75 592.6094,536.75 Q591.0938,536.75 589.8906,536.125 Q588.9063,535.625 588.2188,534.5547 Q587.5313,533.4844 587.5313,532.2031 L587.5313,531.0469 Q587.5313,529.7188 588.1484,528.5703 Q588.7656,527.4219 589.8594,526.8047 Q590.9531,526.1875 592.1875,526.1875 Q592.9219,526.1875 593.5703,526.3516 Q594.2188,526.5156 594.7656,526.875 Z " fill="#000000"/><text fill="#000000" font-family="sans-serif" font-size="12" lengthAdjust="spacing" textLength="84" x="606" y="535.9102">ST7735Display</text><line style="stroke:#A80036;stroke-width:1.5;" x1="578" x2="692" y1="547" y2="547"/><line style="stroke:#A80036;stroke-width:1.5;" x1="578" x2="692" y1="555" y2="555"/><!--MD5=[2786174d8229ea95ca036767f2b51bf1]
class IKeysDriver--><rect codeLine="40" fill="#FEFECE" filter="url(#fqdtjlscx6miy)" height="48" id="IKeysDriver" style="stroke:#A80036;stroke-width:1.5;" width="96" x="32" y="515"/><ellipse cx="47" cy="531" fill="#B4A7E5" rx="11" ry="11" style="stroke:#A80036;stroke-width:1.0;"/><path d="M47.9531,527.6406 L47.9531,534.2969 L49.6719,534.2969 Q50.2813,534.2969 50.5469,534.5313 Q50.8125,534.7656 50.8125,535.1563 Q50.8125,535.5313 50.5469,535.7656 Q50.2813,536 49.6719,536 L44.5313,536 Q43.9219,536 43.6563,535.7656 Q43.3906,535.5313 43.3906,535.1406 Q43.3906,534.7656 43.6563,534.5313 Q43.9219,534.2969 44.5313,534.2969 L46.25,534.2969 L46.25,527.6406 L44.5313,527.6406 Q43.9219,527.6406 43.6563,527.4063 Q43.3906,527.1719 43.3906,526.7813 Q43.3906,526.4063 43.6563,526.1719 Q43.9219,525.9375 44.5313,525.9375 L49.6719,525.9375 Q50.2813,525.9375 50.5469,526.1719 Q50.8125,526.4063 50.8125,526.7813 Q50.8125,527.1719 50.5469,527.4063 Q50.2813,527.6406 49.6719,527.6406 L47.9531,527.6406 Z " fill="#000000"/><text fill="#000000" font-family="sans-serif" font-size="12" font-style="italic" lengthAdjust="spacing" textLength="64" x="61" y="535.9102">IKeysDriver</text><line style="stroke:#A80036;stroke-width:1.5;" x1="33" x2="127" y1="547" y2="547"/><line style="stroke:#A80036;stroke-width:1.5;" x1="33" x2="127" y1="555" y2="555"/><!--MD5=[ffb23dc34c4aef6e56063d551ea970e9]
class KeysDriver--><rect codeLine="42" fill="#FEFECE" filter="url(#fqdtjlscx6miy)" height="48" id="KeysDriver" style="stroke:#A80036;stroke-width:1.5;" width="91" x="32.5" y="623"/><ellipse cx="47.5" cy="639" fill="#ADD1B2" rx="11" ry="11" style="stroke:#A80036;stroke-width:1.0;"/><path d="M50.2656,634.875 Q50.4219,634.6563 50.6094,634.5469 Q50.7969,634.4375 51.0156,634.4375 Q51.3906,634.4375 51.625,634.6953 Q51.8594,634.9531 51.8594,635.5625 L51.8594,637.0156 Q51.8594,637.625 51.625,637.8906 Q51.3906,638.1563 51.0156,638.1563 Q50.6719,638.1563 50.4688,637.9531 Q50.2656,637.7656 50.1563,637.25 Q50.1094,636.8906 49.9219,636.7031 Q49.5938,636.3281 48.9844,636.1094 Q48.375,635.8906 47.75,635.8906 Q46.9844,635.8906 46.3516,636.2188 Q45.7188,636.5469 45.2266,637.2969 Q44.7344,638.0469 44.7344,639.0781 L44.7344,640.1719 Q44.7344,641.4063 45.625,642.2266 Q46.5156,643.0469 48.1094,643.0469 Q49.0469,643.0469 49.7031,642.7969 Q50.0938,642.6406 50.5156,642.2031 Q50.7813,641.9375 50.9297,641.8594 Q51.0781,641.7813 51.2813,641.7813 Q51.6094,641.7813 51.8672,642.0391 Q52.125,642.2969 52.125,642.6406 Q52.125,642.9844 51.7813,643.3906 Q51.2813,643.9688 50.4844,644.2969 Q49.4063,644.75 48.1094,644.75 Q46.5938,644.75 45.3906,644.125 Q44.4063,643.625 43.7188,642.5547 Q43.0313,641.4844 43.0313,640.2031 L43.0313,639.0469 Q43.0313,637.7188 43.6484,636.5703 Q44.2656,635.4219 45.3594,634.8047 Q46.4531,634.1875 47.6875,634.1875 Q48.4219,634.1875 49.0703,634.3516 Q49.7188,634.5156 50.2656,634.875 Z " fill="#000000"/><text fill="#000000" font-family="sans-serif" font-size="12" lengthAdjust="spacing" textLength="59" x="61.5" y="643.9102">KeysDriver</text><line style="stroke:#A80036;stroke-width:1.5;" x1="33.5" x2="122.5" y1="655" y2="655"/><line style="stroke:#A80036;stroke-width:1.5;" x1="33.5" x2="122.5" y1="663" y2="663"/><!--MD5=[3f9362ab9cc9820f8b8f5b69d8c7c411]
reverse link IAmbientLightSensorDriver to DummyAmbientLightSensorDriver--><path codeLine="31" d="M470.77,581.09 C477.56,595.2 484.91,610.48 490.78,622.68 " fill="none" id="IAmbientLightSensorDriver-backto-DummyAmbientLightSensorDriver" style="stroke:#A80036;stroke-width:1.0;"/><polygon fill="none" points="464.43,584.06,462.07,563,477.05,577.99,464.43,584.06" style="stroke:#A80036;stroke-width:1.0;"/><!--MD5=[763806cff3243d0ba68e58caed4188f7]
reverse link IDisplayBacklightDriver to ST7735DisplayBacklightDriver--><path codeLine="35" d="M249.68,583.02 C251.47,596.58 253.38,611.04 254.92,622.68 " fill="none" id="IDisplayBacklightDriver-backto-ST7735DisplayBacklightDriver" style="stroke:#A80036;stroke-width:1.0;"/><polygon fill="none" points="242.72,583.74,247.04,563,256.6,581.91,242.72,583.74" style="stroke:#A80036;stroke-width:1.0;"/><!--MD5=[69465e5f6d590dd71bc041c2e60c39b1]
reverse link IDisplay to ST7735Display--><path codeLine="38" d="M429.45,331.6 C480.29,382.65 569.64,472.37 611.77,514.68 " fill="none" id="IDisplay-backto-ST7735Display" style="stroke:#A80036;stroke-width:1.0;"/><polygon fill="none" points="424.45,336.51,415.3,317.4,434.37,326.63,424.45,336.51" style="stroke:#A80036;stroke-width:1.0;"/><!--MD5=[07a53e51325b451acf9adaa680b208c8]
reverse link IKeysDriver to KeysDriver--><path codeLine="41" d="M79.19,583.02 C78.93,596.58 78.66,611.04 78.44,622.68 " fill="none" id="IKeysDriver-backto-KeysDriver" style="stroke:#A80036;stroke-width:1.0;"/><polygon fill="none" points="72.19,582.86,79.57,563,86.19,583.13,72.19,582.86" style="stroke:#A80036;stroke-width:1.0;"/><!--MD5=[26769fde7408fc8a179f939a4ec1a72d]
reverse link DisplayBacklight to IAmbientLightSensorDriver--><path codeLine="50" d="M283.82,327.73 C323.78,377.99 397.95,471.28 432.45,514.68 " fill="none" id="DisplayBacklight-backto-IAmbientLightSensorDriver" style="stroke:#A80036;stroke-width:1.0;"/><polygon fill="#A80036" points="275.6,317.4,276.2025,324.5859,283.0673,326.7935,282.4649,319.6077,275.6,317.4" style="stroke:#A80036;stroke-width:1.0;"/><!--MD5=[20bf21c47a4e9029965fd474cc0d1e38]
reverse link DisplayBacklight to IDisplayBacklightDriver--><path codeLine="51" d="M267.02,329.8 C275.19,364.2 284.03,417.52 275,463 C271.41,481.1 263.37,500.32 256.38,514.77 " fill="none" id="DisplayBacklight-backto-IDisplayBacklightDriver" style="stroke:#A80036;stroke-width:1.0;"/><polygon fill="#A80036" points="263.84,317.16,261.4255,323.9549,266.7691,328.797,269.1835,322.0022,263.84,317.16" style="stroke:#A80036;stroke-width:1.0;"/><!--MD5=[d85f4c656e10266bc18eba1070d31b62]
reverse link Keyboard to IKeysDriver--><path codeLine="53" d="M169.51,325.19 C187,338.72 204.51,356.26 214,377 C229.9,411.76 239.4,434.44 214,463 C203.89,474.37 159.67,464.31 146,471 C125.76,480.9 108.16,499.6 96.24,514.73 " fill="none" id="Keyboard-backto-IKeysDriver" style="stroke:#A80036;stroke-width:1.0;"/><polygon fill="#A80036" points="158.69,317.28,161.175,324.0494,168.3794,324.3592,165.8944,317.5898,158.69,317.28" style="stroke:#A80036;stroke-width:1.0;"/><!--MD5=[81973729bed38e91df6c1235cf1ee0a8]
reverse link Keyboard to KeysDebouncer--><path codeLine="54" d="M123.75,330.13 C126.14,345.1 128.88,362.28 131.16,376.6 " fill="none" id="Keyboard-backto-KeysDebouncer" style="stroke:#A80036;stroke-width:1.0;"/><polygon fill="#A80036" points="121.69,317.14,118.6833,323.6944,123.5771,328.9907,126.5838,322.4363,121.69,317.14" style="stroke:#A80036;stroke-width:1.0;"/><!--MD5=[c55d211c661b8f343a0039de00213574]
reverse link HMI to IDisplay--><path codeLine="56" d="M294.42,195.73 C313.86,209.16 334.01,223.18 336,225 C350.54,238.31 364.75,255.38 375.22,268.96 " fill="none" id="HMI-backto-IDisplay" style="stroke:#A80036;stroke-width:1.0;"/><polygon fill="#A80036" points="283.5,188.2,286.1656,194.9003,293.3758,195.0168,290.7102,188.3165,283.5,188.2" style="stroke:#A80036;stroke-width:1.0;"/><!--MD5=[9545b1cb074f83dedf95179b7e1327d1]
reverse link HMI to DisplayBacklight--><path codeLine="57" d="M257,206.42 C257,226.66 257,251.24 257,268.85 " fill="none" id="HMI-backto-DisplayBacklight" style="stroke:#A80036;stroke-width:1.0;"/><polygon fill="#A80036" points="257,193.23,253,199.23,257,205.23,261,199.23,257,193.23" style="stroke:#A80036;stroke-width:1.0;"/><!--MD5=[02499d96d2d80e2ba9601da9537eec7c]
reverse link HMI to Keyboard--><path codeLine="58" d="M219.32,193.62 C205.77,202.77 190.71,213.75 178,225 C162.91,238.35 147.8,255.26 136.51,268.75 " fill="none" id="HMI-backto-Keyboard" style="stroke:#A80036;stroke-width:1.0;"/><polygon fill="#A80036" points="230.25,186.39,223.039,186.3526,220.2311,192.9946,227.4421,193.0319,230.25,186.39" style="stroke:#A80036;stroke-width:1.0;"/><!--MD5=[cefbf96b1057f27000417214dd2b4d63]
link HMI to DataGateway--><path codeLine="59" d="M283.68,169 C303.25,169 322.82,169 342.39,169 " fill="none" id="HMI-DataGateway" style="stroke:#A80036;stroke-width:1.0;"/><!--MD5=[05452943c6ea34bf20e43d0b3a1d72f6]
@startuml

package Application {
    note top of HMI
    1/ Based on MVC
    2/ Details TBD
    end note
    class HMI

    note top of DataGateway
    Has access to 
    measurement data
    end note
    class DataGateway

}

package Device {
    class DisplayBacklight
    Interface IDisplay

    class Keyboard

    class KeysDebouncer {
        -uint8_t period
    }
}

package Driver {
    interface IAmbientLightSensorDriver
    class DummyAmbientLightSensorDriver
    IAmbientLightSensorDriver <|- - DummyAmbientLightSensorDriver

    interface IDisplayBacklightDriver
    class ST7735DisplayBacklightDriver
    IDisplayBacklightDriver <|- - ST7735DisplayBacklightDriver

    class ST7735Display
    IDisplay <|- - ST7735Display

    interface IKeysDriver
    IKeysDriver <|- - KeysDriver
    class KeysDriver
}






DisplayBacklight *- - IAmbientLightSensorDriver
DisplayBacklight *- - IDisplayBacklightDriver

Keyboard *- - - IKeysDriver
Keyboard *- - KeysDebouncer

HMI *- - IDisplay
HMI *- - DisplayBacklight
HMI *- - Keyboard
HMI - DataGateway

@enduml

PlantUML version 1.2021.7(Sun May 23 14:40:07 CEST 2021)
(GPL source distribution)
Java Runtime: Java(TM) SE Runtime Environment
JVM: Java HotSpot(TM) 64-Bit Server VM
Default Encoding: Cp1250
Language: fr
Country: FR
--></g></svg>