<?xml version="1.0" encoding="UTF-8" standalone="no"?><svg xmlns="http://www.w3.org/2000/svg" xmlns:xlink="http://www.w3.org/1999/xlink" contentScriptType="application/ecmascript" contentStyleType="text/css" height="694px" preserveAspectRatio="none" style="width:780px;height:694px;background:#FFFFFF;" version="1.1" viewBox="0 0 780 694" width="780px" zoomAndPan="magnify"><defs><filter height="300%" id="f12a5ybobl97xp" width="300%" x="-1" y="-1"><feGaussianBlur result="blurOut" stdDeviation="2.0"/><feColorMatrix in="blurOut" result="blurOut2" type="matrix" values="0 0 0 0 0 0 0 0 0 0 0 0 0 0 0 0 0 0 .4 0"/><feOffset dx="4.0" dy="4.0" in="blurOut2" result="blurOut3"/><feBlend in="SourceGraphic" in2="blurOut3" mode="normal"/></filter></defs><g><!--MD5=[4bc8eeeccf9386de727fe25afb3a433e]
cluster BusinessLogic--><polygon fill="#FFFFFF" filter="url(#f12a5ybobl97xp)" points="179,6,288,6,295,29.6094,500,29.6094,500,209,179,209,179,6" style="stroke:#000000;stroke-width:1.5;"/><line style="stroke:#000000;stroke-width:1.5;" x1="179" x2="295" y1="29.6094" y2="29.6094"/><text fill="#000000" font-family="sans-serif" font-size="14" font-weight="bold" lengthAdjust="spacing" textLength="103" x="183" y="22.5332">BusinessLogic</text><!--MD5=[eba421ac8e20ac42f3ee759fe6c4cf96]
cluster Device--><polygon fill="#FFFFFF" filter="url(#f12a5ybobl97xp)" points="72,233,127,233,134,256.6094,459,256.6094,459,455,72,455,72,233" style="stroke:#000000;stroke-width:1.5;"/><line style="stroke:#000000;stroke-width:1.5;" x1="72" x2="134" y1="256.6094" y2="256.6094"/><text fill="#000000" font-family="sans-serif" font-size="14" font-weight="bold" lengthAdjust="spacing" textLength="49" x="76" y="249.5332">Device</text><!--MD5=[61c41a14a0f790ada34cbd71756aea65]
cluster Driver--><polygon fill="#FFFFFF" filter="url(#f12a5ybobl97xp)" points="16,479,66,479,73,502.6094,763,502.6094,763,687,16,687,16,479" style="stroke:#000000;stroke-width:1.5;"/><line style="stroke:#000000;stroke-width:1.5;" x1="16" x2="73" y1="502.6094" y2="502.6094"/><text fill="#000000" font-family="sans-serif" font-size="14" font-weight="bold" lengthAdjust="spacing" textLength="44" x="20" y="495.5332">Driver</text><!--MD5=[42df499ea091e702e8c30a3396030958]
class HMI--><rect codeLine="7" fill="#FEFECE" filter="url(#f12a5ybobl97xp)" height="48" id="HMI" style="stroke:#A80036;stroke-width:1.5;" width="53" x="242.5" y="145"/><ellipse cx="257.5" cy="161" fill="#ADD1B2" rx="11" ry="11" style="stroke:#A80036;stroke-width:1.0;"/><path d="M260.2656,156.875 Q260.4219,156.6563 260.6094,156.5469 Q260.7969,156.4375 261.0156,156.4375 Q261.3906,156.4375 261.625,156.6953 Q261.8594,156.9531 261.8594,157.5625 L261.8594,159.0156 Q261.8594,159.625 261.625,159.8906 Q261.3906,160.1563 261.0156,160.1563 Q260.6719,160.1563 260.4688,159.9531 Q260.2656,159.7656 260.1563,159.25 Q260.1094,158.8906 259.9219,158.7031 Q259.5938,158.3281 258.9844,158.1094 Q258.375,157.8906 257.75,157.8906 Q256.9844,157.8906 256.3516,158.2188 Q255.7188,158.5469 255.2266,159.2969 Q254.7344,160.0469 254.7344,161.0781 L254.7344,162.1719 Q254.7344,163.4063 255.625,164.2266 Q256.5156,165.0469 258.1094,165.0469 Q259.0469,165.0469 259.7031,164.7969 Q260.0938,164.6406 260.5156,164.2031 Q260.7813,163.9375 260.9297,163.8594 Q261.0781,163.7813 261.2813,163.7813 Q261.6094,163.7813 261.8672,164.0391 Q262.125,164.2969 262.125,164.6406 Q262.125,164.9844 261.7813,165.3906 Q261.2813,165.9688 260.4844,166.2969 Q259.4063,166.75 258.1094,166.75 Q256.5938,166.75 255.3906,166.125 Q254.4063,165.625 253.7188,164.5547 Q253.0313,163.4844 253.0313,162.2031 L253.0313,161.0469 Q253.0313,159.7188 253.6484,158.5703 Q254.2656,157.4219 255.3594,156.8047 Q256.4531,156.1875 257.6875,156.1875 Q258.4219,156.1875 259.0703,156.3516 Q259.7188,156.5156 260.2656,156.875 Z " fill="#000000"/><text fill="#000000" font-family="sans-serif" font-size="12" lengthAdjust="spacing" textLength="21" x="271.5" y="165.9102">HMI</text><line style="stroke:#A80036;stroke-width:1.5;" x1="243.5" x2="294.5" y1="177" y2="177"/><line style="stroke:#A80036;stroke-width:1.5;" x1="243.5" x2="294.5" y1="185" y2="185"/><path d="M195,42 L195,84.7031 A0,0 0 0 0 195,84.7031 L255.43,84.7031 L266.32,144.93 L263.43,84.7031 L319,84.7031 A0,0 0 0 0 319,84.7031 L319,52 L309,42 L195,42 A0,0 0 0 0 195,42 " fill="#FBFB77" filter="url(#f12a5ybobl97xp)" style="stroke:#A80036;stroke-width:1.0;"/><path d="M309,42 L309,52 L319,52 L309,42 " fill="#FBFB77" style="stroke:#A80036;stroke-width:1.0;"/><text fill="#000000" font-family="sans-serif" font-size="13" lengthAdjust="spacing" textLength="103" x="201" y="60.4951">1/ Based on MVC</text><text fill="#000000" font-family="sans-serif" font-size="13" lengthAdjust="spacing" textLength="84" x="201" y="76.8467">2/ Details TBD</text><!--MD5=[e765b16ba1ad7f613e9e561680a8660d]
class DataGateway--><rect codeLine="13" fill="#FEFECE" filter="url(#f12a5ybobl97xp)" height="48" id="DataGateway" style="stroke:#A80036;stroke-width:1.5;" width="105" x="354.5" y="145"/><ellipse cx="369.5" cy="161" fill="#ADD1B2" rx="11" ry="11" style="stroke:#A80036;stroke-width:1.0;"/><path d="M372.2656,156.875 Q372.4219,156.6563 372.6094,156.5469 Q372.7969,156.4375 373.0156,156.4375 Q373.3906,156.4375 373.625,156.6953 Q373.8594,156.9531 373.8594,157.5625 L373.8594,159.0156 Q373.8594,159.625 373.625,159.8906 Q373.3906,160.1563 373.0156,160.1563 Q372.6719,160.1563 372.4688,159.9531 Q372.2656,159.7656 372.1563,159.25 Q372.1094,158.8906 371.9219,158.7031 Q371.5938,158.3281 370.9844,158.1094 Q370.375,157.8906 369.75,157.8906 Q368.9844,157.8906 368.3516,158.2188 Q367.7188,158.5469 367.2266,159.2969 Q366.7344,160.0469 366.7344,161.0781 L366.7344,162.1719 Q366.7344,163.4063 367.625,164.2266 Q368.5156,165.0469 370.1094,165.0469 Q371.0469,165.0469 371.7031,164.7969 Q372.0938,164.6406 372.5156,164.2031 Q372.7813,163.9375 372.9297,163.8594 Q373.0781,163.7813 373.2813,163.7813 Q373.6094,163.7813 373.8672,164.0391 Q374.125,164.2969 374.125,164.6406 Q374.125,164.9844 373.7813,165.3906 Q373.2813,165.9688 372.4844,166.2969 Q371.4063,166.75 370.1094,166.75 Q368.5938,166.75 367.3906,166.125 Q366.4063,165.625 365.7188,164.5547 Q365.0313,163.4844 365.0313,162.2031 L365.0313,161.0469 Q365.0313,159.7188 365.6484,158.5703 Q366.2656,157.4219 367.3594,156.8047 Q368.4531,156.1875 369.6875,156.1875 Q370.4219,156.1875 371.0703,156.3516 Q371.7188,156.5156 372.2656,156.875 Z " fill="#000000"/><text fill="#000000" font-family="sans-serif" font-size="12" lengthAdjust="spacing" textLength="73" x="383.5" y="165.9102">DataGateway</text><line style="stroke:#A80036;stroke-width:1.5;" x1="355.5" x2="458.5" y1="177" y2="177"/><line style="stroke:#A80036;stroke-width:1.5;" x1="355.5" x2="458.5" y1="185" y2="185"/><path d="M354.5,42 L354.5,84.7031 A0,0 0 0 0 354.5,84.7031 L412.57,84.7031 L409.68,144.93 L420.57,84.7031 L483.5,84.7031 A0,0 0 0 0 483.5,84.7031 L483.5,52 L473.5,42 L354.5,42 A0,0 0 0 0 354.5,42 " fill="#FBFB77" filter="url(#f12a5ybobl97xp)" style="stroke:#A80036;stroke-width:1.0;"/><path d="M473.5,42 L473.5,52 L483.5,52 L473.5,42 " fill="#FBFB77" style="stroke:#A80036;stroke-width:1.0;"/><text fill="#000000" font-family="sans-serif" font-size="13" lengthAdjust="spacing" textLength="84" x="360.5" y="60.4951">Has access to</text><text fill="#000000" font-family="sans-serif" font-size="13" lengthAdjust="spacing" textLength="108" x="360.5" y="76.8467">measurement data</text><!--MD5=[e64f77ea1aeb54a2385dad69b34aa629]
class DisplayBacklight--><rect codeLine="18" fill="#FEFECE" filter="url(#f12a5ybobl97xp)" height="48" id="DisplayBacklight" style="stroke:#A80036;stroke-width:1.5;" width="123" x="207.5" y="269"/><ellipse cx="222.5" cy="285" fill="#ADD1B2" rx="11" ry="11" style="stroke:#A80036;stroke-width:1.0;"/><path d="M225.2656,280.875 Q225.4219,280.6563 225.6094,280.5469 Q225.7969,280.4375 226.0156,280.4375 Q226.3906,280.4375 226.625,280.6953 Q226.8594,280.9531 226.8594,281.5625 L226.8594,283.0156 Q226.8594,283.625 226.625,283.8906 Q226.3906,284.1563 226.0156,284.1563 Q225.6719,284.1563 225.4688,283.9531 Q225.2656,283.7656 225.1563,283.25 Q225.1094,282.8906 224.9219,282.7031 Q224.5938,282.3281 223.9844,282.1094 Q223.375,281.8906 222.75,281.8906 Q221.9844,281.8906 221.3516,282.2188 Q220.7188,282.5469 220.2266,283.2969 Q219.7344,284.0469 219.7344,285.0781 L219.7344,286.1719 Q219.7344,287.4063 220.625,288.2266 Q221.5156,289.0469 223.1094,289.0469 Q224.0469,289.0469 224.7031,288.7969 Q225.0938,288.6406 225.5156,288.2031 Q225.7813,287.9375 225.9297,287.8594 Q226.0781,287.7813 226.2813,287.7813 Q226.6094,287.7813 226.8672,288.0391 Q227.125,288.2969 227.125,288.6406 Q227.125,288.9844 226.7813,289.3906 Q226.2813,289.9688 225.4844,290.2969 Q224.4063,290.75 223.1094,290.75 Q221.5938,290.75 220.3906,290.125 Q219.4063,289.625 218.7188,288.5547 Q218.0313,287.4844 218.0313,286.2031 L218.0313,285.0469 Q218.0313,283.7188 218.6484,282.5703 Q219.2656,281.4219 220.3594,280.8047 Q221.4531,280.1875 222.6875,280.1875 Q223.4219,280.1875 224.0703,280.3516 Q224.7188,280.5156 225.2656,280.875 Z " fill="#000000"/><text fill="#000000" font-family="sans-serif" font-size="12" lengthAdjust="spacing" textLength="91" x="236.5" y="289.9102">DisplayBacklight</text><line style="stroke:#A80036;stroke-width:1.5;" x1="208.5" x2="329.5" y1="301" y2="301"/><line style="stroke:#A80036;stroke-width:1.5;" x1="208.5" x2="329.5" y1="309" y2="309"/><!--MD5=[55c9be64430a428749f3c8998163cc3b]
class IDisplay--><rect codeLine="19" fill="#FEFECE" filter="url(#f12a5ybobl97xp)" height="48" id="IDisplay" style="stroke:#A80036;stroke-width:1.5;" width="77" x="365.5" y="269"/><ellipse cx="380.5" cy="285" fill="#B4A7E5" rx="11" ry="11" style="stroke:#A80036;stroke-width:1.0;"/><path d="M381.4531,281.6406 L381.4531,288.2969 L383.1719,288.2969 Q383.7813,288.2969 384.0469,288.5313 Q384.3125,288.7656 384.3125,289.1563 Q384.3125,289.5313 384.0469,289.7656 Q383.7813,290 383.1719,290 L378.0313,290 Q377.4219,290 377.1563,289.7656 Q376.8906,289.5313 376.8906,289.1406 Q376.8906,288.7656 377.1563,288.5313 Q377.4219,288.2969 378.0313,288.2969 L379.75,288.2969 L379.75,281.6406 L378.0313,281.6406 Q377.4219,281.6406 377.1563,281.4063 Q376.8906,281.1719 376.8906,280.7813 Q376.8906,280.4063 377.1563,280.1719 Q377.4219,279.9375 378.0313,279.9375 L383.1719,279.9375 Q383.7813,279.9375 384.0469,280.1719 Q384.3125,280.4063 384.3125,280.7813 Q384.3125,281.1719 384.0469,281.4063 Q383.7813,281.6406 383.1719,281.6406 L381.4531,281.6406 Z " fill="#000000"/><text fill="#000000" font-family="sans-serif" font-size="12" font-style="italic" lengthAdjust="spacing" textLength="45" x="394.5" y="289.9102">IDisplay</text><line style="stroke:#A80036;stroke-width:1.5;" x1="366.5" x2="441.5" y1="301" y2="301"/><line style="stroke:#A80036;stroke-width:1.5;" x1="366.5" x2="441.5" y1="309" y2="309"/><!--MD5=[e17bd019cf9874112af63a52ea874b62]
class Keyboard--><rect codeLine="21" fill="#FEFECE" filter="url(#f12a5ybobl97xp)" height="48" id="Keyboard" style="stroke:#A80036;stroke-width:1.5;" width="84" x="88" y="269"/><ellipse cx="103" cy="285" fill="#ADD1B2" rx="11" ry="11" style="stroke:#A80036;stroke-width:1.0;"/><path d="M105.7656,280.875 Q105.9219,280.6563 106.1094,280.5469 Q106.2969,280.4375 106.5156,280.4375 Q106.8906,280.4375 107.125,280.6953 Q107.3594,280.9531 107.3594,281.5625 L107.3594,283.0156 Q107.3594,283.625 107.125,283.8906 Q106.8906,284.1563 106.5156,284.1563 Q106.1719,284.1563 105.9688,283.9531 Q105.7656,283.7656 105.6563,283.25 Q105.6094,282.8906 105.4219,282.7031 Q105.0938,282.3281 104.4844,282.1094 Q103.875,281.8906 103.25,281.8906 Q102.4844,281.8906 101.8516,282.2188 Q101.2188,282.5469 100.7266,283.2969 Q100.2344,284.0469 100.2344,285.0781 L100.2344,286.1719 Q100.2344,287.4063 101.125,288.2266 Q102.0156,289.0469 103.6094,289.0469 Q104.5469,289.0469 105.2031,288.7969 Q105.5938,288.6406 106.0156,288.2031 Q106.2813,287.9375 106.4297,287.8594 Q106.5781,287.7813 106.7813,287.7813 Q107.1094,287.7813 107.3672,288.0391 Q107.625,288.2969 107.625,288.6406 Q107.625,288.9844 107.2813,289.3906 Q106.7813,289.9688 105.9844,290.2969 Q104.9063,290.75 103.6094,290.75 Q102.0938,290.75 100.8906,290.125 Q99.9063,289.625 99.2188,288.5547 Q98.5313,287.4844 98.5313,286.2031 L98.5313,285.0469 Q98.5313,283.7188 99.1484,282.5703 Q99.7656,281.4219 100.8594,280.8047 Q101.9531,280.1875 103.1875,280.1875 Q103.9219,280.1875 104.5703,280.3516 Q105.2188,280.5156 105.7656,280.875 Z " fill="#000000"/><text fill="#000000" font-family="sans-serif" font-size="12" lengthAdjust="spacing" textLength="52" x="117" y="289.9102">Keyboard</text><line style="stroke:#A80036;stroke-width:1.5;" x1="89" x2="171" y1="301" y2="301"/><line style="stroke:#A80036;stroke-width:1.5;" x1="89" x2="171" y1="309" y2="309"/><!--MD5=[62c1de6f042aeb39e35a1b567915856f]
class KeysDebouncer--><rect codeLine="23" fill="#FEFECE" filter="url(#f12a5ybobl97xp)" height="61.8359" id="KeysDebouncer" style="stroke:#A80036;stroke-width:1.5;" width="120" x="88" y="377"/><ellipse cx="103" cy="393" fill="#ADD1B2" rx="11" ry="11" style="stroke:#A80036;stroke-width:1.0;"/><path d="M105.7656,388.875 Q105.9219,388.6563 106.1094,388.5469 Q106.2969,388.4375 106.5156,388.4375 Q106.8906,388.4375 107.125,388.6953 Q107.3594,388.9531 107.3594,389.5625 L107.3594,391.0156 Q107.3594,391.625 107.125,391.8906 Q106.8906,392.1563 106.5156,392.1563 Q106.1719,392.1563 105.9688,391.9531 Q105.7656,391.7656 105.6563,391.25 Q105.6094,390.8906 105.4219,390.7031 Q105.0938,390.3281 104.4844,390.1094 Q103.875,389.8906 103.25,389.8906 Q102.4844,389.8906 101.8516,390.2188 Q101.2188,390.5469 100.7266,391.2969 Q100.2344,392.0469 100.2344,393.0781 L100.2344,394.1719 Q100.2344,395.4063 101.125,396.2266 Q102.0156,397.0469 103.6094,397.0469 Q104.5469,397.0469 105.2031,396.7969 Q105.5938,396.6406 106.0156,396.2031 Q106.2813,395.9375 106.4297,395.8594 Q106.5781,395.7813 106.7813,395.7813 Q107.1094,395.7813 107.3672,396.0391 Q107.625,396.2969 107.625,396.6406 Q107.625,396.9844 107.2813,397.3906 Q106.7813,397.9688 105.9844,398.2969 Q104.9063,398.75 103.6094,398.75 Q102.0938,398.75 100.8906,398.125 Q99.9063,397.625 99.2188,396.5547 Q98.5313,395.4844 98.5313,394.2031 L98.5313,393.0469 Q98.5313,391.7188 99.1484,390.5703 Q99.7656,389.4219 100.8594,388.8047 Q101.9531,388.1875 103.1875,388.1875 Q103.9219,388.1875 104.5703,388.3516 Q105.2188,388.5156 105.7656,388.875 Z " fill="#000000"/><text fill="#000000" font-family="sans-serif" font-size="12" lengthAdjust="spacing" textLength="88" x="117" y="397.9102">KeysDebouncer</text><line style="stroke:#A80036;stroke-width:1.5;" x1="89" x2="207" y1="409" y2="409"/><rect fill="none" height="6" style="stroke:#C82930;stroke-width:1.0;" width="6" x="96" y="417"/><text fill="#000000" font-family="sans-serif" font-size="11" lengthAdjust="spacing" textLength="65" x="108" y="424.4189">uint8_t period</text><line style="stroke:#A80036;stroke-width:1.5;" x1="89" x2="207" y1="430.8359" y2="430.8359"/><!--MD5=[b5667e460708c1034203f8e5b447fd57]
class IAmbientLightSensorDriver--><rect codeLine="29" fill="#FEFECE" filter="url(#f12a5ybobl97xp)" height="48" id="IAmbientLightSensorDriver" style="stroke:#A80036;stroke-width:1.5;" width="182" x="414" y="515"/><ellipse cx="429" cy="531" fill="#B4A7E5" rx="11" ry="11" style="stroke:#A80036;stroke-width:1.0;"/><path d="M429.9531,527.6406 L429.9531,534.2969 L431.6719,534.2969 Q432.2813,534.2969 432.5469,534.5313 Q432.8125,534.7656 432.8125,535.1563 Q432.8125,535.5313 432.5469,535.7656 Q432.2813,536 431.6719,536 L426.5313,536 Q425.9219,536 425.6563,535.7656 Q425.3906,535.5313 425.3906,535.1406 Q425.3906,534.7656 425.6563,534.5313 Q425.9219,534.2969 426.5313,534.2969 L428.25,534.2969 L428.25,527.6406 L426.5313,527.6406 Q425.9219,527.6406 425.6563,527.4063 Q425.3906,527.1719 425.3906,526.7813 Q425.3906,526.4063 425.6563,526.1719 Q425.9219,525.9375 426.5313,525.9375 L431.6719,525.9375 Q432.2813,525.9375 432.5469,526.1719 Q432.8125,526.4063 432.8125,526.7813 Q432.8125,527.1719 432.5469,527.4063 Q432.2813,527.6406 431.6719,527.6406 L429.9531,527.6406 Z " fill="#000000"/><text fill="#000000" font-family="sans-serif" font-size="12" font-style="italic" lengthAdjust="spacing" textLength="150" x="443" y="535.9102">IAmbientLightSensorDriver</text><line style="stroke:#A80036;stroke-width:1.5;" x1="415" x2="595" y1="547" y2="547"/><line style="stroke:#A80036;stroke-width:1.5;" x1="415" x2="595" y1="555" y2="555"/><!--MD5=[945161a5e49aba06ea7de190f3ef3866]
class DummyAmbientLightSensorDriver--><rect codeLine="30" fill="#FEFECE" filter="url(#f12a5ybobl97xp)" height="48" id="DummyAmbientLightSensorDriver" style="stroke:#A80036;stroke-width:1.5;" width="219" x="444.5" y="623"/><ellipse cx="459.5" cy="639" fill="#ADD1B2" rx="11" ry="11" style="stroke:#A80036;stroke-width:1.0;"/><path d="M462.2656,634.875 Q462.4219,634.6563 462.6094,634.5469 Q462.7969,634.4375 463.0156,634.4375 Q463.3906,634.4375 463.625,634.6953 Q463.8594,634.9531 463.8594,635.5625 L463.8594,637.0156 Q463.8594,637.625 463.625,637.8906 Q463.3906,638.1563 463.0156,638.1563 Q462.6719,638.1563 462.4688,637.9531 Q462.2656,637.7656 462.1563,637.25 Q462.1094,636.8906 461.9219,636.7031 Q461.5938,636.3281 460.9844,636.1094 Q460.375,635.8906 459.75,635.8906 Q458.9844,635.8906 458.3516,636.2188 Q457.7188,636.5469 457.2266,637.2969 Q456.7344,638.0469 456.7344,639.0781 L456.7344,640.1719 Q456.7344,641.4063 457.625,642.2266 Q458.5156,643.0469 460.1094,643.0469 Q461.0469,643.0469 461.7031,642.7969 Q462.0938,642.6406 462.5156,642.2031 Q462.7813,641.9375 462.9297,641.8594 Q463.0781,641.7813 463.2813,641.7813 Q463.6094,641.7813 463.8672,642.0391 Q464.125,642.2969 464.125,642.6406 Q464.125,642.9844 463.7813,643.3906 Q463.2813,643.9688 462.4844,644.2969 Q461.4063,644.75 460.1094,644.75 Q458.5938,644.75 457.3906,644.125 Q456.4063,643.625 455.7188,642.5547 Q455.0313,641.4844 455.0313,640.2031 L455.0313,639.0469 Q455.0313,637.7188 455.6484,636.5703 Q456.2656,635.4219 457.3594,634.8047 Q458.4531,634.1875 459.6875,634.1875 Q460.4219,634.1875 461.0703,634.3516 Q461.7188,634.5156 462.2656,634.875 Z " fill="#000000"/><text fill="#000000" font-family="sans-serif" font-size="12" lengthAdjust="spacing" textLength="187" x="473.5" y="643.9102">DummyAmbientLightSensorDriver</text><line style="stroke:#A80036;stroke-width:1.5;" x1="445.5" x2="662.5" y1="655" y2="655"/><line style="stroke:#A80036;stroke-width:1.5;" x1="445.5" x2="662.5" y1="663" y2="663"/><!--MD5=[6ef1b6710edf06d73a6820e758c1633d]
class IDisplayBacklightDriver--><rect codeLine="33" fill="#FEFECE" filter="url(#f12a5ybobl97xp)" height="48" id="IDisplayBacklightDriver" style="stroke:#A80036;stroke-width:1.5;" width="161" x="217.5" y="515"/><ellipse cx="232.5" cy="531" fill="#B4A7E5" rx="11" ry="11" style="stroke:#A80036;stroke-width:1.0;"/><path d="M233.4531,527.6406 L233.4531,534.2969 L235.1719,534.2969 Q235.7813,534.2969 236.0469,534.5313 Q236.3125,534.7656 236.3125,535.1563 Q236.3125,535.5313 236.0469,535.7656 Q235.7813,536 235.1719,536 L230.0313,536 Q229.4219,536 229.1563,535.7656 Q228.8906,535.5313 228.8906,535.1406 Q228.8906,534.7656 229.1563,534.5313 Q229.4219,534.2969 230.0313,534.2969 L231.75,534.2969 L231.75,527.6406 L230.0313,527.6406 Q229.4219,527.6406 229.1563,527.4063 Q228.8906,527.1719 228.8906,526.7813 Q228.8906,526.4063 229.1563,526.1719 Q229.4219,525.9375 230.0313,525.9375 L235.1719,525.9375 Q235.7813,525.9375 236.0469,526.1719 Q236.3125,526.4063 236.3125,526.7813 Q236.3125,527.1719 236.0469,527.4063 Q235.7813,527.6406 235.1719,527.6406 L233.4531,527.6406 Z " fill="#000000"/><text fill="#000000" font-family="sans-serif" font-size="12" font-style="italic" lengthAdjust="spacing" textLength="129" x="246.5" y="535.9102">IDisplayBacklightDriver</text><line style="stroke:#A80036;stroke-width:1.5;" x1="218.5" x2="377.5" y1="547" y2="547"/><line style="stroke:#A80036;stroke-width:1.5;" x1="218.5" x2="377.5" y1="555" y2="555"/><!--MD5=[8286b3be79b041172c33cfe4b035058a]
class ST7735DisplayBacklightDriver--><rect codeLine="34" fill="#FEFECE" filter="url(#f12a5ybobl97xp)" height="48" id="ST7735DisplayBacklightDriver" style="stroke:#A80036;stroke-width:1.5;" width="198" x="211" y="623"/><ellipse cx="226" cy="639" fill="#ADD1B2" rx="11" ry="11" style="stroke:#A80036;stroke-width:1.0;"/><path d="M228.7656,634.875 Q228.9219,634.6563 229.1094,634.5469 Q229.2969,634.4375 229.5156,634.4375 Q229.8906,634.4375 230.125,634.6953 Q230.3594,634.9531 230.3594,635.5625 L230.3594,637.0156 Q230.3594,637.625 230.125,637.8906 Q229.8906,638.1563 229.5156,638.1563 Q229.1719,638.1563 228.9688,637.9531 Q228.7656,637.7656 228.6563,637.25 Q228.6094,636.8906 228.4219,636.7031 Q228.0938,636.3281 227.4844,636.1094 Q226.875,635.8906 226.25,635.8906 Q225.4844,635.8906 224.8516,636.2188 Q224.2188,636.5469 223.7266,637.2969 Q223.2344,638.0469 223.2344,639.0781 L223.2344,640.1719 Q223.2344,641.4063 224.125,642.2266 Q225.0156,643.0469 226.6094,643.0469 Q227.5469,643.0469 228.2031,642.7969 Q228.5938,642.6406 229.0156,642.2031 Q229.2813,641.9375 229.4297,641.8594 Q229.5781,641.7813 229.7813,641.7813 Q230.1094,641.7813 230.3672,642.0391 Q230.625,642.2969 230.625,642.6406 Q230.625,642.9844 230.2813,643.3906 Q229.7813,643.9688 228.9844,644.2969 Q227.9063,644.75 226.6094,644.75 Q225.0938,644.75 223.8906,644.125 Q222.9063,643.625 222.2188,642.5547 Q221.5313,641.4844 221.5313,640.2031 L221.5313,639.0469 Q221.5313,637.7188 222.1484,636.5703 Q222.7656,635.4219 223.8594,634.8047 Q224.9531,634.1875 226.1875,634.1875 Q226.9219,634.1875 227.5703,634.3516 Q228.2188,634.5156 228.7656,634.875 Z " fill="#000000"/><text fill="#000000" font-family="sans-serif" font-size="12" lengthAdjust="spacing" textLength="166" x="240" y="643.9102">ST7735DisplayBacklightDriver</text><line style="stroke:#A80036;stroke-width:1.5;" x1="212" x2="408" y1="655" y2="655"/><line style="stroke:#A80036;stroke-width:1.5;" x1="212" x2="408" y1="663" y2="663"/><!--MD5=[d710e98501da359e60d9db4502cda06d]
class ST7735Display--><rect codeLine="37" fill="#FEFECE" filter="url(#f12a5ybobl97xp)" height="48" id="ST7735Display" style="stroke:#A80036;stroke-width:1.5;" width="116" x="631" y="515"/><ellipse cx="646" cy="531" fill="#ADD1B2" rx="11" ry="11" style="stroke:#A80036;stroke-width:1.0;"/><path d="M648.7656,526.875 Q648.9219,526.6563 649.1094,526.5469 Q649.2969,526.4375 649.5156,526.4375 Q649.8906,526.4375 650.125,526.6953 Q650.3594,526.9531 650.3594,527.5625 L650.3594,529.0156 Q650.3594,529.625 650.125,529.8906 Q649.8906,530.1563 649.5156,530.1563 Q649.1719,530.1563 648.9688,529.9531 Q648.7656,529.7656 648.6563,529.25 Q648.6094,528.8906 648.4219,528.7031 Q648.0938,528.3281 647.4844,528.1094 Q646.875,527.8906 646.25,527.8906 Q645.4844,527.8906 644.8516,528.2188 Q644.2188,528.5469 643.7266,529.2969 Q643.2344,530.0469 643.2344,531.0781 L643.2344,532.1719 Q643.2344,533.4063 644.125,534.2266 Q645.0156,535.0469 646.6094,535.0469 Q647.5469,535.0469 648.2031,534.7969 Q648.5938,534.6406 649.0156,534.2031 Q649.2813,533.9375 649.4297,533.8594 Q649.5781,533.7813 649.7813,533.7813 Q650.1094,533.7813 650.3672,534.0391 Q650.625,534.2969 650.625,534.6406 Q650.625,534.9844 650.2813,535.3906 Q649.7813,535.9688 648.9844,536.2969 Q647.9063,536.75 646.6094,536.75 Q645.0938,536.75 643.8906,536.125 Q642.9063,535.625 642.2188,534.5547 Q641.5313,533.4844 641.5313,532.2031 L641.5313,531.0469 Q641.5313,529.7188 642.1484,528.5703 Q642.7656,527.4219 643.8594,526.8047 Q644.9531,526.1875 646.1875,526.1875 Q646.9219,526.1875 647.5703,526.3516 Q648.2188,526.5156 648.7656,526.875 Z " fill="#000000"/><text fill="#000000" font-family="sans-serif" font-size="12" lengthAdjust="spacing" textLength="84" x="660" y="535.9102">ST7735Display</text><line style="stroke:#A80036;stroke-width:1.5;" x1="632" x2="746" y1="547" y2="547"/><line style="stroke:#A80036;stroke-width:1.5;" x1="632" x2="746" y1="555" y2="555"/><!--MD5=[a47261b4826272c7d6f5381becdadfd3]
class IKeyboardKeysDriver--><rect codeLine="40" fill="#FEFECE" filter="url(#f12a5ybobl97xp)" height="48" id="IKeyboardKeysDriver" style="stroke:#A80036;stroke-width:1.5;" width="150" x="32" y="515"/><ellipse cx="47" cy="531" fill="#B4A7E5" rx="11" ry="11" style="stroke:#A80036;stroke-width:1.0;"/><path d="M47.9531,527.6406 L47.9531,534.2969 L49.6719,534.2969 Q50.2813,534.2969 50.5469,534.5313 Q50.8125,534.7656 50.8125,535.1563 Q50.8125,535.5313 50.5469,535.7656 Q50.2813,536 49.6719,536 L44.5313,536 Q43.9219,536 43.6563,535.7656 Q43.3906,535.5313 43.3906,535.1406 Q43.3906,534.7656 43.6563,534.5313 Q43.9219,534.2969 44.5313,534.2969 L46.25,534.2969 L46.25,527.6406 L44.5313,527.6406 Q43.9219,527.6406 43.6563,527.4063 Q43.3906,527.1719 43.3906,526.7813 Q43.3906,526.4063 43.6563,526.1719 Q43.9219,525.9375 44.5313,525.9375 L49.6719,525.9375 Q50.2813,525.9375 50.5469,526.1719 Q50.8125,526.4063 50.8125,526.7813 Q50.8125,527.1719 50.5469,527.4063 Q50.2813,527.6406 49.6719,527.6406 L47.9531,527.6406 Z " fill="#000000"/><text fill="#000000" font-family="sans-serif" font-size="12" font-style="italic" lengthAdjust="spacing" textLength="118" x="61" y="535.9102">IKeyboardKeysDriver</text><line style="stroke:#A80036;stroke-width:1.5;" x1="33" x2="181" y1="547" y2="547"/><line style="stroke:#A80036;stroke-width:1.5;" x1="33" x2="181" y1="555" y2="555"/><!--MD5=[2e6acf0649e1f33521f3d192e6a1d768]
class KeyboardKeysDriver--><rect codeLine="42" fill="#FEFECE" filter="url(#f12a5ybobl97xp)" height="48" id="KeyboardKeysDriver" style="stroke:#A80036;stroke-width:1.5;" width="143" x="32.5" y="623"/><ellipse cx="47.5" cy="639" fill="#ADD1B2" rx="11" ry="11" style="stroke:#A80036;stroke-width:1.0;"/><path d="M50.2656,634.875 Q50.4219,634.6563 50.6094,634.5469 Q50.7969,634.4375 51.0156,634.4375 Q51.3906,634.4375 51.625,634.6953 Q51.8594,634.9531 51.8594,635.5625 L51.8594,637.0156 Q51.8594,637.625 51.625,637.8906 Q51.3906,638.1563 51.0156,638.1563 Q50.6719,638.1563 50.4688,637.9531 Q50.2656,637.7656 50.1563,637.25 Q50.1094,636.8906 49.9219,636.7031 Q49.5938,636.3281 48.9844,636.1094 Q48.375,635.8906 47.75,635.8906 Q46.9844,635.8906 46.3516,636.2188 Q45.7188,636.5469 45.2266,637.2969 Q44.7344,638.0469 44.7344,639.0781 L44.7344,640.1719 Q44.7344,641.4063 45.625,642.2266 Q46.5156,643.0469 48.1094,643.0469 Q49.0469,643.0469 49.7031,642.7969 Q50.0938,642.6406 50.5156,642.2031 Q50.7813,641.9375 50.9297,641.8594 Q51.0781,641.7813 51.2813,641.7813 Q51.6094,641.7813 51.8672,642.0391 Q52.125,642.2969 52.125,642.6406 Q52.125,642.9844 51.7813,643.3906 Q51.2813,643.9688 50.4844,644.2969 Q49.4063,644.75 48.1094,644.75 Q46.5938,644.75 45.3906,644.125 Q44.4063,643.625 43.7188,642.5547 Q43.0313,641.4844 43.0313,640.2031 L43.0313,639.0469 Q43.0313,637.7188 43.6484,636.5703 Q44.2656,635.4219 45.3594,634.8047 Q46.4531,634.1875 47.6875,634.1875 Q48.4219,634.1875 49.0703,634.3516 Q49.7188,634.5156 50.2656,634.875 Z " fill="#000000"/><text fill="#000000" font-family="sans-serif" font-size="12" lengthAdjust="spacing" textLength="111" x="61.5" y="643.9102">KeyboardKeysDriver</text><line style="stroke:#A80036;stroke-width:1.5;" x1="33.5" x2="174.5" y1="655" y2="655"/><line style="stroke:#A80036;stroke-width:1.5;" x1="33.5" x2="174.5" y1="663" y2="663"/><!--MD5=[3f9362ab9cc9820f8b8f5b69d8c7c411]
reverse link IAmbientLightSensorDriver to DummyAmbientLightSensorDriver--><path codeLine="31" d="M524.22,581.57 C530.68,595.54 537.65,610.62 543.22,622.68 " fill="none" id="IAmbientLightSensorDriver-backto-DummyAmbientLightSensorDriver" style="stroke:#A80036;stroke-width:1.0;"/><polygon fill="none" points="517.67,584.09,515.63,563,530.38,578.22,517.67,584.09" style="stroke:#A80036;stroke-width:1.0;"/><!--MD5=[763806cff3243d0ba68e58caed4188f7]
reverse link IDisplayBacklightDriver to ST7735DisplayBacklightDriver--><path codeLine="35" d="M302.87,583.02 C304.41,596.58 306.04,611.04 307.36,622.68 " fill="none" id="IDisplayBacklightDriver-backto-ST7735DisplayBacklightDriver" style="stroke:#A80036;stroke-width:1.0;"/><polygon fill="none" points="295.9,583.66,300.6,563,309.81,582.09,295.9,583.66" style="stroke:#A80036;stroke-width:1.0;"/><!--MD5=[69465e5f6d590dd71bc041c2e60c39b1]
reverse link IDisplay to ST7735Display--><path codeLine="38" d="M447.73,330.23 C490.42,365.76 557.09,421.62 614,471 C630.62,485.42 649.04,501.87 663.48,514.87 " fill="none" id="IDisplay-backto-ST7735Display" style="stroke:#A80036;stroke-width:1.0;"/><polygon fill="none" points="442.98,335.39,432.07,317.22,451.93,324.62,442.98,335.39" style="stroke:#A80036;stroke-width:1.0;"/><!--MD5=[e8593537accaf857841fbb1ba4dd3765]
reverse link IKeyboardKeysDriver to KeyboardKeysDriver--><path codeLine="41" d="M105.78,583.02 C105.4,596.58 104.99,611.04 104.66,622.68 " fill="none" id="IKeyboardKeysDriver-backto-KeyboardKeysDriver" style="stroke:#A80036;stroke-width:1.0;"/><polygon fill="none" points="98.79,582.79,106.35,563,112.78,583.19,98.79,582.79" style="stroke:#A80036;stroke-width:1.0;"/><!--MD5=[26769fde7408fc8a179f939a4ec1a72d]
reverse link DisplayBacklight to IAmbientLightSensorDriver--><path codeLine="50" d="M300.71,326.79 C349.1,376.82 440.2,471.01 482.44,514.68 " fill="none" id="DisplayBacklight-backto-IAmbientLightSensorDriver" style="stroke:#A80036;stroke-width:1.0;"/><polygon fill="#A80036" points="291.63,317.4,292.9231,324.4942,299.9689,326.0292,298.6758,318.935,291.63,317.4" style="stroke:#A80036;stroke-width:1.0;"/><!--MD5=[20bf21c47a4e9029965fd474cc0d1e38]
reverse link DisplayBacklight to IDisplayBacklightDriver--><path codeLine="51" d="M273.35,330.62 C279.4,381.5 290.17,472.1 295.23,514.68 " fill="none" id="DisplayBacklight-backto-IDisplayBacklightDriver" style="stroke:#A80036;stroke-width:1.0;"/><polygon fill="#A80036" points="271.78,317.4,268.5138,323.829,273.192,329.3166,276.4582,322.8876,271.78,317.4" style="stroke:#A80036;stroke-width:1.0;"/><!--MD5=[446b83b983ccef5928cf0f91575224a9]
reverse link Keyboard to IKeyboardKeysDriver--><path codeLine="53" d="M181.51,325.19 C199,338.72 216.51,356.26 226,377 C241.9,411.76 248.71,432.25 226,463 C218.82,472.73 210.83,465.62 200,471 C176.12,482.87 151.76,500.67 133.96,514.94 " fill="none" id="Keyboard-backto-IKeyboardKeysDriver" style="stroke:#A80036;stroke-width:1.0;"/><polygon fill="#A80036" points="170.69,317.28,173.175,324.0494,180.3794,324.3592,177.8944,317.5898,170.69,317.28" style="stroke:#A80036;stroke-width:1.0;"/><!--MD5=[81973729bed38e91df6c1235cf1ee0a8]
reverse link Keyboard to KeysDebouncer--><path codeLine="54" d="M135.75,330.13 C138.14,345.1 140.88,362.28 143.16,376.6 " fill="none" id="Keyboard-backto-KeysDebouncer" style="stroke:#A80036;stroke-width:1.0;"/><polygon fill="#A80036" points="133.69,317.14,130.6833,323.6944,135.5771,328.9907,138.5838,322.4363,133.69,317.14" style="stroke:#A80036;stroke-width:1.0;"/><!--MD5=[c55d211c661b8f343a0039de00213574]
reverse link HMI to IDisplay--><path codeLine="56" d="M306.42,195.73 C325.86,209.16 346.01,223.18 348,225 C362.54,238.31 376.75,255.38 387.22,268.96 " fill="none" id="HMI-backto-IDisplay" style="stroke:#A80036;stroke-width:1.0;"/><polygon fill="#A80036" points="295.5,188.2,298.1656,194.9003,305.3758,195.0168,302.7102,188.3165,295.5,188.2" style="stroke:#A80036;stroke-width:1.0;"/><!--MD5=[9545b1cb074f83dedf95179b7e1327d1]
reverse link HMI to DisplayBacklight--><path codeLine="57" d="M269,206.42 C269,226.66 269,251.24 269,268.85 " fill="none" id="HMI-backto-DisplayBacklight" style="stroke:#A80036;stroke-width:1.0;"/><polygon fill="#A80036" points="269,193.23,265,199.23,269,205.23,273,199.23,269,193.23" style="stroke:#A80036;stroke-width:1.0;"/><!--MD5=[02499d96d2d80e2ba9601da9537eec7c]
reverse link HMI to Keyboard--><path codeLine="58" d="M231.32,193.62 C217.77,202.77 202.71,213.75 190,225 C174.91,238.35 159.8,255.26 148.51,268.75 " fill="none" id="HMI-backto-Keyboard" style="stroke:#A80036;stroke-width:1.0;"/><polygon fill="#A80036" points="242.25,186.39,235.039,186.3526,232.2311,192.9946,239.4421,193.0319,242.25,186.39" style="stroke:#A80036;stroke-width:1.0;"/><!--MD5=[cefbf96b1057f27000417214dd2b4d63]
link HMI to DataGateway--><path codeLine="59" d="M295.68,169 C315.25,169 334.82,169 354.39,169 " fill="none" id="HMI-DataGateway" style="stroke:#A80036;stroke-width:1.0;"/><!--MD5=[80c52215699540a14f761cc7c99a060d]
@startuml

package BusinessLogic {
    note top of HMI
    1/ Based on MVC
    2/ Details TBD
    end note
    class HMI

    note top of DataGateway
    Has access to 
    measurement data
    end note
    class DataGateway

}

package Device {
    class DisplayBacklight
    Interface IDisplay

    class Keyboard

    class KeysDebouncer {
        -uint8_t period
    }
}

package Driver {
    interface IAmbientLightSensorDriver
    class DummyAmbientLightSensorDriver
    IAmbientLightSensorDriver <|- - DummyAmbientLightSensorDriver

    interface IDisplayBacklightDriver
    class ST7735DisplayBacklightDriver
    IDisplayBacklightDriver <|- - ST7735DisplayBacklightDriver

    class ST7735Display
    IDisplay <|- - ST7735Display

    interface IKeyboardKeysDriver
    IKeyboardKeysDriver <|- - KeyboardKeysDriver
    class KeyboardKeysDriver
}






DisplayBacklight *- - IAmbientLightSensorDriver
DisplayBacklight *- - IDisplayBacklightDriver

Keyboard *- - - IKeyboardKeysDriver
Keyboard *- - KeysDebouncer

HMI *- - IDisplay
HMI *- - DisplayBacklight
HMI *- - Keyboard
HMI - DataGateway

@enduml

PlantUML version 1.2021.7(Sun May 23 14:40:07 CEST 2021)
(GPL source distribution)
Java Runtime: Java(TM) SE Runtime Environment
JVM: Java HotSpot(TM) 64-Bit Server VM
Default Encoding: Cp1250
Language: fr
Country: FR
--></g></svg>