<?xml version="1.0" encoding="UTF-8" standalone="no"?><svg xmlns="http://www.w3.org/2000/svg" xmlns:xlink="http://www.w3.org/1999/xlink" contentScriptType="application/ecmascript" contentStyleType="text/css" height="523px" preserveAspectRatio="none" style="width:725px;height:523px;background:#FFFFFF;" version="1.1" viewBox="0 0 725 523" width="725px" zoomAndPan="magnify"><defs><filter height="300%" id="f1hyrcvy120gq2" width="300%" x="-1" y="-1"><feGaussianBlur result="blurOut" stdDeviation="2.0"/><feColorMatrix in="blurOut" result="blurOut2" type="matrix" values="0 0 0 0 0 0 0 0 0 0 0 0 0 0 0 0 0 0 .4 0"/><feOffset dx="4.0" dy="4.0" in="blurOut2" result="blurOut3"/><feBlend in="SourceGraphic" in2="blurOut3" mode="normal"/></filter></defs><g><!--MD5=[292033ffe4750640675b59034298e578]
class Display--><rect codeLine="2" fill="#FEFECE" filter="url(#f1hyrcvy120gq2)" height="48" id="Display" style="stroke:#A80036;stroke-width:1.5;" width="73" x="184.5" y="224"/><ellipse cx="199.5" cy="240" fill="#ADD1B2" rx="11" ry="11" style="stroke:#A80036;stroke-width:1.0;"/><path d="M202.2656,235.875 Q202.4219,235.6563 202.6094,235.5469 Q202.7969,235.4375 203.0156,235.4375 Q203.3906,235.4375 203.625,235.6953 Q203.8594,235.9531 203.8594,236.5625 L203.8594,238.0156 Q203.8594,238.625 203.625,238.8906 Q203.3906,239.1563 203.0156,239.1563 Q202.6719,239.1563 202.4688,238.9531 Q202.2656,238.7656 202.1563,238.25 Q202.1094,237.8906 201.9219,237.7031 Q201.5938,237.3281 200.9844,237.1094 Q200.375,236.8906 199.75,236.8906 Q198.9844,236.8906 198.3516,237.2188 Q197.7188,237.5469 197.2266,238.2969 Q196.7344,239.0469 196.7344,240.0781 L196.7344,241.1719 Q196.7344,242.4063 197.625,243.2266 Q198.5156,244.0469 200.1094,244.0469 Q201.0469,244.0469 201.7031,243.7969 Q202.0938,243.6406 202.5156,243.2031 Q202.7813,242.9375 202.9297,242.8594 Q203.0781,242.7813 203.2813,242.7813 Q203.6094,242.7813 203.8672,243.0391 Q204.125,243.2969 204.125,243.6406 Q204.125,243.9844 203.7813,244.3906 Q203.2813,244.9688 202.4844,245.2969 Q201.4063,245.75 200.1094,245.75 Q198.5938,245.75 197.3906,245.125 Q196.4063,244.625 195.7188,243.5547 Q195.0313,242.4844 195.0313,241.2031 L195.0313,240.0469 Q195.0313,238.7188 195.6484,237.5703 Q196.2656,236.4219 197.3594,235.8047 Q198.4531,235.1875 199.6875,235.1875 Q200.4219,235.1875 201.0703,235.3516 Q201.7188,235.5156 202.2656,235.875 Z " fill="#000000"/><text fill="#000000" font-family="sans-serif" font-size="12" lengthAdjust="spacing" textLength="41" x="213.5" y="244.9102">Display</text><line style="stroke:#A80036;stroke-width:1.5;" x1="185.5" x2="256.5" y1="256" y2="256"/><line style="stroke:#A80036;stroke-width:1.5;" x1="185.5" x2="256.5" y1="264" y2="264"/><!--MD5=[9f7d151142e0f2ea2ff38c506d40935b]
class DisplayConfigurator--><rect codeLine="4" fill="#FEFECE" filter="url(#f1hyrcvy120gq2)" height="61.8359" id="DisplayConfigurator" style="stroke:#A80036;stroke-width:1.5;" width="141" x="292.5" y="217"/><ellipse cx="307.5" cy="233" fill="#ADD1B2" rx="11" ry="11" style="stroke:#A80036;stroke-width:1.0;"/><path d="M310.2656,228.875 Q310.4219,228.6563 310.6094,228.5469 Q310.7969,228.4375 311.0156,228.4375 Q311.3906,228.4375 311.625,228.6953 Q311.8594,228.9531 311.8594,229.5625 L311.8594,231.0156 Q311.8594,231.625 311.625,231.8906 Q311.3906,232.1563 311.0156,232.1563 Q310.6719,232.1563 310.4688,231.9531 Q310.2656,231.7656 310.1563,231.25 Q310.1094,230.8906 309.9219,230.7031 Q309.5938,230.3281 308.9844,230.1094 Q308.375,229.8906 307.75,229.8906 Q306.9844,229.8906 306.3516,230.2188 Q305.7188,230.5469 305.2266,231.2969 Q304.7344,232.0469 304.7344,233.0781 L304.7344,234.1719 Q304.7344,235.4063 305.625,236.2266 Q306.5156,237.0469 308.1094,237.0469 Q309.0469,237.0469 309.7031,236.7969 Q310.0938,236.6406 310.5156,236.2031 Q310.7813,235.9375 310.9297,235.8594 Q311.0781,235.7813 311.2813,235.7813 Q311.6094,235.7813 311.8672,236.0391 Q312.125,236.2969 312.125,236.6406 Q312.125,236.9844 311.7813,237.3906 Q311.2813,237.9688 310.4844,238.2969 Q309.4063,238.75 308.1094,238.75 Q306.5938,238.75 305.3906,238.125 Q304.4063,237.625 303.7188,236.5547 Q303.0313,235.4844 303.0313,234.2031 L303.0313,233.0469 Q303.0313,231.7188 303.6484,230.5703 Q304.2656,229.4219 305.3594,228.8047 Q306.4531,228.1875 307.6875,228.1875 Q308.4219,228.1875 309.0703,228.3516 Q309.7188,228.5156 310.2656,228.875 Z " fill="#000000"/><text fill="#000000" font-family="sans-serif" font-size="12" lengthAdjust="spacing" textLength="109" x="321.5" y="237.9102">DisplayConfigurator</text><line style="stroke:#A80036;stroke-width:1.5;" x1="293.5" x2="432.5" y1="249" y2="249"/><rect fill="none" height="6" style="stroke:#C82930;stroke-width:1.0;" width="6" x="300.5" y="257"/><text fill="#000000" font-family="sans-serif" font-size="11" lengthAdjust="spacing" textLength="86" x="312.5" y="264.4189">uint8_t brightness</text><line style="stroke:#A80036;stroke-width:1.5;" x1="293.5" x2="432.5" y1="270.8359" y2="270.8359"/><!--MD5=[e64f77ea1aeb54a2385dad69b34aa629]
class DisplayBacklight--><rect codeLine="8" fill="#FEFECE" filter="url(#f1hyrcvy120gq2)" height="48" id="DisplayBacklight" style="stroke:#A80036;stroke-width:1.5;" width="123" x="303.5" y="346"/><ellipse cx="318.5" cy="362" fill="#ADD1B2" rx="11" ry="11" style="stroke:#A80036;stroke-width:1.0;"/><path d="M321.2656,357.875 Q321.4219,357.6563 321.6094,357.5469 Q321.7969,357.4375 322.0156,357.4375 Q322.3906,357.4375 322.625,357.6953 Q322.8594,357.9531 322.8594,358.5625 L322.8594,360.0156 Q322.8594,360.625 322.625,360.8906 Q322.3906,361.1563 322.0156,361.1563 Q321.6719,361.1563 321.4688,360.9531 Q321.2656,360.7656 321.1563,360.25 Q321.1094,359.8906 320.9219,359.7031 Q320.5938,359.3281 319.9844,359.1094 Q319.375,358.8906 318.75,358.8906 Q317.9844,358.8906 317.3516,359.2188 Q316.7188,359.5469 316.2266,360.2969 Q315.7344,361.0469 315.7344,362.0781 L315.7344,363.1719 Q315.7344,364.4063 316.625,365.2266 Q317.5156,366.0469 319.1094,366.0469 Q320.0469,366.0469 320.7031,365.7969 Q321.0938,365.6406 321.5156,365.2031 Q321.7813,364.9375 321.9297,364.8594 Q322.0781,364.7813 322.2813,364.7813 Q322.6094,364.7813 322.8672,365.0391 Q323.125,365.2969 323.125,365.6406 Q323.125,365.9844 322.7813,366.3906 Q322.2813,366.9688 321.4844,367.2969 Q320.4063,367.75 319.1094,367.75 Q317.5938,367.75 316.3906,367.125 Q315.4063,366.625 314.7188,365.5547 Q314.0313,364.4844 314.0313,363.2031 L314.0313,362.0469 Q314.0313,360.7188 314.6484,359.5703 Q315.2656,358.4219 316.3594,357.8047 Q317.4531,357.1875 318.6875,357.1875 Q319.4219,357.1875 320.0703,357.3516 Q320.7188,357.5156 321.2656,357.875 Z " fill="#000000"/><text fill="#000000" font-family="sans-serif" font-size="12" lengthAdjust="spacing" textLength="91" x="332.5" y="366.9102">DisplayBacklight</text><line style="stroke:#A80036;stroke-width:1.5;" x1="304.5" x2="425.5" y1="378" y2="378"/><line style="stroke:#A80036;stroke-width:1.5;" x1="304.5" x2="425.5" y1="386" y2="386"/><!--MD5=[3d691e259b830828b42dfa8635e502f0]
class AmbientLightSensorDriver--><rect codeLine="9" fill="#FEFECE" filter="url(#f1hyrcvy120gq2)" height="48" id="AmbientLightSensorDriver" style="stroke:#A80036;stroke-width:1.5;" width="176" x="176" y="461"/><ellipse cx="191" cy="477" fill="#ADD1B2" rx="11" ry="11" style="stroke:#A80036;stroke-width:1.0;"/><path d="M193.7656,472.875 Q193.9219,472.6563 194.1094,472.5469 Q194.2969,472.4375 194.5156,472.4375 Q194.8906,472.4375 195.125,472.6953 Q195.3594,472.9531 195.3594,473.5625 L195.3594,475.0156 Q195.3594,475.625 195.125,475.8906 Q194.8906,476.1563 194.5156,476.1563 Q194.1719,476.1563 193.9688,475.9531 Q193.7656,475.7656 193.6563,475.25 Q193.6094,474.8906 193.4219,474.7031 Q193.0938,474.3281 192.4844,474.1094 Q191.875,473.8906 191.25,473.8906 Q190.4844,473.8906 189.8516,474.2188 Q189.2188,474.5469 188.7266,475.2969 Q188.2344,476.0469 188.2344,477.0781 L188.2344,478.1719 Q188.2344,479.4063 189.125,480.2266 Q190.0156,481.0469 191.6094,481.0469 Q192.5469,481.0469 193.2031,480.7969 Q193.5938,480.6406 194.0156,480.2031 Q194.2813,479.9375 194.4297,479.8594 Q194.5781,479.7813 194.7813,479.7813 Q195.1094,479.7813 195.3672,480.0391 Q195.625,480.2969 195.625,480.6406 Q195.625,480.9844 195.2813,481.3906 Q194.7813,481.9688 193.9844,482.2969 Q192.9063,482.75 191.6094,482.75 Q190.0938,482.75 188.8906,482.125 Q187.9063,481.625 187.2188,480.5547 Q186.5313,479.4844 186.5313,478.2031 L186.5313,477.0469 Q186.5313,475.7188 187.1484,474.5703 Q187.7656,473.4219 188.8594,472.8047 Q189.9531,472.1875 191.1875,472.1875 Q191.9219,472.1875 192.5703,472.3516 Q193.2188,472.5156 193.7656,472.875 Z " fill="#000000"/><text fill="#000000" font-family="sans-serif" font-size="12" lengthAdjust="spacing" textLength="144" x="205" y="481.9102">AmbientLightSensorDriver</text><line style="stroke:#A80036;stroke-width:1.5;" x1="177" x2="351" y1="493" y2="493"/><line style="stroke:#A80036;stroke-width:1.5;" x1="177" x2="351" y1="501" y2="501"/><!--MD5=[ea7b1a2bbc6181a20ad0e6a0fd886c80]
class DisplayBacklightDriver--><rect codeLine="10" fill="#FEFECE" filter="url(#f1hyrcvy120gq2)" height="48" id="DisplayBacklightDriver" style="stroke:#A80036;stroke-width:1.5;" width="155" x="387.5" y="461"/><ellipse cx="402.5" cy="477" fill="#ADD1B2" rx="11" ry="11" style="stroke:#A80036;stroke-width:1.0;"/><path d="M405.2656,472.875 Q405.4219,472.6563 405.6094,472.5469 Q405.7969,472.4375 406.0156,472.4375 Q406.3906,472.4375 406.625,472.6953 Q406.8594,472.9531 406.8594,473.5625 L406.8594,475.0156 Q406.8594,475.625 406.625,475.8906 Q406.3906,476.1563 406.0156,476.1563 Q405.6719,476.1563 405.4688,475.9531 Q405.2656,475.7656 405.1563,475.25 Q405.1094,474.8906 404.9219,474.7031 Q404.5938,474.3281 403.9844,474.1094 Q403.375,473.8906 402.75,473.8906 Q401.9844,473.8906 401.3516,474.2188 Q400.7188,474.5469 400.2266,475.2969 Q399.7344,476.0469 399.7344,477.0781 L399.7344,478.1719 Q399.7344,479.4063 400.625,480.2266 Q401.5156,481.0469 403.1094,481.0469 Q404.0469,481.0469 404.7031,480.7969 Q405.0938,480.6406 405.5156,480.2031 Q405.7813,479.9375 405.9297,479.8594 Q406.0781,479.7813 406.2813,479.7813 Q406.6094,479.7813 406.8672,480.0391 Q407.125,480.2969 407.125,480.6406 Q407.125,480.9844 406.7813,481.3906 Q406.2813,481.9688 405.4844,482.2969 Q404.4063,482.75 403.1094,482.75 Q401.5938,482.75 400.3906,482.125 Q399.4063,481.625 398.7188,480.5547 Q398.0313,479.4844 398.0313,478.2031 L398.0313,477.0469 Q398.0313,475.7188 398.6484,474.5703 Q399.2656,473.4219 400.3594,472.8047 Q401.4531,472.1875 402.6875,472.1875 Q403.4219,472.1875 404.0703,472.3516 Q404.7188,472.5156 405.2656,472.875 Z " fill="#000000"/><text fill="#000000" font-family="sans-serif" font-size="12" lengthAdjust="spacing" textLength="123" x="416.5" y="481.9102">DisplayBacklightDriver</text><line style="stroke:#A80036;stroke-width:1.5;" x1="388.5" x2="541.5" y1="493" y2="493"/><line style="stroke:#A80036;stroke-width:1.5;" x1="388.5" x2="541.5" y1="501" y2="501"/><!--MD5=[a923ef24a681b185dde2ea7a2b2e492b]
class DisplayDriver--><rect codeLine="16" fill="#FEFECE" filter="url(#f1hyrcvy120gq2)" height="48" id="DisplayDriver" style="stroke:#A80036;stroke-width:1.5;" width="105" x="163.5" y="346"/><ellipse cx="178.5" cy="362" fill="#ADD1B2" rx="11" ry="11" style="stroke:#A80036;stroke-width:1.0;"/><path d="M181.2656,357.875 Q181.4219,357.6563 181.6094,357.5469 Q181.7969,357.4375 182.0156,357.4375 Q182.3906,357.4375 182.625,357.6953 Q182.8594,357.9531 182.8594,358.5625 L182.8594,360.0156 Q182.8594,360.625 182.625,360.8906 Q182.3906,361.1563 182.0156,361.1563 Q181.6719,361.1563 181.4688,360.9531 Q181.2656,360.7656 181.1563,360.25 Q181.1094,359.8906 180.9219,359.7031 Q180.5938,359.3281 179.9844,359.1094 Q179.375,358.8906 178.75,358.8906 Q177.9844,358.8906 177.3516,359.2188 Q176.7188,359.5469 176.2266,360.2969 Q175.7344,361.0469 175.7344,362.0781 L175.7344,363.1719 Q175.7344,364.4063 176.625,365.2266 Q177.5156,366.0469 179.1094,366.0469 Q180.0469,366.0469 180.7031,365.7969 Q181.0938,365.6406 181.5156,365.2031 Q181.7813,364.9375 181.9297,364.8594 Q182.0781,364.7813 182.2813,364.7813 Q182.6094,364.7813 182.8672,365.0391 Q183.125,365.2969 183.125,365.6406 Q183.125,365.9844 182.7813,366.3906 Q182.2813,366.9688 181.4844,367.2969 Q180.4063,367.75 179.1094,367.75 Q177.5938,367.75 176.3906,367.125 Q175.4063,366.625 174.7188,365.5547 Q174.0313,364.4844 174.0313,363.2031 L174.0313,362.0469 Q174.0313,360.7188 174.6484,359.5703 Q175.2656,358.4219 176.3594,357.8047 Q177.4531,357.1875 178.6875,357.1875 Q179.4219,357.1875 180.0703,357.3516 Q180.7188,357.5156 181.2656,357.875 Z " fill="#000000"/><text fill="#000000" font-family="sans-serif" font-size="12" lengthAdjust="spacing" textLength="73" x="192.5" y="366.9102">DisplayDriver</text><line style="stroke:#A80036;stroke-width:1.5;" x1="164.5" x2="267.5" y1="378" y2="378"/><line style="stroke:#A80036;stroke-width:1.5;" x1="164.5" x2="267.5" y1="386" y2="386"/><path d="M6,348.5 L6,391.2031 A0,0 0 0 0 6,391.2031 L128,391.2031 A0,0 0 0 0 128,391.2031 L128,374 L163.47,370 L128,366 L128,358.5 L118,348.5 L6,348.5 A0,0 0 0 0 6,348.5 " fill="#FBFB77" filter="url(#f1hyrcvy120gq2)" style="stroke:#A80036;stroke-width:1.0;"/><path d="M118,348.5 L118,358.5 L128,358.5 L118,348.5 " fill="#FBFB77" style="stroke:#A80036;stroke-width:1.0;"/><text fill="#000000" font-family="sans-serif" font-size="13" lengthAdjust="spacing" textLength="97" x="12" y="366.9951">Uses external lib</text><text fill="#000000" font-family="sans-serif" font-size="13" lengthAdjust="spacing" textLength="91" x="12" y="383.3467">for ST7735 LCD</text><!--MD5=[e17bd019cf9874112af63a52ea874b62]
class Keyboard--><rect codeLine="20" fill="#FEFECE" filter="url(#f1hyrcvy120gq2)" height="48" id="Keyboard" style="stroke:#A80036;stroke-width:1.5;" width="84" x="469" y="224"/><ellipse cx="484" cy="240" fill="#ADD1B2" rx="11" ry="11" style="stroke:#A80036;stroke-width:1.0;"/><path d="M486.7656,235.875 Q486.9219,235.6563 487.1094,235.5469 Q487.2969,235.4375 487.5156,235.4375 Q487.8906,235.4375 488.125,235.6953 Q488.3594,235.9531 488.3594,236.5625 L488.3594,238.0156 Q488.3594,238.625 488.125,238.8906 Q487.8906,239.1563 487.5156,239.1563 Q487.1719,239.1563 486.9688,238.9531 Q486.7656,238.7656 486.6563,238.25 Q486.6094,237.8906 486.4219,237.7031 Q486.0938,237.3281 485.4844,237.1094 Q484.875,236.8906 484.25,236.8906 Q483.4844,236.8906 482.8516,237.2188 Q482.2188,237.5469 481.7266,238.2969 Q481.2344,239.0469 481.2344,240.0781 L481.2344,241.1719 Q481.2344,242.4063 482.125,243.2266 Q483.0156,244.0469 484.6094,244.0469 Q485.5469,244.0469 486.2031,243.7969 Q486.5938,243.6406 487.0156,243.2031 Q487.2813,242.9375 487.4297,242.8594 Q487.5781,242.7813 487.7813,242.7813 Q488.1094,242.7813 488.3672,243.0391 Q488.625,243.2969 488.625,243.6406 Q488.625,243.9844 488.2813,244.3906 Q487.7813,244.9688 486.9844,245.2969 Q485.9063,245.75 484.6094,245.75 Q483.0938,245.75 481.8906,245.125 Q480.9063,244.625 480.2188,243.5547 Q479.5313,242.4844 479.5313,241.2031 L479.5313,240.0469 Q479.5313,238.7188 480.1484,237.5703 Q480.7656,236.4219 481.8594,235.8047 Q482.9531,235.1875 484.1875,235.1875 Q484.9219,235.1875 485.5703,235.3516 Q486.2188,235.5156 486.7656,235.875 Z " fill="#000000"/><text fill="#000000" font-family="sans-serif" font-size="12" lengthAdjust="spacing" textLength="52" x="498" y="244.9102">Keyboard</text><line style="stroke:#A80036;stroke-width:1.5;" x1="470" x2="552" y1="256" y2="256"/><line style="stroke:#A80036;stroke-width:1.5;" x1="470" x2="552" y1="264" y2="264"/><!--MD5=[ffb23dc34c4aef6e56063d551ea970e9]
class KeysDriver--><rect codeLine="21" fill="#FEFECE" filter="url(#f1hyrcvy120gq2)" height="48" id="KeysDriver" style="stroke:#A80036;stroke-width:1.5;" width="91" x="464.5" y="346"/><ellipse cx="479.5" cy="362" fill="#ADD1B2" rx="11" ry="11" style="stroke:#A80036;stroke-width:1.0;"/><path d="M482.2656,357.875 Q482.4219,357.6563 482.6094,357.5469 Q482.7969,357.4375 483.0156,357.4375 Q483.3906,357.4375 483.625,357.6953 Q483.8594,357.9531 483.8594,358.5625 L483.8594,360.0156 Q483.8594,360.625 483.625,360.8906 Q483.3906,361.1563 483.0156,361.1563 Q482.6719,361.1563 482.4688,360.9531 Q482.2656,360.7656 482.1563,360.25 Q482.1094,359.8906 481.9219,359.7031 Q481.5938,359.3281 480.9844,359.1094 Q480.375,358.8906 479.75,358.8906 Q478.9844,358.8906 478.3516,359.2188 Q477.7188,359.5469 477.2266,360.2969 Q476.7344,361.0469 476.7344,362.0781 L476.7344,363.1719 Q476.7344,364.4063 477.625,365.2266 Q478.5156,366.0469 480.1094,366.0469 Q481.0469,366.0469 481.7031,365.7969 Q482.0938,365.6406 482.5156,365.2031 Q482.7813,364.9375 482.9297,364.8594 Q483.0781,364.7813 483.2813,364.7813 Q483.6094,364.7813 483.8672,365.0391 Q484.125,365.2969 484.125,365.6406 Q484.125,365.9844 483.7813,366.3906 Q483.2813,366.9688 482.4844,367.2969 Q481.4063,367.75 480.1094,367.75 Q478.5938,367.75 477.3906,367.125 Q476.4063,366.625 475.7188,365.5547 Q475.0313,364.4844 475.0313,363.2031 L475.0313,362.0469 Q475.0313,360.7188 475.6484,359.5703 Q476.2656,358.4219 477.3594,357.8047 Q478.4531,357.1875 479.6875,357.1875 Q480.4219,357.1875 481.0703,357.3516 Q481.7188,357.5156 482.2656,357.875 Z " fill="#000000"/><text fill="#000000" font-family="sans-serif" font-size="12" lengthAdjust="spacing" textLength="59" x="493.5" y="366.9102">KeysDriver</text><line style="stroke:#A80036;stroke-width:1.5;" x1="465.5" x2="554.5" y1="378" y2="378"/><line style="stroke:#A80036;stroke-width:1.5;" x1="465.5" x2="554.5" y1="386" y2="386"/><!--MD5=[62c1de6f042aeb39e35a1b567915856f]
class KeysDebouncer--><rect codeLine="22" fill="#FEFECE" filter="url(#f1hyrcvy120gq2)" height="61.8359" id="KeysDebouncer" style="stroke:#A80036;stroke-width:1.5;" width="120" x="591" y="339"/><ellipse cx="606" cy="355" fill="#ADD1B2" rx="11" ry="11" style="stroke:#A80036;stroke-width:1.0;"/><path d="M608.7656,350.875 Q608.9219,350.6563 609.1094,350.5469 Q609.2969,350.4375 609.5156,350.4375 Q609.8906,350.4375 610.125,350.6953 Q610.3594,350.9531 610.3594,351.5625 L610.3594,353.0156 Q610.3594,353.625 610.125,353.8906 Q609.8906,354.1563 609.5156,354.1563 Q609.1719,354.1563 608.9688,353.9531 Q608.7656,353.7656 608.6563,353.25 Q608.6094,352.8906 608.4219,352.7031 Q608.0938,352.3281 607.4844,352.1094 Q606.875,351.8906 606.25,351.8906 Q605.4844,351.8906 604.8516,352.2188 Q604.2188,352.5469 603.7266,353.2969 Q603.2344,354.0469 603.2344,355.0781 L603.2344,356.1719 Q603.2344,357.4063 604.125,358.2266 Q605.0156,359.0469 606.6094,359.0469 Q607.5469,359.0469 608.2031,358.7969 Q608.5938,358.6406 609.0156,358.2031 Q609.2813,357.9375 609.4297,357.8594 Q609.5781,357.7813 609.7813,357.7813 Q610.1094,357.7813 610.3672,358.0391 Q610.625,358.2969 610.625,358.6406 Q610.625,358.9844 610.2813,359.3906 Q609.7813,359.9688 608.9844,360.2969 Q607.9063,360.75 606.6094,360.75 Q605.0938,360.75 603.8906,360.125 Q602.9063,359.625 602.2188,358.5547 Q601.5313,357.4844 601.5313,356.2031 L601.5313,355.0469 Q601.5313,353.7188 602.1484,352.5703 Q602.7656,351.4219 603.8594,350.8047 Q604.9531,350.1875 606.1875,350.1875 Q606.9219,350.1875 607.5703,350.3516 Q608.2188,350.5156 608.7656,350.875 Z " fill="#000000"/><text fill="#000000" font-family="sans-serif" font-size="12" lengthAdjust="spacing" textLength="88" x="620" y="359.9102">KeysDebouncer</text><line style="stroke:#A80036;stroke-width:1.5;" x1="592" x2="710" y1="371" y2="371"/><rect fill="none" height="6" style="stroke:#C82930;stroke-width:1.0;" width="6" x="599" y="379"/><text fill="#000000" font-family="sans-serif" font-size="11" lengthAdjust="spacing" textLength="65" x="611" y="386.4189">uint8_t period</text><line style="stroke:#A80036;stroke-width:1.5;" x1="592" x2="710" y1="392.8359" y2="392.8359"/><!--MD5=[5cc3309cb56ec8619001912fde98fc5f]
class HMILayout--><rect codeLine="30" fill="#FEFECE" filter="url(#f1hyrcvy120gq2)" height="48" id="HMILayout" style="stroke:#A80036;stroke-width:1.5;" width="89" x="318.5" y="109"/><ellipse cx="333.5" cy="125" fill="#ADD1B2" rx="11" ry="11" style="stroke:#A80036;stroke-width:1.0;"/><path d="M336.2656,120.875 Q336.4219,120.6563 336.6094,120.5469 Q336.7969,120.4375 337.0156,120.4375 Q337.3906,120.4375 337.625,120.6953 Q337.8594,120.9531 337.8594,121.5625 L337.8594,123.0156 Q337.8594,123.625 337.625,123.8906 Q337.3906,124.1563 337.0156,124.1563 Q336.6719,124.1563 336.4688,123.9531 Q336.2656,123.7656 336.1563,123.25 Q336.1094,122.8906 335.9219,122.7031 Q335.5938,122.3281 334.9844,122.1094 Q334.375,121.8906 333.75,121.8906 Q332.9844,121.8906 332.3516,122.2188 Q331.7188,122.5469 331.2266,123.2969 Q330.7344,124.0469 330.7344,125.0781 L330.7344,126.1719 Q330.7344,127.4063 331.625,128.2266 Q332.5156,129.0469 334.1094,129.0469 Q335.0469,129.0469 335.7031,128.7969 Q336.0938,128.6406 336.5156,128.2031 Q336.7813,127.9375 336.9297,127.8594 Q337.0781,127.7813 337.2813,127.7813 Q337.6094,127.7813 337.8672,128.0391 Q338.125,128.2969 338.125,128.6406 Q338.125,128.9844 337.7813,129.3906 Q337.2813,129.9688 336.4844,130.2969 Q335.4063,130.75 334.1094,130.75 Q332.5938,130.75 331.3906,130.125 Q330.4063,129.625 329.7188,128.5547 Q329.0313,127.4844 329.0313,126.2031 L329.0313,125.0469 Q329.0313,123.7188 329.6484,122.5703 Q330.2656,121.4219 331.3594,120.8047 Q332.4531,120.1875 333.6875,120.1875 Q334.4219,120.1875 335.0703,120.3516 Q335.7188,120.5156 336.2656,120.875 Z " fill="#000000"/><text fill="#000000" font-family="sans-serif" font-size="12" lengthAdjust="spacing" textLength="57" x="347.5" y="129.9102">HMILayout</text><line style="stroke:#A80036;stroke-width:1.5;" x1="319.5" x2="406.5" y1="141" y2="141"/><line style="stroke:#A80036;stroke-width:1.5;" x1="319.5" x2="406.5" y1="149" y2="149"/><path d="M286,6 L286,48.7031 A0,0 0 0 0 286,48.7031 L347.04,48.7031 L359.66,108.93 L355.04,48.7031 L410,48.7031 A0,0 0 0 0 410,48.7031 L410,16 L400,6 L286,6 A0,0 0 0 0 286,6 " fill="#FBFB77" filter="url(#f1hyrcvy120gq2)" style="stroke:#A80036;stroke-width:1.0;"/><path d="M400,6 L400,16 L410,16 L400,6 " fill="#FBFB77" style="stroke:#A80036;stroke-width:1.0;"/><text fill="#000000" font-family="sans-serif" font-size="13" lengthAdjust="spacing" textLength="103" x="292" y="24.4951">1/ Based on MVC</text><text fill="#000000" font-family="sans-serif" font-size="13" lengthAdjust="spacing" textLength="84" x="292" y="40.8467">2/ Details TBD</text><!--MD5=[e765b16ba1ad7f613e9e561680a8660d]
class DataGateway--><rect codeLine="36" fill="#FEFECE" filter="url(#f1hyrcvy120gq2)" height="48" id="DataGateway" style="stroke:#A80036;stroke-width:1.5;" width="105" x="449.5" y="109"/><ellipse cx="464.5" cy="125" fill="#ADD1B2" rx="11" ry="11" style="stroke:#A80036;stroke-width:1.0;"/><path d="M467.2656,120.875 Q467.4219,120.6563 467.6094,120.5469 Q467.7969,120.4375 468.0156,120.4375 Q468.3906,120.4375 468.625,120.6953 Q468.8594,120.9531 468.8594,121.5625 L468.8594,123.0156 Q468.8594,123.625 468.625,123.8906 Q468.3906,124.1563 468.0156,124.1563 Q467.6719,124.1563 467.4688,123.9531 Q467.2656,123.7656 467.1563,123.25 Q467.1094,122.8906 466.9219,122.7031 Q466.5938,122.3281 465.9844,122.1094 Q465.375,121.8906 464.75,121.8906 Q463.9844,121.8906 463.3516,122.2188 Q462.7188,122.5469 462.2266,123.2969 Q461.7344,124.0469 461.7344,125.0781 L461.7344,126.1719 Q461.7344,127.4063 462.625,128.2266 Q463.5156,129.0469 465.1094,129.0469 Q466.0469,129.0469 466.7031,128.7969 Q467.0938,128.6406 467.5156,128.2031 Q467.7813,127.9375 467.9297,127.8594 Q468.0781,127.7813 468.2813,127.7813 Q468.6094,127.7813 468.8672,128.0391 Q469.125,128.2969 469.125,128.6406 Q469.125,128.9844 468.7813,129.3906 Q468.2813,129.9688 467.4844,130.2969 Q466.4063,130.75 465.1094,130.75 Q463.5938,130.75 462.3906,130.125 Q461.4063,129.625 460.7188,128.5547 Q460.0313,127.4844 460.0313,126.2031 L460.0313,125.0469 Q460.0313,123.7188 460.6484,122.5703 Q461.2656,121.4219 462.3594,120.8047 Q463.4531,120.1875 464.6875,120.1875 Q465.4219,120.1875 466.0703,120.3516 Q466.7188,120.5156 467.2656,120.875 Z " fill="#000000"/><text fill="#000000" font-family="sans-serif" font-size="12" lengthAdjust="spacing" textLength="73" x="478.5" y="129.9102">DataGateway</text><line style="stroke:#A80036;stroke-width:1.5;" x1="450.5" x2="553.5" y1="141" y2="141"/><line style="stroke:#A80036;stroke-width:1.5;" x1="450.5" x2="553.5" y1="149" y2="149"/><path d="M445.5,6 L445.5,48.7031 A0,0 0 0 0 445.5,48.7031 L504.38,48.7031 L503.78,108.93 L512.38,48.7031 L574.5,48.7031 A0,0 0 0 0 574.5,48.7031 L574.5,16 L564.5,6 L445.5,6 A0,0 0 0 0 445.5,6 " fill="#FBFB77" filter="url(#f1hyrcvy120gq2)" style="stroke:#A80036;stroke-width:1.0;"/><path d="M564.5,6 L564.5,16 L574.5,16 L564.5,6 " fill="#FBFB77" style="stroke:#A80036;stroke-width:1.0;"/><text fill="#000000" font-family="sans-serif" font-size="13" lengthAdjust="spacing" textLength="84" x="451.5" y="24.4951">Has access to</text><text fill="#000000" font-family="sans-serif" font-size="13" lengthAdjust="spacing" textLength="108" x="451.5" y="40.8467">measurement data</text><!--MD5=[6ade7f720cfcb60961108f049dcf9498]
reverse link Display to DisplayDriver--><path codeLine="39" d="M219.49,285.3 C218.67,305.01 217.68,328.77 216.96,345.93 " fill="none" id="Display-backto-DisplayDriver" style="stroke:#A80036;stroke-width:1.0;"/><polygon fill="#A80036" points="220.04,272.14,215.7929,277.9677,219.5388,284.1295,223.7859,278.3018,220.04,272.14" style="stroke:#A80036;stroke-width:1.0;"/><!--MD5=[17d3a539df2eb3adb42a036da4876748]
reverse link DisplayConfigurator to DisplayBacklight--><path codeLine="40" d="M363.72,292.28 C364.02,310.41 364.36,330.75 364.62,345.92 " fill="none" id="DisplayConfigurator-backto-DisplayBacklight" style="stroke:#A80036;stroke-width:1.0;"/><polygon fill="#A80036" points="363.5,279.28,359.6061,285.3494,363.711,291.2781,367.6049,285.2088,363.5,279.28" style="stroke:#A80036;stroke-width:1.0;"/><!--MD5=[95f1f0b0c9560f4efe455a3993c29ff7]
reverse link DisplayBacklight to AmbientLightSensorDriver--><path codeLine="41" d="M335.44,404.08 C319.13,422.32 299.29,444.52 284.65,460.89 " fill="none" id="DisplayBacklight-backto-AmbientLightSensorDriver" style="stroke:#A80036;stroke-width:1.0;"/><polygon fill="#A80036" points="344.32,394.14,337.3405,395.953,336.3296,403.0929,343.3091,401.2799,344.32,394.14" style="stroke:#A80036;stroke-width:1.0;"/><!--MD5=[5575e99710cd04e012adb7b1291c3b67]
reverse link DisplayBacklight to DisplayBacklightDriver--><path codeLine="42" d="M394.27,404.08 C410.42,422.32 430.06,444.52 444.55,460.89 " fill="none" id="DisplayBacklight-backto-DisplayBacklightDriver" style="stroke:#A80036;stroke-width:1.0;"/><polygon fill="#A80036" points="385.48,394.14,386.4629,401.2838,393.4352,403.1242,392.4523,395.9804,385.48,394.14" style="stroke:#A80036;stroke-width:1.0;"/><!--MD5=[36756ac1c58630696ecc4d8620226b2a]
reverse link Keyboard to KeysDriver--><path codeLine="44" d="M510.7,285.3 C510.53,305.01 510.34,328.77 510.19,345.93 " fill="none" id="Keyboard-backto-KeysDriver" style="stroke:#A80036;stroke-width:1.0;"/><polygon fill="#A80036" points="510.81,272.14,506.764,278.1091,510.7177,284.1396,514.7637,278.1706,510.81,272.14" style="stroke:#A80036;stroke-width:1.0;"/><!--MD5=[81973729bed38e91df6c1235cf1ee0a8]
reverse link Keyboard to KeysDebouncer--><path codeLine="45" d="M548.14,280.84 C569.13,298.83 595.22,321.18 615.86,338.88 " fill="none" id="Keyboard-backto-KeysDebouncer" style="stroke:#A80036;stroke-width:1.0;"/><polygon fill="#A80036" points="537.99,272.14,539.944,279.0813,547.1029,279.9473,545.1489,273.006,537.99,272.14" style="stroke:#A80036;stroke-width:1.0;"/><!--MD5=[e9a6e215ea27896968369944ba7b09ce]
reverse link HMILayout to DisplayConfigurator--><path codeLine="47" d="M363,170.59 C363,185.45 363,202.43 363,216.6 " fill="none" id="HMILayout-backto-DisplayConfigurator" style="stroke:#A80036;stroke-width:1.0;"/><polygon fill="#A80036" points="363,157.14,359,163.14,363,169.14,367,163.14,363,157.14" style="stroke:#A80036;stroke-width:1.0;"/><!--MD5=[1ec73e883bc9db52a084ae5bd2357ee2]
reverse link HMILayout to Display--><path codeLine="48" d="M323.66,165.31 C300.33,183.87 271.28,206.99 250.04,223.89 " fill="none" id="HMILayout-backto-Display" style="stroke:#A80036;stroke-width:1.0;"/><polygon fill="#A80036" points="333.92,157.14,326.7337,157.7376,324.5213,164.6009,331.7076,164.0033,333.92,157.14" style="stroke:#A80036;stroke-width:1.0;"/><!--MD5=[c144a3876fa9f95a9c1564788bcb5ead]
reverse link HMILayout to Keyboard--><path codeLine="49" d="M403.68,165.06 C428.04,183.66 458.5,206.91 480.73,223.89 " fill="none" id="HMILayout-backto-Keyboard" style="stroke:#A80036;stroke-width:1.0;"/><polygon fill="#A80036" points="393.31,157.14,395.6561,163.9588,402.8528,164.4157,400.5066,157.5969,393.31,157.14" style="stroke:#A80036;stroke-width:1.0;"/><!--MD5=[b6700ea17090bbc65879066ba7649159]
link HMILayout to DataGateway--><path codeLine="50" d="M407.52,133 C421.42,133 435.33,133 449.23,133 " fill="none" id="HMILayout-DataGateway" style="stroke:#A80036;stroke-width:1.0;"/><!--MD5=[209f3c9cdf6f6a25d47d1d98bc56341a]
@startuml

class Display

class DisplayConfigurator {
    - uint8_t brightness
}

class DisplayBacklight
class AmbientLightSensorDriver
class DisplayBacklightDriver

note left of DisplayDriver
Uses external lib 
for ST7735 LCD
end note
class DisplayDriver



class Keyboard
class KeysDriver
class KeysDebouncer {
    -uint8_t period
}

note top of HMILayout
1/ Based on MVC
2/ Details TBD
end note
class HMILayout

note top of DataGateway
Has access to 
measurement data
end note
class DataGateway


Display *- - DisplayDriver
DisplayConfigurator *- - DisplayBacklight
DisplayBacklight *- - AmbientLightSensorDriver
DisplayBacklight *- - DisplayBacklightDriver

Keyboard *- - KeysDriver
Keyboard *- - KeysDebouncer

HMILayout *- - DisplayConfigurator
HMILayout *- - Display
HMILayout *- - Keyboard
HMILayout - DataGateway

/'
enum Key_State_t {
    LOGGER_KEYBOARD_KEY_PRESS
    LOGGER_KEYBOARD_KEY_NO_PRESS
}

enum Keys_Key_Id_t {
    LOGGER_KEYBOARD_KEY_UP
    LOGGER_KEYBOARD_KEY_DOWN
    LOGGER_KEYBOARD_KEY_LEFT
    LOGGER_KEYBOARD_KEY_RIGHT
}
'/

@enduml

@startuml

class Display

class DisplayConfigurator {
    - uint8_t brightness
}

class DisplayBacklight
class AmbientLightSensorDriver
class DisplayBacklightDriver

note left of DisplayDriver
Uses external lib 
for ST7735 LCD
end note
class DisplayDriver



class Keyboard
class KeysDriver
class KeysDebouncer {
    -uint8_t period
}

note top of HMILayout
1/ Based on MVC
2/ Details TBD
end note
class HMILayout

note top of DataGateway
Has access to 
measurement data
end note
class DataGateway


Display *- - DisplayDriver
DisplayConfigurator *- - DisplayBacklight
DisplayBacklight *- - AmbientLightSensorDriver
DisplayBacklight *- - DisplayBacklightDriver

Keyboard *- - KeysDriver
Keyboard *- - KeysDebouncer

HMILayout *- - DisplayConfigurator
HMILayout *- - Display
HMILayout *- - Keyboard
HMILayout - DataGateway


@enduml

PlantUML version 1.2021.7(Sun May 23 14:40:07 CEST 2021)
(GPL source distribution)
Java Runtime: Java(TM) SE Runtime Environment
JVM: Java HotSpot(TM) 64-Bit Server VM
Default Encoding: Cp1250
Language: pl
Country: PL
--></g></svg>