<?xml version="1.0" encoding="UTF-8" standalone="no"?><svg xmlns="http://www.w3.org/2000/svg" xmlns:xlink="http://www.w3.org/1999/xlink" contentScriptType="application/ecmascript" contentStyleType="text/css" height="176px" preserveAspectRatio="none" style="width:245px;height:176px;background:#FFFFFF;" version="1.1" viewBox="0 0 245 176" width="245px" zoomAndPan="magnify"><defs><filter height="300%" id="fisw6f14h7o62" width="300%" x="-1" y="-1"><feGaussianBlur result="blurOut" stdDeviation="2.0"/><feColorMatrix in="blurOut" result="blurOut2" type="matrix" values="0 0 0 0 0 0 0 0 0 0 0 0 0 0 0 0 0 0 .4 0"/><feOffset dx="4.0" dy="4.0" in="blurOut2" result="blurOut3"/><feBlend in="SourceGraphic" in2="blurOut3" mode="normal"/></filter></defs><g><!--MD5=[1724dd60002cbbab67fb79ca987e3c3d]
entity HMI--><rect fill="#FEFECE" filter="url(#fisw6f14h7o62)" height="47.6094" style="stroke:#A80036;stroke-width:1.5;" width="63" x="7" y="7"/><rect fill="#FEFECE" height="10" style="stroke:#A80036;stroke-width:1.5;" width="15" x="50" y="12"/><rect fill="#FEFECE" height="2" style="stroke:#A80036;stroke-width:1.5;" width="4" x="48" y="14"/><rect fill="#FEFECE" height="2" style="stroke:#A80036;stroke-width:1.5;" width="4" x="48" y="18"/><text fill="#000000" font-family="sans-serif" font-size="14" lengthAdjust="spacing" textLength="23" x="22" y="41.5332">HMI</text><!--MD5=[ecc6c2e084338a3cb90da6fc138c5bc6]
entity Measurement--><rect fill="#FEFECE" filter="url(#fisw6f14h7o62)" height="47.6094" style="stroke:#A80036;stroke-width:1.5;" width="126" x="105.5" y="7"/><rect fill="#FEFECE" height="10" style="stroke:#A80036;stroke-width:1.5;" width="15" x="211.5" y="12"/><rect fill="#FEFECE" height="2" style="stroke:#A80036;stroke-width:1.5;" width="4" x="209.5" y="14"/><rect fill="#FEFECE" height="2" style="stroke:#A80036;stroke-width:1.5;" width="4" x="209.5" y="18"/><text fill="#000000" font-family="sans-serif" font-size="14" lengthAdjust="spacing" textLength="86" x="120.5" y="41.5332">Measurement</text><!--MD5=[cf25d34b6f9695ab689953484c0b6ae1]
entity Storage--><rect fill="#FEFECE" filter="url(#fisw6f14h7o62)" height="47.6094" style="stroke:#A80036;stroke-width:1.5;" width="90" x="58.5" y="115"/><rect fill="#FEFECE" height="10" style="stroke:#A80036;stroke-width:1.5;" width="15" x="128.5" y="120"/><rect fill="#FEFECE" height="2" style="stroke:#A80036;stroke-width:1.5;" width="4" x="126.5" y="122"/><rect fill="#FEFECE" height="2" style="stroke:#A80036;stroke-width:1.5;" width="4" x="126.5" y="126"/><text fill="#000000" font-family="sans-serif" font-size="14" lengthAdjust="spacing" textLength="50" x="73.5" y="149.5332">Storage</text><!--MD5=[b58db4feef055ab97989c766f4f6a293]
link HMI to Storage--><path d="M52.6,55 C62.59,71.28 76.02,93.19 86.58,110.41 " fill="none" id="HMI-to-Storage" style="stroke:#A80036;stroke-width:1.0;"/><polygon fill="#A80036" points="89.2,114.68,87.9135,104.9155,86.5899,110.4154,81.09,109.0917,89.2,114.68" style="stroke:#A80036;stroke-width:1.0;"/><!--MD5=[385a5fda78919335aed93676d01c0820]
link Measurement to Storage--><path d="M154.4,55 C144.41,71.28 130.98,93.19 120.42,110.41 " fill="none" id="Measurement-to-Storage" style="stroke:#A80036;stroke-width:1.0;"/><polygon fill="#A80036" points="117.8,114.68,125.91,109.0917,120.4101,110.4154,119.0865,104.9155,117.8,114.68" style="stroke:#A80036;stroke-width:1.0;"/><!--MD5=[81c3b582c57d541fd57112183120c1fa]
@startuml

[HMI]
[Measurement]
[Storage]

[HMI] - -> [Storage]
[Measurement] - -> [Storage]
@enduml

PlantUML version 1.2021.7(Sun May 23 14:40:07 CEST 2021)
(GPL source distribution)
Java Runtime: Java(TM) SE Runtime Environment
JVM: Java HotSpot(TM) 64-Bit Server VM
Default Encoding: Cp1250
Language: pl
Country: PL
--></g></svg>