<?xml version="1.0" encoding="UTF-8" standalone="no"?><svg xmlns="http://www.w3.org/2000/svg" xmlns:xlink="http://www.w3.org/1999/xlink" contentScriptType="application/ecmascript" contentStyleType="text/css" height="577px" preserveAspectRatio="none" style="width:435px;height:577px;background:#FFFFFF;" version="1.1" viewBox="0 0 435 577" width="435px" zoomAndPan="magnify"><defs><filter height="300%" id="f18taxscfw7y3a" width="300%" x="-1" y="-1"><feGaussianBlur result="blurOut" stdDeviation="2.0"/><feColorMatrix in="blurOut" result="blurOut2" type="matrix" values="0 0 0 0 0 0 0 0 0 0 0 0 0 0 0 0 0 0 .4 0"/><feOffset dx="4.0" dy="4.0" in="blurOut2" result="blurOut3"/><feBlend in="SourceGraphic" in2="blurOut3" mode="normal"/></filter></defs><g><!--MD5=[d64883541e3d62e3241c4d12decf100d]
cluster Application--><polygon fill="#FFFFFF" filter="url(#f18taxscfw7y3a)" points="194,6,278,6,285,29.6094,296,29.6094,296,106,194,106,194,6" style="stroke:#000000;stroke-width:1.5;"/><line style="stroke:#000000;stroke-width:1.5;" x1="194" x2="285" y1="29.6094" y2="29.6094"/><text fill="#000000" font-family="sans-serif" font-size="14" font-weight="bold" lengthAdjust="spacing" textLength="78" x="198" y="22.5332">Application</text><!--MD5=[eba421ac8e20ac42f3ee759fe6c4cf96]
cluster Device--><polygon fill="#FFFFFF" filter="url(#f18taxscfw7y3a)" points="16,130,71,130,78,153.6094,418,153.6094,418,338,16,338,16,130" style="stroke:#000000;stroke-width:1.5;"/><line style="stroke:#000000;stroke-width:1.5;" x1="16" x2="78" y1="153.6094" y2="153.6094"/><text fill="#000000" font-family="sans-serif" font-size="14" font-weight="bold" lengthAdjust="spacing" textLength="49" x="20" y="146.5332">Device</text><!--MD5=[61c41a14a0f790ada34cbd71756aea65]
cluster Driver--><polygon fill="#FFFFFF" filter="url(#f18taxscfw7y3a)" points="51,362,101,362,108,385.6094,362,385.6094,362,570,51,570,51,362" style="stroke:#000000;stroke-width:1.5;"/><line style="stroke:#000000;stroke-width:1.5;" x1="51" x2="108" y1="385.6094" y2="385.6094"/><text fill="#000000" font-family="sans-serif" font-size="14" font-weight="bold" lengthAdjust="spacing" textLength="44" x="55" y="378.5332">Driver</text><!--MD5=[15b0de36700cf8bf422172734e699e19]
class Queue--><rect codeLine="3" fill="#FEFECE" filter="url(#f18taxscfw7y3a)" height="48" id="Queue" style="stroke:#A80036;stroke-width:1.5;" width="69" x="210.5" y="42"/><ellipse cx="225.5" cy="58" fill="#ADD1B2" rx="11" ry="11" style="stroke:#A80036;stroke-width:1.0;"/><path d="M228.2656,53.875 Q228.4219,53.6563 228.6094,53.5469 Q228.7969,53.4375 229.0156,53.4375 Q229.3906,53.4375 229.625,53.6953 Q229.8594,53.9531 229.8594,54.5625 L229.8594,56.0156 Q229.8594,56.625 229.625,56.8906 Q229.3906,57.1563 229.0156,57.1563 Q228.6719,57.1563 228.4688,56.9531 Q228.2656,56.7656 228.1563,56.25 Q228.1094,55.8906 227.9219,55.7031 Q227.5938,55.3281 226.9844,55.1094 Q226.375,54.8906 225.75,54.8906 Q224.9844,54.8906 224.3516,55.2188 Q223.7188,55.5469 223.2266,56.2969 Q222.7344,57.0469 222.7344,58.0781 L222.7344,59.1719 Q222.7344,60.4063 223.625,61.2266 Q224.5156,62.0469 226.1094,62.0469 Q227.0469,62.0469 227.7031,61.7969 Q228.0938,61.6406 228.5156,61.2031 Q228.7813,60.9375 228.9297,60.8594 Q229.0781,60.7813 229.2813,60.7813 Q229.6094,60.7813 229.8672,61.0391 Q230.125,61.2969 230.125,61.6406 Q230.125,61.9844 229.7813,62.3906 Q229.2813,62.9688 228.4844,63.2969 Q227.4063,63.75 226.1094,63.75 Q224.5938,63.75 223.3906,63.125 Q222.4063,62.625 221.7188,61.5547 Q221.0313,60.4844 221.0313,59.2031 L221.0313,58.0469 Q221.0313,56.7188 221.6484,55.5703 Q222.2656,54.4219 223.3594,53.8047 Q224.4531,53.1875 225.6875,53.1875 Q226.4219,53.1875 227.0703,53.3516 Q227.7188,53.5156 228.2656,53.875 Z " fill="#000000"/><text fill="#000000" font-family="sans-serif" font-size="12" lengthAdjust="spacing" textLength="37" x="239.5" y="62.9102">Queue</text><line style="stroke:#A80036;stroke-width:1.5;" x1="211.5" x2="278.5" y1="74" y2="74"/><line style="stroke:#A80036;stroke-width:1.5;" x1="211.5" x2="278.5" y1="82" y2="82"/><!--MD5=[6f0117fe5f936d3e38f33712de266f92]
class IMeasurementDevice--><rect codeLine="8" fill="#FEFECE" filter="url(#f18taxscfw7y3a)" height="48" id="IMeasurementDevice" style="stroke:#A80036;stroke-width:1.5;" width="149" x="42.5" y="166"/><ellipse cx="57.5" cy="182" fill="#B4A7E5" rx="11" ry="11" style="stroke:#A80036;stroke-width:1.0;"/><path d="M58.4531,178.6406 L58.4531,185.2969 L60.1719,185.2969 Q60.7813,185.2969 61.0469,185.5313 Q61.3125,185.7656 61.3125,186.1563 Q61.3125,186.5313 61.0469,186.7656 Q60.7813,187 60.1719,187 L55.0313,187 Q54.4219,187 54.1563,186.7656 Q53.8906,186.5313 53.8906,186.1406 Q53.8906,185.7656 54.1563,185.5313 Q54.4219,185.2969 55.0313,185.2969 L56.75,185.2969 L56.75,178.6406 L55.0313,178.6406 Q54.4219,178.6406 54.1563,178.4063 Q53.8906,178.1719 53.8906,177.7813 Q53.8906,177.4063 54.1563,177.1719 Q54.4219,176.9375 55.0313,176.9375 L60.1719,176.9375 Q60.7813,176.9375 61.0469,177.1719 Q61.3125,177.4063 61.3125,177.7813 Q61.3125,178.1719 61.0469,178.4063 Q60.7813,178.6406 60.1719,178.6406 L58.4531,178.6406 Z " fill="#000000"/><text fill="#000000" font-family="sans-serif" font-size="12" font-style="italic" lengthAdjust="spacing" textLength="117" x="71.5" y="186.9102">IMeasurementDevice</text><line style="stroke:#A80036;stroke-width:1.5;" x1="43.5" x2="190.5" y1="198" y2="198"/><line style="stroke:#A80036;stroke-width:1.5;" x1="43.5" x2="190.5" y1="206" y2="206"/><!--MD5=[1a9877e4aca07f786966db7824970e50]
class PulesTransmitingDevice--><rect codeLine="12" fill="#FEFECE" filter="url(#f18taxscfw7y3a)" height="48" id="PulesTransmitingDevice" style="stroke:#A80036;stroke-width:1.5;" width="167" x="32.5" y="274"/><ellipse cx="47.5" cy="290" fill="#ADD1B2" rx="11" ry="11" style="stroke:#A80036;stroke-width:1.0;"/><path d="M50.2656,285.875 Q50.4219,285.6563 50.6094,285.5469 Q50.7969,285.4375 51.0156,285.4375 Q51.3906,285.4375 51.625,285.6953 Q51.8594,285.9531 51.8594,286.5625 L51.8594,288.0156 Q51.8594,288.625 51.625,288.8906 Q51.3906,289.1563 51.0156,289.1563 Q50.6719,289.1563 50.4688,288.9531 Q50.2656,288.7656 50.1563,288.25 Q50.1094,287.8906 49.9219,287.7031 Q49.5938,287.3281 48.9844,287.1094 Q48.375,286.8906 47.75,286.8906 Q46.9844,286.8906 46.3516,287.2188 Q45.7188,287.5469 45.2266,288.2969 Q44.7344,289.0469 44.7344,290.0781 L44.7344,291.1719 Q44.7344,292.4063 45.625,293.2266 Q46.5156,294.0469 48.1094,294.0469 Q49.0469,294.0469 49.7031,293.7969 Q50.0938,293.6406 50.5156,293.2031 Q50.7813,292.9375 50.9297,292.8594 Q51.0781,292.7813 51.2813,292.7813 Q51.6094,292.7813 51.8672,293.0391 Q52.125,293.2969 52.125,293.6406 Q52.125,293.9844 51.7813,294.3906 Q51.2813,294.9688 50.4844,295.2969 Q49.4063,295.75 48.1094,295.75 Q46.5938,295.75 45.3906,295.125 Q44.4063,294.625 43.7188,293.5547 Q43.0313,292.4844 43.0313,291.2031 L43.0313,290.0469 Q43.0313,288.7188 43.6484,287.5703 Q44.2656,286.4219 45.3594,285.8047 Q46.4531,285.1875 47.6875,285.1875 Q48.4219,285.1875 49.0703,285.3516 Q49.7188,285.5156 50.2656,285.875 Z " fill="#000000"/><text fill="#000000" font-family="sans-serif" font-size="12" lengthAdjust="spacing" textLength="135" x="61.5" y="294.9102">PulesTransmitingDevice</text><line style="stroke:#A80036;stroke-width:1.5;" x1="33.5" x2="198.5" y1="306" y2="306"/><line style="stroke:#A80036;stroke-width:1.5;" x1="33.5" x2="198.5" y1="314" y2="314"/><!--MD5=[94a62d523f7a13f3bf60230249c9a6f6]
class UARTTransmitingDevice--><rect codeLine="15" fill="#FEFECE" filter="url(#f18taxscfw7y3a)" height="48" id="UARTTransmitingDevice" style="stroke:#A80036;stroke-width:1.5;" width="167" x="234.5" y="274"/><ellipse cx="249.5" cy="290" fill="#ADD1B2" rx="11" ry="11" style="stroke:#A80036;stroke-width:1.0;"/><path d="M252.2656,285.875 Q252.4219,285.6563 252.6094,285.5469 Q252.7969,285.4375 253.0156,285.4375 Q253.3906,285.4375 253.625,285.6953 Q253.8594,285.9531 253.8594,286.5625 L253.8594,288.0156 Q253.8594,288.625 253.625,288.8906 Q253.3906,289.1563 253.0156,289.1563 Q252.6719,289.1563 252.4688,288.9531 Q252.2656,288.7656 252.1563,288.25 Q252.1094,287.8906 251.9219,287.7031 Q251.5938,287.3281 250.9844,287.1094 Q250.375,286.8906 249.75,286.8906 Q248.9844,286.8906 248.3516,287.2188 Q247.7188,287.5469 247.2266,288.2969 Q246.7344,289.0469 246.7344,290.0781 L246.7344,291.1719 Q246.7344,292.4063 247.625,293.2266 Q248.5156,294.0469 250.1094,294.0469 Q251.0469,294.0469 251.7031,293.7969 Q252.0938,293.6406 252.5156,293.2031 Q252.7813,292.9375 252.9297,292.8594 Q253.0781,292.7813 253.2813,292.7813 Q253.6094,292.7813 253.8672,293.0391 Q254.125,293.2969 254.125,293.6406 Q254.125,293.9844 253.7813,294.3906 Q253.2813,294.9688 252.4844,295.2969 Q251.4063,295.75 250.1094,295.75 Q248.5938,295.75 247.3906,295.125 Q246.4063,294.625 245.7188,293.5547 Q245.0313,292.4844 245.0313,291.2031 L245.0313,290.0469 Q245.0313,288.7188 245.6484,287.5703 Q246.2656,286.4219 247.3594,285.8047 Q248.4531,285.1875 249.6875,285.1875 Q250.4219,285.1875 251.0703,285.3516 Q251.7188,285.5156 252.2656,285.875 Z " fill="#000000"/><text fill="#000000" font-family="sans-serif" font-size="12" lengthAdjust="spacing" textLength="135" x="263.5" y="294.9102">UARTTransmitingDevice</text><line style="stroke:#A80036;stroke-width:1.5;" x1="235.5" x2="400.5" y1="306" y2="306"/><line style="stroke:#A80036;stroke-width:1.5;" x1="235.5" x2="400.5" y1="314" y2="314"/><!--MD5=[9c267cf4ff3963c0e640b210639bbe28]
class GPIOCounterDevice--><rect codeLine="20" fill="#FEFECE" filter="url(#f18taxscfw7y3a)" height="48" id="GPIOCounterDevice" style="stroke:#A80036;stroke-width:1.5;" width="142" x="67" y="398"/><ellipse cx="82" cy="414" fill="#ADD1B2" rx="11" ry="11" style="stroke:#A80036;stroke-width:1.0;"/><path d="M84.7656,409.875 Q84.9219,409.6563 85.1094,409.5469 Q85.2969,409.4375 85.5156,409.4375 Q85.8906,409.4375 86.125,409.6953 Q86.3594,409.9531 86.3594,410.5625 L86.3594,412.0156 Q86.3594,412.625 86.125,412.8906 Q85.8906,413.1563 85.5156,413.1563 Q85.1719,413.1563 84.9688,412.9531 Q84.7656,412.7656 84.6563,412.25 Q84.6094,411.8906 84.4219,411.7031 Q84.0938,411.3281 83.4844,411.1094 Q82.875,410.8906 82.25,410.8906 Q81.4844,410.8906 80.8516,411.2188 Q80.2188,411.5469 79.7266,412.2969 Q79.2344,413.0469 79.2344,414.0781 L79.2344,415.1719 Q79.2344,416.4063 80.125,417.2266 Q81.0156,418.0469 82.6094,418.0469 Q83.5469,418.0469 84.2031,417.7969 Q84.5938,417.6406 85.0156,417.2031 Q85.2813,416.9375 85.4297,416.8594 Q85.5781,416.7813 85.7813,416.7813 Q86.1094,416.7813 86.3672,417.0391 Q86.625,417.2969 86.625,417.6406 Q86.625,417.9844 86.2813,418.3906 Q85.7813,418.9688 84.9844,419.2969 Q83.9063,419.75 82.6094,419.75 Q81.0938,419.75 79.8906,419.125 Q78.9063,418.625 78.2188,417.5547 Q77.5313,416.4844 77.5313,415.2031 L77.5313,414.0469 Q77.5313,412.7188 78.1484,411.5703 Q78.7656,410.4219 79.8594,409.8047 Q80.9531,409.1875 82.1875,409.1875 Q82.9219,409.1875 83.5703,409.3516 Q84.2188,409.5156 84.7656,409.875 Z " fill="#000000"/><text fill="#000000" font-family="sans-serif" font-size="12" lengthAdjust="spacing" textLength="110" x="96" y="418.9102">GPIOCounterDevice</text><line style="stroke:#A80036;stroke-width:1.5;" x1="68" x2="208" y1="430" y2="430"/><line style="stroke:#A80036;stroke-width:1.5;" x1="68" x2="208" y1="438" y2="438"/><!--MD5=[5ad4cd9c7bfe258d69f010f77acf2a05]
class IUARTDriver--><rect codeLine="23" fill="#FEFECE" filter="url(#f18taxscfw7y3a)" height="48" id="IUARTDriver" style="stroke:#A80036;stroke-width:1.5;" width="102" x="244" y="398"/><ellipse cx="259" cy="414" fill="#B4A7E5" rx="11" ry="11" style="stroke:#A80036;stroke-width:1.0;"/><path d="M259.9531,410.6406 L259.9531,417.2969 L261.6719,417.2969 Q262.2813,417.2969 262.5469,417.5313 Q262.8125,417.7656 262.8125,418.1563 Q262.8125,418.5313 262.5469,418.7656 Q262.2813,419 261.6719,419 L256.5313,419 Q255.9219,419 255.6563,418.7656 Q255.3906,418.5313 255.3906,418.1406 Q255.3906,417.7656 255.6563,417.5313 Q255.9219,417.2969 256.5313,417.2969 L258.25,417.2969 L258.25,410.6406 L256.5313,410.6406 Q255.9219,410.6406 255.6563,410.4063 Q255.3906,410.1719 255.3906,409.7813 Q255.3906,409.4063 255.6563,409.1719 Q255.9219,408.9375 256.5313,408.9375 L261.6719,408.9375 Q262.2813,408.9375 262.5469,409.1719 Q262.8125,409.4063 262.8125,409.7813 Q262.8125,410.1719 262.5469,410.4063 Q262.2813,410.6406 261.6719,410.6406 L259.9531,410.6406 Z " fill="#000000"/><text fill="#000000" font-family="sans-serif" font-size="12" font-style="italic" lengthAdjust="spacing" textLength="70" x="273" y="418.9102">IUARTDriver</text><line style="stroke:#A80036;stroke-width:1.5;" x1="245" x2="345" y1="430" y2="430"/><line style="stroke:#A80036;stroke-width:1.5;" x1="245" x2="345" y1="438" y2="438"/><!--MD5=[123a1d09c24313992a8650e1506f75a8]
class UARTDriver--><rect codeLine="26" fill="#FEFECE" filter="url(#f18taxscfw7y3a)" height="48" id="UARTDriver" style="stroke:#A80036;stroke-width:1.5;" width="96" x="247" y="506"/><ellipse cx="262" cy="522" fill="#ADD1B2" rx="11" ry="11" style="stroke:#A80036;stroke-width:1.0;"/><path d="M264.7656,517.875 Q264.9219,517.6563 265.1094,517.5469 Q265.2969,517.4375 265.5156,517.4375 Q265.8906,517.4375 266.125,517.6953 Q266.3594,517.9531 266.3594,518.5625 L266.3594,520.0156 Q266.3594,520.625 266.125,520.8906 Q265.8906,521.1563 265.5156,521.1563 Q265.1719,521.1563 264.9688,520.9531 Q264.7656,520.7656 264.6563,520.25 Q264.6094,519.8906 264.4219,519.7031 Q264.0938,519.3281 263.4844,519.1094 Q262.875,518.8906 262.25,518.8906 Q261.4844,518.8906 260.8516,519.2188 Q260.2188,519.5469 259.7266,520.2969 Q259.2344,521.0469 259.2344,522.0781 L259.2344,523.1719 Q259.2344,524.4063 260.125,525.2266 Q261.0156,526.0469 262.6094,526.0469 Q263.5469,526.0469 264.2031,525.7969 Q264.5938,525.6406 265.0156,525.2031 Q265.2813,524.9375 265.4297,524.8594 Q265.5781,524.7813 265.7813,524.7813 Q266.1094,524.7813 266.3672,525.0391 Q266.625,525.2969 266.625,525.6406 Q266.625,525.9844 266.2813,526.3906 Q265.7813,526.9688 264.9844,527.2969 Q263.9063,527.75 262.6094,527.75 Q261.0938,527.75 259.8906,527.125 Q258.9063,526.625 258.2188,525.5547 Q257.5313,524.4844 257.5313,523.2031 L257.5313,522.0469 Q257.5313,520.7188 258.1484,519.5703 Q258.7656,518.4219 259.8594,517.8047 Q260.9531,517.1875 262.1875,517.1875 Q262.9219,517.1875 263.5703,517.3516 Q264.2188,517.5156 264.7656,517.875 Z " fill="#000000"/><text fill="#000000" font-family="sans-serif" font-size="12" lengthAdjust="spacing" textLength="64" x="276" y="526.9102">UARTDriver</text><line style="stroke:#A80036;stroke-width:1.5;" x1="248" x2="342" y1="538" y2="538"/><line style="stroke:#A80036;stroke-width:1.5;" x1="248" x2="342" y1="546" y2="546"/><!--MD5=[04ed0248ae40fb7bfa60d6ecff4d7b58]
link Queue to IMeasurementDevice--><path codeLine="31" d="M220.62,90.23 C197.85,111.94 164.03,144.17 141.29,165.85 " fill="none" id="Queue-IMeasurementDevice" style="stroke:#A80036;stroke-width:1.0;"/><!--MD5=[ef84d95052cbf0a902171250c89cbb00]
reverse link Queue to PulesTransmitingDevice--><path codeLine="32" d="M242.17,103.27 C238.38,134.51 229.54,179.82 209,214 C194.51,238.11 170.75,259.14 150.88,274 " fill="none" id="Queue-backto-PulesTransmitingDevice" style="stroke:#A80036;stroke-width:1.0;"/><polygon fill="#A80036" points="243.58,90,238.9694,95.5446,242.3142,101.9331,246.9248,96.3885,243.58,90" style="stroke:#A80036;stroke-width:1.0;"/><!--MD5=[6db9ada9a32294801669696706107f9c]
reverse link Queue to UARTTransmitingDevice--><path codeLine="33" d="M262.65,101.91 C265.65,108.5 268.57,115.39 271,122 C290.52,175.15 305.83,240.08 313.19,273.94 " fill="none" id="Queue-backto-UARTTransmitingDevice" style="stroke:#A80036;stroke-width:1.0;"/><polygon fill="#A80036" points="257.08,90.16,256.0276,97.2939,262.208,101.0091,263.2604,93.8752,257.08,90.16" style="stroke:#A80036;stroke-width:1.0;"/><!--MD5=[66ea60033706aed5f39594b8a9dc0fee]
reverse link IMeasurementDevice to PulesTransmitingDevice--><path codeLine="34" d="M116.59,234.02 C116.47,247.58 116.33,262.04 116.22,273.68 " fill="none" id="IMeasurementDevice-backto-PulesTransmitingDevice" style="stroke:#A80036;stroke-width:1.0;"/><polygon fill="none" points="109.59,233.93,116.78,214,123.59,234.07,109.59,233.93" style="stroke:#A80036;stroke-width:1.0;"/><!--MD5=[6e6858d0488b83234af369bfb61fecdd]
reverse link IMeasurementDevice to UARTTransmitingDevice--><path codeLine="35" d="M178.5,223.43 C209.39,239.73 246.11,259.09 274.12,273.86 " fill="none" id="IMeasurementDevice-backto-UARTTransmitingDevice" style="stroke:#A80036;stroke-width:1.0;"/><polygon fill="none" points="175.04,229.52,160.61,214,181.57,217.14,175.04,229.52" style="stroke:#A80036;stroke-width:1.0;"/><!--MD5=[b713148362cfd9bf79e03d3bbbaff805]
link UARTTransmitingDevice to IUARTDriver--><path codeLine="37" d="M313.62,322.23 C309.53,343.94 303.45,376.17 299.36,397.85 " fill="none" id="UARTTransmitingDevice-IUARTDriver" style="stroke:#A80036;stroke-width:1.0;"/><!--MD5=[13f25245b59bc7dd71e17cc747bb6b72]
link PulesTransmitingDevice to GPIOCounterDevice--><path codeLine="38" d="M120.19,322.23 C124.1,343.94 129.92,376.17 133.83,397.85 " fill="none" id="PulesTransmitingDevice-GPIOCounterDevice" style="stroke:#A80036;stroke-width:1.0;"/><!--MD5=[f96f6118c3815404e6400dc901b4c84d]
link IUARTDriver to UARTDriver--><path codeLine="40" d="M295,446 C295,457.59 295,472.03 295,485.6 " fill="none" id="IUARTDriver-to-UARTDriver" style="stroke:#A80036;stroke-width:1.0;"/><polygon fill="none" points="302,485.68,295,505.68,288,485.68,302,485.68" style="stroke:#A80036;stroke-width:1.0;"/><!--MD5=[95128f7fb726dabccd80b4509055790f]
@startuml

package Application {
    class Queue {
    }
}

package Device {
    interface IMeasurementDevice {
    }


    class PulesTransmitingDevice {
    }

    class UARTTransmitingDevice {
    }
}

package Driver {
    class GPIOCounterDevice {
    }

    interface IUARTDriver {
    }

    class UARTDriver {
    }
}


Queue - - IMeasurementDevice
Queue *- - PulesTransmitingDevice
Queue *- - UARTTransmitingDevice
IMeasurementDevice <|- - PulesTransmitingDevice
IMeasurementDevice <|- - UARTTransmitingDevice

UARTTransmitingDevice - - IUARTDriver
PulesTransmitingDevice - - GPIOCounterDevice

IUARTDriver - -|> UARTDriver

@enduml

PlantUML version 1.2021.7(Sun May 23 14:40:07 CEST 2021)
(GPL source distribution)
Java Runtime: Java(TM) SE Runtime Environment
JVM: Java HotSpot(TM) 64-Bit Server VM
Default Encoding: Cp1250
Language: fr
Country: FR
--></g></svg>