<?xml version="1.0" encoding="UTF-8" standalone="no"?><svg xmlns="http://www.w3.org/2000/svg" xmlns:xlink="http://www.w3.org/1999/xlink" contentScriptType="application/ecmascript" contentStyleType="text/css" height="359px" preserveAspectRatio="none" style="width:861px;height:359px;background:#FFFFFF;" version="1.1" viewBox="0 0 861 359" width="861px" zoomAndPan="magnify"><defs><filter height="300%" id="f9g8zq2m1lmqk" width="300%" x="-1" y="-1"><feGaussianBlur result="blurOut" stdDeviation="2.0"/><feColorMatrix in="blurOut" result="blurOut2" type="matrix" values="0 0 0 0 0 0 0 0 0 0 0 0 0 0 0 0 0 0 .4 0"/><feOffset dx="4.0" dy="4.0" in="blurOut2" result="blurOut3"/><feBlend in="SourceGraphic" in2="blurOut3" mode="normal"/></filter></defs><g><!--MD5=[4bc8eeeccf9386de727fe25afb3a433e]
cluster BusinessLogic--><polygon fill="#FFFFFF" filter="url(#f9g8zq2m1lmqk)" points="214,6,323,6,330,29.6094,593,29.6094,593,228,214,228,214,6" style="stroke:#000000;stroke-width:1.5;"/><line style="stroke:#000000;stroke-width:1.5;" x1="214" x2="330" y1="29.6094" y2="29.6094"/><text fill="#000000" font-family="sans-serif" font-size="14" font-weight="bold" lengthAdjust="spacing" textLength="103" x="218" y="22.5332">BusinessLogic</text><!--MD5=[eba421ac8e20ac42f3ee759fe6c4cf96]
cluster Device--><polygon fill="#FFFFFF" filter="url(#f9g8zq2m1lmqk)" points="16,252,71,252,78,275.6094,844,275.6094,844,352,16,352,16,252" style="stroke:#000000;stroke-width:1.5;"/><line style="stroke:#000000;stroke-width:1.5;" x1="16" x2="78" y1="275.6094" y2="275.6094"/><text fill="#000000" font-family="sans-serif" font-size="14" font-weight="bold" lengthAdjust="spacing" textLength="49" x="20" y="268.5332">Device</text><!--MD5=[5e9175910eb6848bd6d3eb423430aa06]
class MeasurementSubject--><rect codeLine="3" fill="#FEFECE" filter="url(#f9g8zq2m1lmqk)" height="61.8359" id="MeasurementSubject" style="stroke:#A80036;stroke-width:1.5;" width="149" x="230.5" y="42"/><ellipse cx="245.5" cy="58" fill="#ADD1B2" rx="11" ry="11" style="stroke:#A80036;stroke-width:1.0;"/><path d="M248.2656,53.875 Q248.4219,53.6563 248.6094,53.5469 Q248.7969,53.4375 249.0156,53.4375 Q249.3906,53.4375 249.625,53.6953 Q249.8594,53.9531 249.8594,54.5625 L249.8594,56.0156 Q249.8594,56.625 249.625,56.8906 Q249.3906,57.1563 249.0156,57.1563 Q248.6719,57.1563 248.4688,56.9531 Q248.2656,56.7656 248.1563,56.25 Q248.1094,55.8906 247.9219,55.7031 Q247.5938,55.3281 246.9844,55.1094 Q246.375,54.8906 245.75,54.8906 Q244.9844,54.8906 244.3516,55.2188 Q243.7188,55.5469 243.2266,56.2969 Q242.7344,57.0469 242.7344,58.0781 L242.7344,59.1719 Q242.7344,60.4063 243.625,61.2266 Q244.5156,62.0469 246.1094,62.0469 Q247.0469,62.0469 247.7031,61.7969 Q248.0938,61.6406 248.5156,61.2031 Q248.7813,60.9375 248.9297,60.8594 Q249.0781,60.7813 249.2813,60.7813 Q249.6094,60.7813 249.8672,61.0391 Q250.125,61.2969 250.125,61.6406 Q250.125,61.9844 249.7813,62.3906 Q249.2813,62.9688 248.4844,63.2969 Q247.4063,63.75 246.1094,63.75 Q244.5938,63.75 243.3906,63.125 Q242.4063,62.625 241.7188,61.5547 Q241.0313,60.4844 241.0313,59.2031 L241.0313,58.0469 Q241.0313,56.7188 241.6484,55.5703 Q242.2656,54.4219 243.3594,53.8047 Q244.4531,53.1875 245.6875,53.1875 Q246.4219,53.1875 247.0703,53.3516 Q247.7188,53.5156 248.2656,53.875 Z " fill="#000000"/><text fill="#000000" font-family="sans-serif" font-size="12" lengthAdjust="spacing" textLength="117" x="259.5" y="62.9102">MeasurementSubject</text><line style="stroke:#A80036;stroke-width:1.5;" x1="231.5" x2="378.5" y1="74" y2="74"/><line style="stroke:#A80036;stroke-width:1.5;" x1="231.5" x2="378.5" y1="82" y2="82"/><ellipse cx="241.5" cy="93" fill="#84BE84" rx="3" ry="3" style="stroke:#038048;stroke-width:1.0;"/><text fill="#000000" font-family="sans-serif" font-size="11" lengthAdjust="spacing" textLength="87" x="250.5" y="97.4189">notifyObservers()</text><!--MD5=[c94219d8aa10f4269647ad72c19979cd]
class IMeasurementObserver--><rect codeLine="7" fill="#FEFECE" filter="url(#f9g8zq2m1lmqk)" height="61.8359" id="IMeasurementObserver" style="stroke:#A80036;stroke-width:1.5;" width="162" x="415" y="42"/><ellipse cx="430" cy="58" fill="#B4A7E5" rx="11" ry="11" style="stroke:#A80036;stroke-width:1.0;"/><path d="M430.9531,54.6406 L430.9531,61.2969 L432.6719,61.2969 Q433.2813,61.2969 433.5469,61.5313 Q433.8125,61.7656 433.8125,62.1563 Q433.8125,62.5313 433.5469,62.7656 Q433.2813,63 432.6719,63 L427.5313,63 Q426.9219,63 426.6563,62.7656 Q426.3906,62.5313 426.3906,62.1406 Q426.3906,61.7656 426.6563,61.5313 Q426.9219,61.2969 427.5313,61.2969 L429.25,61.2969 L429.25,54.6406 L427.5313,54.6406 Q426.9219,54.6406 426.6563,54.4063 Q426.3906,54.1719 426.3906,53.7813 Q426.3906,53.4063 426.6563,53.1719 Q426.9219,52.9375 427.5313,52.9375 L432.6719,52.9375 Q433.2813,52.9375 433.5469,53.1719 Q433.8125,53.4063 433.8125,53.7813 Q433.8125,54.1719 433.5469,54.4063 Q433.2813,54.6406 432.6719,54.6406 L430.9531,54.6406 Z " fill="#000000"/><text fill="#000000" font-family="sans-serif" font-size="12" font-style="italic" lengthAdjust="spacing" textLength="130" x="444" y="62.9102">IMeasurementObserver</text><line style="stroke:#A80036;stroke-width:1.5;" x1="416" x2="576" y1="74" y2="74"/><line style="stroke:#A80036;stroke-width:1.5;" x1="416" x2="576" y1="82" y2="82"/><ellipse cx="426" cy="93" fill="#84BE84" rx="3" ry="3" style="stroke:#038048;stroke-width:1.0;"/><text fill="#000000" font-family="sans-serif" font-size="11" lengthAdjust="spacing" textLength="35" x="435" y="97.4189">notify()</text><!--MD5=[42df499ea091e702e8c30a3396030958]
class HMI--><rect codeLine="12" fill="#FEFECE" filter="url(#f9g8zq2m1lmqk)" height="48" id="HMI" style="stroke:#A80036;stroke-width:1.5;" width="53" x="230.5" y="164"/><ellipse cx="245.5" cy="180" fill="#ADD1B2" rx="11" ry="11" style="stroke:#A80036;stroke-width:1.0;"/><path d="M248.2656,175.875 Q248.4219,175.6563 248.6094,175.5469 Q248.7969,175.4375 249.0156,175.4375 Q249.3906,175.4375 249.625,175.6953 Q249.8594,175.9531 249.8594,176.5625 L249.8594,178.0156 Q249.8594,178.625 249.625,178.8906 Q249.3906,179.1563 249.0156,179.1563 Q248.6719,179.1563 248.4688,178.9531 Q248.2656,178.7656 248.1563,178.25 Q248.1094,177.8906 247.9219,177.7031 Q247.5938,177.3281 246.9844,177.1094 Q246.375,176.8906 245.75,176.8906 Q244.9844,176.8906 244.3516,177.2188 Q243.7188,177.5469 243.2266,178.2969 Q242.7344,179.0469 242.7344,180.0781 L242.7344,181.1719 Q242.7344,182.4063 243.625,183.2266 Q244.5156,184.0469 246.1094,184.0469 Q247.0469,184.0469 247.7031,183.7969 Q248.0938,183.6406 248.5156,183.2031 Q248.7813,182.9375 248.9297,182.8594 Q249.0781,182.7813 249.2813,182.7813 Q249.6094,182.7813 249.8672,183.0391 Q250.125,183.2969 250.125,183.6406 Q250.125,183.9844 249.7813,184.3906 Q249.2813,184.9688 248.4844,185.2969 Q247.4063,185.75 246.1094,185.75 Q244.5938,185.75 243.3906,185.125 Q242.4063,184.625 241.7188,183.5547 Q241.0313,182.4844 241.0313,181.2031 L241.0313,180.0469 Q241.0313,178.7188 241.6484,177.5703 Q242.2656,176.4219 243.3594,175.8047 Q244.4531,175.1875 245.6875,175.1875 Q246.4219,175.1875 247.0703,175.3516 Q247.7188,175.5156 248.2656,175.875 Z " fill="#000000"/><text fill="#000000" font-family="sans-serif" font-size="12" lengthAdjust="spacing" textLength="21" x="259.5" y="184.9102">HMI</text><line style="stroke:#A80036;stroke-width:1.5;" x1="231.5" x2="282.5" y1="196" y2="196"/><line style="stroke:#A80036;stroke-width:1.5;" x1="231.5" x2="282.5" y1="204" y2="204"/><!--MD5=[7db34624215397195264460eca68bfc7]
class SDCardStorage--><rect codeLine="16" fill="#FEFECE" filter="url(#f9g8zq2m1lmqk)" height="48" id="SDCardStorage" style="stroke:#A80036;stroke-width:1.5;" width="119" x="436.5" y="288"/><ellipse cx="451.5" cy="304" fill="#ADD1B2" rx="11" ry="11" style="stroke:#A80036;stroke-width:1.0;"/><path d="M454.2656,299.875 Q454.4219,299.6563 454.6094,299.5469 Q454.7969,299.4375 455.0156,299.4375 Q455.3906,299.4375 455.625,299.6953 Q455.8594,299.9531 455.8594,300.5625 L455.8594,302.0156 Q455.8594,302.625 455.625,302.8906 Q455.3906,303.1563 455.0156,303.1563 Q454.6719,303.1563 454.4688,302.9531 Q454.2656,302.7656 454.1563,302.25 Q454.1094,301.8906 453.9219,301.7031 Q453.5938,301.3281 452.9844,301.1094 Q452.375,300.8906 451.75,300.8906 Q450.9844,300.8906 450.3516,301.2188 Q449.7188,301.5469 449.2266,302.2969 Q448.7344,303.0469 448.7344,304.0781 L448.7344,305.1719 Q448.7344,306.4063 449.625,307.2266 Q450.5156,308.0469 452.1094,308.0469 Q453.0469,308.0469 453.7031,307.7969 Q454.0938,307.6406 454.5156,307.2031 Q454.7813,306.9375 454.9297,306.8594 Q455.0781,306.7813 455.2813,306.7813 Q455.6094,306.7813 455.8672,307.0391 Q456.125,307.2969 456.125,307.6406 Q456.125,307.9844 455.7813,308.3906 Q455.2813,308.9688 454.4844,309.2969 Q453.4063,309.75 452.1094,309.75 Q450.5938,309.75 449.3906,309.125 Q448.4063,308.625 447.7188,307.5547 Q447.0313,306.4844 447.0313,305.2031 L447.0313,304.0469 Q447.0313,302.7188 447.6484,301.5703 Q448.2656,300.4219 449.3594,299.8047 Q450.4531,299.1875 451.6875,299.1875 Q452.4219,299.1875 453.0703,299.3516 Q453.7188,299.5156 454.2656,299.875 Z " fill="#000000"/><text fill="#000000" font-family="sans-serif" font-size="12" lengthAdjust="spacing" textLength="87" x="465.5" y="308.9102">SDCardStorage</text><line style="stroke:#A80036;stroke-width:1.5;" x1="437.5" x2="554.5" y1="320" y2="320"/><line style="stroke:#A80036;stroke-width:1.5;" x1="437.5" x2="554.5" y1="328" y2="328"/><!--MD5=[593d588e1c6f1d7ea50db6f5126e276f]
class UARTStorage--><rect codeLine="17" fill="#FEFECE" filter="url(#f9g8zq2m1lmqk)" height="48" id="UARTStorage" style="stroke:#A80036;stroke-width:1.5;" width="107" x="590.5" y="288"/><ellipse cx="605.5" cy="304" fill="#ADD1B2" rx="11" ry="11" style="stroke:#A80036;stroke-width:1.0;"/><path d="M608.2656,299.875 Q608.4219,299.6563 608.6094,299.5469 Q608.7969,299.4375 609.0156,299.4375 Q609.3906,299.4375 609.625,299.6953 Q609.8594,299.9531 609.8594,300.5625 L609.8594,302.0156 Q609.8594,302.625 609.625,302.8906 Q609.3906,303.1563 609.0156,303.1563 Q608.6719,303.1563 608.4688,302.9531 Q608.2656,302.7656 608.1563,302.25 Q608.1094,301.8906 607.9219,301.7031 Q607.5938,301.3281 606.9844,301.1094 Q606.375,300.8906 605.75,300.8906 Q604.9844,300.8906 604.3516,301.2188 Q603.7188,301.5469 603.2266,302.2969 Q602.7344,303.0469 602.7344,304.0781 L602.7344,305.1719 Q602.7344,306.4063 603.625,307.2266 Q604.5156,308.0469 606.1094,308.0469 Q607.0469,308.0469 607.7031,307.7969 Q608.0938,307.6406 608.5156,307.2031 Q608.7813,306.9375 608.9297,306.8594 Q609.0781,306.7813 609.2813,306.7813 Q609.6094,306.7813 609.8672,307.0391 Q610.125,307.2969 610.125,307.6406 Q610.125,307.9844 609.7813,308.3906 Q609.2813,308.9688 608.4844,309.2969 Q607.4063,309.75 606.1094,309.75 Q604.5938,309.75 603.3906,309.125 Q602.4063,308.625 601.7188,307.5547 Q601.0313,306.4844 601.0313,305.2031 L601.0313,304.0469 Q601.0313,302.7188 601.6484,301.5703 Q602.2656,300.4219 603.3594,299.8047 Q604.4531,299.1875 605.6875,299.1875 Q606.4219,299.1875 607.0703,299.3516 Q607.7188,299.5156 608.2656,299.875 Z " fill="#000000"/><text fill="#000000" font-family="sans-serif" font-size="12" lengthAdjust="spacing" textLength="75" x="619.5" y="308.9102">UARTStorage</text><line style="stroke:#A80036;stroke-width:1.5;" x1="591.5" x2="696.5" y1="320" y2="320"/><line style="stroke:#A80036;stroke-width:1.5;" x1="591.5" x2="696.5" y1="328" y2="328"/><!--MD5=[5dabd1a6e6389832061ac86dbbf44f08]
class WifiStorage--><rect codeLine="18" fill="#FEFECE" filter="url(#f9g8zq2m1lmqk)" height="48" id="WifiStorage" style="stroke:#A80036;stroke-width:1.5;" width="95" x="732.5" y="288"/><ellipse cx="747.5" cy="304" fill="#ADD1B2" rx="11" ry="11" style="stroke:#A80036;stroke-width:1.0;"/><path d="M750.2656,299.875 Q750.4219,299.6563 750.6094,299.5469 Q750.7969,299.4375 751.0156,299.4375 Q751.3906,299.4375 751.625,299.6953 Q751.8594,299.9531 751.8594,300.5625 L751.8594,302.0156 Q751.8594,302.625 751.625,302.8906 Q751.3906,303.1563 751.0156,303.1563 Q750.6719,303.1563 750.4688,302.9531 Q750.2656,302.7656 750.1563,302.25 Q750.1094,301.8906 749.9219,301.7031 Q749.5938,301.3281 748.9844,301.1094 Q748.375,300.8906 747.75,300.8906 Q746.9844,300.8906 746.3516,301.2188 Q745.7188,301.5469 745.2266,302.2969 Q744.7344,303.0469 744.7344,304.0781 L744.7344,305.1719 Q744.7344,306.4063 745.625,307.2266 Q746.5156,308.0469 748.1094,308.0469 Q749.0469,308.0469 749.7031,307.7969 Q750.0938,307.6406 750.5156,307.2031 Q750.7813,306.9375 750.9297,306.8594 Q751.0781,306.7813 751.2813,306.7813 Q751.6094,306.7813 751.8672,307.0391 Q752.125,307.2969 752.125,307.6406 Q752.125,307.9844 751.7813,308.3906 Q751.2813,308.9688 750.4844,309.2969 Q749.4063,309.75 748.1094,309.75 Q746.5938,309.75 745.3906,309.125 Q744.4063,308.625 743.7188,307.5547 Q743.0313,306.4844 743.0313,305.2031 L743.0313,304.0469 Q743.0313,302.7188 743.6484,301.5703 Q744.2656,300.4219 745.3594,299.8047 Q746.4531,299.1875 747.6875,299.1875 Q748.4219,299.1875 749.0703,299.3516 Q749.7188,299.5156 750.2656,299.875 Z " fill="#000000"/><text fill="#000000" font-family="sans-serif" font-size="12" lengthAdjust="spacing" textLength="63" x="761.5" y="308.9102">WifiStorage</text><line style="stroke:#A80036;stroke-width:1.5;" x1="733.5" x2="826.5" y1="320" y2="320"/><line style="stroke:#A80036;stroke-width:1.5;" x1="733.5" x2="826.5" y1="328" y2="328"/><!--MD5=[1a9877e4aca07f786966db7824970e50]
class PulesTransmitingDevice--><rect codeLine="20" fill="#FEFECE" filter="url(#f9g8zq2m1lmqk)" height="48" id="PulesTransmitingDevice" style="stroke:#A80036;stroke-width:1.5;" width="167" x="32.5" y="288"/><ellipse cx="47.5" cy="304" fill="#ADD1B2" rx="11" ry="11" style="stroke:#A80036;stroke-width:1.0;"/><path d="M50.2656,299.875 Q50.4219,299.6563 50.6094,299.5469 Q50.7969,299.4375 51.0156,299.4375 Q51.3906,299.4375 51.625,299.6953 Q51.8594,299.9531 51.8594,300.5625 L51.8594,302.0156 Q51.8594,302.625 51.625,302.8906 Q51.3906,303.1563 51.0156,303.1563 Q50.6719,303.1563 50.4688,302.9531 Q50.2656,302.7656 50.1563,302.25 Q50.1094,301.8906 49.9219,301.7031 Q49.5938,301.3281 48.9844,301.1094 Q48.375,300.8906 47.75,300.8906 Q46.9844,300.8906 46.3516,301.2188 Q45.7188,301.5469 45.2266,302.2969 Q44.7344,303.0469 44.7344,304.0781 L44.7344,305.1719 Q44.7344,306.4063 45.625,307.2266 Q46.5156,308.0469 48.1094,308.0469 Q49.0469,308.0469 49.7031,307.7969 Q50.0938,307.6406 50.5156,307.2031 Q50.7813,306.9375 50.9297,306.8594 Q51.0781,306.7813 51.2813,306.7813 Q51.6094,306.7813 51.8672,307.0391 Q52.125,307.2969 52.125,307.6406 Q52.125,307.9844 51.7813,308.3906 Q51.2813,308.9688 50.4844,309.2969 Q49.4063,309.75 48.1094,309.75 Q46.5938,309.75 45.3906,309.125 Q44.4063,308.625 43.7188,307.5547 Q43.0313,306.4844 43.0313,305.2031 L43.0313,304.0469 Q43.0313,302.7188 43.6484,301.5703 Q44.2656,300.4219 45.3594,299.8047 Q46.4531,299.1875 47.6875,299.1875 Q48.4219,299.1875 49.0703,299.3516 Q49.7188,299.5156 50.2656,299.875 Z " fill="#000000"/><text fill="#000000" font-family="sans-serif" font-size="12" lengthAdjust="spacing" textLength="135" x="61.5" y="308.9102">PulesTransmitingDevice</text><line style="stroke:#A80036;stroke-width:1.5;" x1="33.5" x2="198.5" y1="320" y2="320"/><line style="stroke:#A80036;stroke-width:1.5;" x1="33.5" x2="198.5" y1="328" y2="328"/><!--MD5=[94a62d523f7a13f3bf60230249c9a6f6]
class UARTTransmitingDevice--><rect codeLine="21" fill="#FEFECE" filter="url(#f9g8zq2m1lmqk)" height="48" id="UARTTransmitingDevice" style="stroke:#A80036;stroke-width:1.5;" width="167" x="234.5" y="288"/><ellipse cx="249.5" cy="304" fill="#ADD1B2" rx="11" ry="11" style="stroke:#A80036;stroke-width:1.0;"/><path d="M252.2656,299.875 Q252.4219,299.6563 252.6094,299.5469 Q252.7969,299.4375 253.0156,299.4375 Q253.3906,299.4375 253.625,299.6953 Q253.8594,299.9531 253.8594,300.5625 L253.8594,302.0156 Q253.8594,302.625 253.625,302.8906 Q253.3906,303.1563 253.0156,303.1563 Q252.6719,303.1563 252.4688,302.9531 Q252.2656,302.7656 252.1563,302.25 Q252.1094,301.8906 251.9219,301.7031 Q251.5938,301.3281 250.9844,301.1094 Q250.375,300.8906 249.75,300.8906 Q248.9844,300.8906 248.3516,301.2188 Q247.7188,301.5469 247.2266,302.2969 Q246.7344,303.0469 246.7344,304.0781 L246.7344,305.1719 Q246.7344,306.4063 247.625,307.2266 Q248.5156,308.0469 250.1094,308.0469 Q251.0469,308.0469 251.7031,307.7969 Q252.0938,307.6406 252.5156,307.2031 Q252.7813,306.9375 252.9297,306.8594 Q253.0781,306.7813 253.2813,306.7813 Q253.6094,306.7813 253.8672,307.0391 Q254.125,307.2969 254.125,307.6406 Q254.125,307.9844 253.7813,308.3906 Q253.2813,308.9688 252.4844,309.2969 Q251.4063,309.75 250.1094,309.75 Q248.5938,309.75 247.3906,309.125 Q246.4063,308.625 245.7188,307.5547 Q245.0313,306.4844 245.0313,305.2031 L245.0313,304.0469 Q245.0313,302.7188 245.6484,301.5703 Q246.2656,300.4219 247.3594,299.8047 Q248.4531,299.1875 249.6875,299.1875 Q250.4219,299.1875 251.0703,299.3516 Q251.7188,299.5156 252.2656,299.875 Z " fill="#000000"/><text fill="#000000" font-family="sans-serif" font-size="12" lengthAdjust="spacing" textLength="135" x="263.5" y="308.9102">UARTTransmitingDevice</text><line style="stroke:#A80036;stroke-width:1.5;" x1="235.5" x2="400.5" y1="320" y2="320"/><line style="stroke:#A80036;stroke-width:1.5;" x1="235.5" x2="400.5" y1="328" y2="328"/><!--MD5=[d76c2e50c9d900214dbc1495845f58a8]
reverse link MeasurementSubject to IMeasurementObserver--><path codeLine="24" d="M392.74,73 C400.03,73 407.32,73 414.62,73 " fill="none" id="MeasurementSubject-backto-IMeasurementObserver" style="stroke:#A80036;stroke-width:1.0;"/><polygon fill="#FFFFFF" points="379.61,73,385.61,77,391.61,73,385.61,69,379.61,73" style="stroke:#A80036;stroke-width:1.0;"/><!--MD5=[47e36bb1d439a10de725a510f990373f]
reverse link IMeasurementObserver to SDCardStorage--><path codeLine="26" d="M496,124.26 C496,174.75 496,250.32 496,287.96 " fill="none" id="IMeasurementObserver-backto-SDCardStorage" style="stroke:#A80036;stroke-width:1.0;"/><polygon fill="none" points="489,124.02,496,104.02,503,124.02,489,124.02" style="stroke:#A80036;stroke-width:1.0;"/><!--MD5=[5f4ef3f13b4d0962886b76fa896802bb]
reverse link IMeasurementObserver to UARTStorage--><path codeLine="27" d="M525.5,121.24 C557.01,171.69 605.63,249.56 629.61,287.96 " fill="none" id="IMeasurementObserver-backto-UARTStorage" style="stroke:#A80036;stroke-width:1.0;"/><polygon fill="none" points="519.4,124.69,514.74,104.02,531.28,117.27,519.4,124.69" style="stroke:#A80036;stroke-width:1.0;"/><!--MD5=[c11083eb8d0003e347b3ed9c89d37092]
reverse link IMeasurementObserver to WifiStorage--><path codeLine="28" d="M554.93,116.23 C600.06,149.4 663.18,197.59 715,244 C730.45,257.84 746.7,274.59 759.09,287.88 " fill="none" id="IMeasurementObserver-backto-WifiStorage" style="stroke:#A80036;stroke-width:1.0;"/><polygon fill="none" points="550.59,121.73,538.57,104.28,558.85,110.42,550.59,121.73" style="stroke:#A80036;stroke-width:1.0;"/><!--MD5=[fc1634b6cccafd6b890319a3554aff44]
reverse link IMeasurementObserver to HMI--><path codeLine="29" d="M414.02,112.76 C368.56,134.25 315.05,159.55 283.69,174.38 " fill="none" id="IMeasurementObserver-backto-HMI" style="stroke:#A80036;stroke-width:1.0;"/><polygon fill="none" points="411.19,106.35,432.27,104.13,417.18,119.01,411.19,106.35" style="stroke:#A80036;stroke-width:1.0;"/><!--MD5=[261278cdf40d7cd5872198dec7cce5b6]
link MeasurementSubject to PulesTransmitingDevice--><path codeLine="32" d="M314.82,104.08 C324.57,140.35 333.8,200.81 301,236 C288.21,249.72 234.68,237.74 217,244 C189.43,253.76 162.02,272.68 142.73,287.93 " fill="none" id="MeasurementSubject-PulesTransmitingDevice" style="stroke:#A80036;stroke-width:1.0;"/><!--MD5=[427a3014fe1739477ef0107983c2e6ac]
link MeasurementSubject to UARTTransmitingDevice--><path codeLine="33" d="M330.77,104.28 C343.12,120.78 356.6,142.24 363,164 C372.03,194.7 371.54,205.16 363,236 C357.77,254.88 346.39,273.77 336.38,287.88 " fill="none" id="MeasurementSubject-UARTTransmitingDevice" style="stroke:#A80036;stroke-width:1.0;"/><!--MD5=[4073165f2f849975159b14ab448d270f]
@startuml

package BusinessLogic {
    class MeasurementSubject {
        +notifyObservers()
    }

    Interface IMeasurementObserver {
        +notify()
    }


    class HMI
}

package Device {
    class SDCardStorage
    class UARTStorage
    class WifiStorage

    class PulesTransmitingDevice
    class UARTTransmitingDevice
}

MeasurementSubject o- IMeasurementObserver

IMeasurementObserver <|- - - SDCardStorage
IMeasurementObserver <|- - UARTStorage
IMeasurementObserver <|- - WifiStorage
IMeasurementObserver <|- - HMI


MeasurementSubject - - PulesTransmitingDevice
MeasurementSubject - - UARTTransmitingDevice
@enduml

PlantUML version 1.2021.7(Sun May 23 14:40:07 CEST 2021)
(GPL source distribution)
Java Runtime: Java(TM) SE Runtime Environment
JVM: Java HotSpot(TM) 64-Bit Server VM
Default Encoding: Cp1250
Language: fr
Country: FR
--></g></svg>