<?xml version="1.0" encoding="UTF-8" standalone="no"?><svg xmlns="http://www.w3.org/2000/svg" xmlns:xlink="http://www.w3.org/1999/xlink" contentScriptType="application/ecmascript" contentStyleType="text/css" height="1034px" preserveAspectRatio="none" style="width:467px;height:1034px;background:#FFFFFF;" version="1.1" viewBox="0 0 467 1034" width="467px" zoomAndPan="magnify"><defs><filter height="300%" id="f1u9ow903z7jyj" width="300%" x="-1" y="-1"><feGaussianBlur result="blurOut" stdDeviation="2.0"/><feColorMatrix in="blurOut" result="blurOut2" type="matrix" values="0 0 0 0 0 0 0 0 0 0 0 0 0 0 0 0 0 0 .4 0"/><feOffset dx="4.0" dy="4.0" in="blurOut2" result="blurOut3"/><feBlend in="SourceGraphic" in2="blurOut3" mode="normal"/></filter></defs><g><!--MD5=[d64883541e3d62e3241c4d12decf100d]
cluster Application--><polygon fill="#FFFFFF" filter="url(#f1u9ow903z7jyj)" points="30,6,114,6,121,29.6094,366,29.6094,366,161,30,161,30,6" style="stroke:#000000;stroke-width:1.5;"/><line style="stroke:#000000;stroke-width:1.5;" x1="30" x2="121" y1="29.6094" y2="29.6094"/><text fill="#000000" font-family="sans-serif" font-size="14" font-weight="bold" lengthAdjust="spacing" textLength="78" x="34" y="22.5332">Application</text><!--MD5=[eba421ac8e20ac42f3ee759fe6c4cf96]
cluster Device--><polygon fill="#FFFFFF" filter="url(#f1u9ow903z7jyj)" points="26,185,81,185,88,208.6094,450,208.6094,450,476,26,476,26,185" style="stroke:#000000;stroke-width:1.5;"/><line style="stroke:#000000;stroke-width:1.5;" x1="26" x2="88" y1="208.6094" y2="208.6094"/><text fill="#000000" font-family="sans-serif" font-size="14" font-weight="bold" lengthAdjust="spacing" textLength="49" x="30" y="201.5332">Device</text><!--MD5=[61c41a14a0f790ada34cbd71756aea65]
cluster Driver--><polygon fill="#FFFFFF" filter="url(#f1u9ow903z7jyj)" points="16,545,66,545,73,568.6094,343,568.6094,343,1027,16,1027,16,545" style="stroke:#000000;stroke-width:1.5;"/><line style="stroke:#000000;stroke-width:1.5;" x1="16" x2="73" y1="568.6094" y2="568.6094"/><text fill="#000000" font-family="sans-serif" font-size="14" font-weight="bold" lengthAdjust="spacing" textLength="44" x="20" y="561.5332">Driver</text><!--MD5=[fcc3e949faeeb705efb1ec4534c325ce]
class Meassurement--><rect codeLine="3" fill="#FEFECE" filter="url(#f1u9ow903z7jyj)" height="48" id="Meassurement" style="stroke:#A80036;stroke-width:1.5;" width="115" x="46.5" y="69.5"/><ellipse cx="61.5" cy="85.5" fill="#ADD1B2" rx="11" ry="11" style="stroke:#A80036;stroke-width:1.0;"/><path d="M64.2656,81.375 Q64.4219,81.1563 64.6094,81.0469 Q64.7969,80.9375 65.0156,80.9375 Q65.3906,80.9375 65.625,81.1953 Q65.8594,81.4531 65.8594,82.0625 L65.8594,83.5156 Q65.8594,84.125 65.625,84.3906 Q65.3906,84.6563 65.0156,84.6563 Q64.6719,84.6563 64.4688,84.4531 Q64.2656,84.2656 64.1563,83.75 Q64.1094,83.3906 63.9219,83.2031 Q63.5938,82.8281 62.9844,82.6094 Q62.375,82.3906 61.75,82.3906 Q60.9844,82.3906 60.3516,82.7188 Q59.7188,83.0469 59.2266,83.7969 Q58.7344,84.5469 58.7344,85.5781 L58.7344,86.6719 Q58.7344,87.9063 59.625,88.7266 Q60.5156,89.5469 62.1094,89.5469 Q63.0469,89.5469 63.7031,89.2969 Q64.0938,89.1406 64.5156,88.7031 Q64.7813,88.4375 64.9297,88.3594 Q65.0781,88.2813 65.2813,88.2813 Q65.6094,88.2813 65.8672,88.5391 Q66.125,88.7969 66.125,89.1406 Q66.125,89.4844 65.7813,89.8906 Q65.2813,90.4688 64.4844,90.7969 Q63.4063,91.25 62.1094,91.25 Q60.5938,91.25 59.3906,90.625 Q58.4063,90.125 57.7188,89.0547 Q57.0313,87.9844 57.0313,86.7031 L57.0313,85.5469 Q57.0313,84.2188 57.6484,83.0703 Q58.2656,81.9219 59.3594,81.3047 Q60.4531,80.6875 61.6875,80.6875 Q62.4219,80.6875 63.0703,80.8516 Q63.7188,81.0156 64.2656,81.375 Z " fill="#000000"/><text fill="#000000" font-family="sans-serif" font-size="12" lengthAdjust="spacing" textLength="83" x="75.5" y="90.4102">Meassurement</text><line style="stroke:#A80036;stroke-width:1.5;" x1="47.5" x2="160.5" y1="101.5" y2="101.5"/><line style="stroke:#A80036;stroke-width:1.5;" x1="47.5" x2="160.5" y1="109.5" y2="109.5"/><!--MD5=[45a0bc03ebf70602769dbf80803c9ff5]
class StoragesContainer--><rect codeLine="5" fill="#FEFECE" filter="url(#f1u9ow903z7jyj)" height="103.3438" id="StoragesContainer" style="stroke:#A80036;stroke-width:1.5;" width="153" x="196.5" y="42"/><ellipse cx="219.15" cy="58" fill="#ADD1B2" rx="11" ry="11" style="stroke:#A80036;stroke-width:1.0;"/><path d="M221.9156,53.875 Q222.0719,53.6563 222.2594,53.5469 Q222.4469,53.4375 222.6656,53.4375 Q223.0406,53.4375 223.275,53.6953 Q223.5094,53.9531 223.5094,54.5625 L223.5094,56.0156 Q223.5094,56.625 223.275,56.8906 Q223.0406,57.1563 222.6656,57.1563 Q222.3219,57.1563 222.1188,56.9531 Q221.9156,56.7656 221.8063,56.25 Q221.7594,55.8906 221.5719,55.7031 Q221.2438,55.3281 220.6344,55.1094 Q220.025,54.8906 219.4,54.8906 Q218.6344,54.8906 218.0016,55.2188 Q217.3688,55.5469 216.8766,56.2969 Q216.3844,57.0469 216.3844,58.0781 L216.3844,59.1719 Q216.3844,60.4063 217.275,61.2266 Q218.1656,62.0469 219.7594,62.0469 Q220.6969,62.0469 221.3531,61.7969 Q221.7438,61.6406 222.1656,61.2031 Q222.4313,60.9375 222.5797,60.8594 Q222.7281,60.7813 222.9313,60.7813 Q223.2594,60.7813 223.5172,61.0391 Q223.775,61.2969 223.775,61.6406 Q223.775,61.9844 223.4313,62.3906 Q222.9313,62.9688 222.1344,63.2969 Q221.0563,63.75 219.7594,63.75 Q218.2438,63.75 217.0406,63.125 Q216.0563,62.625 215.3688,61.5547 Q214.6813,60.4844 214.6813,59.2031 L214.6813,58.0469 Q214.6813,56.7188 215.2984,55.5703 Q215.9156,54.4219 217.0094,53.8047 Q218.1031,53.1875 219.3375,53.1875 Q220.0719,53.1875 220.7203,53.3516 Q221.3688,53.5156 221.9156,53.875 Z " fill="#000000"/><text fill="#000000" font-family="sans-serif" font-size="12" lengthAdjust="spacing" textLength="104" x="234.85" y="62.9102">StoragesContainer</text><line style="stroke:#A80036;stroke-width:1.5;" x1="197.5" x2="348.5" y1="74" y2="74"/><line style="stroke:#A80036;stroke-width:1.5;" x1="197.5" x2="348.5" y1="82" y2="82"/><ellipse cx="207.5" cy="93" fill="#84BE84" rx="3" ry="3" style="stroke:#038048;stroke-width:1.0;"/><text fill="#000000" font-family="sans-serif" font-size="11" lengthAdjust="spacing" textLength="44" x="216.5" y="97.4189">void init()</text><ellipse cx="207.5" cy="106.8359" fill="#84BE84" rx="3" ry="3" style="stroke:#038048;stroke-width:1.0;"/><text fill="#000000" font-family="sans-serif" font-size="11" lengthAdjust="spacing" textLength="77" x="216.5" y="111.2549">void configure()</text><ellipse cx="207.5" cy="120.6719" fill="#84BE84" rx="3" ry="3" style="stroke:#038048;stroke-width:1.0;"/><text fill="#000000" font-family="sans-serif" font-size="11" lengthAdjust="spacing" textLength="47" x="216.5" y="125.0908">void tick()</text><ellipse cx="207.5" cy="134.5078" fill="#84BE84" rx="3" ry="3" style="stroke:#038048;stroke-width:1.0;"/><text fill="#000000" font-family="sans-serif" font-size="11" lengthAdjust="spacing" textLength="127" x="216.5" y="138.9268">void write(Meassurement)</text><!--MD5=[e8cfd755308414781c0123d0000bbf77]
class IStorage--><rect codeLine="16" fill="#FEFECE" filter="url(#f1u9ow903z7jyj)" height="103.3438" id="IStorage" style="stroke:#A80036;stroke-width:1.5;" width="97" x="64.5" y="221"/><ellipse cx="87.6" cy="237" fill="#B4A7E5" rx="11" ry="11" style="stroke:#A80036;stroke-width:1.0;"/><path d="M88.5531,233.6406 L88.5531,240.2969 L90.2719,240.2969 Q90.8813,240.2969 91.1469,240.5313 Q91.4125,240.7656 91.4125,241.1563 Q91.4125,241.5313 91.1469,241.7656 Q90.8813,242 90.2719,242 L85.1313,242 Q84.5219,242 84.2563,241.7656 Q83.9906,241.5313 83.9906,241.1406 Q83.9906,240.7656 84.2563,240.5313 Q84.5219,240.2969 85.1313,240.2969 L86.85,240.2969 L86.85,233.6406 L85.1313,233.6406 Q84.5219,233.6406 84.2563,233.4063 Q83.9906,233.1719 83.9906,232.7813 Q83.9906,232.4063 84.2563,232.1719 Q84.5219,231.9375 85.1313,231.9375 L90.2719,231.9375 Q90.8813,231.9375 91.1469,232.1719 Q91.4125,232.4063 91.4125,232.7813 Q91.4125,233.1719 91.1469,233.4063 Q90.8813,233.6406 90.2719,233.6406 L88.5531,233.6406 Z " fill="#000000"/><text fill="#000000" font-family="sans-serif" font-size="12" font-style="italic" lengthAdjust="spacing" textLength="47" x="103.4" y="241.9102">IStorage</text><line style="stroke:#A80036;stroke-width:1.5;" x1="65.5" x2="160.5" y1="253" y2="253"/><line style="stroke:#A80036;stroke-width:1.5;" x1="65.5" x2="160.5" y1="261" y2="261"/><ellipse cx="75.5" cy="272" fill="#84BE84" rx="3" ry="3" style="stroke:#038048;stroke-width:1.0;"/><text fill="#000000" font-family="sans-serif" font-size="11" lengthAdjust="spacing" textLength="44" x="84.5" y="276.4189">void init()</text><ellipse cx="75.5" cy="285.8359" fill="#84BE84" rx="3" ry="3" style="stroke:#038048;stroke-width:1.0;"/><text fill="#000000" font-family="sans-serif" font-size="11" lengthAdjust="spacing" textLength="56" x="84.5" y="290.2549">void deinit()</text><ellipse cx="75.5" cy="299.6719" fill="#84BE84" rx="3" ry="3" style="stroke:#038048;stroke-width:1.0;"/><text fill="#000000" font-family="sans-serif" font-size="11" lengthAdjust="spacing" textLength="56" x="84.5" y="304.0908">void write()</text><rect fill="#F24D5C" height="6" style="stroke:#C82930;stroke-width:1.0;" width="6" x="72.5" y="310.5078"/><text fill="#000000" font-family="sans-serif" font-size="11" lengthAdjust="spacing" textLength="71" x="84.5" y="317.9268">void serialize()</text><!--MD5=[5dabd1a6e6389832061ac86dbbf44f08]
class WifiStorage--><rect codeLine="29" fill="#FEFECE" filter="url(#f1u9ow903z7jyj)" height="75.6719" id="WifiStorage" style="stroke:#A80036;stroke-width:1.5;" width="95" x="42.5" y="384"/><ellipse cx="57.5" cy="400" fill="#ADD1B2" rx="11" ry="11" style="stroke:#A80036;stroke-width:1.0;"/><path d="M60.2656,395.875 Q60.4219,395.6563 60.6094,395.5469 Q60.7969,395.4375 61.0156,395.4375 Q61.3906,395.4375 61.625,395.6953 Q61.8594,395.9531 61.8594,396.5625 L61.8594,398.0156 Q61.8594,398.625 61.625,398.8906 Q61.3906,399.1563 61.0156,399.1563 Q60.6719,399.1563 60.4688,398.9531 Q60.2656,398.7656 60.1563,398.25 Q60.1094,397.8906 59.9219,397.7031 Q59.5938,397.3281 58.9844,397.1094 Q58.375,396.8906 57.75,396.8906 Q56.9844,396.8906 56.3516,397.2188 Q55.7188,397.5469 55.2266,398.2969 Q54.7344,399.0469 54.7344,400.0781 L54.7344,401.1719 Q54.7344,402.4063 55.625,403.2266 Q56.5156,404.0469 58.1094,404.0469 Q59.0469,404.0469 59.7031,403.7969 Q60.0938,403.6406 60.5156,403.2031 Q60.7813,402.9375 60.9297,402.8594 Q61.0781,402.7813 61.2813,402.7813 Q61.6094,402.7813 61.8672,403.0391 Q62.125,403.2969 62.125,403.6406 Q62.125,403.9844 61.7813,404.3906 Q61.2813,404.9688 60.4844,405.2969 Q59.4063,405.75 58.1094,405.75 Q56.5938,405.75 55.3906,405.125 Q54.4063,404.625 53.7188,403.5547 Q53.0313,402.4844 53.0313,401.2031 L53.0313,400.0469 Q53.0313,398.7188 53.6484,397.5703 Q54.2656,396.4219 55.3594,395.8047 Q56.4531,395.1875 57.6875,395.1875 Q58.4219,395.1875 59.0703,395.3516 Q59.7188,395.5156 60.2656,395.875 Z " fill="#000000"/><text fill="#000000" font-family="sans-serif" font-size="12" lengthAdjust="spacing" textLength="63" x="71.5" y="404.9102">WifiStorage</text><line style="stroke:#A80036;stroke-width:1.5;" x1="43.5" x2="136.5" y1="416" y2="416"/><rect fill="none" height="6" style="stroke:#C82930;stroke-width:1.0;" width="6" x="50.5" y="424"/><text fill="#000000" font-family="sans-serif" font-size="11" lengthAdjust="spacing" textLength="22" x="62.5" y="431.4189">login</text><rect fill="none" height="6" style="stroke:#C82930;stroke-width:1.0;" width="6" x="50.5" y="437.8359"/><text fill="#000000" font-family="sans-serif" font-size="11" lengthAdjust="spacing" textLength="50" x="62.5" y="445.2549">password</text><line style="stroke:#A80036;stroke-width:1.5;" x1="43.5" x2="136.5" y1="451.6719" y2="451.6719"/><!--MD5=[7db34624215397195264460eca68bfc7]
class SDCardStorage--><rect codeLine="34" fill="#FEFECE" filter="url(#f1u9ow903z7jyj)" height="61.8359" id="SDCardStorage" style="stroke:#A80036;stroke-width:1.5;" width="119" x="172.5" y="391"/><ellipse cx="187.5" cy="407" fill="#ADD1B2" rx="11" ry="11" style="stroke:#A80036;stroke-width:1.0;"/><path d="M190.2656,402.875 Q190.4219,402.6563 190.6094,402.5469 Q190.7969,402.4375 191.0156,402.4375 Q191.3906,402.4375 191.625,402.6953 Q191.8594,402.9531 191.8594,403.5625 L191.8594,405.0156 Q191.8594,405.625 191.625,405.8906 Q191.3906,406.1563 191.0156,406.1563 Q190.6719,406.1563 190.4688,405.9531 Q190.2656,405.7656 190.1563,405.25 Q190.1094,404.8906 189.9219,404.7031 Q189.5938,404.3281 188.9844,404.1094 Q188.375,403.8906 187.75,403.8906 Q186.9844,403.8906 186.3516,404.2188 Q185.7188,404.5469 185.2266,405.2969 Q184.7344,406.0469 184.7344,407.0781 L184.7344,408.1719 Q184.7344,409.4063 185.625,410.2266 Q186.5156,411.0469 188.1094,411.0469 Q189.0469,411.0469 189.7031,410.7969 Q190.0938,410.6406 190.5156,410.2031 Q190.7813,409.9375 190.9297,409.8594 Q191.0781,409.7813 191.2813,409.7813 Q191.6094,409.7813 191.8672,410.0391 Q192.125,410.2969 192.125,410.6406 Q192.125,410.9844 191.7813,411.3906 Q191.2813,411.9688 190.4844,412.2969 Q189.4063,412.75 188.1094,412.75 Q186.5938,412.75 185.3906,412.125 Q184.4063,411.625 183.7188,410.5547 Q183.0313,409.4844 183.0313,408.2031 L183.0313,407.0469 Q183.0313,405.7188 183.6484,404.5703 Q184.2656,403.4219 185.3594,402.8047 Q186.4531,402.1875 187.6875,402.1875 Q188.4219,402.1875 189.0703,402.3516 Q189.7188,402.5156 190.2656,402.875 Z " fill="#000000"/><text fill="#000000" font-family="sans-serif" font-size="12" lengthAdjust="spacing" textLength="87" x="201.5" y="411.9102">SDCardStorage</text><line style="stroke:#A80036;stroke-width:1.5;" x1="173.5" x2="290.5" y1="423" y2="423"/><rect fill="none" height="6" style="stroke:#C82930;stroke-width:1.0;" width="6" x="180.5" y="431"/><text fill="#000000" font-family="sans-serif" font-size="11" lengthAdjust="spacing" textLength="41" x="192.5" y="438.4189">fileName</text><line style="stroke:#A80036;stroke-width:1.5;" x1="173.5" x2="290.5" y1="444.8359" y2="444.8359"/><!--MD5=[593d588e1c6f1d7ea50db6f5126e276f]
class UARTStorage--><rect codeLine="38" fill="#FEFECE" filter="url(#f1u9ow903z7jyj)" height="48" id="UARTStorage" style="stroke:#A80036;stroke-width:1.5;" width="107" x="326.5" y="398"/><ellipse cx="341.5" cy="414" fill="#ADD1B2" rx="11" ry="11" style="stroke:#A80036;stroke-width:1.0;"/><path d="M344.2656,409.875 Q344.4219,409.6563 344.6094,409.5469 Q344.7969,409.4375 345.0156,409.4375 Q345.3906,409.4375 345.625,409.6953 Q345.8594,409.9531 345.8594,410.5625 L345.8594,412.0156 Q345.8594,412.625 345.625,412.8906 Q345.3906,413.1563 345.0156,413.1563 Q344.6719,413.1563 344.4688,412.9531 Q344.2656,412.7656 344.1563,412.25 Q344.1094,411.8906 343.9219,411.7031 Q343.5938,411.3281 342.9844,411.1094 Q342.375,410.8906 341.75,410.8906 Q340.9844,410.8906 340.3516,411.2188 Q339.7188,411.5469 339.2266,412.2969 Q338.7344,413.0469 338.7344,414.0781 L338.7344,415.1719 Q338.7344,416.4063 339.625,417.2266 Q340.5156,418.0469 342.1094,418.0469 Q343.0469,418.0469 343.7031,417.7969 Q344.0938,417.6406 344.5156,417.2031 Q344.7813,416.9375 344.9297,416.8594 Q345.0781,416.7813 345.2813,416.7813 Q345.6094,416.7813 345.8672,417.0391 Q346.125,417.2969 346.125,417.6406 Q346.125,417.9844 345.7813,418.3906 Q345.2813,418.9688 344.4844,419.2969 Q343.4063,419.75 342.1094,419.75 Q340.5938,419.75 339.3906,419.125 Q338.4063,418.625 337.7188,417.5547 Q337.0313,416.4844 337.0313,415.2031 L337.0313,414.0469 Q337.0313,412.7188 337.6484,411.5703 Q338.2656,410.4219 339.3594,409.8047 Q340.4531,409.1875 341.6875,409.1875 Q342.4219,409.1875 343.0703,409.3516 Q343.7188,409.5156 344.2656,409.875 Z " fill="#000000"/><text fill="#000000" font-family="sans-serif" font-size="12" lengthAdjust="spacing" textLength="75" x="355.5" y="418.9102">UARTStorage</text><line style="stroke:#A80036;stroke-width:1.5;" x1="327.5" x2="432.5" y1="430" y2="430"/><line style="stroke:#A80036;stroke-width:1.5;" x1="327.5" x2="432.5" y1="438" y2="438"/><!--MD5=[de27ec6bb9ae4d985ba3a8f3c8f525a7]
class SDCardDriver--><rect codeLine="43" fill="#FEFECE" filter="url(#f1u9ow903z7jyj)" height="158.6875" id="SDCardDriver" style="stroke:#A80036;stroke-width:1.5;" width="150" x="177" y="581"/><ellipse cx="210.9" cy="597" fill="#ADD1B2" rx="11" ry="11" style="stroke:#A80036;stroke-width:1.0;"/><path d="M213.6656,592.875 Q213.8219,592.6563 214.0094,592.5469 Q214.1969,592.4375 214.4156,592.4375 Q214.7906,592.4375 215.025,592.6953 Q215.2594,592.9531 215.2594,593.5625 L215.2594,595.0156 Q215.2594,595.625 215.025,595.8906 Q214.7906,596.1563 214.4156,596.1563 Q214.0719,596.1563 213.8688,595.9531 Q213.6656,595.7656 213.5563,595.25 Q213.5094,594.8906 213.3219,594.7031 Q212.9938,594.3281 212.3844,594.1094 Q211.775,593.8906 211.15,593.8906 Q210.3844,593.8906 209.7516,594.2188 Q209.1188,594.5469 208.6266,595.2969 Q208.1344,596.0469 208.1344,597.0781 L208.1344,598.1719 Q208.1344,599.4063 209.025,600.2266 Q209.9156,601.0469 211.5094,601.0469 Q212.4469,601.0469 213.1031,600.7969 Q213.4938,600.6406 213.9156,600.2031 Q214.1813,599.9375 214.3297,599.8594 Q214.4781,599.7813 214.6813,599.7813 Q215.0094,599.7813 215.2672,600.0391 Q215.525,600.2969 215.525,600.6406 Q215.525,600.9844 215.1813,601.3906 Q214.6813,601.9688 213.8844,602.2969 Q212.8063,602.75 211.5094,602.75 Q209.9938,602.75 208.7906,602.125 Q207.8063,601.625 207.1188,600.5547 Q206.4313,599.4844 206.4313,598.2031 L206.4313,597.0469 Q206.4313,595.7188 207.0484,594.5703 Q207.6656,593.4219 208.7594,592.8047 Q209.8531,592.1875 211.0875,592.1875 Q211.8219,592.1875 212.4703,592.3516 Q213.1188,592.5156 213.6656,592.875 Z " fill="#000000"/><text fill="#000000" font-family="sans-serif" font-size="12" lengthAdjust="spacing" textLength="76" x="229.1" y="601.9102">SDCardDriver</text><line style="stroke:#A80036;stroke-width:1.5;" x1="178" x2="326" y1="613" y2="613"/><rect fill="none" height="6" style="stroke:#C82930;stroke-width:1.0;" width="6" x="185" y="621"/><text fill="#000000" font-family="sans-serif" font-size="11" lengthAdjust="spacing" textLength="87" x="197" y="628.4189">fileSystemHandler</text><rect fill="none" height="6" style="stroke:#C82930;stroke-width:1.0;" width="6" x="185" y="634.8359"/><text fill="#000000" font-family="sans-serif" font-size="11" lengthAdjust="spacing" textLength="67" x="197" y="642.2549">logFileHandler</text><line style="stroke:#A80036;stroke-width:1.5;" x1="178" x2="326" y1="648.6719" y2="648.6719"/><rect fill="#F24D5C" height="6" style="stroke:#C82930;stroke-width:1.0;" width="6" x="185" y="656.6719"/><text fill="#000000" font-family="sans-serif" font-size="11" lengthAdjust="spacing" textLength="112" x="197" y="664.0908">void mountFileSystem()</text><rect fill="#F24D5C" height="6" style="stroke:#C82930;stroke-width:1.0;" width="6" x="185" y="670.5078"/><text fill="#000000" font-family="sans-serif" font-size="11" lengthAdjust="spacing" textLength="124" x="197" y="677.9268">void unmountFileSystem()</text><rect fill="#F24D5C" height="6" style="stroke:#C82930;stroke-width:1.0;" width="6" x="185" y="684.3438"/><text fill="#000000" font-family="sans-serif" font-size="11" lengthAdjust="spacing" textLength="71" x="197" y="691.7627">void openFile()</text><rect fill="#F24D5C" height="6" style="stroke:#C82930;stroke-width:1.0;" width="6" x="185" y="698.1797"/><text fill="#000000" font-family="sans-serif" font-size="11" lengthAdjust="spacing" textLength="73" x="197" y="705.5986">void closeFile()</text><rect fill="#F24D5C" height="6" style="stroke:#C82930;stroke-width:1.0;" width="6" x="185" y="712.0156"/><text fill="#000000" font-family="sans-serif" font-size="11" lengthAdjust="spacing" textLength="55" x="197" y="719.4346">void sync()</text><rect fill="#F24D5C" height="6" style="stroke:#C82930;stroke-width:1.0;" width="6" x="185" y="725.8516"/><text fill="#000000" font-family="sans-serif" font-size="11" lengthAdjust="spacing" textLength="84" x="197" y="733.2705">void writeToFile()</text><!--MD5=[20f746540be94bb88eafd071c2d57044]
class WifiDriver--><rect codeLine="55" fill="#FEFECE" filter="url(#f1u9ow903z7jyj)" height="75.6719" id="WifiDriver" style="stroke:#A80036;stroke-width:1.5;" width="110" x="32" y="622.5"/><ellipse cx="58.7" cy="638.5" fill="#ADD1B2" rx="11" ry="11" style="stroke:#A80036;stroke-width:1.0;"/><path d="M61.4656,634.375 Q61.6219,634.1563 61.8094,634.0469 Q61.9969,633.9375 62.2156,633.9375 Q62.5906,633.9375 62.825,634.1953 Q63.0594,634.4531 63.0594,635.0625 L63.0594,636.5156 Q63.0594,637.125 62.825,637.3906 Q62.5906,637.6563 62.2156,637.6563 Q61.8719,637.6563 61.6688,637.4531 Q61.4656,637.2656 61.3563,636.75 Q61.3094,636.3906 61.1219,636.2031 Q60.7938,635.8281 60.1844,635.6094 Q59.575,635.3906 58.95,635.3906 Q58.1844,635.3906 57.5516,635.7188 Q56.9188,636.0469 56.4266,636.7969 Q55.9344,637.5469 55.9344,638.5781 L55.9344,639.6719 Q55.9344,640.9063 56.825,641.7266 Q57.7156,642.5469 59.3094,642.5469 Q60.2469,642.5469 60.9031,642.2969 Q61.2938,642.1406 61.7156,641.7031 Q61.9813,641.4375 62.1297,641.3594 Q62.2781,641.2813 62.4813,641.2813 Q62.8094,641.2813 63.0672,641.5391 Q63.325,641.7969 63.325,642.1406 Q63.325,642.4844 62.9813,642.8906 Q62.4813,643.4688 61.6844,643.7969 Q60.6063,644.25 59.3094,644.25 Q57.7938,644.25 56.5906,643.625 Q55.6063,643.125 54.9188,642.0547 Q54.2313,640.9844 54.2313,639.7031 L54.2313,638.5469 Q54.2313,637.2188 54.8484,636.0703 Q55.4656,634.9219 56.5594,634.3047 Q57.6531,633.6875 58.8875,633.6875 Q59.6219,633.6875 60.2703,633.8516 Q60.9188,634.0156 61.4656,634.375 Z " fill="#000000"/><text fill="#000000" font-family="sans-serif" font-size="12" lengthAdjust="spacing" textLength="52" x="75.3" y="643.4102">WifiDriver</text><line style="stroke:#A80036;stroke-width:1.5;" x1="33" x2="141" y1="654.5" y2="654.5"/><line style="stroke:#A80036;stroke-width:1.5;" x1="33" x2="141" y1="662.5" y2="662.5"/><rect fill="#F24D5C" height="6" style="stroke:#C82930;stroke-width:1.0;" width="6" x="40" y="670.5"/><text fill="#000000" font-family="sans-serif" font-size="11" lengthAdjust="spacing" textLength="70" x="52" y="677.9189">void connect()</text><rect fill="#F24D5C" height="6" style="stroke:#C82930;stroke-width:1.0;" width="6" x="40" y="684.3359"/><text fill="#000000" font-family="sans-serif" font-size="11" lengthAdjust="spacing" textLength="84" x="52" y="691.7549">void disconnect()</text><!--MD5=[123a1d09c24313992a8650e1506f75a8]
class UARTDriver--><rect codeLine="60" fill="#FEFECE" filter="url(#f1u9ow903z7jyj)" height="48" id="UARTDriver" style="stroke:#A80036;stroke-width:1.5;" width="96" x="133" y="963"/><ellipse cx="148" cy="979" fill="#ADD1B2" rx="11" ry="11" style="stroke:#A80036;stroke-width:1.0;"/><path d="M150.7656,974.875 Q150.9219,974.6563 151.1094,974.5469 Q151.2969,974.4375 151.5156,974.4375 Q151.8906,974.4375 152.125,974.6953 Q152.3594,974.9531 152.3594,975.5625 L152.3594,977.0156 Q152.3594,977.625 152.125,977.8906 Q151.8906,978.1563 151.5156,978.1563 Q151.1719,978.1563 150.9688,977.9531 Q150.7656,977.7656 150.6563,977.25 Q150.6094,976.8906 150.4219,976.7031 Q150.0938,976.3281 149.4844,976.1094 Q148.875,975.8906 148.25,975.8906 Q147.4844,975.8906 146.8516,976.2188 Q146.2188,976.5469 145.7266,977.2969 Q145.2344,978.0469 145.2344,979.0781 L145.2344,980.1719 Q145.2344,981.4063 146.125,982.2266 Q147.0156,983.0469 148.6094,983.0469 Q149.5469,983.0469 150.2031,982.7969 Q150.5938,982.6406 151.0156,982.2031 Q151.2813,981.9375 151.4297,981.8594 Q151.5781,981.7813 151.7813,981.7813 Q152.1094,981.7813 152.3672,982.0391 Q152.625,982.2969 152.625,982.6406 Q152.625,982.9844 152.2813,983.3906 Q151.7813,983.9688 150.9844,984.2969 Q149.9063,984.75 148.6094,984.75 Q147.0938,984.75 145.8906,984.125 Q144.9063,983.625 144.2188,982.5547 Q143.5313,981.4844 143.5313,980.2031 L143.5313,979.0469 Q143.5313,977.7188 144.1484,976.5703 Q144.7656,975.4219 145.8594,974.8047 Q146.9531,974.1875 148.1875,974.1875 Q148.9219,974.1875 149.5703,974.3516 Q150.2188,974.5156 150.7656,974.875 Z " fill="#000000"/><text fill="#000000" font-family="sans-serif" font-size="12" lengthAdjust="spacing" textLength="64" x="162" y="983.9102">UARTDriver</text><line style="stroke:#A80036;stroke-width:1.5;" x1="134" x2="228" y1="995" y2="995"/><line style="stroke:#A80036;stroke-width:1.5;" x1="134" x2="228" y1="1003" y2="1003"/><!--MD5=[5ad4cd9c7bfe258d69f010f77acf2a05]
class IUARTDriver--><rect codeLine="64" fill="#FEFECE" filter="url(#f1u9ow903z7jyj)" height="103.3438" id="IUARTDriver" style="stroke:#A80036;stroke-width:1.5;" width="102" x="130" y="800"/><ellipse cx="145" cy="816" fill="#B4A7E5" rx="11" ry="11" style="stroke:#A80036;stroke-width:1.0;"/><path d="M145.9531,812.6406 L145.9531,819.2969 L147.6719,819.2969 Q148.2813,819.2969 148.5469,819.5313 Q148.8125,819.7656 148.8125,820.1563 Q148.8125,820.5313 148.5469,820.7656 Q148.2813,821 147.6719,821 L142.5313,821 Q141.9219,821 141.6563,820.7656 Q141.3906,820.5313 141.3906,820.1406 Q141.3906,819.7656 141.6563,819.5313 Q141.9219,819.2969 142.5313,819.2969 L144.25,819.2969 L144.25,812.6406 L142.5313,812.6406 Q141.9219,812.6406 141.6563,812.4063 Q141.3906,812.1719 141.3906,811.7813 Q141.3906,811.4063 141.6563,811.1719 Q141.9219,810.9375 142.5313,810.9375 L147.6719,810.9375 Q148.2813,810.9375 148.5469,811.1719 Q148.8125,811.4063 148.8125,811.7813 Q148.8125,812.1719 148.5469,812.4063 Q148.2813,812.6406 147.6719,812.6406 L145.9531,812.6406 Z " fill="#000000"/><text fill="#000000" font-family="sans-serif" font-size="12" font-style="italic" lengthAdjust="spacing" textLength="70" x="159" y="820.9102">IUARTDriver</text><line style="stroke:#A80036;stroke-width:1.5;" x1="131" x2="231" y1="832" y2="832"/><line style="stroke:#A80036;stroke-width:1.5;" x1="131" x2="231" y1="840" y2="840"/><ellipse cx="141" cy="851" fill="#84BE84" rx="3" ry="3" style="stroke:#038048;stroke-width:1.0;"/><text fill="#000000" font-family="sans-serif" font-size="11" lengthAdjust="spacing" textLength="55" x="150" y="855.4189">void open()</text><ellipse cx="141" cy="864.8359" fill="#84BE84" rx="3" ry="3" style="stroke:#038048;stroke-width:1.0;"/><text fill="#000000" font-family="sans-serif" font-size="11" lengthAdjust="spacing" textLength="57" x="150" y="869.2549">void close()</text><ellipse cx="141" cy="878.6719" fill="#84BE84" rx="3" ry="3" style="stroke:#038048;stroke-width:1.0;"/><text fill="#000000" font-family="sans-serif" font-size="11" lengthAdjust="spacing" textLength="53" x="150" y="883.0908">void read()</text><ellipse cx="141" cy="892.5078" fill="#84BE84" rx="3" ry="3" style="stroke:#038048;stroke-width:1.0;"/><text fill="#000000" font-family="sans-serif" font-size="11" lengthAdjust="spacing" textLength="56" x="150" y="896.9268">void write()</text><!--MD5=[0a180db10c151aa9b00756324e53e628]
link Meassurement to StoragesContainer--><path codeLine="12" d="M161.76,93.5 C173.21,93.5 184.65,93.5 196.09,93.5 " fill="none" id="Meassurement-StoragesContainer" style="stroke:#A80036;stroke-width:1.0;"/><!--MD5=[dd545a4845b946a8d0d73330785238ef]
link StoragesContainer to IStorage--><path codeLine="73" d="M219.62,145.07 C209.24,155.42 198.6,166.39 189,177 C176.56,190.73 163.7,206.19 152.17,220.57 " fill="none" id="StoragesContainer-IStorage" style="stroke:#A80036;stroke-width:1.0;"/><!--MD5=[7de8398d00877e507ad41a6047a3e2b0]
reverse link StoragesContainer to SDCardStorage--><path codeLine="74" d="M265,158.2 C256.19,228.33 242.41,338.11 235.79,390.8 " fill="none" id="StoragesContainer-backto-SDCardStorage" style="stroke:#A80036;stroke-width:1.0;"/><polygon fill="#A80036" points="266.64,145.16,261.9259,150.6169,265.15,157.0671,269.864,151.6102,266.64,145.16" style="stroke:#A80036;stroke-width:1.0;"/><!--MD5=[278eb68ce087738c48779b563fd677ec]
reverse link StoragesContainer to UARTStorage--><path codeLine="75" d="M293.77,157.88 C317.83,231.3 356.23,348.47 372.41,397.85 " fill="none" id="StoragesContainer-backto-UARTStorage" style="stroke:#A80036;stroke-width:1.0;"/><polygon fill="#A80036" points="289.6,145.16,287.6736,152.109,293.3472,156.5599,295.2736,149.6109,289.6,145.16" style="stroke:#A80036;stroke-width:1.0;"/><!--MD5=[be86c472081707a0253ecbf8508ad3de]
reverse link StoragesContainer to WifiStorage--><path codeLine="76" d="M246.31,157.06 C243.48,163.78 240.67,170.53 238,177 C211.14,242.07 216.52,264.43 179,324 C165.48,345.47 146.95,366.55 130.3,383.55 " fill="none" id="StoragesContainer-backto-WifiStorage" style="stroke:#A80036;stroke-width:1.0;"/><polygon fill="#A80036" points="251.37,145.05,245.3562,149.0292,246.7163,156.1109,252.7301,152.1317,251.37,145.05" style="stroke:#A80036;stroke-width:1.0;"/><!--MD5=[cec09b1c5fbaf5c9ed1eb16ae86abc48]
reverse link IStorage to WifiStorage--><path codeLine="78" d="M101.93,344.48 C99.82,358.03 97.69,371.69 95.82,383.66 " fill="none" id="IStorage-backto-WifiStorage" style="stroke:#A80036;stroke-width:1.0;"/><polygon fill="none" points="95.09,342.94,105.08,324.26,108.92,345.1,95.09,342.94" style="stroke:#A80036;stroke-width:1.0;"/><!--MD5=[c337b72e48a7b8615da23c5fd41699f5]
reverse link IStorage to SDCardStorage--><path codeLine="79" d="M166.62,339.97 C180.96,357.74 195.76,376.08 207.65,390.81 " fill="none" id="IStorage-backto-SDCardStorage" style="stroke:#A80036;stroke-width:1.0;"/><polygon fill="none" points="161.06,344.22,153.95,324.26,171.96,335.43,161.06,344.22" style="stroke:#A80036;stroke-width:1.0;"/><!--MD5=[2b1cc75c4a09291f91ed8ab054efcaa5]
reverse link IStorage to UARTStorage--><path codeLine="80" d="M179.49,310.23 C229.24,337.72 295.76,374.46 338.25,397.94 " fill="none" id="IStorage-backto-UARTStorage" style="stroke:#A80036;stroke-width:1.0;"/><polygon fill="none" points="175.78,316.18,161.66,300.38,182.55,303.93,175.78,316.18" style="stroke:#A80036;stroke-width:1.0;"/><!--MD5=[24ea1a3a1c99c02c467f2545e0ecae49]
reverse link SDCardStorage to SDCardDriver--><path codeLine="82" d="M235.7,466.76 C238.4,498.71 242.14,542.92 245.36,580.93 " fill="none" id="SDCardStorage-backto-SDCardDriver" style="stroke:#A80036;stroke-width:1.0;"/><polygon fill="#A80036" points="234.57,453.43,231.0925,459.7472,235.5862,465.3869,239.0637,459.0697,234.57,453.43" style="stroke:#A80036;stroke-width:1.0;"/><!--MD5=[2dc7e96a9887d6a9972754472472160a]
reverse link WifiStorage to WifiDriver--><path codeLine="83" d="M89.36,473.37 C88.8,517.94 87.98,581.96 87.47,622.11 " fill="none" id="WifiStorage-backto-WifiDriver" style="stroke:#A80036;stroke-width:1.0;"/><polygon fill="#A80036" points="89.53,460.21,85.4512,466.1567,89.3718,472.209,93.4505,466.2622,89.53,460.21" style="stroke:#A80036;stroke-width:1.0;"/><!--MD5=[6075ec76974c3c169267b7e4a943c861]
link UARTStorage to IUARTDriver--><path codeLine="85" d="M383.66,446.18 C391.15,501.55 403.02,644.06 345,740 C319.24,782.6 270.05,812.39 232.23,830.22 " fill="none" id="UARTStorage-IUARTDriver" style="stroke:#A80036;stroke-width:1.0;"/><!--MD5=[c740dfa57a634bb2617d93e52ab01122]
link WifiDriver to IUARTDriver--><path codeLine="86" d="M105.57,698.84 C119.96,727.78 140.05,768.17 155.88,800 " fill="none" id="WifiDriver-IUARTDriver" style="stroke:#A80036;stroke-width:1.0;"/><!--MD5=[3834341bb3b38364c986710f142f2b8f]
reverse link IUARTDriver to UARTDriver--><path codeLine="87" d="M181,923.41 C181,937.68 181,951.69 181,962.83 " fill="none" id="IUARTDriver-backto-UARTDriver" style="stroke:#A80036;stroke-width:1.0;"/><polygon fill="none" points="174,923.35,181,903.35,188,923.35,174,923.35" style="stroke:#A80036;stroke-width:1.0;"/><!--MD5=[0333dd88ed387a4e69fabfab8103ac03]
@startuml

package Application {
    class Meassurement

    class StoragesContainer {
        +void init()
        +void configure()
        +void tick()
        +void write(Meassurement)
    }

    Meassurement - StoragesContainer
}

package Device {
    interface IStorage {
        +void init()
        +void deinit()
        +void write()
        -void serialize()
    }
/'
   note right of WifiStorage
    ESP8266MOD has only Wifi support.
    In future it would be possible 
    to use ESP32 that has also Bloototh.
    end note
'/
    class WifiStorage {
        -login
        -password
    }

    class SDCardStorage {
        -fileName
    }

    class UARTStorage {
    }
}

package Driver {
    class SDCardDriver {
        -void mountFileSystem()
        -void unmountFileSystem()
        -void openFile()
        -void closeFile()
        -void sync()
        -void writeToFile()

        - fileSystemHandler
        - logFileHandler
    }

    class WifiDriver {
        -void connect()
        -void disconnect()
    }

    class UARTDriver {

    }

    interface IUARTDriver {
        +void open()
        +void close()
        +void read()
        +void write()
    }
}


StoragesContainer - - IStorage
StoragesContainer *- - - SDCardStorage
StoragesContainer *- - - UARTStorage
StoragesContainer *- - - WifiStorage

IStorage <|- - WifiStorage
IStorage <|- - SDCardStorage
IStorage <|- - UARTStorage

SDCardStorage *- - SDCardDriver
WifiStorage *- - - WifiDriver

UARTStorage - - IUARTDriver
WifiDriver - - IUARTDriver
IUARTDriver <|- - UARTDriver


@enduml

@startuml

package Application {
    class Meassurement

    class StoragesContainer {
        +void init()
        +void configure()
        +void tick()
        +void write(Meassurement)
    }

    Meassurement - StoragesContainer
}

package Device {
    interface IStorage {
        +void init()
        +void deinit()
        +void write()
        -void serialize()
    }
    class WifiStorage {
        -login
        -password
    }

    class SDCardStorage {
        -fileName
    }

    class UARTStorage {
    }
}

package Driver {
    class SDCardDriver {
        -void mountFileSystem()
        -void unmountFileSystem()
        -void openFile()
        -void closeFile()
        -void sync()
        -void writeToFile()

        - fileSystemHandler
        - logFileHandler
    }

    class WifiDriver {
        -void connect()
        -void disconnect()
    }

    class UARTDriver {

    }

    interface IUARTDriver {
        +void open()
        +void close()
        +void read()
        +void write()
    }
}


StoragesContainer - - IStorage
StoragesContainer *- - - SDCardStorage
StoragesContainer *- - - UARTStorage
StoragesContainer *- - - WifiStorage

IStorage <|- - WifiStorage
IStorage <|- - SDCardStorage
IStorage <|- - UARTStorage

SDCardStorage *- - SDCardDriver
WifiStorage *- - - WifiDriver

UARTStorage - - IUARTDriver
WifiDriver - - IUARTDriver
IUARTDriver <|- - UARTDriver


@enduml

PlantUML version 1.2021.7(Sun May 23 14:40:07 CEST 2021)
(GPL source distribution)
Java Runtime: Java(TM) SE Runtime Environment
JVM: Java HotSpot(TM) 64-Bit Server VM
Default Encoding: Cp1250
Language: fr
Country: FR
--></g></svg>