<?xml version="1.0" encoding="UTF-8" standalone="no"?><svg xmlns="http://www.w3.org/2000/svg" xmlns:xlink="http://www.w3.org/1999/xlink" contentScriptType="application/ecmascript" contentStyleType="text/css" height="934px" preserveAspectRatio="none" style="width:467px;height:934px;background:#FFFFFF;" version="1.1" viewBox="0 0 467 934" width="467px" zoomAndPan="magnify"><defs><filter height="300%" id="f1rgdugdrhn1my" width="300%" x="-1" y="-1"><feGaussianBlur result="blurOut" stdDeviation="2.0"/><feColorMatrix in="blurOut" result="blurOut2" type="matrix" values="0 0 0 0 0 0 0 0 0 0 0 0 0 0 0 0 0 0 .4 0"/><feOffset dx="4.0" dy="4.0" in="blurOut2" result="blurOut3"/><feBlend in="SourceGraphic" in2="blurOut3" mode="normal"/></filter></defs><g><!--MD5=[4bc8eeeccf9386de727fe25afb3a433e]
cluster BusinessLogic--><polygon fill="#FFFFFF" filter="url(#f1rgdugdrhn1my)" points="98,6,207,6,214,29.6094,292,29.6094,292,106,98,106,98,6" style="stroke:#000000;stroke-width:1.5;"/><line style="stroke:#000000;stroke-width:1.5;" x1="98" x2="214" y1="29.6094" y2="29.6094"/><text fill="#000000" font-family="sans-serif" font-size="14" font-weight="bold" lengthAdjust="spacing" textLength="103" x="102" y="22.5332">BusinessLogic</text><!--MD5=[eba421ac8e20ac42f3ee759fe6c4cf96]
cluster Device--><polygon fill="#FFFFFF" filter="url(#f1rgdugdrhn1my)" points="26,130,81,130,88,153.6094,450,153.6094,450,421,26,421,26,130" style="stroke:#000000;stroke-width:1.5;"/><line style="stroke:#000000;stroke-width:1.5;" x1="26" x2="88" y1="153.6094" y2="153.6094"/><text fill="#000000" font-family="sans-serif" font-size="14" font-weight="bold" lengthAdjust="spacing" textLength="49" x="30" y="146.5332">Device</text><!--MD5=[61c41a14a0f790ada34cbd71756aea65]
cluster Driver--><polygon fill="#FFFFFF" filter="url(#f1rgdugdrhn1my)" points="16,445,66,445,73,468.6094,343,468.6094,343,927,16,927,16,445" style="stroke:#000000;stroke-width:1.5;"/><line style="stroke:#000000;stroke-width:1.5;" x1="16" x2="73" y1="468.6094" y2="468.6094"/><text fill="#000000" font-family="sans-serif" font-size="14" font-weight="bold" lengthAdjust="spacing" textLength="44" x="20" y="461.5332">Driver</text><!--MD5=[c94219d8aa10f4269647ad72c19979cd]
class IMeasurementObserver--><rect codeLine="4" fill="#FEFECE" filter="url(#f1rgdugdrhn1my)" height="48" id="IMeasurementObserver" style="stroke:#A80036;stroke-width:1.5;" width="162" x="114" y="42"/><ellipse cx="129" cy="58" fill="#B4A7E5" rx="11" ry="11" style="stroke:#A80036;stroke-width:1.0;"/><path d="M129.9531,54.6406 L129.9531,61.2969 L131.6719,61.2969 Q132.2813,61.2969 132.5469,61.5313 Q132.8125,61.7656 132.8125,62.1563 Q132.8125,62.5313 132.5469,62.7656 Q132.2813,63 131.6719,63 L126.5313,63 Q125.9219,63 125.6563,62.7656 Q125.3906,62.5313 125.3906,62.1406 Q125.3906,61.7656 125.6563,61.5313 Q125.9219,61.2969 126.5313,61.2969 L128.25,61.2969 L128.25,54.6406 L126.5313,54.6406 Q125.9219,54.6406 125.6563,54.4063 Q125.3906,54.1719 125.3906,53.7813 Q125.3906,53.4063 125.6563,53.1719 Q125.9219,52.9375 126.5313,52.9375 L131.6719,52.9375 Q132.2813,52.9375 132.5469,53.1719 Q132.8125,53.4063 132.8125,53.7813 Q132.8125,54.1719 132.5469,54.4063 Q132.2813,54.6406 131.6719,54.6406 L129.9531,54.6406 Z " fill="#000000"/><text fill="#000000" font-family="sans-serif" font-size="12" font-style="italic" lengthAdjust="spacing" textLength="130" x="143" y="62.9102">IMeasurementObserver</text><line style="stroke:#A80036;stroke-width:1.5;" x1="115" x2="275" y1="74" y2="74"/><line style="stroke:#A80036;stroke-width:1.5;" x1="115" x2="275" y1="82" y2="82"/><!--MD5=[e8cfd755308414781c0123d0000bbf77]
class IStorage--><rect codeLine="8" fill="#FEFECE" filter="url(#f1rgdugdrhn1my)" height="103.3438" id="IStorage" style="stroke:#A80036;stroke-width:1.5;" width="97" x="319.5" y="166"/><ellipse cx="342.6" cy="182" fill="#B4A7E5" rx="11" ry="11" style="stroke:#A80036;stroke-width:1.0;"/><path d="M343.5531,178.6406 L343.5531,185.2969 L345.2719,185.2969 Q345.8813,185.2969 346.1469,185.5313 Q346.4125,185.7656 346.4125,186.1563 Q346.4125,186.5313 346.1469,186.7656 Q345.8813,187 345.2719,187 L340.1313,187 Q339.5219,187 339.2563,186.7656 Q338.9906,186.5313 338.9906,186.1406 Q338.9906,185.7656 339.2563,185.5313 Q339.5219,185.2969 340.1313,185.2969 L341.85,185.2969 L341.85,178.6406 L340.1313,178.6406 Q339.5219,178.6406 339.2563,178.4063 Q338.9906,178.1719 338.9906,177.7813 Q338.9906,177.4063 339.2563,177.1719 Q339.5219,176.9375 340.1313,176.9375 L345.2719,176.9375 Q345.8813,176.9375 346.1469,177.1719 Q346.4125,177.4063 346.4125,177.7813 Q346.4125,178.1719 346.1469,178.4063 Q345.8813,178.6406 345.2719,178.6406 L343.5531,178.6406 Z " fill="#000000"/><text fill="#000000" font-family="sans-serif" font-size="12" font-style="italic" lengthAdjust="spacing" textLength="47" x="358.4" y="186.9102">IStorage</text><line style="stroke:#A80036;stroke-width:1.5;" x1="320.5" x2="415.5" y1="198" y2="198"/><line style="stroke:#A80036;stroke-width:1.5;" x1="320.5" x2="415.5" y1="206" y2="206"/><ellipse cx="330.5" cy="217" fill="#84BE84" rx="3" ry="3" style="stroke:#038048;stroke-width:1.0;"/><text fill="#000000" font-family="sans-serif" font-size="11" lengthAdjust="spacing" textLength="44" x="339.5" y="221.4189">void init()</text><ellipse cx="330.5" cy="230.8359" fill="#84BE84" rx="3" ry="3" style="stroke:#038048;stroke-width:1.0;"/><text fill="#000000" font-family="sans-serif" font-size="11" lengthAdjust="spacing" textLength="56" x="339.5" y="235.2549">void deinit()</text><ellipse cx="330.5" cy="244.6719" fill="#84BE84" rx="3" ry="3" style="stroke:#038048;stroke-width:1.0;"/><text fill="#000000" font-family="sans-serif" font-size="11" lengthAdjust="spacing" textLength="56" x="339.5" y="249.0908">void write()</text><rect fill="#F24D5C" height="6" style="stroke:#C82930;stroke-width:1.0;" width="6" x="327.5" y="255.5078"/><text fill="#000000" font-family="sans-serif" font-size="11" lengthAdjust="spacing" textLength="71" x="339.5" y="262.9268">void serialize()</text><!--MD5=[5dabd1a6e6389832061ac86dbbf44f08]
class WifiStorage--><rect codeLine="21" fill="#FEFECE" filter="url(#f1rgdugdrhn1my)" height="75.6719" id="WifiStorage" style="stroke:#A80036;stroke-width:1.5;" width="95" x="42.5" y="329"/><ellipse cx="57.5" cy="345" fill="#ADD1B2" rx="11" ry="11" style="stroke:#A80036;stroke-width:1.0;"/><path d="M60.2656,340.875 Q60.4219,340.6563 60.6094,340.5469 Q60.7969,340.4375 61.0156,340.4375 Q61.3906,340.4375 61.625,340.6953 Q61.8594,340.9531 61.8594,341.5625 L61.8594,343.0156 Q61.8594,343.625 61.625,343.8906 Q61.3906,344.1563 61.0156,344.1563 Q60.6719,344.1563 60.4688,343.9531 Q60.2656,343.7656 60.1563,343.25 Q60.1094,342.8906 59.9219,342.7031 Q59.5938,342.3281 58.9844,342.1094 Q58.375,341.8906 57.75,341.8906 Q56.9844,341.8906 56.3516,342.2188 Q55.7188,342.5469 55.2266,343.2969 Q54.7344,344.0469 54.7344,345.0781 L54.7344,346.1719 Q54.7344,347.4063 55.625,348.2266 Q56.5156,349.0469 58.1094,349.0469 Q59.0469,349.0469 59.7031,348.7969 Q60.0938,348.6406 60.5156,348.2031 Q60.7813,347.9375 60.9297,347.8594 Q61.0781,347.7813 61.2813,347.7813 Q61.6094,347.7813 61.8672,348.0391 Q62.125,348.2969 62.125,348.6406 Q62.125,348.9844 61.7813,349.3906 Q61.2813,349.9688 60.4844,350.2969 Q59.4063,350.75 58.1094,350.75 Q56.5938,350.75 55.3906,350.125 Q54.4063,349.625 53.7188,348.5547 Q53.0313,347.4844 53.0313,346.2031 L53.0313,345.0469 Q53.0313,343.7188 53.6484,342.5703 Q54.2656,341.4219 55.3594,340.8047 Q56.4531,340.1875 57.6875,340.1875 Q58.4219,340.1875 59.0703,340.3516 Q59.7188,340.5156 60.2656,340.875 Z " fill="#000000"/><text fill="#000000" font-family="sans-serif" font-size="12" lengthAdjust="spacing" textLength="63" x="71.5" y="349.9102">WifiStorage</text><line style="stroke:#A80036;stroke-width:1.5;" x1="43.5" x2="136.5" y1="361" y2="361"/><rect fill="none" height="6" style="stroke:#C82930;stroke-width:1.0;" width="6" x="50.5" y="369"/><text fill="#000000" font-family="sans-serif" font-size="11" lengthAdjust="spacing" textLength="22" x="62.5" y="376.4189">login</text><rect fill="none" height="6" style="stroke:#C82930;stroke-width:1.0;" width="6" x="50.5" y="382.8359"/><text fill="#000000" font-family="sans-serif" font-size="11" lengthAdjust="spacing" textLength="50" x="62.5" y="390.2549">password</text><line style="stroke:#A80036;stroke-width:1.5;" x1="43.5" x2="136.5" y1="396.6719" y2="396.6719"/><!--MD5=[7db34624215397195264460eca68bfc7]
class SDCardStorage--><rect codeLine="26" fill="#FEFECE" filter="url(#f1rgdugdrhn1my)" height="61.8359" id="SDCardStorage" style="stroke:#A80036;stroke-width:1.5;" width="119" x="172.5" y="336"/><ellipse cx="187.5" cy="352" fill="#ADD1B2" rx="11" ry="11" style="stroke:#A80036;stroke-width:1.0;"/><path d="M190.2656,347.875 Q190.4219,347.6563 190.6094,347.5469 Q190.7969,347.4375 191.0156,347.4375 Q191.3906,347.4375 191.625,347.6953 Q191.8594,347.9531 191.8594,348.5625 L191.8594,350.0156 Q191.8594,350.625 191.625,350.8906 Q191.3906,351.1563 191.0156,351.1563 Q190.6719,351.1563 190.4688,350.9531 Q190.2656,350.7656 190.1563,350.25 Q190.1094,349.8906 189.9219,349.7031 Q189.5938,349.3281 188.9844,349.1094 Q188.375,348.8906 187.75,348.8906 Q186.9844,348.8906 186.3516,349.2188 Q185.7188,349.5469 185.2266,350.2969 Q184.7344,351.0469 184.7344,352.0781 L184.7344,353.1719 Q184.7344,354.4063 185.625,355.2266 Q186.5156,356.0469 188.1094,356.0469 Q189.0469,356.0469 189.7031,355.7969 Q190.0938,355.6406 190.5156,355.2031 Q190.7813,354.9375 190.9297,354.8594 Q191.0781,354.7813 191.2813,354.7813 Q191.6094,354.7813 191.8672,355.0391 Q192.125,355.2969 192.125,355.6406 Q192.125,355.9844 191.7813,356.3906 Q191.2813,356.9688 190.4844,357.2969 Q189.4063,357.75 188.1094,357.75 Q186.5938,357.75 185.3906,357.125 Q184.4063,356.625 183.7188,355.5547 Q183.0313,354.4844 183.0313,353.2031 L183.0313,352.0469 Q183.0313,350.7188 183.6484,349.5703 Q184.2656,348.4219 185.3594,347.8047 Q186.4531,347.1875 187.6875,347.1875 Q188.4219,347.1875 189.0703,347.3516 Q189.7188,347.5156 190.2656,347.875 Z " fill="#000000"/><text fill="#000000" font-family="sans-serif" font-size="12" lengthAdjust="spacing" textLength="87" x="201.5" y="356.9102">SDCardStorage</text><line style="stroke:#A80036;stroke-width:1.5;" x1="173.5" x2="290.5" y1="368" y2="368"/><rect fill="none" height="6" style="stroke:#C82930;stroke-width:1.0;" width="6" x="180.5" y="376"/><text fill="#000000" font-family="sans-serif" font-size="11" lengthAdjust="spacing" textLength="41" x="192.5" y="383.4189">fileName</text><line style="stroke:#A80036;stroke-width:1.5;" x1="173.5" x2="290.5" y1="389.8359" y2="389.8359"/><!--MD5=[593d588e1c6f1d7ea50db6f5126e276f]
class UARTStorage--><rect codeLine="30" fill="#FEFECE" filter="url(#f1rgdugdrhn1my)" height="48" id="UARTStorage" style="stroke:#A80036;stroke-width:1.5;" width="107" x="326.5" y="343"/><ellipse cx="341.5" cy="359" fill="#ADD1B2" rx="11" ry="11" style="stroke:#A80036;stroke-width:1.0;"/><path d="M344.2656,354.875 Q344.4219,354.6563 344.6094,354.5469 Q344.7969,354.4375 345.0156,354.4375 Q345.3906,354.4375 345.625,354.6953 Q345.8594,354.9531 345.8594,355.5625 L345.8594,357.0156 Q345.8594,357.625 345.625,357.8906 Q345.3906,358.1563 345.0156,358.1563 Q344.6719,358.1563 344.4688,357.9531 Q344.2656,357.7656 344.1563,357.25 Q344.1094,356.8906 343.9219,356.7031 Q343.5938,356.3281 342.9844,356.1094 Q342.375,355.8906 341.75,355.8906 Q340.9844,355.8906 340.3516,356.2188 Q339.7188,356.5469 339.2266,357.2969 Q338.7344,358.0469 338.7344,359.0781 L338.7344,360.1719 Q338.7344,361.4063 339.625,362.2266 Q340.5156,363.0469 342.1094,363.0469 Q343.0469,363.0469 343.7031,362.7969 Q344.0938,362.6406 344.5156,362.2031 Q344.7813,361.9375 344.9297,361.8594 Q345.0781,361.7813 345.2813,361.7813 Q345.6094,361.7813 345.8672,362.0391 Q346.125,362.2969 346.125,362.6406 Q346.125,362.9844 345.7813,363.3906 Q345.2813,363.9688 344.4844,364.2969 Q343.4063,364.75 342.1094,364.75 Q340.5938,364.75 339.3906,364.125 Q338.4063,363.625 337.7188,362.5547 Q337.0313,361.4844 337.0313,360.2031 L337.0313,359.0469 Q337.0313,357.7188 337.6484,356.5703 Q338.2656,355.4219 339.3594,354.8047 Q340.4531,354.1875 341.6875,354.1875 Q342.4219,354.1875 343.0703,354.3516 Q343.7188,354.5156 344.2656,354.875 Z " fill="#000000"/><text fill="#000000" font-family="sans-serif" font-size="12" lengthAdjust="spacing" textLength="75" x="355.5" y="363.9102">UARTStorage</text><line style="stroke:#A80036;stroke-width:1.5;" x1="327.5" x2="432.5" y1="375" y2="375"/><line style="stroke:#A80036;stroke-width:1.5;" x1="327.5" x2="432.5" y1="383" y2="383"/><!--MD5=[de27ec6bb9ae4d985ba3a8f3c8f525a7]
class SDCardDriver--><rect codeLine="35" fill="#FEFECE" filter="url(#f1rgdugdrhn1my)" height="158.6875" id="SDCardDriver" style="stroke:#A80036;stroke-width:1.5;" width="150" x="177" y="481"/><ellipse cx="210.9" cy="497" fill="#ADD1B2" rx="11" ry="11" style="stroke:#A80036;stroke-width:1.0;"/><path d="M213.6656,492.875 Q213.8219,492.6563 214.0094,492.5469 Q214.1969,492.4375 214.4156,492.4375 Q214.7906,492.4375 215.025,492.6953 Q215.2594,492.9531 215.2594,493.5625 L215.2594,495.0156 Q215.2594,495.625 215.025,495.8906 Q214.7906,496.1563 214.4156,496.1563 Q214.0719,496.1563 213.8688,495.9531 Q213.6656,495.7656 213.5563,495.25 Q213.5094,494.8906 213.3219,494.7031 Q212.9938,494.3281 212.3844,494.1094 Q211.775,493.8906 211.15,493.8906 Q210.3844,493.8906 209.7516,494.2188 Q209.1188,494.5469 208.6266,495.2969 Q208.1344,496.0469 208.1344,497.0781 L208.1344,498.1719 Q208.1344,499.4063 209.025,500.2266 Q209.9156,501.0469 211.5094,501.0469 Q212.4469,501.0469 213.1031,500.7969 Q213.4938,500.6406 213.9156,500.2031 Q214.1813,499.9375 214.3297,499.8594 Q214.4781,499.7813 214.6813,499.7813 Q215.0094,499.7813 215.2672,500.0391 Q215.525,500.2969 215.525,500.6406 Q215.525,500.9844 215.1813,501.3906 Q214.6813,501.9688 213.8844,502.2969 Q212.8063,502.75 211.5094,502.75 Q209.9938,502.75 208.7906,502.125 Q207.8063,501.625 207.1188,500.5547 Q206.4313,499.4844 206.4313,498.2031 L206.4313,497.0469 Q206.4313,495.7188 207.0484,494.5703 Q207.6656,493.4219 208.7594,492.8047 Q209.8531,492.1875 211.0875,492.1875 Q211.8219,492.1875 212.4703,492.3516 Q213.1188,492.5156 213.6656,492.875 Z " fill="#000000"/><text fill="#000000" font-family="sans-serif" font-size="12" lengthAdjust="spacing" textLength="76" x="229.1" y="501.9102">SDCardDriver</text><line style="stroke:#A80036;stroke-width:1.5;" x1="178" x2="326" y1="513" y2="513"/><rect fill="none" height="6" style="stroke:#C82930;stroke-width:1.0;" width="6" x="185" y="521"/><text fill="#000000" font-family="sans-serif" font-size="11" lengthAdjust="spacing" textLength="87" x="197" y="528.4189">fileSystemHandler</text><rect fill="none" height="6" style="stroke:#C82930;stroke-width:1.0;" width="6" x="185" y="534.8359"/><text fill="#000000" font-family="sans-serif" font-size="11" lengthAdjust="spacing" textLength="67" x="197" y="542.2549">logFileHandler</text><line style="stroke:#A80036;stroke-width:1.5;" x1="178" x2="326" y1="548.6719" y2="548.6719"/><rect fill="#F24D5C" height="6" style="stroke:#C82930;stroke-width:1.0;" width="6" x="185" y="556.6719"/><text fill="#000000" font-family="sans-serif" font-size="11" lengthAdjust="spacing" textLength="112" x="197" y="564.0908">void mountFileSystem()</text><rect fill="#F24D5C" height="6" style="stroke:#C82930;stroke-width:1.0;" width="6" x="185" y="570.5078"/><text fill="#000000" font-family="sans-serif" font-size="11" lengthAdjust="spacing" textLength="124" x="197" y="577.9268">void unmountFileSystem()</text><rect fill="#F24D5C" height="6" style="stroke:#C82930;stroke-width:1.0;" width="6" x="185" y="584.3438"/><text fill="#000000" font-family="sans-serif" font-size="11" lengthAdjust="spacing" textLength="71" x="197" y="591.7627">void openFile()</text><rect fill="#F24D5C" height="6" style="stroke:#C82930;stroke-width:1.0;" width="6" x="185" y="598.1797"/><text fill="#000000" font-family="sans-serif" font-size="11" lengthAdjust="spacing" textLength="73" x="197" y="605.5986">void closeFile()</text><rect fill="#F24D5C" height="6" style="stroke:#C82930;stroke-width:1.0;" width="6" x="185" y="612.0156"/><text fill="#000000" font-family="sans-serif" font-size="11" lengthAdjust="spacing" textLength="55" x="197" y="619.4346">void sync()</text><rect fill="#F24D5C" height="6" style="stroke:#C82930;stroke-width:1.0;" width="6" x="185" y="625.8516"/><text fill="#000000" font-family="sans-serif" font-size="11" lengthAdjust="spacing" textLength="84" x="197" y="633.2705">void writeToFile()</text><!--MD5=[20f746540be94bb88eafd071c2d57044]
class WifiDriver--><rect codeLine="47" fill="#FEFECE" filter="url(#f1rgdugdrhn1my)" height="75.6719" id="WifiDriver" style="stroke:#A80036;stroke-width:1.5;" width="110" x="32" y="522.5"/><ellipse cx="58.7" cy="538.5" fill="#ADD1B2" rx="11" ry="11" style="stroke:#A80036;stroke-width:1.0;"/><path d="M61.4656,534.375 Q61.6219,534.1563 61.8094,534.0469 Q61.9969,533.9375 62.2156,533.9375 Q62.5906,533.9375 62.825,534.1953 Q63.0594,534.4531 63.0594,535.0625 L63.0594,536.5156 Q63.0594,537.125 62.825,537.3906 Q62.5906,537.6563 62.2156,537.6563 Q61.8719,537.6563 61.6688,537.4531 Q61.4656,537.2656 61.3563,536.75 Q61.3094,536.3906 61.1219,536.2031 Q60.7938,535.8281 60.1844,535.6094 Q59.575,535.3906 58.95,535.3906 Q58.1844,535.3906 57.5516,535.7188 Q56.9188,536.0469 56.4266,536.7969 Q55.9344,537.5469 55.9344,538.5781 L55.9344,539.6719 Q55.9344,540.9063 56.825,541.7266 Q57.7156,542.5469 59.3094,542.5469 Q60.2469,542.5469 60.9031,542.2969 Q61.2938,542.1406 61.7156,541.7031 Q61.9813,541.4375 62.1297,541.3594 Q62.2781,541.2813 62.4813,541.2813 Q62.8094,541.2813 63.0672,541.5391 Q63.325,541.7969 63.325,542.1406 Q63.325,542.4844 62.9813,542.8906 Q62.4813,543.4688 61.6844,543.7969 Q60.6063,544.25 59.3094,544.25 Q57.7938,544.25 56.5906,543.625 Q55.6063,543.125 54.9188,542.0547 Q54.2313,540.9844 54.2313,539.7031 L54.2313,538.5469 Q54.2313,537.2188 54.8484,536.0703 Q55.4656,534.9219 56.5594,534.3047 Q57.6531,533.6875 58.8875,533.6875 Q59.6219,533.6875 60.2703,533.8516 Q60.9188,534.0156 61.4656,534.375 Z " fill="#000000"/><text fill="#000000" font-family="sans-serif" font-size="12" lengthAdjust="spacing" textLength="52" x="75.3" y="543.4102">WifiDriver</text><line style="stroke:#A80036;stroke-width:1.5;" x1="33" x2="141" y1="554.5" y2="554.5"/><line style="stroke:#A80036;stroke-width:1.5;" x1="33" x2="141" y1="562.5" y2="562.5"/><rect fill="#F24D5C" height="6" style="stroke:#C82930;stroke-width:1.0;" width="6" x="40" y="570.5"/><text fill="#000000" font-family="sans-serif" font-size="11" lengthAdjust="spacing" textLength="70" x="52" y="577.9189">void connect()</text><rect fill="#F24D5C" height="6" style="stroke:#C82930;stroke-width:1.0;" width="6" x="40" y="584.3359"/><text fill="#000000" font-family="sans-serif" font-size="11" lengthAdjust="spacing" textLength="84" x="52" y="591.7549">void disconnect()</text><!--MD5=[123a1d09c24313992a8650e1506f75a8]
class UARTDriver--><rect codeLine="52" fill="#FEFECE" filter="url(#f1rgdugdrhn1my)" height="48" id="UARTDriver" style="stroke:#A80036;stroke-width:1.5;" width="96" x="133" y="863"/><ellipse cx="148" cy="879" fill="#ADD1B2" rx="11" ry="11" style="stroke:#A80036;stroke-width:1.0;"/><path d="M150.7656,874.875 Q150.9219,874.6563 151.1094,874.5469 Q151.2969,874.4375 151.5156,874.4375 Q151.8906,874.4375 152.125,874.6953 Q152.3594,874.9531 152.3594,875.5625 L152.3594,877.0156 Q152.3594,877.625 152.125,877.8906 Q151.8906,878.1563 151.5156,878.1563 Q151.1719,878.1563 150.9688,877.9531 Q150.7656,877.7656 150.6563,877.25 Q150.6094,876.8906 150.4219,876.7031 Q150.0938,876.3281 149.4844,876.1094 Q148.875,875.8906 148.25,875.8906 Q147.4844,875.8906 146.8516,876.2188 Q146.2188,876.5469 145.7266,877.2969 Q145.2344,878.0469 145.2344,879.0781 L145.2344,880.1719 Q145.2344,881.4063 146.125,882.2266 Q147.0156,883.0469 148.6094,883.0469 Q149.5469,883.0469 150.2031,882.7969 Q150.5938,882.6406 151.0156,882.2031 Q151.2813,881.9375 151.4297,881.8594 Q151.5781,881.7813 151.7813,881.7813 Q152.1094,881.7813 152.3672,882.0391 Q152.625,882.2969 152.625,882.6406 Q152.625,882.9844 152.2813,883.3906 Q151.7813,883.9688 150.9844,884.2969 Q149.9063,884.75 148.6094,884.75 Q147.0938,884.75 145.8906,884.125 Q144.9063,883.625 144.2188,882.5547 Q143.5313,881.4844 143.5313,880.2031 L143.5313,879.0469 Q143.5313,877.7188 144.1484,876.5703 Q144.7656,875.4219 145.8594,874.8047 Q146.9531,874.1875 148.1875,874.1875 Q148.9219,874.1875 149.5703,874.3516 Q150.2188,874.5156 150.7656,874.875 Z " fill="#000000"/><text fill="#000000" font-family="sans-serif" font-size="12" lengthAdjust="spacing" textLength="64" x="162" y="883.9102">UARTDriver</text><line style="stroke:#A80036;stroke-width:1.5;" x1="134" x2="228" y1="895" y2="895"/><line style="stroke:#A80036;stroke-width:1.5;" x1="134" x2="228" y1="903" y2="903"/><!--MD5=[5ad4cd9c7bfe258d69f010f77acf2a05]
class IUARTDriver--><rect codeLine="56" fill="#FEFECE" filter="url(#f1rgdugdrhn1my)" height="103.3438" id="IUARTDriver" style="stroke:#A80036;stroke-width:1.5;" width="102" x="130" y="700"/><ellipse cx="145" cy="716" fill="#B4A7E5" rx="11" ry="11" style="stroke:#A80036;stroke-width:1.0;"/><path d="M145.9531,712.6406 L145.9531,719.2969 L147.6719,719.2969 Q148.2813,719.2969 148.5469,719.5313 Q148.8125,719.7656 148.8125,720.1563 Q148.8125,720.5313 148.5469,720.7656 Q148.2813,721 147.6719,721 L142.5313,721 Q141.9219,721 141.6563,720.7656 Q141.3906,720.5313 141.3906,720.1406 Q141.3906,719.7656 141.6563,719.5313 Q141.9219,719.2969 142.5313,719.2969 L144.25,719.2969 L144.25,712.6406 L142.5313,712.6406 Q141.9219,712.6406 141.6563,712.4063 Q141.3906,712.1719 141.3906,711.7813 Q141.3906,711.4063 141.6563,711.1719 Q141.9219,710.9375 142.5313,710.9375 L147.6719,710.9375 Q148.2813,710.9375 148.5469,711.1719 Q148.8125,711.4063 148.8125,711.7813 Q148.8125,712.1719 148.5469,712.4063 Q148.2813,712.6406 147.6719,712.6406 L145.9531,712.6406 Z " fill="#000000"/><text fill="#000000" font-family="sans-serif" font-size="12" font-style="italic" lengthAdjust="spacing" textLength="70" x="159" y="720.9102">IUARTDriver</text><line style="stroke:#A80036;stroke-width:1.5;" x1="131" x2="231" y1="732" y2="732"/><line style="stroke:#A80036;stroke-width:1.5;" x1="131" x2="231" y1="740" y2="740"/><ellipse cx="141" cy="751" fill="#84BE84" rx="3" ry="3" style="stroke:#038048;stroke-width:1.0;"/><text fill="#000000" font-family="sans-serif" font-size="11" lengthAdjust="spacing" textLength="55" x="150" y="755.4189">void open()</text><ellipse cx="141" cy="764.8359" fill="#84BE84" rx="3" ry="3" style="stroke:#038048;stroke-width:1.0;"/><text fill="#000000" font-family="sans-serif" font-size="11" lengthAdjust="spacing" textLength="57" x="150" y="769.2549">void close()</text><ellipse cx="141" cy="778.6719" fill="#84BE84" rx="3" ry="3" style="stroke:#038048;stroke-width:1.0;"/><text fill="#000000" font-family="sans-serif" font-size="11" lengthAdjust="spacing" textLength="53" x="150" y="783.0908">void read()</text><ellipse cx="141" cy="792.5078" fill="#84BE84" rx="3" ry="3" style="stroke:#038048;stroke-width:1.0;"/><text fill="#000000" font-family="sans-serif" font-size="11" lengthAdjust="spacing" textLength="56" x="150" y="796.9268">void write()</text><!--MD5=[47e36bb1d439a10de725a510f990373f]
reverse link IMeasurementObserver to SDCardStorage--><path codeLine="65" d="M200.41,110.69 C208.01,172.12 221.66,282.46 228.25,335.67 " fill="none" id="IMeasurementObserver-backto-SDCardStorage" style="stroke:#A80036;stroke-width:1.0;"/><polygon fill="none" points="193.41,111.17,197.9,90.46,207.31,109.45,193.41,111.17" style="stroke:#A80036;stroke-width:1.0;"/><!--MD5=[5f4ef3f13b4d0962886b76fa896802bb]
reverse link IMeasurementObserver to UARTStorage--><path codeLine="66" d="M226.77,106.32 C230.4,111.47 233.91,116.78 237,122 C273.37,183.48 264.86,207.98 302,269 C318.52,296.13 341.78,324.09 358.6,342.98 " fill="none" id="IMeasurementObserver-backto-UARTStorage" style="stroke:#A80036;stroke-width:1.0;"/><polygon fill="none" points="221.09,110.43,214.68,90.23,232.29,102.02,221.09,110.43" style="stroke:#A80036;stroke-width:1.0;"/><!--MD5=[c11083eb8d0003e347b3ed9c89d37092]
reverse link IMeasurementObserver to WifiStorage--><path codeLine="67" d="M180.08,109.49 C159.45,168.22 122.57,273.26 103.01,328.96 " fill="none" id="IMeasurementObserver-backto-WifiStorage" style="stroke:#A80036;stroke-width:1.0;"/><polygon fill="none" points="173.53,107.01,186.76,90.46,186.74,111.65,173.53,107.01" style="stroke:#A80036;stroke-width:1.0;"/><!--MD5=[cec09b1c5fbaf5c9ed1eb16ae86abc48]
reverse link IStorage to WifiStorage--><path codeLine="69" d="M301.43,252.19 C259.25,273.75 203.67,302.54 155,329 C149.41,332.04 143.58,335.27 137.8,338.51 " fill="none" id="IStorage-backto-WifiStorage" style="stroke:#A80036;stroke-width:1.0;"/><polygon fill="none" points="298.5,245.83,319.5,242.98,304.86,258.3,298.5,245.83" style="stroke:#A80036;stroke-width:1.0;"/><!--MD5=[c337b72e48a7b8615da23c5fd41699f5]
reverse link IStorage to SDCardStorage--><path codeLine="70" d="M307.46,284.15 C290.84,302.18 273.62,320.86 259.83,335.81 " fill="none" id="IStorage-backto-SDCardStorage" style="stroke:#A80036;stroke-width:1.0;"/><polygon fill="none" points="302.49,279.22,321.2,269.26,312.79,288.71,302.49,279.22" style="stroke:#A80036;stroke-width:1.0;"/><!--MD5=[2b1cc75c4a09291f91ed8ab054efcaa5]
reverse link IStorage to UARTStorage--><path codeLine="71" d="M373.77,289.46 C375.34,308.76 376.93,328.32 378.12,342.84 " fill="none" id="IStorage-backto-UARTStorage" style="stroke:#A80036;stroke-width:1.0;"/><polygon fill="none" points="366.77,289.76,372.13,269.26,380.73,288.63,366.77,289.76" style="stroke:#A80036;stroke-width:1.0;"/><!--MD5=[24ea1a3a1c99c02c467f2545e0ecae49]
reverse link SDCardStorage to SDCardDriver--><path codeLine="73" d="M236.54,411.44 C238.69,432.01 241.32,457.22 243.8,480.97 " fill="none" id="SDCardStorage-backto-SDCardDriver" style="stroke:#A80036;stroke-width:1.0;"/><polygon fill="#A80036" points="235.17,398.34,231.8183,404.7248,236.4228,410.2744,239.7745,403.8896,235.17,398.34" style="stroke:#A80036;stroke-width:1.0;"/><!--MD5=[2dc7e96a9887d6a9972754472472160a]
reverse link WifiStorage to WifiDriver--><path codeLine="74" d="M89.21,418.7 C88.7,451.22 88.05,492.72 87.58,522.22 " fill="none" id="WifiStorage-backto-WifiDriver" style="stroke:#A80036;stroke-width:1.0;"/><polygon fill="#A80036" points="89.41,405.38,85.3117,411.3133,89.2122,417.3784,93.3106,411.4451,89.41,405.38" style="stroke:#A80036;stroke-width:1.0;"/><!--MD5=[6075ec76974c3c169267b7e4a943c861]
link UARTStorage to IUARTDriver--><path codeLine="76" d="M383.05,391.21 C388.37,440.94 394.51,559.78 345,640 C318.86,682.36 269.71,712.19 232.01,730.09 " fill="none" id="UARTStorage-IUARTDriver" style="stroke:#A80036;stroke-width:1.0;"/><!--MD5=[c740dfa57a634bb2617d93e52ab01122]
link WifiDriver to IUARTDriver--><path codeLine="77" d="M105.57,598.84 C119.96,627.78 140.05,668.17 155.88,700 " fill="none" id="WifiDriver-IUARTDriver" style="stroke:#A80036;stroke-width:1.0;"/><!--MD5=[3834341bb3b38364c986710f142f2b8f]
reverse link IUARTDriver to UARTDriver--><path codeLine="78" d="M181,823.41 C181,837.68 181,851.69 181,862.83 " fill="none" id="IUARTDriver-backto-UARTDriver" style="stroke:#A80036;stroke-width:1.0;"/><polygon fill="none" points="174,823.35,181,803.35,188,823.35,174,823.35" style="stroke:#A80036;stroke-width:1.0;"/><!--MD5=[f712e485b79554483f3ca26ebe51679e]
@startuml

package BusinessLogic {

     interface IMeasurementObserver
}

package Device {
    interface IStorage {
        +void init()
        +void deinit()
        +void write()
        -void serialize()
    }
/'
   note right of WifiStorage
    ESP8266MOD has only Wifi support.
    In future it would be possible 
    to use ESP32 that has also Bloototh.
    end note
'/
    class WifiStorage {
        -login
        -password
    }

    class SDCardStorage {
        -fileName
    }

    class UARTStorage {
    }
}

package Driver {
    class SDCardDriver {
        -void mountFileSystem()
        -void unmountFileSystem()
        -void openFile()
        -void closeFile()
        -void sync()
        -void writeToFile()

        - fileSystemHandler
        - logFileHandler
    }

    class WifiDriver {
        -void connect()
        -void disconnect()
    }

    class UARTDriver {

    }

    interface IUARTDriver {
        +void open()
        +void close()
        +void read()
        +void write()
    }
}


IMeasurementObserver <|- - - SDCardStorage
IMeasurementObserver <|- - UARTStorage
IMeasurementObserver <|- - WifiStorage

IStorage <|- - WifiStorage
IStorage <|- - SDCardStorage
IStorage <|- - UARTStorage

SDCardStorage *- - SDCardDriver
WifiStorage *- - WifiDriver

UARTStorage - - IUARTDriver
WifiDriver - - IUARTDriver
IUARTDriver <|- - UARTDriver


@enduml

@startuml

package BusinessLogic {

     interface IMeasurementObserver
}

package Device {
    interface IStorage {
        +void init()
        +void deinit()
        +void write()
        -void serialize()
    }
    class WifiStorage {
        -login
        -password
    }

    class SDCardStorage {
        -fileName
    }

    class UARTStorage {
    }
}

package Driver {
    class SDCardDriver {
        -void mountFileSystem()
        -void unmountFileSystem()
        -void openFile()
        -void closeFile()
        -void sync()
        -void writeToFile()

        - fileSystemHandler
        - logFileHandler
    }

    class WifiDriver {
        -void connect()
        -void disconnect()
    }

    class UARTDriver {

    }

    interface IUARTDriver {
        +void open()
        +void close()
        +void read()
        +void write()
    }
}


IMeasurementObserver <|- - - SDCardStorage
IMeasurementObserver <|- - UARTStorage
IMeasurementObserver <|- - WifiStorage

IStorage <|- - WifiStorage
IStorage <|- - SDCardStorage
IStorage <|- - UARTStorage

SDCardStorage *- - SDCardDriver
WifiStorage *- - WifiDriver

UARTStorage - - IUARTDriver
WifiDriver - - IUARTDriver
IUARTDriver <|- - UARTDriver


@enduml

PlantUML version 1.2021.7(Sun May 23 14:40:07 CEST 2021)
(GPL source distribution)
Java Runtime: Java(TM) SE Runtime Environment
JVM: Java HotSpot(TM) 64-Bit Server VM
Default Encoding: Cp1250
Language: fr
Country: FR
--></g></svg>