<?xml version="1.0" encoding="UTF-8" standalone="no"?><svg xmlns="http://www.w3.org/2000/svg" xmlns:xlink="http://www.w3.org/1999/xlink" contentScriptType="application/ecmascript" contentStyleType="text/css" height="1202px" preserveAspectRatio="none" style="width:1475px;height:1202px;background:#FFFFFF;" version="1.1" viewBox="0 0 1475 1202" width="1475px" zoomAndPan="magnify"><defs><filter height="300%" id="fbv8sw5sgxrst" width="300%" x="-1" y="-1"><feGaussianBlur result="blurOut" stdDeviation="2.0"/><feColorMatrix in="blurOut" result="blurOut2" type="matrix" values="0 0 0 0 0 0 0 0 0 0 0 0 0 0 0 0 0 0 .4 0"/><feOffset dx="4.0" dy="4.0" in="blurOut2" result="blurOut3"/><feBlend in="SourceGraphic" in2="blurOut3" mode="normal"/></filter></defs><g><!--MD5=[c84e5448ccbdf6d8b871d2121be37f24]
cluster Data Logger--><polygon fill="#FFFFFF" filter="url(#fbv8sw5sgxrst)" points="16,141,26,131,1276,131,1276,584,1266,594,16,594,16,141" style="stroke:#000000;stroke-width:1.5;"/><line style="stroke:#000000;stroke-width:1.5;" x1="1266" x2="1276" y1="141" y2="131"/><line style="stroke:#000000;stroke-width:1.5;" x1="16" x2="1266" y1="141" y2="141"/><line style="stroke:#000000;stroke-width:1.5;" x1="1266" x2="1266" y1="141" y2="594"/><text fill="#000000" font-family="sans-serif" font-size="14" font-weight="bold" lengthAdjust="spacing" textLength="85" x="599.5" y="158.5332">Data Logger</text><!--MD5=[5ec5196b008ff820944bbdb125288ee7]
cluster Data Logger Shield--><polygon fill="#FFFFFF" filter="url(#fbv8sw5sgxrst)" points="40,190,50,180,1252,180,1252,438,1242,448,40,448,40,190" style="stroke:#000000;stroke-width:1.5;"/><line style="stroke:#000000;stroke-width:1.5;" x1="1242" x2="1252" y1="190" y2="180"/><line style="stroke:#000000;stroke-width:1.5;" x1="40" x2="1242" y1="190" y2="190"/><line style="stroke:#000000;stroke-width:1.5;" x1="1242" x2="1242" y1="190" y2="448"/><text fill="#000000" font-family="sans-serif" font-size="14" font-weight="bold" lengthAdjust="spacing" textLength="133" x="575.5" y="207.5332">Data Logger Shield</text><!--MD5=[8bef4341f1253c5201e45d6f2c9ec406]
cluster Acquisition--><polygon fill="#FFFFFF" filter="url(#fbv8sw5sgxrst)" points="812,296.5,822,286.5,1147,286.5,1147,381.5,1137,391.5,812,391.5,812,296.5" style="stroke:#000000;stroke-width:1.5;"/><line style="stroke:#000000;stroke-width:1.5;" x1="1137" x2="1147" y1="296.5" y2="286.5"/><line style="stroke:#000000;stroke-width:1.5;" x1="812" x2="1137" y1="296.5" y2="296.5"/><line style="stroke:#000000;stroke-width:1.5;" x1="1137" x2="1137" y1="296.5" y2="391.5"/><text fill="#000000" font-family="sans-serif" font-size="14" font-weight="bold" lengthAdjust="spacing" textLength="78" x="936.5" y="314.0332">Acquisition</text><!--MD5=[3b19ec0ec461c069876295abe3226569]
cluster HMI--><polygon fill="#FFFFFF" filter="url(#fbv8sw5sgxrst)" points="304,239,314,229,788,229,788,414,778,424,304,424,304,239" style="stroke:#000000;stroke-width:1.5;"/><line style="stroke:#000000;stroke-width:1.5;" x1="778" x2="788" y1="239" y2="229"/><line style="stroke:#000000;stroke-width:1.5;" x1="304" x2="778" y1="239" y2="239"/><line style="stroke:#000000;stroke-width:1.5;" x1="778" x2="778" y1="239" y2="424"/><text fill="#000000" font-family="sans-serif" font-size="14" font-weight="bold" lengthAdjust="spacing" textLength="27" x="528.5" y="256.5332">HMI</text><!--MD5=[ed46b4808add2024d10e4c648e11b3c9]
cluster LCD--><polygon fill="#FFFFFF" filter="url(#fbv8sw5sgxrst)" points="449,288,459,278,764,278,764,390,754,400,449,400,449,288" style="stroke:#000000;stroke-width:1.5;"/><line style="stroke:#000000;stroke-width:1.5;" x1="754" x2="764" y1="288" y2="278"/><line style="stroke:#000000;stroke-width:1.5;" x1="449" x2="754" y1="288" y2="288"/><line style="stroke:#000000;stroke-width:1.5;" x1="754" x2="754" y1="288" y2="400"/><text fill="#000000" font-family="sans-serif" font-size="14" font-weight="bold" lengthAdjust="spacing" textLength="28" x="588.5" y="305.5332">LCD</text><!--MD5=[ea0843b34696690b45700dfbaf69f345]
cluster ESP8266MOD--><polygon fill="#FFFFFF" filter="url(#fbv8sw5sgxrst)" points="64,300,74,290,280,290,280,378,270,388,64,388,64,300" style="stroke:#000000;stroke-width:1.5;"/><line style="stroke:#000000;stroke-width:1.5;" x1="270" x2="280" y1="300" y2="290"/><line style="stroke:#000000;stroke-width:1.5;" x1="64" x2="270" y1="300" y2="300"/><line style="stroke:#000000;stroke-width:1.5;" x1="270" x2="270" y1="300" y2="388"/><text fill="#000000" font-family="sans-serif" font-size="14" font-weight="bold" lengthAdjust="spacing" textLength="93" x="121.5" y="317.5332">ESP8266MOD</text><!--MD5=[118efd4a5bf4a2e4501535ebf6b1885b]
cluster NUCLEO-F103RB--><polygon fill="#FFFFFF" filter="url(#fbv8sw5sgxrst)" points="568,482,578,472,806,472,806,560,796,570,568,570,568,482" style="stroke:#000000;stroke-width:1.5;"/><line style="stroke:#000000;stroke-width:1.5;" x1="796" x2="806" y1="482" y2="472"/><line style="stroke:#000000;stroke-width:1.5;" x1="568" x2="796" y1="482" y2="482"/><line style="stroke:#000000;stroke-width:1.5;" x1="796" x2="796" y1="482" y2="570"/><text fill="#000000" font-family="sans-serif" font-size="14" font-weight="bold" lengthAdjust="spacing" textLength="116" x="625" y="499.5332">NUCLEO-F103RB</text><!--MD5=[564ba78a7396de65640aa27c3a704b36]
cluster Raspberry Pi--><polygon fill="#FFFFFF" filter="url(#fbv8sw5sgxrst)" points="46,628,56,618,298,618,298,899.5,288,909.5,46,909.5,46,628" style="stroke:#000000;stroke-width:1.5;"/><line style="stroke:#000000;stroke-width:1.5;" x1="288" x2="298" y1="628" y2="618"/><line style="stroke:#000000;stroke-width:1.5;" x1="46" x2="288" y1="628" y2="628"/><line style="stroke:#000000;stroke-width:1.5;" x1="288" x2="288" y1="628" y2="909.5"/><text fill="#000000" font-family="sans-serif" font-size="14" font-weight="bold" lengthAdjust="spacing" textLength="89" x="123.5" y="645.5332">Raspberry Pi</text><!--MD5=[efb5f6571720cd0fb549e42d7f5a3ea6]
cluster Web Server--><polygon fill="#FFFFFF" filter="url(#fbv8sw5sgxrst)" points="70,677,80,667,274,667,274,875.5,264,885.5,70,885.5,70,677" style="stroke:#000000;stroke-width:1.5;"/><line style="stroke:#000000;stroke-width:1.5;" x1="264" x2="274" y1="677" y2="667"/><line style="stroke:#000000;stroke-width:1.5;" x1="70" x2="264" y1="677" y2="677"/><line style="stroke:#000000;stroke-width:1.5;" x1="264" x2="264" y1="677" y2="885.5"/><text fill="#000000" font-family="sans-serif" font-size="14" font-weight="bold" lengthAdjust="spacing" textLength="83" x="126.5" y="694.5332">Web Server</text><!--MD5=[1d52098d75ca40af11db71f973bf1f30]
cluster Phone--><polygon fill="#FFFFFF" filter="url(#fbv8sw5sgxrst)" points="155,982,165,972,331,972,331,1060,321,1070,155,1070,155,982" style="stroke:#000000;stroke-width:1.5;"/><line style="stroke:#000000;stroke-width:1.5;" x1="321" x2="331" y1="982" y2="972"/><line style="stroke:#000000;stroke-width:1.5;" x1="155" x2="321" y1="982" y2="982"/><line style="stroke:#000000;stroke-width:1.5;" x1="321" x2="321" y1="982" y2="1070"/><text fill="#000000" font-family="sans-serif" font-size="14" font-weight="bold" lengthAdjust="spacing" textLength="45" x="216.5" y="999.5332">Phone</text><!--MD5=[2bccc21b798285870d05846ed6d5d74b]
cluster Local_Computer--><polygon fill="#FFFFFF" filter="url(#fbv8sw5sgxrst)" points="591,677,601,667,783,667,783,755,773,765,591,765,591,677" style="stroke:#000000;stroke-width:1.5;"/><line style="stroke:#000000;stroke-width:1.5;" x1="773" x2="783" y1="677" y2="667"/><line style="stroke:#000000;stroke-width:1.5;" x1="591" x2="773" y1="677" y2="677"/><line style="stroke:#000000;stroke-width:1.5;" x1="773" x2="773" y1="677" y2="765"/><text fill="#000000" font-family="sans-serif" font-size="14" font-weight="bold" lengthAdjust="spacing" textLength="114" x="626" y="694.5332">Local_Computer</text><!--MD5=[c3b61c15d375f7c900f7f880f3809b89]
entity SDCard--><rect fill="#FEFECE" filter="url(#fbv8sw5sgxrst)" height="37.6094" rx="35" ry="35" style="stroke:#000000;stroke-width:1.5;" width="70" x="1166" y="332.5"/><text fill="#000000" font-family="sans-serif" font-size="14" lengthAdjust="spacing" textLength="50" x="1176" y="357.0332">SDCard</text><!--MD5=[2e08fca00d1d65c9936563a9243ee546]
entity Pulse_Counter--><polygon fill="#FEFECE" filter="url(#fbv8sw5sgxrst)" points="828,337.5,838,327.5,958,327.5,958,365.1094,948,375.1094,828,375.1094,828,337.5" style="stroke:#000000;stroke-width:1.5;"/><line style="stroke:#000000;stroke-width:1.5;" x1="948" x2="958" y1="337.5" y2="327.5"/><line style="stroke:#000000;stroke-width:1.5;" x1="828" x2="948" y1="337.5" y2="337.5"/><line style="stroke:#000000;stroke-width:1.5;" x1="948" x2="948" y1="337.5" y2="375.1094"/><text fill="#000000" font-family="sans-serif" font-size="14" lengthAdjust="spacing" textLength="90" x="843" y="362.0332">Pulse Counter</text><!--MD5=[989ac8bfdba0a8b1b13055334066c116]
entity UART_Receiver--><polygon fill="#FEFECE" filter="url(#fbv8sw5sgxrst)" points="993.5,337.5,1003.5,327.5,1130.5,327.5,1130.5,365.1094,1120.5,375.1094,993.5,375.1094,993.5,337.5" style="stroke:#000000;stroke-width:1.5;"/><line style="stroke:#000000;stroke-width:1.5;" x1="1120.5" x2="1130.5" y1="337.5" y2="327.5"/><line style="stroke:#000000;stroke-width:1.5;" x1="993.5" x2="1120.5" y1="337.5" y2="337.5"/><line style="stroke:#000000;stroke-width:1.5;" x1="1120.5" x2="1120.5" y1="337.5" y2="375.1094"/><text fill="#000000" font-family="sans-serif" font-size="14" lengthAdjust="spacing" textLength="97" x="1008.5" y="362.0332">UART Receiver</text><!--MD5=[fb474a65459f7c6e90680d615206be56]
entity Keyboard--><polygon fill="#FEFECE" filter="url(#fbv8sw5sgxrst)" points="320.5,329,330.5,319,429.5,319,429.5,374.2188,419.5,384.2188,320.5,384.2188,320.5,329" style="stroke:#000000;stroke-width:1.5;"/><line style="stroke:#000000;stroke-width:1.5;" x1="419.5" x2="429.5" y1="329" y2="319"/><line style="stroke:#000000;stroke-width:1.5;" x1="320.5" x2="419.5" y1="329" y2="329"/><line style="stroke:#000000;stroke-width:1.5;" x1="419.5" x2="419.5" y1="329" y2="384.2188"/><text fill="#000000" font-family="sans-serif" font-size="14" lengthAdjust="spacing" textLength="61" x="335.5" y="353.5332">Keyboard</text><text fill="#000000" font-family="sans-serif" font-size="14" lengthAdjust="spacing" textLength="69" x="335.5" y="371.1426">(4 buttons)</text><!--MD5=[b8a228d8f6a684f3a72a432aeee7965c]
entity ST7735_LCD--><polygon fill="#FEFECE" filter="url(#fbv8sw5sgxrst)" points="626,337.5,636,327.5,748,327.5,748,365.1094,738,375.1094,626,375.1094,626,337.5" style="stroke:#000000;stroke-width:1.5;"/><line style="stroke:#000000;stroke-width:1.5;" x1="738" x2="748" y1="337.5" y2="327.5"/><line style="stroke:#000000;stroke-width:1.5;" x1="626" x2="738" y1="337.5" y2="337.5"/><line style="stroke:#000000;stroke-width:1.5;" x1="738" x2="738" y1="337.5" y2="375.1094"/><text fill="#000000" font-family="sans-serif" font-size="14" lengthAdjust="spacing" textLength="82" x="641" y="362.0332">ST7735 LCD</text><!--MD5=[e17cc600ee76ce8518e62648c425e612]
entity Ambient_Light_Level_Sensor--><polygon fill="#FEFECE" filter="url(#fbv8sw5sgxrst)" points="465,329,475,319,591,319,591,374.2188,581,384.2188,465,384.2188,465,329" style="stroke:#000000;stroke-width:1.5;"/><line style="stroke:#000000;stroke-width:1.5;" x1="581" x2="591" y1="329" y2="319"/><line style="stroke:#000000;stroke-width:1.5;" x1="465" x2="581" y1="329" y2="329"/><line style="stroke:#000000;stroke-width:1.5;" x1="581" x2="581" y1="329" y2="384.2188"/><text fill="#000000" font-family="sans-serif" font-size="14" lengthAdjust="spacing" textLength="86" x="480" y="353.5332">Ambient Light</text><text fill="#000000" font-family="sans-serif" font-size="14" lengthAdjust="spacing" textLength="83" x="480" y="371.1426">Level Sensor</text><!--MD5=[25ffd2541b6cbdbea2a04cf66c0b2112]
entity Software_ESP8266MOD--><rect fill="#FEFECE" filter="url(#fbv8sw5sgxrst)" height="40.6094" style="stroke:#000000;stroke-width:1.5;" width="184" x="80" y="331"/><polygon fill="#FEFECE" points="247,336,247,350,259,350,259,342,253,336,247,336" style="stroke:#000000;stroke-width:1.5;"/><line style="stroke:#000000;stroke-width:1.5;" x1="253" x2="253" y1="336" y2="342"/><line style="stroke:#000000;stroke-width:1.5;" x1="259" x2="253" y1="342" y2="342"/><text fill="#000000" font-family="sans-serif" font-size="14" lengthAdjust="spacing" textLength="154" x="90" y="358.5332">Software/ESP8266MOD/</text><!--MD5=[256a2c06f286389d81078d64380e0cad]
entity Software_NUCLEO_F103RB--><rect fill="#FEFECE" filter="url(#fbv8sw5sgxrst)" height="40.6094" style="stroke:#000000;stroke-width:1.5;" width="206" x="584" y="513"/><polygon fill="#FEFECE" points="773,518,773,532,785,532,785,524,779,518,773,518" style="stroke:#000000;stroke-width:1.5;"/><line style="stroke:#000000;stroke-width:1.5;" x1="779" x2="779" y1="518" y2="524"/><line style="stroke:#000000;stroke-width:1.5;" x1="785" x2="779" y1="524" y2="524"/><text fill="#000000" font-family="sans-serif" font-size="14" lengthAdjust="spacing" textLength="176" x="594" y="540.5332">Software/NUCLEO-F103RB/</text><!--MD5=[526ed46c4144c194df4b5a01355132c5]
entity Software_Raspberry_Pi--><rect fill="#FEFECE" filter="url(#fbv8sw5sgxrst)" height="40.6094" style="stroke:#000000;stroke-width:1.5;" width="171" x="86.5" y="708"/><polygon fill="#FEFECE" points="240.5,713,240.5,727,252.5,727,252.5,719,246.5,713,240.5,713" style="stroke:#000000;stroke-width:1.5;"/><line style="stroke:#000000;stroke-width:1.5;" x1="246.5" x2="246.5" y1="713" y2="719"/><line style="stroke:#000000;stroke-width:1.5;" x1="252.5" x2="246.5" y1="719" y2="719"/><text fill="#000000" font-family="sans-serif" font-size="14" lengthAdjust="spacing" textLength="141" x="96.5" y="735.5332">Software/Raspberry Pi</text><!--MD5=[ba72416187da2a396e219ea5b5d73a26]
entity MongoDB--><rect fill="#FEFECE" filter="url(#fbv8sw5sgxrst)" height="37.6094" rx="35" ry="35" style="stroke:#000000;stroke-width:1.5;" width="82" x="108" y="831.5"/><text fill="#000000" font-family="sans-serif" font-size="14" lengthAdjust="spacing" textLength="62" x="118" y="856.0332">MongoDB</text><!--MD5=[11a352031886fb50496347fb344c07ce]
entity Phone_App--><rect fill="#FEFECE" filter="url(#fbv8sw5sgxrst)" height="40.6094" style="stroke:#000000;stroke-width:1.5;" width="144" x="171" y="1013"/><polygon fill="#FEFECE" points="298,1018,298,1032,310,1032,310,1024,304,1018,298,1018" style="stroke:#000000;stroke-width:1.5;"/><line style="stroke:#000000;stroke-width:1.5;" x1="304" x2="304" y1="1018" y2="1024"/><line style="stroke:#000000;stroke-width:1.5;" x1="310" x2="304" y1="1024" y2="1024"/><text fill="#000000" font-family="sans-serif" font-size="14" lengthAdjust="spacing" textLength="114" x="181" y="1040.5332">Phone Application</text><!--MD5=[fb55ec6e11118e49e3cb3765d4884c93]
entity Local_Computer_App--><rect fill="#FEFECE" filter="url(#fbv8sw5sgxrst)" height="40.6094" style="stroke:#000000;stroke-width:1.5;" width="159" x="607.5" y="708"/><polygon fill="#FEFECE" points="749.5,713,749.5,727,761.5,727,761.5,719,755.5,713,749.5,713" style="stroke:#000000;stroke-width:1.5;"/><line style="stroke:#000000;stroke-width:1.5;" x1="755.5" x2="755.5" y1="713" y2="719"/><line style="stroke:#000000;stroke-width:1.5;" x1="761.5" x2="755.5" y1="719" y2="719"/><text fill="#000000" font-family="sans-serif" font-size="14" lengthAdjust="spacing" textLength="129" x="617.5" y="735.5332">Local Computer App</text><!--MD5=[fd52bdcc5124930ba6334ffbe75b21b8]
entity Local_User--><ellipse cx="687" cy="818.5" fill="#FEFECE" filter="url(#fbv8sw5sgxrst)" rx="8" ry="8" style="stroke:#A80036;stroke-width:1.5;"/><path d="M687,826.5 L687,853.5 M674,834.5 L700,834.5 M687,853.5 L674,868.5 M687,853.5 L700,868.5 " fill="none" filter="url(#fbv8sw5sgxrst)" style="stroke:#A80036;stroke-width:1.5;"/><text fill="#000000" font-family="sans-serif" font-size="14" lengthAdjust="spacing" textLength="67" x="653.5" y="888.5332">Local User</text><!--MD5=[7da7ceaa3075270e69e8ea9ba38bcd69]
entity Phone_User--><ellipse cx="243" cy="1123.5" fill="#FEFECE" filter="url(#fbv8sw5sgxrst)" rx="8" ry="8" style="stroke:#A80036;stroke-width:1.5;"/><path d="M243,1131.5 L243,1158.5 M230,1139.5 L256,1139.5 M243,1158.5 L230,1173.5 M243,1158.5 L256,1173.5 " fill="none" filter="url(#fbv8sw5sgxrst)" style="stroke:#A80036;stroke-width:1.5;"/><text fill="#000000" font-family="sans-serif" font-size="14" lengthAdjust="spacing" textLength="74" x="206" y="1193.5332">Phone User</text><!--MD5=[21e16af7497a16ab167df6be07f06c10]
entity Meassurement_Device_1--><polygon fill="#FEFECE" filter="url(#fbv8sw5sgxrst)" points="328,16,338,6,526,6,526,43.6094,516,53.6094,328,53.6094,328,16" style="stroke:#000000;stroke-width:1.5;"/><line style="stroke:#000000;stroke-width:1.5;" x1="516" x2="526" y1="16" y2="6"/><line style="stroke:#000000;stroke-width:1.5;" x1="328" x2="516" y1="16" y2="16"/><line style="stroke:#000000;stroke-width:1.5;" x1="516" x2="516" y1="16" y2="53.6094"/><text fill="#000000" font-family="sans-serif" font-size="14" lengthAdjust="spacing" textLength="158" x="343" y="40.5332">Meassurement device #1</text><!--MD5=[7a2800a72a4f49f49e7a2cfe1e2d1ca6]
entity Meassurement_Device_2--><polygon fill="#FEFECE" filter="url(#fbv8sw5sgxrst)" points="561,16,571,6,759,6,759,43.6094,749,53.6094,561,53.6094,561,16" style="stroke:#000000;stroke-width:1.5;"/><line style="stroke:#000000;stroke-width:1.5;" x1="749" x2="759" y1="16" y2="6"/><line style="stroke:#000000;stroke-width:1.5;" x1="561" x2="749" y1="16" y2="16"/><line style="stroke:#000000;stroke-width:1.5;" x1="749" x2="749" y1="16" y2="53.6094"/><text fill="#000000" font-family="sans-serif" font-size="14" lengthAdjust="spacing" textLength="158" x="576" y="40.5332">Meassurement device #2</text><!--MD5=[f3c2622db36c2f7c9d9a3b30fe0dc666]
entity Meassurement_Device_3--><polygon fill="#FEFECE" filter="url(#fbv8sw5sgxrst)" points="794,16,804,6,992,6,992,43.6094,982,53.6094,794,53.6094,794,16" style="stroke:#000000;stroke-width:1.5;"/><line style="stroke:#000000;stroke-width:1.5;" x1="982" x2="992" y1="16" y2="6"/><line style="stroke:#000000;stroke-width:1.5;" x1="794" x2="982" y1="16" y2="16"/><line style="stroke:#000000;stroke-width:1.5;" x1="982" x2="982" y1="16" y2="53.6094"/><text fill="#000000" font-family="sans-serif" font-size="14" lengthAdjust="spacing" textLength="158" x="809" y="40.5332">Meassurement device #3</text><!--MD5=[2c66db2b0022349bfb21f4be4c596bea]
entity Meassurement_Device_4--><polygon fill="#FEFECE" filter="url(#fbv8sw5sgxrst)" points="1027,16,1037,6,1225,6,1225,43.6094,1215,53.6094,1027,53.6094,1027,16" style="stroke:#000000;stroke-width:1.5;"/><line style="stroke:#000000;stroke-width:1.5;" x1="1215" x2="1225" y1="16" y2="6"/><line style="stroke:#000000;stroke-width:1.5;" x1="1027" x2="1215" y1="16" y2="16"/><line style="stroke:#000000;stroke-width:1.5;" x1="1215" x2="1215" y1="16" y2="53.6094"/><text fill="#000000" font-family="sans-serif" font-size="14" lengthAdjust="spacing" textLength="158" x="1042" y="40.5332">Meassurement device #4</text><!--MD5=[294c7524b6bc7e0218e5f80057cebdbf]
entity Meassurement_Device_5--><polygon fill="#FEFECE" filter="url(#fbv8sw5sgxrst)" points="1260,16,1270,6,1458,6,1458,43.6094,1448,53.6094,1260,53.6094,1260,16" style="stroke:#000000;stroke-width:1.5;"/><line style="stroke:#000000;stroke-width:1.5;" x1="1448" x2="1458" y1="16" y2="6"/><line style="stroke:#000000;stroke-width:1.5;" x1="1260" x2="1448" y1="16" y2="16"/><line style="stroke:#000000;stroke-width:1.5;" x1="1448" x2="1448" y1="16" y2="53.6094"/><text fill="#000000" font-family="sans-serif" font-size="14" lengthAdjust="spacing" textLength="158" x="1275" y="40.5332">Meassurement device #5</text><!--MD5=[84a93093244d0d0615d7cfc174644538]
link Meassurement_Device_1 to Pulse_Counter--><path d="M526.42,54.04 C618.79,76.1 744.91,108.16 764,123 C833.9,177.34 872.16,280.89 886.42,327.16 " fill="none" id="Meassurement_Device_1-Pulse_Counter" style="stroke:#A80036;stroke-width:1.0;"/><!--MD5=[9e1bbd85e9e9b77cf41b7a65b0b7cb35]
link Meassurement_Device_2 to Pulse_Counter--><path d="M691.15,54.03 C713.22,71.37 742.6,96.6 764,123 C818.75,190.54 863.78,284.34 882.99,327.32 " fill="none" id="Meassurement_Device_2-Pulse_Counter" style="stroke:#A80036;stroke-width:1.0;"/><!--MD5=[29e0f452c8f8b2edce39335e7d39ddcf]
link Meassurement_Device_3 to Pulse_Counter--><path d="M893,54.24 C893,113.25 893,268.43 893,327.35 " fill="none" id="Meassurement_Device_3-Pulse_Counter" style="stroke:#A80036;stroke-width:1.0;"/><!--MD5=[1e7a80f70bb41ea23e6c96066faab8f4]
link Meassurement_Device_4 to Pulse_Counter--><path d="M1069.93,54.11 C1038.54,69.54 1000.84,92.6 976,123 C924.65,185.83 903.55,283.23 896.28,327.36 " fill="none" id="Meassurement_Device_4-Pulse_Counter" style="stroke:#A80036;stroke-width:1.0;"/><!--MD5=[02f522c3127fe80e79f33d4e415d7c59]
link Meassurement_Device_5 to UART_Receiver--><path d="M1259.92,51.33 C1216.06,64.93 1167.03,87.16 1134,123 C1079.54,182.1 1066.27,282.28 1063.04,327.33 " fill="none" id="Meassurement_Device_5-UART_Receiver" style="stroke:#A80036;stroke-width:1.0;"/><!--MD5=[4ad9a0342e297acfa3e4bd745922e65b]
link SDCard to Software_NUCLEO_F103RB--><path d="M1196.83,370.78 C1190.4,394.46 1175.71,435.18 1147,456 C1091.45,496.28 907.8,516.75 790.04,525.99 " fill="none" id="SDCard-Software_NUCLEO_F103RB" style="stroke:#A80036;stroke-width:1.0;"/><!--MD5=[a2a14000b79a8bd1814cf498d1f84ca1]
link Software_ESP8266MOD to Software_NUCLEO_F103RB--><path d="M191.03,372.27 C215.06,396 258.76,435.19 304,456 C393.33,497.08 504.33,516.17 583.81,525 " fill="none" id="Software_ESP8266MOD-Software_NUCLEO_F103RB" style="stroke:#A80036;stroke-width:1.0;"/><!--MD5=[a56e149616aa206aa121a4db58ccc58e]
link Keyboard to Software_NUCLEO_F103RB--><path d="M390.61,384.31 C403.39,407.26 423.49,437.38 449,456 C488.53,484.85 539.4,503.13 583.96,514.55 " fill="none" id="Keyboard-Software_NUCLEO_F103RB" style="stroke:#A80036;stroke-width:1.0;"/><!--MD5=[e65349e75e92cf2504a26866eb607667]
link ST7735_LCD to Software_NUCLEO_F103RB--><path d="M687,375.66 C687,411.37 687,479.21 687,512.74 " fill="none" id="ST7735_LCD-Software_NUCLEO_F103RB" style="stroke:#A80036;stroke-width:1.0;"/><!--MD5=[0f6a002c9afb7a8e2613a27639a9a50c]
link Ambient_Light_Level_Sensor to Software_NUCLEO_F103RB--><path d="M550.68,384.23 C566.12,405.21 587.41,432.98 608,456 C626.2,476.35 648.72,497.83 665.05,512.84 " fill="none" id="Ambient_Light_Level_Sensor-Software_NUCLEO_F103RB" style="stroke:#A80036;stroke-width:1.0;"/><!--MD5=[a4b4d8d7e2ae45c5c2b59aaafd6defc6]
link Pulse_Counter to Software_NUCLEO_F103RB--><path d="M866.49,375.66 C825.63,411.37 747.98,479.21 709.62,512.74 " fill="none" id="Pulse_Counter-Software_NUCLEO_F103RB" style="stroke:#A80036;stroke-width:1.0;"/><!--MD5=[429e9ca2796c5cdf37a3904d2a61d402]
link UART_Receiver to Software_NUCLEO_F103RB--><path d="M1048.41,375.87 C1033.41,399.58 1007.1,435.62 975,456 C919.42,491.29 847.94,510.4 790.09,520.69 " fill="none" id="UART_Receiver-Software_NUCLEO_F103RB" style="stroke:#A80036;stroke-width:1.0;"/><!--MD5=[b37aa2db7d069c3c81e57ba319bc342f]
link Software_ESP8266MOD to Software_Raspberry_Pi--><path d="M172,372.13 C172,436.78 172,642.58 172,707.61 " fill="none" id="Software_ESP8266MOD-Software_Raspberry_Pi" style="stroke:#A80036;stroke-width:1.0;"/><!--MD5=[0b9c4262d5fccdcfb4d8920636233c7d]
link Software_Raspberry_Pi to MongoDB--><path d="M168.25,749.05 C163.9,771.76 156.77,808.95 152.52,831.14 " fill="none" id="Software_Raspberry_Pi-MongoDB" style="stroke:#A80036;stroke-width:1.0;"/><!--MD5=[c9c3d3a6dc5ced0b2aa663c3764514a0]
link Software_Raspberry_Pi to Phone_App--><path d="M182.38,749.22 C190.26,765 200.76,787.88 207,809 C228.71,882.5 238.23,973.71 241.54,1013 " fill="none" id="Software_Raspberry_Pi-Phone_App" style="stroke:#A80036;stroke-width:1.0;"/><!--MD5=[45136a88c3677eca7195383f4143e867]
link Software_NUCLEO_F103RB to Local_Computer_App--><path d="M687,554.07 C687,591.06 687,670.85 687,707.88 " fill="none" id="Software_NUCLEO_F103RB-Local_Computer_App" style="stroke:#A80036;stroke-width:1.0;"/><!--MD5=[655860e695e060274f1a8de00a89fe5f]
link Local_Computer_App to Local_User--><path d="M687,749.05 C687,765.12 687,788.44 687,808.57 " fill="none" id="Local_Computer_App-Local_User" style="stroke:#A80036;stroke-width:1.0;"/><!--MD5=[6b555967b05a0a56d4d64e0a08b0eb75]
link Phone_App to Phone_User--><path d="M243,1054.05 C243,1070.12 243,1093.44 243,1113.57 " fill="none" id="Phone_App-Phone_User" style="stroke:#A80036;stroke-width:1.0;"/><!--MD5=[efde9eef7dc1626cc868137a609c4338]
@startuml

actor Local_User [
    Local User
]

actor Phone_User [
    Phone User
]


node Meassurement_Device_1 [
    Meassurement device #1
]

node Meassurement_Device_2 [
    Meassurement device #2
]

node Meassurement_Device_3 [
    Meassurement device #3
]

node Meassurement_Device_4 [
    Meassurement device #4
]

node Meassurement_Device_5 [
    Meassurement device #5
]

node "Data Logger" {

    node "Data Logger Shield" {
        node Acquisition {
            node Pulse_Counter [
                Pulse Counter
            ]
            node UART_Receiver [
                UART Receiver
            ]
        }

        node HMI {
            node LCD {
                node ST7735_LCD [
                    ST7735 LCD
                ]
                node Ambient_Light_Level_Sensor [
                    Ambient Light
                    Level Sensor
                ]
            }
            node Keyboard [
                Keyboard
                (4 buttons)
            ]
        }

        node ESP8266MOD {
            artifact Software_ESP8266MOD [
                Software/ESP8266MOD/
            ]
        }

        storage SDCard
    }

    node "NUCLEO-F103RB" {
        artifact Software_NUCLEO_F103RB [
            Software/NUCLEO-F103RB/
        ]
    }
}

node "Raspberry Pi" {
    node  "Web Server" {
        artifact Software_Raspberry_Pi [
            Software/Raspberry Pi
        ]
        storage MongoDB
    }
}

node Phone {
    artifact Phone_App [
        Phone Application
    ]
}

node Local_Computer {
    artifact Local_Computer_App [
        Local Computer App
    ]
}



Meassurement_Device_1 - - - Pulse_Counter
Meassurement_Device_2 - - - Pulse_Counter
Meassurement_Device_3 - - - Pulse_Counter
Meassurement_Device_4 - - - Pulse_Counter
Meassurement_Device_5 - - - UART_Receiver

SDCard - - Software_NUCLEO_F103RB
Software_ESP8266MOD - - Software_NUCLEO_F103RB
Keyboard - - Software_NUCLEO_F103RB
ST7735_LCD - - Software_NUCLEO_F103RB
Ambient_Light_Level_Sensor - - Software_NUCLEO_F103RB
Pulse_Counter - - Software_NUCLEO_F103RB
UART_Receiver - - Software_NUCLEO_F103RB

Software_ESP8266MOD - - - Software_Raspberry_Pi
Software_Raspberry_Pi - - MongoDB
Software_Raspberry_Pi - - - - Phone_App

Software_NUCLEO_F103RB - - Local_Computer_App

Local_Computer_App - - Local_User
Phone_App - - Phone_User

@enduml

PlantUML version 1.2021.7(Sun May 23 14:40:07 CEST 2021)
(GPL source distribution)
Java Runtime: Java(TM) SE Runtime Environment
JVM: Java HotSpot(TM) 64-Bit Server VM
Default Encoding: Cp1250
Language: pl
Country: PL
--></g></svg>